G04 #@! TF.GenerationSoftware,KiCad,Pcbnew,8.0.3*
G04 #@! TF.CreationDate,2025-06-24T11:22:04+03:00*
G04 #@! TF.ProjectId,Camera_24-22_Pin,43616d65-7261-45f3-9234-2d32325f5069,rev?*
G04 #@! TF.SameCoordinates,Original*
G04 #@! TF.FileFunction,Copper,L2,Bot*
G04 #@! TF.FilePolarity,Positive*
%FSLAX46Y46*%
G04 Gerber Fmt 4.6, Leading zero omitted, Abs format (unit mm)*
G04 Created by KiCad (PCBNEW 8.0.3) date 2025-06-24 11:22:04*
%MOMM*%
%LPD*%
G01*
G04 APERTURE LIST*
G04 #@! TA.AperFunction,ComponentPad*
%ADD10C,1.600000*%
G04 #@! TD*
G04 #@! TA.AperFunction,ComponentPad*
%ADD11R,1.350000X1.350000*%
G04 #@! TD*
G04 #@! TA.AperFunction,ComponentPad*
%ADD12O,1.350000X1.350000*%
G04 #@! TD*
G04 #@! TA.AperFunction,ViaPad*
%ADD13C,0.400000*%
G04 #@! TD*
G04 #@! TA.AperFunction,ViaPad*
%ADD14C,0.500000*%
G04 #@! TD*
G04 #@! TA.AperFunction,Conductor*
%ADD15C,0.152400*%
G04 #@! TD*
G04 #@! TA.AperFunction,Conductor*
%ADD16C,0.508000*%
G04 #@! TD*
G04 APERTURE END LIST*
D10*
X175820000Y-86750000D03*
X151070000Y-90180000D03*
X154060000Y-90170000D03*
X183820000Y-86570000D03*
X151030000Y-87880000D03*
D11*
X188110000Y-103350000D03*
D12*
X188110000Y-105350000D03*
D10*
X162550000Y-87740000D03*
D11*
X184020000Y-105350000D03*
D12*
X184020000Y-103350000D03*
D13*
X177320000Y-81080000D03*
X154060000Y-81080000D03*
X160560000Y-81950000D03*
X183820000Y-81950000D03*
X183320000Y-81520000D03*
X160050000Y-81520000D03*
X153530000Y-80570000D03*
X176820000Y-80570000D03*
X162560000Y-82450000D03*
X185820000Y-82450000D03*
X162060000Y-79990000D03*
X162060000Y-78480000D03*
X182320000Y-84800000D03*
X171990000Y-106260000D03*
X173490000Y-106260000D03*
X167490000Y-102150000D03*
X159070000Y-85020000D03*
X176480000Y-106260000D03*
D14*
X174990000Y-102000000D03*
D13*
X156060000Y-85020000D03*
X170480000Y-106260000D03*
X168990000Y-106240000D03*
X180830000Y-84800000D03*
X154560000Y-85020000D03*
X177820000Y-84800000D03*
X186820000Y-84800000D03*
X153060000Y-85020000D03*
X163560000Y-84970000D03*
X179320000Y-84800000D03*
X157560000Y-85020000D03*
X176320000Y-84800000D03*
D15*
X177320000Y-81080000D02*
X154060000Y-81080000D01*
X160560000Y-81950000D02*
X183820000Y-81950000D01*
X183320000Y-81520000D02*
X160050000Y-81520000D01*
X176820000Y-80570000D02*
X153530000Y-80570000D01*
X185820000Y-82450000D02*
X165000000Y-82450000D01*
X165000000Y-82450000D02*
X162560000Y-82450000D01*
X162060000Y-78480000D02*
X162060000Y-79990000D01*
D16*
X184070000Y-103400000D02*
X188060000Y-103400000D01*
X184020000Y-103350000D02*
X184070000Y-103400000D01*
X188060000Y-103400000D02*
X188110000Y-103350000D01*
G04 #@! TA.AperFunction,Conductor*
G36*
X193218691Y-75029407D02*
G01*
X193254655Y-75078907D01*
X193259500Y-75109500D01*
X193259500Y-112150500D01*
X193240593Y-112208691D01*
X193191093Y-112244655D01*
X193160500Y-112249500D01*
X147039500Y-112249500D01*
X146981309Y-112230593D01*
X146945345Y-112181093D01*
X146940500Y-112150500D01*
X146940500Y-103349996D01*
X182989538Y-103349996D01*
X182989538Y-103350003D01*
X183009336Y-103551028D01*
X183009337Y-103551033D01*
X183067977Y-103744341D01*
X183067979Y-103744346D01*
X183163199Y-103922491D01*
X183274622Y-104058260D01*
X183291353Y-104078647D01*
X183291358Y-104078651D01*
X183377044Y-104148972D01*
X183410031Y-104200504D01*
X183406429Y-104261583D01*
X183367614Y-104308880D01*
X183315311Y-104324186D01*
X183315315Y-104324241D01*
X183315061Y-104324259D01*
X183314239Y-104324500D01*
X183311740Y-104324500D01*
X183277673Y-104329463D01*
X183243604Y-104334427D01*
X183138518Y-104385801D01*
X183055801Y-104468518D01*
X183004427Y-104573604D01*
X183004427Y-104573607D01*
X182994500Y-104641740D01*
X182994500Y-106058260D01*
X183001118Y-106103682D01*
X183004427Y-106126395D01*
X183055801Y-106231481D01*
X183055802Y-106231483D01*
X183138517Y-106314198D01*
X183192285Y-106340483D01*
X183243604Y-106365572D01*
X183243605Y-106365572D01*
X183243607Y-106365573D01*
X183311740Y-106375500D01*
X183311743Y-106375500D01*
X184728257Y-106375500D01*
X184728260Y-106375500D01*
X184796393Y-106365573D01*
X184901483Y-106314198D01*
X184984198Y-106231483D01*
X185035573Y-106126393D01*
X185045500Y-106058260D01*
X185045500Y-104641740D01*
X185035573Y-104573607D01*
X184984198Y-104468517D01*
X184901483Y-104385802D01*
X184860104Y-104365573D01*
X184796395Y-104334427D01*
X184769139Y-104330456D01*
X184728260Y-104324500D01*
X184728257Y-104324500D01*
X184725761Y-104324500D01*
X184725043Y-104324267D01*
X184724685Y-104324241D01*
X184724691Y-104324152D01*
X184667570Y-104305593D01*
X184631606Y-104256093D01*
X184631606Y-104194907D01*
X184662956Y-104148972D01*
X184690468Y-104126393D01*
X184748647Y-104078647D01*
X184765378Y-104058260D01*
X184779794Y-104040695D01*
X184831325Y-104007708D01*
X184856322Y-104004500D01*
X186991046Y-104004500D01*
X187049237Y-104023407D01*
X187085201Y-104072907D01*
X187089012Y-104089226D01*
X187094427Y-104126395D01*
X187127921Y-104194907D01*
X187145802Y-104231483D01*
X187228517Y-104314198D01*
X187275747Y-104337287D01*
X187319721Y-104379831D01*
X187330290Y-104440096D01*
X187303417Y-104495065D01*
X187298962Y-104499390D01*
X187237947Y-104555012D01*
X187106716Y-104728790D01*
X187106711Y-104728799D01*
X187009652Y-104923720D01*
X186959496Y-105100000D01*
X187794314Y-105100000D01*
X187789920Y-105104394D01*
X187737259Y-105195606D01*
X187710000Y-105297339D01*
X187710000Y-105402661D01*
X187737259Y-105504394D01*
X187789920Y-105595606D01*
X187794314Y-105600000D01*
X186959496Y-105600000D01*
X187009652Y-105776279D01*
X187106711Y-105971200D01*
X187106716Y-105971209D01*
X187237947Y-106144987D01*
X187398870Y-106291686D01*
X187398873Y-106291688D01*
X187584008Y-106406319D01*
X187584013Y-106406322D01*
X187787070Y-106484987D01*
X187859999Y-106498620D01*
X187860000Y-106498620D01*
X187860000Y-105665686D01*
X187864394Y-105670080D01*
X187955606Y-105722741D01*
X188057339Y-105750000D01*
X188162661Y-105750000D01*
X188264394Y-105722741D01*
X188355606Y-105670080D01*
X188360000Y-105665686D01*
X188360000Y-106498620D01*
X188432929Y-106484987D01*
X188635986Y-106406322D01*
X188635991Y-106406319D01*
X188821126Y-106291688D01*
X188821129Y-106291686D01*
X188982052Y-106144987D01*
X189113283Y-105971209D01*
X189113288Y-105971200D01*
X189210347Y-105776279D01*
X189260504Y-105600000D01*
X188425686Y-105600000D01*
X188430080Y-105595606D01*
X188482741Y-105504394D01*
X188510000Y-105402661D01*
X188510000Y-105297339D01*
X188482741Y-105195606D01*
X188430080Y-105104394D01*
X188425686Y-105100000D01*
X189260504Y-105100000D01*
X189210347Y-104923720D01*
X189113288Y-104728799D01*
X189113283Y-104728790D01*
X188982052Y-104555012D01*
X188921037Y-104499390D01*
X188890771Y-104446215D01*
X188897542Y-104385405D01*
X188938762Y-104340188D01*
X188944253Y-104337287D01*
X188991483Y-104314198D01*
X189074198Y-104231483D01*
X189125573Y-104126393D01*
X189135500Y-104058260D01*
X189135500Y-102641740D01*
X189125573Y-102573607D01*
X189074198Y-102468517D01*
X188991483Y-102385802D01*
X188991481Y-102385801D01*
X188886395Y-102334427D01*
X188859139Y-102330456D01*
X188818260Y-102324500D01*
X187401740Y-102324500D01*
X187367673Y-102329463D01*
X187333604Y-102334427D01*
X187228518Y-102385801D01*
X187145801Y-102468518D01*
X187094427Y-102573604D01*
X187094427Y-102573607D01*
X187087471Y-102621353D01*
X187084500Y-102641743D01*
X187084500Y-102696500D01*
X187065593Y-102754691D01*
X187016093Y-102790655D01*
X186985500Y-102795500D01*
X184938389Y-102795500D01*
X184880198Y-102776593D01*
X184861861Y-102759305D01*
X184748651Y-102621358D01*
X184748647Y-102621353D01*
X184690468Y-102573607D01*
X184592491Y-102493199D01*
X184414346Y-102397979D01*
X184414341Y-102397977D01*
X184221033Y-102339337D01*
X184221028Y-102339336D01*
X184020003Y-102319538D01*
X184019997Y-102319538D01*
X183818971Y-102339336D01*
X183818966Y-102339337D01*
X183625658Y-102397977D01*
X183625653Y-102397979D01*
X183447508Y-102493199D01*
X183291358Y-102621348D01*
X183291348Y-102621358D01*
X183163199Y-102777508D01*
X183067979Y-102955653D01*
X183067977Y-102955658D01*
X183009337Y-103148966D01*
X183009336Y-103148971D01*
X182989538Y-103349996D01*
X146940500Y-103349996D01*
X146940500Y-87880000D01*
X149874571Y-87880000D01*
X149894244Y-88092310D01*
X149952595Y-88297389D01*
X150047634Y-88488255D01*
X150176128Y-88658407D01*
X150246734Y-88722773D01*
X150333692Y-88802047D01*
X150333699Y-88802053D01*
X150413270Y-88851321D01*
X150514981Y-88914298D01*
X150595351Y-88945433D01*
X150642782Y-88984083D01*
X150658436Y-89043232D01*
X150636334Y-89100286D01*
X150595353Y-89130061D01*
X150554983Y-89145701D01*
X150554975Y-89145705D01*
X150373699Y-89257946D01*
X150373692Y-89257952D01*
X150216135Y-89401586D01*
X150216131Y-89401589D01*
X150216128Y-89401593D01*
X150216125Y-89401597D01*
X150087635Y-89571743D01*
X150087630Y-89571752D01*
X149992596Y-89762608D01*
X149934244Y-89967688D01*
X149934244Y-89967690D01*
X149914571Y-90180000D01*
X149934244Y-90392310D01*
X149992595Y-90597389D01*
X150087634Y-90788255D01*
X150216128Y-90958407D01*
X150216135Y-90958413D01*
X150373692Y-91102047D01*
X150373699Y-91102053D01*
X150477389Y-91166255D01*
X150554981Y-91214298D01*
X150753802Y-91291321D01*
X150963390Y-91330500D01*
X151176610Y-91330500D01*
X151386198Y-91291321D01*
X151585019Y-91214298D01*
X151766302Y-91102052D01*
X151923872Y-90958407D01*
X152052366Y-90788255D01*
X152147405Y-90597389D01*
X152205756Y-90392310D01*
X152225429Y-90180000D01*
X152224502Y-90170000D01*
X152904571Y-90170000D01*
X152924244Y-90382311D01*
X152947449Y-90463867D01*
X152982595Y-90587389D01*
X153077634Y-90778255D01*
X153206128Y-90948407D01*
X153217104Y-90958413D01*
X153363692Y-91092047D01*
X153363699Y-91092053D01*
X153379850Y-91102053D01*
X153544981Y-91204298D01*
X153743802Y-91281321D01*
X153953390Y-91320500D01*
X154166610Y-91320500D01*
X154376198Y-91281321D01*
X154575019Y-91204298D01*
X154756302Y-91092052D01*
X154913872Y-90948407D01*
X155042366Y-90778255D01*
X155137405Y-90587389D01*
X155195756Y-90382310D01*
X155215429Y-90170000D01*
X155195756Y-89957690D01*
X155137405Y-89752611D01*
X155042366Y-89561745D01*
X154913872Y-89391593D01*
X154767276Y-89257952D01*
X154756307Y-89247952D01*
X154756300Y-89247946D01*
X154575024Y-89135705D01*
X154575019Y-89135702D01*
X154376195Y-89058678D01*
X154166610Y-89019500D01*
X153953390Y-89019500D01*
X153743804Y-89058678D01*
X153544980Y-89135702D01*
X153544975Y-89135705D01*
X153363699Y-89247946D01*
X153363692Y-89247952D01*
X153206135Y-89391586D01*
X153206131Y-89391589D01*
X153206128Y-89391593D01*
X153206125Y-89391597D01*
X153077635Y-89561743D01*
X153077630Y-89561752D01*
X152982596Y-89752608D01*
X152924244Y-89957688D01*
X152904571Y-90170000D01*
X152224502Y-90170000D01*
X152205756Y-89967690D01*
X152147405Y-89762611D01*
X152052366Y-89571745D01*
X151923872Y-89401593D01*
X151869623Y-89352139D01*
X151766307Y-89257952D01*
X151766300Y-89257946D01*
X151585024Y-89145705D01*
X151585019Y-89145702D01*
X151585016Y-89145701D01*
X151504646Y-89114565D01*
X151457217Y-89075916D01*
X151441563Y-89016767D01*
X151463666Y-88959713D01*
X151504648Y-88929937D01*
X151545019Y-88914298D01*
X151726302Y-88802052D01*
X151883872Y-88658407D01*
X152012366Y-88488255D01*
X152107405Y-88297389D01*
X152165756Y-88092310D01*
X152185429Y-87880000D01*
X152172456Y-87740000D01*
X161394571Y-87740000D01*
X161414244Y-87952310D01*
X161472595Y-88157389D01*
X161567634Y-88348255D01*
X161696128Y-88518407D01*
X161696135Y-88518413D01*
X161853692Y-88662047D01*
X161853699Y-88662053D01*
X161957389Y-88726255D01*
X162034981Y-88774298D01*
X162233802Y-88851321D01*
X162443390Y-88890500D01*
X162656610Y-88890500D01*
X162866198Y-88851321D01*
X163065019Y-88774298D01*
X163246302Y-88662052D01*
X163403872Y-88518407D01*
X163532366Y-88348255D01*
X163627405Y-88157389D01*
X163685756Y-87952310D01*
X163705429Y-87740000D01*
X163685756Y-87527690D01*
X163627405Y-87322611D01*
X163532366Y-87131745D01*
X163403872Y-86961593D01*
X163276750Y-86845705D01*
X163246307Y-86817952D01*
X163246300Y-86817946D01*
X163136563Y-86750000D01*
X174664571Y-86750000D01*
X174684177Y-86961593D01*
X174684244Y-86962310D01*
X174742595Y-87167389D01*
X174837634Y-87358255D01*
X174966128Y-87528407D01*
X174966135Y-87528413D01*
X175123692Y-87672047D01*
X175123699Y-87672053D01*
X175201944Y-87720500D01*
X175304981Y-87784298D01*
X175503802Y-87861321D01*
X175713390Y-87900500D01*
X175926610Y-87900500D01*
X176136198Y-87861321D01*
X176335019Y-87784298D01*
X176516302Y-87672052D01*
X176673872Y-87528407D01*
X176802366Y-87358255D01*
X176897405Y-87167389D01*
X176955756Y-86962310D01*
X176975429Y-86750000D01*
X176958750Y-86570000D01*
X182664571Y-86570000D01*
X182679350Y-86729500D01*
X182684244Y-86782310D01*
X182742595Y-86987389D01*
X182837634Y-87178255D01*
X182966128Y-87348407D01*
X182966135Y-87348413D01*
X183123692Y-87492047D01*
X183123699Y-87492053D01*
X183181252Y-87527688D01*
X183304981Y-87604298D01*
X183503802Y-87681321D01*
X183713390Y-87720500D01*
X183926610Y-87720500D01*
X184136198Y-87681321D01*
X184335019Y-87604298D01*
X184516302Y-87492052D01*
X184673872Y-87348407D01*
X184802366Y-87178255D01*
X184897405Y-86987389D01*
X184955756Y-86782310D01*
X184975429Y-86570000D01*
X184955756Y-86357690D01*
X184897405Y-86152611D01*
X184802366Y-85961745D01*
X184673872Y-85791593D01*
X184619623Y-85742139D01*
X184516307Y-85647952D01*
X184516300Y-85647946D01*
X184335024Y-85535705D01*
X184335019Y-85535702D01*
X184136195Y-85458678D01*
X183926610Y-85419500D01*
X183713390Y-85419500D01*
X183503804Y-85458678D01*
X183304980Y-85535702D01*
X183304975Y-85535705D01*
X183123699Y-85647946D01*
X183123692Y-85647952D01*
X182966135Y-85791586D01*
X182966131Y-85791589D01*
X182966128Y-85791593D01*
X182966125Y-85791597D01*
X182837635Y-85961743D01*
X182837630Y-85961752D01*
X182742596Y-86152608D01*
X182684244Y-86357688D01*
X182664571Y-86570000D01*
X176958750Y-86570000D01*
X176955756Y-86537690D01*
X176897405Y-86332611D01*
X176802366Y-86141745D01*
X176673872Y-85971593D01*
X176619623Y-85922139D01*
X176516307Y-85827952D01*
X176516300Y-85827946D01*
X176335024Y-85715705D01*
X176335019Y-85715702D01*
X176136198Y-85638679D01*
X176136197Y-85638678D01*
X176136195Y-85638678D01*
X175926610Y-85599500D01*
X175713390Y-85599500D01*
X175503804Y-85638678D01*
X175304980Y-85715702D01*
X175304975Y-85715705D01*
X175123699Y-85827946D01*
X175123692Y-85827952D01*
X174966135Y-85971586D01*
X174966131Y-85971589D01*
X174966128Y-85971593D01*
X174966125Y-85971597D01*
X174837635Y-86141743D01*
X174837630Y-86141752D01*
X174742596Y-86332608D01*
X174684244Y-86537688D01*
X174664571Y-86750000D01*
X163136563Y-86750000D01*
X163065024Y-86705705D01*
X163065019Y-86705702D01*
X162866195Y-86628678D01*
X162656610Y-86589500D01*
X162443390Y-86589500D01*
X162233804Y-86628678D01*
X162034980Y-86705702D01*
X162034975Y-86705705D01*
X161853699Y-86817946D01*
X161853692Y-86817952D01*
X161696135Y-86961586D01*
X161696131Y-86961589D01*
X161696128Y-86961593D01*
X161696125Y-86961597D01*
X161567635Y-87131743D01*
X161567630Y-87131752D01*
X161472596Y-87322608D01*
X161414244Y-87527688D01*
X161401271Y-87667690D01*
X161394571Y-87740000D01*
X152172456Y-87740000D01*
X152165756Y-87667690D01*
X152107405Y-87462611D01*
X152012366Y-87271745D01*
X151883872Y-87101593D01*
X151829623Y-87052139D01*
X151726307Y-86957952D01*
X151726300Y-86957946D01*
X151545024Y-86845705D01*
X151545019Y-86845702D01*
X151473372Y-86817946D01*
X151346198Y-86768679D01*
X151346197Y-86768678D01*
X151346195Y-86768678D01*
X151136610Y-86729500D01*
X150923390Y-86729500D01*
X150713804Y-86768678D01*
X150514980Y-86845702D01*
X150514975Y-86845705D01*
X150333699Y-86957946D01*
X150333692Y-86957952D01*
X150176135Y-87101586D01*
X150176131Y-87101589D01*
X150176128Y-87101593D01*
X150176125Y-87101597D01*
X150047635Y-87271743D01*
X150047630Y-87271752D01*
X149952596Y-87462608D01*
X149894244Y-87667688D01*
X149887544Y-87740000D01*
X149874571Y-87880000D01*
X146940500Y-87880000D01*
X146940500Y-80569999D01*
X152974750Y-80569999D01*
X152974750Y-80570000D01*
X152993669Y-80713708D01*
X152993670Y-80713709D01*
X153030395Y-80802374D01*
X153049139Y-80847625D01*
X153137379Y-80962621D01*
X153252375Y-81050861D01*
X153386291Y-81106330D01*
X153435052Y-81112749D01*
X153490276Y-81139090D01*
X153519471Y-81192860D01*
X153520282Y-81197978D01*
X153523670Y-81223709D01*
X153579139Y-81357625D01*
X153667379Y-81472621D01*
X153782375Y-81560861D01*
X153916291Y-81616330D01*
X154060000Y-81635250D01*
X154203709Y-81616330D01*
X154337625Y-81560861D01*
X154381548Y-81527158D01*
X154439224Y-81506734D01*
X154441815Y-81506700D01*
X159406179Y-81506700D01*
X159464370Y-81525607D01*
X159500334Y-81575107D01*
X159504331Y-81592773D01*
X159509923Y-81635250D01*
X159513670Y-81663708D01*
X159513670Y-81663709D01*
X159517259Y-81672375D01*
X159569139Y-81797625D01*
X159657379Y-81912621D01*
X159772375Y-82000861D01*
X159906291Y-82056330D01*
X159957395Y-82063057D01*
X160012619Y-82089397D01*
X160035937Y-82123325D01*
X160056253Y-82172374D01*
X160079139Y-82227625D01*
X160167379Y-82342621D01*
X160282375Y-82430861D01*
X160416291Y-82486330D01*
X160560000Y-82505250D01*
X160703709Y-82486330D01*
X160837625Y-82430861D01*
X160881548Y-82397158D01*
X160939224Y-82376734D01*
X160941815Y-82376700D01*
X161908279Y-82376700D01*
X161966470Y-82395607D01*
X162002434Y-82445107D01*
X162006432Y-82462777D01*
X162023670Y-82593709D01*
X162079139Y-82727625D01*
X162167379Y-82842621D01*
X162282375Y-82930861D01*
X162416291Y-82986330D01*
X162560000Y-83005250D01*
X162703709Y-82986330D01*
X162837625Y-82930861D01*
X162881548Y-82897158D01*
X162939224Y-82876734D01*
X162941815Y-82876700D01*
X164943824Y-82876700D01*
X185438185Y-82876700D01*
X185496376Y-82895607D01*
X185498452Y-82897158D01*
X185542375Y-82930861D01*
X185676291Y-82986330D01*
X185820000Y-83005250D01*
X185963709Y-82986330D01*
X186097625Y-82930861D01*
X186212621Y-82842621D01*
X186300861Y-82727625D01*
X186356330Y-82593709D01*
X186375250Y-82450000D01*
X186372730Y-82430862D01*
X186356330Y-82306291D01*
X186300861Y-82172375D01*
X186212621Y-82057379D01*
X186097625Y-81969139D01*
X186097621Y-81969137D01*
X185963709Y-81913670D01*
X185963708Y-81913669D01*
X185820000Y-81894750D01*
X185676291Y-81913669D01*
X185676290Y-81913670D01*
X185542378Y-81969137D01*
X185542373Y-81969140D01*
X185498452Y-82002842D01*
X185440776Y-82023266D01*
X185438185Y-82023300D01*
X184471721Y-82023300D01*
X184413530Y-82004393D01*
X184377566Y-81954893D01*
X184373568Y-81937223D01*
X184367976Y-81894750D01*
X184356330Y-81806291D01*
X184300861Y-81672375D01*
X184212621Y-81557379D01*
X184097625Y-81469139D01*
X184097621Y-81469137D01*
X183963709Y-81413670D01*
X183963710Y-81413670D01*
X183923178Y-81408333D01*
X183867954Y-81381990D01*
X183844639Y-81348065D01*
X183800862Y-81242378D01*
X183800861Y-81242375D01*
X183712621Y-81127379D01*
X183597625Y-81039139D01*
X183597621Y-81039137D01*
X183463709Y-80983670D01*
X183463708Y-80983669D01*
X183320000Y-80964750D01*
X183176291Y-80983669D01*
X183176290Y-80983670D01*
X183042378Y-81039137D01*
X183042373Y-81039140D01*
X182998452Y-81072842D01*
X182940776Y-81093266D01*
X182938185Y-81093300D01*
X177963821Y-81093300D01*
X177905630Y-81074393D01*
X177869666Y-81024893D01*
X177865668Y-81007222D01*
X177856330Y-80936291D01*
X177800861Y-80802375D01*
X177712621Y-80687379D01*
X177597625Y-80599139D01*
X177597621Y-80599137D01*
X177463709Y-80543670D01*
X177445474Y-80541269D01*
X177390250Y-80514926D01*
X177361056Y-80461154D01*
X177360246Y-80456038D01*
X177356330Y-80426291D01*
X177300861Y-80292375D01*
X177212621Y-80177379D01*
X177097625Y-80089139D01*
X177097621Y-80089137D01*
X176963709Y-80033670D01*
X176963708Y-80033669D01*
X176820000Y-80014750D01*
X176676291Y-80033669D01*
X176676290Y-80033670D01*
X176542378Y-80089137D01*
X176542373Y-80089140D01*
X176498452Y-80122842D01*
X176440776Y-80143266D01*
X176438185Y-80143300D01*
X162707955Y-80143300D01*
X162649764Y-80124393D01*
X162613800Y-80074893D01*
X162609802Y-80031379D01*
X162615250Y-79990000D01*
X162596330Y-79846291D01*
X162540861Y-79712375D01*
X162507158Y-79668452D01*
X162486734Y-79610776D01*
X162486700Y-79608185D01*
X162486700Y-78861814D01*
X162505607Y-78803623D01*
X162507159Y-78801546D01*
X162540857Y-78757630D01*
X162540856Y-78757630D01*
X162540861Y-78757625D01*
X162596330Y-78623709D01*
X162615250Y-78480000D01*
X162596330Y-78336291D01*
X162540861Y-78202375D01*
X162452621Y-78087379D01*
X162337625Y-77999139D01*
X162337621Y-77999137D01*
X162203709Y-77943670D01*
X162203708Y-77943669D01*
X162060000Y-77924750D01*
X161916291Y-77943669D01*
X161916290Y-77943670D01*
X161782378Y-77999137D01*
X161782374Y-77999139D01*
X161667381Y-78087377D01*
X161667377Y-78087381D01*
X161579139Y-78202374D01*
X161579137Y-78202378D01*
X161523670Y-78336290D01*
X161523669Y-78336291D01*
X161504750Y-78479999D01*
X161504750Y-78480000D01*
X161523669Y-78623708D01*
X161523670Y-78623709D01*
X161579137Y-78757621D01*
X161579142Y-78757630D01*
X161612841Y-78801546D01*
X161633266Y-78859221D01*
X161633300Y-78861814D01*
X161633300Y-79608185D01*
X161614393Y-79666376D01*
X161612842Y-79668452D01*
X161579140Y-79712373D01*
X161579137Y-79712378D01*
X161523670Y-79846290D01*
X161523669Y-79846291D01*
X161504750Y-79989999D01*
X161504750Y-79990000D01*
X161510197Y-80031378D01*
X161499048Y-80091538D01*
X161454667Y-80133655D01*
X161412045Y-80143300D01*
X153911815Y-80143300D01*
X153853624Y-80124393D01*
X153851548Y-80122842D01*
X153807626Y-80089140D01*
X153807627Y-80089140D01*
X153807625Y-80089139D01*
X153807622Y-80089138D01*
X153807621Y-80089137D01*
X153673709Y-80033670D01*
X153673708Y-80033669D01*
X153530000Y-80014750D01*
X153386291Y-80033669D01*
X153386290Y-80033670D01*
X153252378Y-80089137D01*
X153252374Y-80089139D01*
X153137381Y-80177377D01*
X153137377Y-80177381D01*
X153049139Y-80292374D01*
X153049137Y-80292378D01*
X152993670Y-80426290D01*
X152993669Y-80426291D01*
X152974750Y-80569999D01*
X146940500Y-80569999D01*
X146940500Y-75109500D01*
X146959407Y-75051309D01*
X147008907Y-75015345D01*
X147039500Y-75010500D01*
X193160500Y-75010500D01*
X193218691Y-75029407D01*
G37*
G04 #@! TD.AperFunction*
M02*
