M48
; DRILL file {KiCad 8.0.3} date 2025-06-24T11:22:05+0300
; FORMAT={-:-/ absolute / inch / decimal}
; #@! TF.CreationDate,2025-06-24T11:22:05+03:00
; #@! TF.GenerationSoftware,Kicad,Pcbnew,8.0.3
; #@! TF.FileFunction,Plated,1,2,PTH
FMAT,2
INCH
; #@! TA.AperFunction,Plated,PTH,ViaDrill
T1C0.0079
; #@! TA.AperFunction,Plated,PTH,ViaDrill
T2C0.0118
; #@! TA.AperFunction,Plated,PTH,ComponentDrill
T3C0.0315
%
G90
G05
T1
X6.026Y-3.3472
X6.0445Y-3.172
X6.0654Y-3.1921
X6.085Y-3.3472
X6.1441Y-3.3472
X6.2031Y-3.3472
X6.2626Y-3.3472
X6.3012Y-3.2094
X6.3213Y-3.2264
X6.3803Y-3.0898
X6.3803Y-3.1492
X6.4Y-3.2461
X6.4394Y-3.3453
X6.5941Y-4.0217
X6.6531Y-4.1827
X6.7118Y-4.1835
X6.7713Y-4.1835
X6.8303Y-4.1835
X6.9417Y-3.3386
X6.948Y-4.1835
X6.9614Y-3.172
X6.9811Y-3.1921
X7.0008Y-3.3386
X7.0598Y-3.3386
X7.1193Y-3.3386
X7.178Y-3.3386
X7.2173Y-3.2094
X7.237Y-3.2264
X7.3157Y-3.2461
X7.3551Y-3.3386
T2
X6.8894Y-4.0157
T3
X5.9461Y-3.4598
X5.9476Y-3.5504
X6.0654Y-3.55
X6.3996Y-3.4543
X6.922Y-3.4154
X7.237Y-3.4083
X7.2449Y-4.0689
X7.2449Y-4.1476
X7.4059Y-4.0689
X7.4059Y-4.1476
M30
