G04 #@! TF.GenerationSoftware,KiCad,Pcbnew,8.0.3*
G04 #@! TF.CreationDate,2025-06-24T11:22:04+03:00*
G04 #@! TF.ProjectId,Camera_24-22_Pin,43616d65-7261-45f3-9234-2d32325f5069,rev?*
G04 #@! TF.SameCoordinates,Original*
G04 #@! TF.FileFunction,Legend,Top*
G04 #@! TF.FilePolarity,Positive*
%FSLAX46Y46*%
G04 Gerber Fmt 4.6, Leading zero omitted, Abs format (unit mm)*
G04 Created by KiCad (PCBNEW 8.0.3) date 2025-06-24 11:22:04*
%MOMM*%
%LPD*%
G01*
G04 APERTURE LIST*
G04 Aperture macros list*
%AMRoundRect*
0 Rectangle with rounded corners*
0 $1 Rounding radius*
0 $2 $3 $4 $5 $6 $7 $8 $9 X,Y pos of 4 corners*
0 Add a 4 corners polygon primitive as box body*
4,1,4,$2,$3,$4,$5,$6,$7,$8,$9,$2,$3,0*
0 Add four circle primitives for the rounded corners*
1,1,$1+$1,$2,$3*
1,1,$1+$1,$4,$5*
1,1,$1+$1,$6,$7*
1,1,$1+$1,$8,$9*
0 Add four rect primitives between the rounded corners*
20,1,$1+$1,$2,$3,$4,$5,0*
20,1,$1+$1,$4,$5,$6,$7,0*
20,1,$1+$1,$6,$7,$8,$9,0*
20,1,$1+$1,$8,$9,$2,$3,0*%
G04 Aperture macros list end*
%ADD10C,0.150000*%
%ADD11C,0.250000*%
%ADD12C,0.100000*%
%ADD13C,0.120000*%
%ADD14RoundRect,0.200000X0.053033X-0.335876X0.335876X-0.053033X-0.053033X0.335876X-0.335876X0.053033X0*%
%ADD15C,1.600000*%
%ADD16R,0.300000X1.250000*%
%ADD17R,2.000000X3.150000*%
%ADD18RoundRect,0.200000X0.335876X0.053033X0.053033X0.335876X-0.335876X-0.053033X-0.053033X-0.335876X0*%
%ADD19R,1.350000X1.350000*%
%ADD20O,1.350000X1.350000*%
G04 APERTURE END LIST*
D10*
X188759819Y-101223220D02*
X187759819Y-101223220D01*
X187759819Y-101223220D02*
X187759819Y-100842268D01*
X187759819Y-100842268D02*
X187807438Y-100747030D01*
X187807438Y-100747030D02*
X187855057Y-100699411D01*
X187855057Y-100699411D02*
X187950295Y-100651792D01*
X187950295Y-100651792D02*
X188093152Y-100651792D01*
X188093152Y-100651792D02*
X188188390Y-100699411D01*
X188188390Y-100699411D02*
X188236009Y-100747030D01*
X188236009Y-100747030D02*
X188283628Y-100842268D01*
X188283628Y-100842268D02*
X188283628Y-101223220D01*
X187759819Y-100032744D02*
X187759819Y-99842268D01*
X187759819Y-99842268D02*
X187807438Y-99747030D01*
X187807438Y-99747030D02*
X187902676Y-99651792D01*
X187902676Y-99651792D02*
X188093152Y-99604173D01*
X188093152Y-99604173D02*
X188426485Y-99604173D01*
X188426485Y-99604173D02*
X188616961Y-99651792D01*
X188616961Y-99651792D02*
X188712200Y-99747030D01*
X188712200Y-99747030D02*
X188759819Y-99842268D01*
X188759819Y-99842268D02*
X188759819Y-100032744D01*
X188759819Y-100032744D02*
X188712200Y-100127982D01*
X188712200Y-100127982D02*
X188616961Y-100223220D01*
X188616961Y-100223220D02*
X188426485Y-100270839D01*
X188426485Y-100270839D02*
X188093152Y-100270839D01*
X188093152Y-100270839D02*
X187902676Y-100223220D01*
X187902676Y-100223220D02*
X187807438Y-100127982D01*
X187807438Y-100127982D02*
X187759819Y-100032744D01*
X187759819Y-99270839D02*
X188759819Y-99032744D01*
X188759819Y-99032744D02*
X188045533Y-98842268D01*
X188045533Y-98842268D02*
X188759819Y-98651792D01*
X188759819Y-98651792D02*
X187759819Y-98413697D01*
X188236009Y-98032744D02*
X188236009Y-97699411D01*
X188759819Y-97556554D02*
X188759819Y-98032744D01*
X188759819Y-98032744D02*
X187759819Y-98032744D01*
X187759819Y-98032744D02*
X187759819Y-97556554D01*
X188759819Y-96556554D02*
X188283628Y-96889887D01*
X188759819Y-97127982D02*
X187759819Y-97127982D01*
X187759819Y-97127982D02*
X187759819Y-96747030D01*
X187759819Y-96747030D02*
X187807438Y-96651792D01*
X187807438Y-96651792D02*
X187855057Y-96604173D01*
X187855057Y-96604173D02*
X187950295Y-96556554D01*
X187950295Y-96556554D02*
X188093152Y-96556554D01*
X188093152Y-96556554D02*
X188188390Y-96604173D01*
X188188390Y-96604173D02*
X188236009Y-96651792D01*
X188236009Y-96651792D02*
X188283628Y-96747030D01*
X188283628Y-96747030D02*
X188283628Y-97127982D01*
X190400588Y-105137438D02*
X190305350Y-105089819D01*
X190305350Y-105089819D02*
X190162493Y-105089819D01*
X190162493Y-105089819D02*
X190019636Y-105137438D01*
X190019636Y-105137438D02*
X189924398Y-105232676D01*
X189924398Y-105232676D02*
X189876779Y-105327914D01*
X189876779Y-105327914D02*
X189829160Y-105518390D01*
X189829160Y-105518390D02*
X189829160Y-105661247D01*
X189829160Y-105661247D02*
X189876779Y-105851723D01*
X189876779Y-105851723D02*
X189924398Y-105946961D01*
X189924398Y-105946961D02*
X190019636Y-106042200D01*
X190019636Y-106042200D02*
X190162493Y-106089819D01*
X190162493Y-106089819D02*
X190257731Y-106089819D01*
X190257731Y-106089819D02*
X190400588Y-106042200D01*
X190400588Y-106042200D02*
X190448207Y-105994580D01*
X190448207Y-105994580D02*
X190448207Y-105661247D01*
X190448207Y-105661247D02*
X190257731Y-105661247D01*
X190876779Y-106089819D02*
X190876779Y-105089819D01*
X190876779Y-105089819D02*
X191448207Y-106089819D01*
X191448207Y-106089819D02*
X191448207Y-105089819D01*
X191924398Y-106089819D02*
X191924398Y-105089819D01*
X191924398Y-105089819D02*
X192162493Y-105089819D01*
X192162493Y-105089819D02*
X192305350Y-105137438D01*
X192305350Y-105137438D02*
X192400588Y-105232676D01*
X192400588Y-105232676D02*
X192448207Y-105327914D01*
X192448207Y-105327914D02*
X192495826Y-105518390D01*
X192495826Y-105518390D02*
X192495826Y-105661247D01*
X192495826Y-105661247D02*
X192448207Y-105851723D01*
X192448207Y-105851723D02*
X192400588Y-105946961D01*
X192400588Y-105946961D02*
X192305350Y-106042200D01*
X192305350Y-106042200D02*
X192162493Y-106089819D01*
X192162493Y-106089819D02*
X191924398Y-106089819D01*
X189901541Y-102779819D02*
X190520588Y-102779819D01*
X190520588Y-102779819D02*
X190187255Y-103160771D01*
X190187255Y-103160771D02*
X190330112Y-103160771D01*
X190330112Y-103160771D02*
X190425350Y-103208390D01*
X190425350Y-103208390D02*
X190472969Y-103256009D01*
X190472969Y-103256009D02*
X190520588Y-103351247D01*
X190520588Y-103351247D02*
X190520588Y-103589342D01*
X190520588Y-103589342D02*
X190472969Y-103684580D01*
X190472969Y-103684580D02*
X190425350Y-103732200D01*
X190425350Y-103732200D02*
X190330112Y-103779819D01*
X190330112Y-103779819D02*
X190044398Y-103779819D01*
X190044398Y-103779819D02*
X189949160Y-103732200D01*
X189949160Y-103732200D02*
X189901541Y-103684580D01*
X190806303Y-102779819D02*
X191139636Y-103779819D01*
X191139636Y-103779819D02*
X191472969Y-102779819D01*
X191711065Y-102779819D02*
X192330112Y-102779819D01*
X192330112Y-102779819D02*
X191996779Y-103160771D01*
X191996779Y-103160771D02*
X192139636Y-103160771D01*
X192139636Y-103160771D02*
X192234874Y-103208390D01*
X192234874Y-103208390D02*
X192282493Y-103256009D01*
X192282493Y-103256009D02*
X192330112Y-103351247D01*
X192330112Y-103351247D02*
X192330112Y-103589342D01*
X192330112Y-103589342D02*
X192282493Y-103684580D01*
X192282493Y-103684580D02*
X192234874Y-103732200D01*
X192234874Y-103732200D02*
X192139636Y-103779819D01*
X192139636Y-103779819D02*
X191853922Y-103779819D01*
X191853922Y-103779819D02*
X191758684Y-103732200D01*
X191758684Y-103732200D02*
X191711065Y-103684580D01*
X184464580Y-100951792D02*
X184512200Y-100999411D01*
X184512200Y-100999411D02*
X184559819Y-101142268D01*
X184559819Y-101142268D02*
X184559819Y-101237506D01*
X184559819Y-101237506D02*
X184512200Y-101380363D01*
X184512200Y-101380363D02*
X184416961Y-101475601D01*
X184416961Y-101475601D02*
X184321723Y-101523220D01*
X184321723Y-101523220D02*
X184131247Y-101570839D01*
X184131247Y-101570839D02*
X183988390Y-101570839D01*
X183988390Y-101570839D02*
X183797914Y-101523220D01*
X183797914Y-101523220D02*
X183702676Y-101475601D01*
X183702676Y-101475601D02*
X183607438Y-101380363D01*
X183607438Y-101380363D02*
X183559819Y-101237506D01*
X183559819Y-101237506D02*
X183559819Y-101142268D01*
X183559819Y-101142268D02*
X183607438Y-100999411D01*
X183607438Y-100999411D02*
X183655057Y-100951792D01*
X184274104Y-100570839D02*
X184274104Y-100094649D01*
X184559819Y-100666077D02*
X183559819Y-100332744D01*
X183559819Y-100332744D02*
X184559819Y-99999411D01*
X184559819Y-99666077D02*
X183559819Y-99666077D01*
X183559819Y-99666077D02*
X184274104Y-99332744D01*
X184274104Y-99332744D02*
X183559819Y-98999411D01*
X183559819Y-98999411D02*
X184559819Y-98999411D01*
X184655057Y-98761316D02*
X184655057Y-97999411D01*
X184559819Y-97761315D02*
X183559819Y-97761315D01*
X183559819Y-97761315D02*
X183559819Y-97380363D01*
X183559819Y-97380363D02*
X183607438Y-97285125D01*
X183607438Y-97285125D02*
X183655057Y-97237506D01*
X183655057Y-97237506D02*
X183750295Y-97189887D01*
X183750295Y-97189887D02*
X183893152Y-97189887D01*
X183893152Y-97189887D02*
X183988390Y-97237506D01*
X183988390Y-97237506D02*
X184036009Y-97285125D01*
X184036009Y-97285125D02*
X184083628Y-97380363D01*
X184083628Y-97380363D02*
X184083628Y-97761315D01*
X183559819Y-96856553D02*
X184559819Y-96618458D01*
X184559819Y-96618458D02*
X183845533Y-96427982D01*
X183845533Y-96427982D02*
X184559819Y-96237506D01*
X184559819Y-96237506D02*
X183559819Y-95999411D01*
X184559819Y-95618458D02*
X183559819Y-95618458D01*
X183559819Y-95618458D02*
X183559819Y-95380363D01*
X183559819Y-95380363D02*
X183607438Y-95237506D01*
X183607438Y-95237506D02*
X183702676Y-95142268D01*
X183702676Y-95142268D02*
X183797914Y-95094649D01*
X183797914Y-95094649D02*
X183988390Y-95047030D01*
X183988390Y-95047030D02*
X184131247Y-95047030D01*
X184131247Y-95047030D02*
X184321723Y-95094649D01*
X184321723Y-95094649D02*
X184416961Y-95142268D01*
X184416961Y-95142268D02*
X184512200Y-95237506D01*
X184512200Y-95237506D02*
X184559819Y-95380363D01*
X184559819Y-95380363D02*
X184559819Y-95618458D01*
D11*
X169180187Y-101446285D02*
X169251615Y-101374857D01*
X169251615Y-101374857D02*
X169394473Y-101303428D01*
X169394473Y-101303428D02*
X169751615Y-101303428D01*
X169751615Y-101303428D02*
X169894473Y-101374857D01*
X169894473Y-101374857D02*
X169965901Y-101446285D01*
X169965901Y-101446285D02*
X170037330Y-101589142D01*
X170037330Y-101589142D02*
X170037330Y-101732000D01*
X170037330Y-101732000D02*
X169965901Y-101946285D01*
X169965901Y-101946285D02*
X169108758Y-102803428D01*
X169108758Y-102803428D02*
X170037330Y-102803428D01*
X170608758Y-101446285D02*
X170680186Y-101374857D01*
X170680186Y-101374857D02*
X170823044Y-101303428D01*
X170823044Y-101303428D02*
X171180186Y-101303428D01*
X171180186Y-101303428D02*
X171323044Y-101374857D01*
X171323044Y-101374857D02*
X171394472Y-101446285D01*
X171394472Y-101446285D02*
X171465901Y-101589142D01*
X171465901Y-101589142D02*
X171465901Y-101732000D01*
X171465901Y-101732000D02*
X171394472Y-101946285D01*
X171394472Y-101946285D02*
X170537329Y-102803428D01*
X170537329Y-102803428D02*
X171465901Y-102803428D01*
X171751615Y-102946285D02*
X172894472Y-102946285D01*
X173251614Y-102803428D02*
X173251614Y-101303428D01*
X173251614Y-101303428D02*
X173823043Y-101303428D01*
X173823043Y-101303428D02*
X173965900Y-101374857D01*
X173965900Y-101374857D02*
X174037329Y-101446285D01*
X174037329Y-101446285D02*
X174108757Y-101589142D01*
X174108757Y-101589142D02*
X174108757Y-101803428D01*
X174108757Y-101803428D02*
X174037329Y-101946285D01*
X174037329Y-101946285D02*
X173965900Y-102017714D01*
X173965900Y-102017714D02*
X173823043Y-102089142D01*
X173823043Y-102089142D02*
X173251614Y-102089142D01*
X174751614Y-102803428D02*
X174751614Y-101303428D01*
X175465900Y-102803428D02*
X175465900Y-101303428D01*
X175465900Y-101303428D02*
X176323043Y-102803428D01*
X176323043Y-102803428D02*
X176323043Y-101303428D01*
X166320187Y-85366285D02*
X166391615Y-85294857D01*
X166391615Y-85294857D02*
X166534473Y-85223428D01*
X166534473Y-85223428D02*
X166891615Y-85223428D01*
X166891615Y-85223428D02*
X167034473Y-85294857D01*
X167034473Y-85294857D02*
X167105901Y-85366285D01*
X167105901Y-85366285D02*
X167177330Y-85509142D01*
X167177330Y-85509142D02*
X167177330Y-85652000D01*
X167177330Y-85652000D02*
X167105901Y-85866285D01*
X167105901Y-85866285D02*
X166248758Y-86723428D01*
X166248758Y-86723428D02*
X167177330Y-86723428D01*
X168463044Y-85723428D02*
X168463044Y-86723428D01*
X168105901Y-85152000D02*
X167748758Y-86223428D01*
X167748758Y-86223428D02*
X168677329Y-86223428D01*
X168891615Y-86866285D02*
X170034472Y-86866285D01*
X170391614Y-86723428D02*
X170391614Y-85223428D01*
X170391614Y-85223428D02*
X170963043Y-85223428D01*
X170963043Y-85223428D02*
X171105900Y-85294857D01*
X171105900Y-85294857D02*
X171177329Y-85366285D01*
X171177329Y-85366285D02*
X171248757Y-85509142D01*
X171248757Y-85509142D02*
X171248757Y-85723428D01*
X171248757Y-85723428D02*
X171177329Y-85866285D01*
X171177329Y-85866285D02*
X171105900Y-85937714D01*
X171105900Y-85937714D02*
X170963043Y-86009142D01*
X170963043Y-86009142D02*
X170391614Y-86009142D01*
X171891614Y-86723428D02*
X171891614Y-85223428D01*
X172605900Y-86723428D02*
X172605900Y-85223428D01*
X172605900Y-85223428D02*
X173463043Y-86723428D01*
X173463043Y-86723428D02*
X173463043Y-85223428D01*
D10*
X176170830Y-92470581D02*
X175598411Y-92369566D01*
X175766769Y-92874642D02*
X175059663Y-92167535D01*
X175059663Y-92167535D02*
X175329037Y-91898161D01*
X175329037Y-91898161D02*
X175430052Y-91864489D01*
X175430052Y-91864489D02*
X175497395Y-91864489D01*
X175497395Y-91864489D02*
X175598411Y-91898161D01*
X175598411Y-91898161D02*
X175699426Y-91999176D01*
X175699426Y-91999176D02*
X175733098Y-92100192D01*
X175733098Y-92100192D02*
X175733098Y-92167535D01*
X175733098Y-92167535D02*
X175699426Y-92268550D01*
X175699426Y-92268550D02*
X175430052Y-92537924D01*
X175699426Y-91527772D02*
X176137159Y-91090039D01*
X176137159Y-91090039D02*
X176170830Y-91595115D01*
X176170830Y-91595115D02*
X176271846Y-91494100D01*
X176271846Y-91494100D02*
X176372861Y-91460428D01*
X176372861Y-91460428D02*
X176440204Y-91460428D01*
X176440204Y-91460428D02*
X176541220Y-91494100D01*
X176541220Y-91494100D02*
X176709578Y-91662459D01*
X176709578Y-91662459D02*
X176743250Y-91763474D01*
X176743250Y-91763474D02*
X176743250Y-91830818D01*
X176743250Y-91830818D02*
X176709578Y-91931833D01*
X176709578Y-91931833D02*
X176507548Y-92133863D01*
X176507548Y-92133863D02*
X176406533Y-92167535D01*
X176406533Y-92167535D02*
X176339189Y-92167535D01*
D12*
X164590476Y-110227419D02*
X164590476Y-110941704D01*
X164590476Y-110941704D02*
X164542857Y-111084561D01*
X164542857Y-111084561D02*
X164447619Y-111179800D01*
X164447619Y-111179800D02*
X164304762Y-111227419D01*
X164304762Y-111227419D02*
X164209524Y-111227419D01*
X165019048Y-110322657D02*
X165066667Y-110275038D01*
X165066667Y-110275038D02*
X165161905Y-110227419D01*
X165161905Y-110227419D02*
X165400000Y-110227419D01*
X165400000Y-110227419D02*
X165495238Y-110275038D01*
X165495238Y-110275038D02*
X165542857Y-110322657D01*
X165542857Y-110322657D02*
X165590476Y-110417895D01*
X165590476Y-110417895D02*
X165590476Y-110513133D01*
X165590476Y-110513133D02*
X165542857Y-110655990D01*
X165542857Y-110655990D02*
X164971429Y-111227419D01*
X164971429Y-111227419D02*
X165590476Y-111227419D01*
X165971429Y-110322657D02*
X166019048Y-110275038D01*
X166019048Y-110275038D02*
X166114286Y-110227419D01*
X166114286Y-110227419D02*
X166352381Y-110227419D01*
X166352381Y-110227419D02*
X166447619Y-110275038D01*
X166447619Y-110275038D02*
X166495238Y-110322657D01*
X166495238Y-110322657D02*
X166542857Y-110417895D01*
X166542857Y-110417895D02*
X166542857Y-110513133D01*
X166542857Y-110513133D02*
X166495238Y-110655990D01*
X166495238Y-110655990D02*
X165923810Y-111227419D01*
X165923810Y-111227419D02*
X166542857Y-111227419D01*
X150026666Y-77057419D02*
X150026666Y-77771704D01*
X150026666Y-77771704D02*
X149979047Y-77914561D01*
X149979047Y-77914561D02*
X149883809Y-78009800D01*
X149883809Y-78009800D02*
X149740952Y-78057419D01*
X149740952Y-78057419D02*
X149645714Y-78057419D01*
X151026666Y-78057419D02*
X150455238Y-78057419D01*
X150740952Y-78057419D02*
X150740952Y-77057419D01*
X150740952Y-77057419D02*
X150645714Y-77200276D01*
X150645714Y-77200276D02*
X150550476Y-77295514D01*
X150550476Y-77295514D02*
X150455238Y-77343133D01*
D10*
X152352629Y-95201668D02*
X152453644Y-94629249D01*
X151948568Y-94797607D02*
X152655675Y-94090501D01*
X152655675Y-94090501D02*
X152925049Y-94359875D01*
X152925049Y-94359875D02*
X152958721Y-94460890D01*
X152958721Y-94460890D02*
X152958721Y-94528233D01*
X152958721Y-94528233D02*
X152925049Y-94629249D01*
X152925049Y-94629249D02*
X152824034Y-94730264D01*
X152824034Y-94730264D02*
X152723018Y-94763936D01*
X152723018Y-94763936D02*
X152655675Y-94763936D01*
X152655675Y-94763936D02*
X152554660Y-94730264D01*
X152554660Y-94730264D02*
X152285286Y-94460890D01*
X153261766Y-94831279D02*
X153329110Y-94831279D01*
X153329110Y-94831279D02*
X153430125Y-94864951D01*
X153430125Y-94864951D02*
X153598484Y-95033310D01*
X153598484Y-95033310D02*
X153632156Y-95134325D01*
X153632156Y-95134325D02*
X153632156Y-95201668D01*
X153632156Y-95201668D02*
X153598484Y-95302684D01*
X153598484Y-95302684D02*
X153531140Y-95370027D01*
X153531140Y-95370027D02*
X153396453Y-95437371D01*
X153396453Y-95437371D02*
X152588331Y-95437371D01*
X152588331Y-95437371D02*
X153026064Y-95875103D01*
D12*
X173100476Y-76857419D02*
X173100476Y-77571704D01*
X173100476Y-77571704D02*
X173052857Y-77714561D01*
X173052857Y-77714561D02*
X172957619Y-77809800D01*
X172957619Y-77809800D02*
X172814762Y-77857419D01*
X172814762Y-77857419D02*
X172719524Y-77857419D01*
X174100476Y-77857419D02*
X173529048Y-77857419D01*
X173814762Y-77857419D02*
X173814762Y-76857419D01*
X173814762Y-76857419D02*
X173719524Y-77000276D01*
X173719524Y-77000276D02*
X173624286Y-77095514D01*
X173624286Y-77095514D02*
X173529048Y-77143133D01*
X174957619Y-77190752D02*
X174957619Y-77857419D01*
X174719524Y-76809800D02*
X174481429Y-77524085D01*
X174481429Y-77524085D02*
X175100476Y-77524085D01*
D10*
X187786666Y-106954819D02*
X187786666Y-107669104D01*
X187786666Y-107669104D02*
X187739047Y-107811961D01*
X187739047Y-107811961D02*
X187643809Y-107907200D01*
X187643809Y-107907200D02*
X187500952Y-107954819D01*
X187500952Y-107954819D02*
X187405714Y-107954819D01*
X188167619Y-106954819D02*
X188786666Y-106954819D01*
X188786666Y-106954819D02*
X188453333Y-107335771D01*
X188453333Y-107335771D02*
X188596190Y-107335771D01*
X188596190Y-107335771D02*
X188691428Y-107383390D01*
X188691428Y-107383390D02*
X188739047Y-107431009D01*
X188739047Y-107431009D02*
X188786666Y-107526247D01*
X188786666Y-107526247D02*
X188786666Y-107764342D01*
X188786666Y-107764342D02*
X188739047Y-107859580D01*
X188739047Y-107859580D02*
X188691428Y-107907200D01*
X188691428Y-107907200D02*
X188596190Y-107954819D01*
X188596190Y-107954819D02*
X188310476Y-107954819D01*
X188310476Y-107954819D02*
X188215238Y-107907200D01*
X188215238Y-107907200D02*
X188167619Y-107859580D01*
X173116231Y-89401933D02*
X172543812Y-89300918D01*
X172712170Y-89805994D02*
X172005064Y-89098887D01*
X172005064Y-89098887D02*
X172274438Y-88829513D01*
X172274438Y-88829513D02*
X172375453Y-88795841D01*
X172375453Y-88795841D02*
X172442796Y-88795841D01*
X172442796Y-88795841D02*
X172543812Y-88829513D01*
X172543812Y-88829513D02*
X172644827Y-88930528D01*
X172644827Y-88930528D02*
X172678499Y-89031544D01*
X172678499Y-89031544D02*
X172678499Y-89098887D01*
X172678499Y-89098887D02*
X172644827Y-89199902D01*
X172644827Y-89199902D02*
X172375453Y-89469276D01*
X173250918Y-88324437D02*
X173722323Y-88795841D01*
X172813186Y-88223422D02*
X173149903Y-88896857D01*
X173149903Y-88896857D02*
X173587636Y-88459124D01*
X149098457Y-98445840D02*
X149199472Y-97873421D01*
X148694396Y-98041779D02*
X149401503Y-97334673D01*
X149401503Y-97334673D02*
X149670877Y-97604047D01*
X149670877Y-97604047D02*
X149704549Y-97705062D01*
X149704549Y-97705062D02*
X149704549Y-97772405D01*
X149704549Y-97772405D02*
X149670877Y-97873421D01*
X149670877Y-97873421D02*
X149569862Y-97974436D01*
X149569862Y-97974436D02*
X149468846Y-98008108D01*
X149468846Y-98008108D02*
X149401503Y-98008108D01*
X149401503Y-98008108D02*
X149300488Y-97974436D01*
X149300488Y-97974436D02*
X149031114Y-97705062D01*
X149771892Y-99119275D02*
X149367831Y-98715214D01*
X149569862Y-98917245D02*
X150276968Y-98210138D01*
X150276968Y-98210138D02*
X150108610Y-98243810D01*
X150108610Y-98243810D02*
X149973923Y-98243810D01*
X149973923Y-98243810D02*
X149872907Y-98210138D01*
X183686666Y-107024819D02*
X183686666Y-107739104D01*
X183686666Y-107739104D02*
X183639047Y-107881961D01*
X183639047Y-107881961D02*
X183543809Y-107977200D01*
X183543809Y-107977200D02*
X183400952Y-108024819D01*
X183400952Y-108024819D02*
X183305714Y-108024819D01*
X184115238Y-107120057D02*
X184162857Y-107072438D01*
X184162857Y-107072438D02*
X184258095Y-107024819D01*
X184258095Y-107024819D02*
X184496190Y-107024819D01*
X184496190Y-107024819D02*
X184591428Y-107072438D01*
X184591428Y-107072438D02*
X184639047Y-107120057D01*
X184639047Y-107120057D02*
X184686666Y-107215295D01*
X184686666Y-107215295D02*
X184686666Y-107310533D01*
X184686666Y-107310533D02*
X184639047Y-107453390D01*
X184639047Y-107453390D02*
X184067619Y-108024819D01*
X184067619Y-108024819D02*
X184686666Y-108024819D01*
D13*
X174397470Y-90797052D02*
X174733003Y-90461519D01*
X175136397Y-91535979D02*
X175471930Y-91200446D01*
D12*
X164240000Y-108577500D02*
X166940000Y-108577500D01*
X164240000Y-109264705D02*
X164240000Y-108577500D01*
X164340000Y-104067500D02*
X164340000Y-105227500D01*
X164340000Y-104067500D02*
X165450000Y-104067500D01*
X164810000Y-109877500D02*
X180630000Y-109877500D01*
X166940000Y-108577500D02*
X167000000Y-108577500D01*
X167000000Y-105427500D02*
X178480000Y-105427500D01*
X167000000Y-108577500D02*
X167000000Y-105427500D01*
X167000000Y-108577500D02*
X167000000Y-109867500D01*
X178480000Y-105427500D02*
X178480000Y-108557500D01*
X178480000Y-108557500D02*
X178480000Y-109847500D01*
X178480000Y-109222500D02*
X167000000Y-109222500D01*
X178492795Y-108577500D02*
X181242795Y-108577500D01*
X181140000Y-104067500D02*
X180030000Y-104067500D01*
X181140000Y-104067500D02*
X181140000Y-105227500D01*
X181242795Y-108577500D02*
X181242795Y-109296419D01*
X164821081Y-109877500D02*
G75*
G02*
X164240000Y-109264705I14917J596047D01*
G01*
X181242795Y-109296419D02*
G75*
G02*
X180630000Y-109877505I-596025J14889D01*
G01*
X149320000Y-79602500D02*
X149320000Y-78883581D01*
X149410000Y-84112500D02*
X149410000Y-82952500D01*
X149410000Y-84112500D02*
X150520000Y-84112500D01*
X152070000Y-79602500D02*
X149320000Y-79602500D01*
X152070000Y-79622500D02*
X152070000Y-78332500D01*
X152070000Y-82752500D02*
X152070000Y-79622500D01*
X152080000Y-78957500D02*
X164550000Y-78957500D01*
X164550000Y-79602500D02*
X164550000Y-78312500D01*
X164550000Y-79602500D02*
X164550000Y-82752500D01*
X164550000Y-82752500D02*
X152070000Y-82752500D01*
X164610000Y-79602500D02*
X164550000Y-79602500D01*
X166740000Y-78302500D02*
X149920000Y-78302500D01*
X167210000Y-84112500D02*
X166100000Y-84112500D01*
X167210000Y-84112500D02*
X167210000Y-82952500D01*
X167310000Y-78915295D02*
X167310000Y-79602500D01*
X167310000Y-79602500D02*
X164610000Y-79602500D01*
X149320000Y-78883581D02*
G75*
G02*
X149932795Y-78302501I596010J-14879D01*
G01*
X166728919Y-78302500D02*
G75*
G02*
X167310000Y-78915295I-14917J-596047D01*
G01*
D13*
X151508303Y-96617230D02*
X151172770Y-96281697D01*
X152247230Y-95878303D02*
X151911697Y-95542770D01*
D12*
X172580000Y-79642500D02*
X172580000Y-78923581D01*
X172670000Y-84152500D02*
X172670000Y-82992500D01*
X172670000Y-84152500D02*
X173780000Y-84152500D01*
X175330000Y-79642500D02*
X172580000Y-79642500D01*
X175330000Y-79662500D02*
X175330000Y-78372500D01*
X175330000Y-82792500D02*
X175330000Y-79662500D01*
X175340000Y-78997500D02*
X187810000Y-78997500D01*
X187810000Y-79642500D02*
X187810000Y-78352500D01*
X187810000Y-79642500D02*
X187810000Y-82792500D01*
X187810000Y-82792500D02*
X175330000Y-82792500D01*
X187870000Y-79642500D02*
X187810000Y-79642500D01*
X190000000Y-78342500D02*
X173180000Y-78342500D01*
X190470000Y-84152500D02*
X189360000Y-84152500D01*
X190470000Y-84152500D02*
X190470000Y-82992500D01*
X190570000Y-78955295D02*
X190570000Y-79642500D01*
X190570000Y-79642500D02*
X187870000Y-79642500D01*
X172580000Y-78923581D02*
G75*
G02*
X173192795Y-78342501I596010J-14879D01*
G01*
X189988919Y-78342500D02*
G75*
G02*
X190570000Y-78955295I-14917J-596047D01*
G01*
D13*
X187050000Y-102290000D02*
X188110000Y-102290000D01*
X187050000Y-103350000D02*
X187050000Y-102290000D01*
X187050000Y-104350000D02*
X187050000Y-106410000D01*
X187050000Y-104350000D02*
X189170000Y-104350000D01*
X187050000Y-106410000D02*
X189170000Y-106410000D01*
X189170000Y-104350000D02*
X189170000Y-106410000D01*
X173322770Y-89708303D02*
X173658303Y-89372770D01*
X174061697Y-90447230D02*
X174397230Y-90111697D01*
X150418303Y-97697230D02*
X150082770Y-97361697D01*
X151157230Y-96958303D02*
X150821697Y-96622770D01*
X182960000Y-104350000D02*
X182960000Y-102290000D01*
X185080000Y-102290000D02*
X182960000Y-102290000D01*
X185080000Y-104350000D02*
X182960000Y-104350000D01*
X185080000Y-104350000D02*
X185080000Y-102290000D01*
X185080000Y-105350000D02*
X185080000Y-106410000D01*
X185080000Y-106410000D02*
X184020000Y-106410000D01*
%LPC*%
D14*
X174351337Y-91582112D03*
X175518063Y-90415386D03*
D15*
X175820000Y-86750000D03*
D16*
X167490000Y-104752500D03*
X167990000Y-104752500D03*
X168490000Y-104752500D03*
X168990000Y-104752500D03*
X169490000Y-104752500D03*
X169990000Y-104752500D03*
X170490000Y-104752500D03*
X170990000Y-104752500D03*
X171490000Y-104752500D03*
X171990000Y-104752500D03*
X172490000Y-104752500D03*
X172990000Y-104752500D03*
X173490000Y-104752500D03*
X173990000Y-104752500D03*
X174490000Y-104752500D03*
X174990000Y-104752500D03*
X175490000Y-104752500D03*
X175990000Y-104752500D03*
X176490000Y-104752500D03*
X176990000Y-104752500D03*
X177490000Y-104752500D03*
X177990000Y-104752500D03*
D17*
X165940000Y-106952500D03*
X179540000Y-106952500D03*
D15*
X151070000Y-90180000D03*
X154060000Y-90170000D03*
X183820000Y-86570000D03*
D16*
X164060000Y-83427500D03*
X163560000Y-83427500D03*
X163060000Y-83427500D03*
X162560000Y-83427500D03*
X162060000Y-83427500D03*
X161560000Y-83427500D03*
X161060000Y-83427500D03*
X160560000Y-83427500D03*
X160060000Y-83427500D03*
X159560000Y-83427500D03*
X159060000Y-83427500D03*
X158560000Y-83427500D03*
X158060000Y-83427500D03*
X157560000Y-83427500D03*
X157060000Y-83427500D03*
X156560000Y-83427500D03*
X156060000Y-83427500D03*
X155560000Y-83427500D03*
X155060000Y-83427500D03*
X154560000Y-83427500D03*
X154060000Y-83427500D03*
X153560000Y-83427500D03*
X153060000Y-83427500D03*
X152560000Y-83427500D03*
D17*
X165610000Y-81227500D03*
X151010000Y-81227500D03*
D18*
X152293363Y-96663363D03*
X151126637Y-95496637D03*
D16*
X187320000Y-83467500D03*
X186820000Y-83467500D03*
X186320000Y-83467500D03*
X185820000Y-83467500D03*
X185320000Y-83467500D03*
X184820000Y-83467500D03*
X184320000Y-83467500D03*
X183820000Y-83467500D03*
X183320000Y-83467500D03*
X182820000Y-83467500D03*
X182320000Y-83467500D03*
X181820000Y-83467500D03*
X181320000Y-83467500D03*
X180820000Y-83467500D03*
X180320000Y-83467500D03*
X179820000Y-83467500D03*
X179320000Y-83467500D03*
X178820000Y-83467500D03*
X178320000Y-83467500D03*
X177820000Y-83467500D03*
X177320000Y-83467500D03*
X176820000Y-83467500D03*
X176320000Y-83467500D03*
X175820000Y-83467500D03*
D17*
X188870000Y-81267500D03*
X174270000Y-81267500D03*
D15*
X151030000Y-87880000D03*
D19*
X188110000Y-103350000D03*
D20*
X188110000Y-105350000D03*
D14*
X173276637Y-90493363D03*
X174443363Y-89326637D03*
D15*
X162550000Y-87740000D03*
D18*
X151203363Y-97743363D03*
X150036637Y-96576637D03*
D19*
X184020000Y-105350000D03*
D20*
X184020000Y-103350000D03*
%LPD*%
M02*
