%TF.GenerationSoftware,KiCad,Pcbnew,8.0.3*%
%TF.CreationDate,2025-06-24T11:22:06+03:00*%
%TF.ProjectId,Camera_24-22_Pin,43616d65-7261-45f3-9234-2d32325f5069,rev?*%
%TF.SameCoordinates,Original*%
%TF.FileFunction,Drillmap*%
%TF.FilePolarity,Positive*%
%FSLAX45Y45*%
G04 Gerber Fmt 4.5, Leading zero omitted, Abs format (unit mm)*
G04 Created by KiCad (PCBNEW 8.0.3) date 2025-06-24 11:22:06*
%MOMM*%
%LPD*%
G01*
G04 APERTURE LIST*
%ADD10C,0.100000*%
%ADD11C,0.200000*%
G04 APERTURE END LIST*
D10*
X14679000Y-7486000D02*
X19341000Y-7486000D01*
X19341000Y-11240000D01*
X14679000Y-11240000D01*
X14679000Y-7486000D01*
D11*
D10*
X15296000Y-8492000D02*
X15316000Y-8512000D01*
X15316000Y-8492000D02*
X15296000Y-8512000D01*
X15343000Y-8047000D02*
X15363000Y-8067000D01*
X15363000Y-8047000D02*
X15343000Y-8067000D01*
X15396000Y-8098000D02*
X15416000Y-8118000D01*
X15416000Y-8098000D02*
X15396000Y-8118000D01*
X15446000Y-8492000D02*
X15466000Y-8512000D01*
X15466000Y-8492000D02*
X15446000Y-8512000D01*
X15596000Y-8492000D02*
X15616000Y-8512000D01*
X15616000Y-8492000D02*
X15596000Y-8512000D01*
X15746000Y-8492000D02*
X15766000Y-8512000D01*
X15766000Y-8492000D02*
X15746000Y-8512000D01*
X15897000Y-8492000D02*
X15917000Y-8512000D01*
X15917000Y-8492000D02*
X15897000Y-8512000D01*
X15995000Y-8142000D02*
X16015000Y-8162000D01*
X16015000Y-8142000D02*
X15995000Y-8162000D01*
X16046000Y-8185000D02*
X16066000Y-8205000D01*
X16066000Y-8185000D02*
X16046000Y-8205000D01*
X16196000Y-7838000D02*
X16216000Y-7858000D01*
X16216000Y-7838000D02*
X16196000Y-7858000D01*
X16196000Y-7989000D02*
X16216000Y-8009000D01*
X16216000Y-7989000D02*
X16196000Y-8009000D01*
X16246000Y-8235000D02*
X16266000Y-8255000D01*
X16266000Y-8235000D02*
X16246000Y-8255000D01*
X16346000Y-8487000D02*
X16366000Y-8507000D01*
X16366000Y-8487000D02*
X16346000Y-8507000D01*
X16739000Y-10205000D02*
X16759000Y-10225000D01*
X16759000Y-10205000D02*
X16739000Y-10225000D01*
X16889000Y-10614000D02*
X16909000Y-10634000D01*
X16909000Y-10614000D02*
X16889000Y-10634000D01*
X17038000Y-10616000D02*
X17058000Y-10636000D01*
X17058000Y-10616000D02*
X17038000Y-10636000D01*
X17189000Y-10616000D02*
X17209000Y-10636000D01*
X17209000Y-10616000D02*
X17189000Y-10636000D01*
X17339000Y-10616000D02*
X17359000Y-10636000D01*
X17359000Y-10616000D02*
X17339000Y-10636000D01*
X17622000Y-8470000D02*
X17642000Y-8490000D01*
X17642000Y-8470000D02*
X17622000Y-8490000D01*
X17638000Y-10616000D02*
X17658000Y-10636000D01*
X17658000Y-10616000D02*
X17638000Y-10636000D01*
X17672000Y-8047000D02*
X17692000Y-8067000D01*
X17692000Y-8047000D02*
X17672000Y-8067000D01*
X17722000Y-8098000D02*
X17742000Y-8118000D01*
X17742000Y-8098000D02*
X17722000Y-8118000D01*
X17772000Y-8470000D02*
X17792000Y-8490000D01*
X17792000Y-8470000D02*
X17772000Y-8490000D01*
X17922000Y-8470000D02*
X17942000Y-8490000D01*
X17942000Y-8470000D02*
X17922000Y-8490000D01*
X18073000Y-8470000D02*
X18093000Y-8490000D01*
X18093000Y-8470000D02*
X18073000Y-8490000D01*
X18222000Y-8470000D02*
X18242000Y-8490000D01*
X18242000Y-8470000D02*
X18222000Y-8490000D01*
X18322000Y-8142000D02*
X18342000Y-8162000D01*
X18342000Y-8142000D02*
X18322000Y-8162000D01*
X18372000Y-8185000D02*
X18392000Y-8205000D01*
X18392000Y-8185000D02*
X18372000Y-8205000D01*
X18572000Y-8235000D02*
X18592000Y-8255000D01*
X18592000Y-8235000D02*
X18572000Y-8255000D01*
X18672000Y-8470000D02*
X18692000Y-8490000D01*
X18692000Y-8470000D02*
X18672000Y-8490000D01*
X17514000Y-10200000D02*
G75*
G02*
X17484000Y-10200000I-15000J0D01*
G01*
X17484000Y-10200000D02*
G75*
G02*
X17514000Y-10200000I15000J0D01*
G01*
X15103000Y-8748000D02*
X15103000Y-8828000D01*
X15063000Y-8788000D02*
X15143000Y-8788000D01*
X15107000Y-8978000D02*
X15107000Y-9058000D01*
X15067000Y-9018000D02*
X15147000Y-9018000D01*
X15406000Y-8977000D02*
X15406000Y-9057000D01*
X15366000Y-9017000D02*
X15446000Y-9017000D01*
X16255000Y-8734000D02*
X16255000Y-8814000D01*
X16215000Y-8774000D02*
X16295000Y-8774000D01*
X17582000Y-8635000D02*
X17582000Y-8715000D01*
X17542000Y-8675000D02*
X17622000Y-8675000D01*
X18382000Y-8617000D02*
X18382000Y-8697000D01*
X18342000Y-8657000D02*
X18422000Y-8657000D01*
X18402000Y-10295000D02*
X18402000Y-10375000D01*
X18362000Y-10335000D02*
X18442000Y-10335000D01*
X18402000Y-10495000D02*
X18402000Y-10575000D01*
X18362000Y-10535000D02*
X18442000Y-10535000D01*
X18811000Y-10295000D02*
X18811000Y-10375000D01*
X18771000Y-10335000D02*
X18851000Y-10335000D01*
X18811000Y-10495000D02*
X18811000Y-10575000D01*
X18771000Y-10535000D02*
X18851000Y-10535000D01*
D11*
X14934777Y-11556484D02*
X14934777Y-11356484D01*
X14934777Y-11356484D02*
X14982396Y-11356484D01*
X14982396Y-11356484D02*
X15010967Y-11366008D01*
X15010967Y-11366008D02*
X15030015Y-11385055D01*
X15030015Y-11385055D02*
X15039539Y-11404103D01*
X15039539Y-11404103D02*
X15049062Y-11442198D01*
X15049062Y-11442198D02*
X15049062Y-11470769D01*
X15049062Y-11470769D02*
X15039539Y-11508865D01*
X15039539Y-11508865D02*
X15030015Y-11527912D01*
X15030015Y-11527912D02*
X15010967Y-11546960D01*
X15010967Y-11546960D02*
X14982396Y-11556484D01*
X14982396Y-11556484D02*
X14934777Y-11556484D01*
X15134777Y-11556484D02*
X15134777Y-11423150D01*
X15134777Y-11461246D02*
X15144301Y-11442198D01*
X15144301Y-11442198D02*
X15153824Y-11432674D01*
X15153824Y-11432674D02*
X15172872Y-11423150D01*
X15172872Y-11423150D02*
X15191920Y-11423150D01*
X15258586Y-11556484D02*
X15258586Y-11423150D01*
X15258586Y-11356484D02*
X15249062Y-11366008D01*
X15249062Y-11366008D02*
X15258586Y-11375531D01*
X15258586Y-11375531D02*
X15268110Y-11366008D01*
X15268110Y-11366008D02*
X15258586Y-11356484D01*
X15258586Y-11356484D02*
X15258586Y-11375531D01*
X15382396Y-11556484D02*
X15363348Y-11546960D01*
X15363348Y-11546960D02*
X15353824Y-11527912D01*
X15353824Y-11527912D02*
X15353824Y-11356484D01*
X15487158Y-11556484D02*
X15468110Y-11546960D01*
X15468110Y-11546960D02*
X15458586Y-11527912D01*
X15458586Y-11527912D02*
X15458586Y-11356484D01*
X15715729Y-11556484D02*
X15715729Y-11356484D01*
X15715729Y-11356484D02*
X15782396Y-11499341D01*
X15782396Y-11499341D02*
X15849062Y-11356484D01*
X15849062Y-11356484D02*
X15849062Y-11556484D01*
X16030015Y-11556484D02*
X16030015Y-11451722D01*
X16030015Y-11451722D02*
X16020491Y-11432674D01*
X16020491Y-11432674D02*
X16001443Y-11423150D01*
X16001443Y-11423150D02*
X15963348Y-11423150D01*
X15963348Y-11423150D02*
X15944301Y-11432674D01*
X16030015Y-11546960D02*
X16010967Y-11556484D01*
X16010967Y-11556484D02*
X15963348Y-11556484D01*
X15963348Y-11556484D02*
X15944301Y-11546960D01*
X15944301Y-11546960D02*
X15934777Y-11527912D01*
X15934777Y-11527912D02*
X15934777Y-11508865D01*
X15934777Y-11508865D02*
X15944301Y-11489817D01*
X15944301Y-11489817D02*
X15963348Y-11480293D01*
X15963348Y-11480293D02*
X16010967Y-11480293D01*
X16010967Y-11480293D02*
X16030015Y-11470769D01*
X16125253Y-11423150D02*
X16125253Y-11623150D01*
X16125253Y-11432674D02*
X16144301Y-11423150D01*
X16144301Y-11423150D02*
X16182396Y-11423150D01*
X16182396Y-11423150D02*
X16201443Y-11432674D01*
X16201443Y-11432674D02*
X16210967Y-11442198D01*
X16210967Y-11442198D02*
X16220491Y-11461246D01*
X16220491Y-11461246D02*
X16220491Y-11518388D01*
X16220491Y-11518388D02*
X16210967Y-11537436D01*
X16210967Y-11537436D02*
X16201443Y-11546960D01*
X16201443Y-11546960D02*
X16182396Y-11556484D01*
X16182396Y-11556484D02*
X16144301Y-11556484D01*
X16144301Y-11556484D02*
X16125253Y-11546960D01*
X16306205Y-11537436D02*
X16315729Y-11546960D01*
X16315729Y-11546960D02*
X16306205Y-11556484D01*
X16306205Y-11556484D02*
X16296682Y-11546960D01*
X16296682Y-11546960D02*
X16306205Y-11537436D01*
X16306205Y-11537436D02*
X16306205Y-11556484D01*
X16306205Y-11432674D02*
X16315729Y-11442198D01*
X16315729Y-11442198D02*
X16306205Y-11451722D01*
X16306205Y-11451722D02*
X16296682Y-11442198D01*
X16296682Y-11442198D02*
X16306205Y-11432674D01*
X16306205Y-11432674D02*
X16306205Y-11451722D01*
D10*
X14654000Y-11875000D02*
X14674000Y-11895000D01*
X14674000Y-11875000D02*
X14654000Y-11895000D01*
D11*
X14972872Y-11776484D02*
X14991920Y-11776484D01*
X14991920Y-11776484D02*
X15010967Y-11786008D01*
X15010967Y-11786008D02*
X15020491Y-11795531D01*
X15020491Y-11795531D02*
X15030015Y-11814579D01*
X15030015Y-11814579D02*
X15039539Y-11852674D01*
X15039539Y-11852674D02*
X15039539Y-11900293D01*
X15039539Y-11900293D02*
X15030015Y-11938388D01*
X15030015Y-11938388D02*
X15020491Y-11957436D01*
X15020491Y-11957436D02*
X15010967Y-11966960D01*
X15010967Y-11966960D02*
X14991920Y-11976484D01*
X14991920Y-11976484D02*
X14972872Y-11976484D01*
X14972872Y-11976484D02*
X14953824Y-11966960D01*
X14953824Y-11966960D02*
X14944301Y-11957436D01*
X14944301Y-11957436D02*
X14934777Y-11938388D01*
X14934777Y-11938388D02*
X14925253Y-11900293D01*
X14925253Y-11900293D02*
X14925253Y-11852674D01*
X14925253Y-11852674D02*
X14934777Y-11814579D01*
X14934777Y-11814579D02*
X14944301Y-11795531D01*
X14944301Y-11795531D02*
X14953824Y-11786008D01*
X14953824Y-11786008D02*
X14972872Y-11776484D01*
X15125253Y-11957436D02*
X15134777Y-11966960D01*
X15134777Y-11966960D02*
X15125253Y-11976484D01*
X15125253Y-11976484D02*
X15115729Y-11966960D01*
X15115729Y-11966960D02*
X15125253Y-11957436D01*
X15125253Y-11957436D02*
X15125253Y-11976484D01*
X15210967Y-11795531D02*
X15220491Y-11786008D01*
X15220491Y-11786008D02*
X15239539Y-11776484D01*
X15239539Y-11776484D02*
X15287158Y-11776484D01*
X15287158Y-11776484D02*
X15306205Y-11786008D01*
X15306205Y-11786008D02*
X15315729Y-11795531D01*
X15315729Y-11795531D02*
X15325253Y-11814579D01*
X15325253Y-11814579D02*
X15325253Y-11833627D01*
X15325253Y-11833627D02*
X15315729Y-11862198D01*
X15315729Y-11862198D02*
X15201443Y-11976484D01*
X15201443Y-11976484D02*
X15325253Y-11976484D01*
X15449062Y-11776484D02*
X15468110Y-11776484D01*
X15468110Y-11776484D02*
X15487158Y-11786008D01*
X15487158Y-11786008D02*
X15496682Y-11795531D01*
X15496682Y-11795531D02*
X15506205Y-11814579D01*
X15506205Y-11814579D02*
X15515729Y-11852674D01*
X15515729Y-11852674D02*
X15515729Y-11900293D01*
X15515729Y-11900293D02*
X15506205Y-11938388D01*
X15506205Y-11938388D02*
X15496682Y-11957436D01*
X15496682Y-11957436D02*
X15487158Y-11966960D01*
X15487158Y-11966960D02*
X15468110Y-11976484D01*
X15468110Y-11976484D02*
X15449062Y-11976484D01*
X15449062Y-11976484D02*
X15430015Y-11966960D01*
X15430015Y-11966960D02*
X15420491Y-11957436D01*
X15420491Y-11957436D02*
X15410967Y-11938388D01*
X15410967Y-11938388D02*
X15401443Y-11900293D01*
X15401443Y-11900293D02*
X15401443Y-11852674D01*
X15401443Y-11852674D02*
X15410967Y-11814579D01*
X15410967Y-11814579D02*
X15420491Y-11795531D01*
X15420491Y-11795531D02*
X15430015Y-11786008D01*
X15430015Y-11786008D02*
X15449062Y-11776484D01*
X15639539Y-11776484D02*
X15658586Y-11776484D01*
X15658586Y-11776484D02*
X15677634Y-11786008D01*
X15677634Y-11786008D02*
X15687158Y-11795531D01*
X15687158Y-11795531D02*
X15696682Y-11814579D01*
X15696682Y-11814579D02*
X15706205Y-11852674D01*
X15706205Y-11852674D02*
X15706205Y-11900293D01*
X15706205Y-11900293D02*
X15696682Y-11938388D01*
X15696682Y-11938388D02*
X15687158Y-11957436D01*
X15687158Y-11957436D02*
X15677634Y-11966960D01*
X15677634Y-11966960D02*
X15658586Y-11976484D01*
X15658586Y-11976484D02*
X15639539Y-11976484D01*
X15639539Y-11976484D02*
X15620491Y-11966960D01*
X15620491Y-11966960D02*
X15610967Y-11957436D01*
X15610967Y-11957436D02*
X15601443Y-11938388D01*
X15601443Y-11938388D02*
X15591920Y-11900293D01*
X15591920Y-11900293D02*
X15591920Y-11852674D01*
X15591920Y-11852674D02*
X15601443Y-11814579D01*
X15601443Y-11814579D02*
X15610967Y-11795531D01*
X15610967Y-11795531D02*
X15620491Y-11786008D01*
X15620491Y-11786008D02*
X15639539Y-11776484D01*
X15791920Y-11976484D02*
X15791920Y-11843150D01*
X15791920Y-11862198D02*
X15801443Y-11852674D01*
X15801443Y-11852674D02*
X15820491Y-11843150D01*
X15820491Y-11843150D02*
X15849063Y-11843150D01*
X15849063Y-11843150D02*
X15868110Y-11852674D01*
X15868110Y-11852674D02*
X15877634Y-11871722D01*
X15877634Y-11871722D02*
X15877634Y-11976484D01*
X15877634Y-11871722D02*
X15887158Y-11852674D01*
X15887158Y-11852674D02*
X15906205Y-11843150D01*
X15906205Y-11843150D02*
X15934777Y-11843150D01*
X15934777Y-11843150D02*
X15953824Y-11852674D01*
X15953824Y-11852674D02*
X15963348Y-11871722D01*
X15963348Y-11871722D02*
X15963348Y-11976484D01*
X16058586Y-11976484D02*
X16058586Y-11843150D01*
X16058586Y-11862198D02*
X16068110Y-11852674D01*
X16068110Y-11852674D02*
X16087158Y-11843150D01*
X16087158Y-11843150D02*
X16115729Y-11843150D01*
X16115729Y-11843150D02*
X16134777Y-11852674D01*
X16134777Y-11852674D02*
X16144301Y-11871722D01*
X16144301Y-11871722D02*
X16144301Y-11976484D01*
X16144301Y-11871722D02*
X16153824Y-11852674D01*
X16153824Y-11852674D02*
X16172872Y-11843150D01*
X16172872Y-11843150D02*
X16201443Y-11843150D01*
X16201443Y-11843150D02*
X16220491Y-11852674D01*
X16220491Y-11852674D02*
X16230015Y-11871722D01*
X16230015Y-11871722D02*
X16230015Y-11976484D01*
X16620491Y-11766960D02*
X16449063Y-12024103D01*
X16877634Y-11776484D02*
X16896682Y-11776484D01*
X16896682Y-11776484D02*
X16915729Y-11786008D01*
X16915729Y-11786008D02*
X16925253Y-11795531D01*
X16925253Y-11795531D02*
X16934777Y-11814579D01*
X16934777Y-11814579D02*
X16944301Y-11852674D01*
X16944301Y-11852674D02*
X16944301Y-11900293D01*
X16944301Y-11900293D02*
X16934777Y-11938388D01*
X16934777Y-11938388D02*
X16925253Y-11957436D01*
X16925253Y-11957436D02*
X16915729Y-11966960D01*
X16915729Y-11966960D02*
X16896682Y-11976484D01*
X16896682Y-11976484D02*
X16877634Y-11976484D01*
X16877634Y-11976484D02*
X16858587Y-11966960D01*
X16858587Y-11966960D02*
X16849063Y-11957436D01*
X16849063Y-11957436D02*
X16839539Y-11938388D01*
X16839539Y-11938388D02*
X16830015Y-11900293D01*
X16830015Y-11900293D02*
X16830015Y-11852674D01*
X16830015Y-11852674D02*
X16839539Y-11814579D01*
X16839539Y-11814579D02*
X16849063Y-11795531D01*
X16849063Y-11795531D02*
X16858587Y-11786008D01*
X16858587Y-11786008D02*
X16877634Y-11776484D01*
X17030015Y-11957436D02*
X17039539Y-11966960D01*
X17039539Y-11966960D02*
X17030015Y-11976484D01*
X17030015Y-11976484D02*
X17020491Y-11966960D01*
X17020491Y-11966960D02*
X17030015Y-11957436D01*
X17030015Y-11957436D02*
X17030015Y-11976484D01*
X17163348Y-11776484D02*
X17182396Y-11776484D01*
X17182396Y-11776484D02*
X17201444Y-11786008D01*
X17201444Y-11786008D02*
X17210968Y-11795531D01*
X17210968Y-11795531D02*
X17220491Y-11814579D01*
X17220491Y-11814579D02*
X17230015Y-11852674D01*
X17230015Y-11852674D02*
X17230015Y-11900293D01*
X17230015Y-11900293D02*
X17220491Y-11938388D01*
X17220491Y-11938388D02*
X17210968Y-11957436D01*
X17210968Y-11957436D02*
X17201444Y-11966960D01*
X17201444Y-11966960D02*
X17182396Y-11976484D01*
X17182396Y-11976484D02*
X17163348Y-11976484D01*
X17163348Y-11976484D02*
X17144301Y-11966960D01*
X17144301Y-11966960D02*
X17134777Y-11957436D01*
X17134777Y-11957436D02*
X17125253Y-11938388D01*
X17125253Y-11938388D02*
X17115729Y-11900293D01*
X17115729Y-11900293D02*
X17115729Y-11852674D01*
X17115729Y-11852674D02*
X17125253Y-11814579D01*
X17125253Y-11814579D02*
X17134777Y-11795531D01*
X17134777Y-11795531D02*
X17144301Y-11786008D01*
X17144301Y-11786008D02*
X17163348Y-11776484D01*
X17353825Y-11776484D02*
X17372872Y-11776484D01*
X17372872Y-11776484D02*
X17391920Y-11786008D01*
X17391920Y-11786008D02*
X17401444Y-11795531D01*
X17401444Y-11795531D02*
X17410968Y-11814579D01*
X17410968Y-11814579D02*
X17420491Y-11852674D01*
X17420491Y-11852674D02*
X17420491Y-11900293D01*
X17420491Y-11900293D02*
X17410968Y-11938388D01*
X17410968Y-11938388D02*
X17401444Y-11957436D01*
X17401444Y-11957436D02*
X17391920Y-11966960D01*
X17391920Y-11966960D02*
X17372872Y-11976484D01*
X17372872Y-11976484D02*
X17353825Y-11976484D01*
X17353825Y-11976484D02*
X17334777Y-11966960D01*
X17334777Y-11966960D02*
X17325253Y-11957436D01*
X17325253Y-11957436D02*
X17315729Y-11938388D01*
X17315729Y-11938388D02*
X17306206Y-11900293D01*
X17306206Y-11900293D02*
X17306206Y-11852674D01*
X17306206Y-11852674D02*
X17315729Y-11814579D01*
X17315729Y-11814579D02*
X17325253Y-11795531D01*
X17325253Y-11795531D02*
X17334777Y-11786008D01*
X17334777Y-11786008D02*
X17353825Y-11776484D01*
X17487158Y-11776484D02*
X17620491Y-11776484D01*
X17620491Y-11776484D02*
X17534777Y-11976484D01*
X17706206Y-11976484D02*
X17744301Y-11976484D01*
X17744301Y-11976484D02*
X17763349Y-11966960D01*
X17763349Y-11966960D02*
X17772872Y-11957436D01*
X17772872Y-11957436D02*
X17791920Y-11928865D01*
X17791920Y-11928865D02*
X17801444Y-11890769D01*
X17801444Y-11890769D02*
X17801444Y-11814579D01*
X17801444Y-11814579D02*
X17791920Y-11795531D01*
X17791920Y-11795531D02*
X17782396Y-11786008D01*
X17782396Y-11786008D02*
X17763349Y-11776484D01*
X17763349Y-11776484D02*
X17725253Y-11776484D01*
X17725253Y-11776484D02*
X17706206Y-11786008D01*
X17706206Y-11786008D02*
X17696682Y-11795531D01*
X17696682Y-11795531D02*
X17687158Y-11814579D01*
X17687158Y-11814579D02*
X17687158Y-11862198D01*
X17687158Y-11862198D02*
X17696682Y-11881246D01*
X17696682Y-11881246D02*
X17706206Y-11890769D01*
X17706206Y-11890769D02*
X17725253Y-11900293D01*
X17725253Y-11900293D02*
X17763349Y-11900293D01*
X17763349Y-11900293D02*
X17782396Y-11890769D01*
X17782396Y-11890769D02*
X17791920Y-11881246D01*
X17791920Y-11881246D02*
X17801444Y-11862198D01*
X17877634Y-11776484D02*
X17877634Y-11814579D01*
X17953825Y-11776484D02*
X17953825Y-11814579D01*
X18249063Y-12052674D02*
X18239539Y-12043150D01*
X18239539Y-12043150D02*
X18220491Y-12014579D01*
X18220491Y-12014579D02*
X18210968Y-11995531D01*
X18210968Y-11995531D02*
X18201444Y-11966960D01*
X18201444Y-11966960D02*
X18191920Y-11919341D01*
X18191920Y-11919341D02*
X18191920Y-11881246D01*
X18191920Y-11881246D02*
X18201444Y-11833627D01*
X18201444Y-11833627D02*
X18210968Y-11805055D01*
X18210968Y-11805055D02*
X18220491Y-11786008D01*
X18220491Y-11786008D02*
X18239539Y-11757436D01*
X18239539Y-11757436D02*
X18249063Y-11747912D01*
X18306206Y-11776484D02*
X18430015Y-11776484D01*
X18430015Y-11776484D02*
X18363349Y-11852674D01*
X18363349Y-11852674D02*
X18391920Y-11852674D01*
X18391920Y-11852674D02*
X18410968Y-11862198D01*
X18410968Y-11862198D02*
X18420491Y-11871722D01*
X18420491Y-11871722D02*
X18430015Y-11890769D01*
X18430015Y-11890769D02*
X18430015Y-11938388D01*
X18430015Y-11938388D02*
X18420491Y-11957436D01*
X18420491Y-11957436D02*
X18410968Y-11966960D01*
X18410968Y-11966960D02*
X18391920Y-11976484D01*
X18391920Y-11976484D02*
X18334777Y-11976484D01*
X18334777Y-11976484D02*
X18315730Y-11966960D01*
X18315730Y-11966960D02*
X18306206Y-11957436D01*
X18553825Y-11776484D02*
X18572872Y-11776484D01*
X18572872Y-11776484D02*
X18591920Y-11786008D01*
X18591920Y-11786008D02*
X18601444Y-11795531D01*
X18601444Y-11795531D02*
X18610968Y-11814579D01*
X18610968Y-11814579D02*
X18620491Y-11852674D01*
X18620491Y-11852674D02*
X18620491Y-11900293D01*
X18620491Y-11900293D02*
X18610968Y-11938388D01*
X18610968Y-11938388D02*
X18601444Y-11957436D01*
X18601444Y-11957436D02*
X18591920Y-11966960D01*
X18591920Y-11966960D02*
X18572872Y-11976484D01*
X18572872Y-11976484D02*
X18553825Y-11976484D01*
X18553825Y-11976484D02*
X18534777Y-11966960D01*
X18534777Y-11966960D02*
X18525253Y-11957436D01*
X18525253Y-11957436D02*
X18515730Y-11938388D01*
X18515730Y-11938388D02*
X18506206Y-11900293D01*
X18506206Y-11900293D02*
X18506206Y-11852674D01*
X18506206Y-11852674D02*
X18515730Y-11814579D01*
X18515730Y-11814579D02*
X18525253Y-11795531D01*
X18525253Y-11795531D02*
X18534777Y-11786008D01*
X18534777Y-11786008D02*
X18553825Y-11776484D01*
X18858587Y-11976484D02*
X18858587Y-11776484D01*
X18944301Y-11976484D02*
X18944301Y-11871722D01*
X18944301Y-11871722D02*
X18934777Y-11852674D01*
X18934777Y-11852674D02*
X18915730Y-11843150D01*
X18915730Y-11843150D02*
X18887158Y-11843150D01*
X18887158Y-11843150D02*
X18868111Y-11852674D01*
X18868111Y-11852674D02*
X18858587Y-11862198D01*
X19068111Y-11976484D02*
X19049063Y-11966960D01*
X19049063Y-11966960D02*
X19039539Y-11957436D01*
X19039539Y-11957436D02*
X19030015Y-11938388D01*
X19030015Y-11938388D02*
X19030015Y-11881246D01*
X19030015Y-11881246D02*
X19039539Y-11862198D01*
X19039539Y-11862198D02*
X19049063Y-11852674D01*
X19049063Y-11852674D02*
X19068111Y-11843150D01*
X19068111Y-11843150D02*
X19096682Y-11843150D01*
X19096682Y-11843150D02*
X19115730Y-11852674D01*
X19115730Y-11852674D02*
X19125253Y-11862198D01*
X19125253Y-11862198D02*
X19134777Y-11881246D01*
X19134777Y-11881246D02*
X19134777Y-11938388D01*
X19134777Y-11938388D02*
X19125253Y-11957436D01*
X19125253Y-11957436D02*
X19115730Y-11966960D01*
X19115730Y-11966960D02*
X19096682Y-11976484D01*
X19096682Y-11976484D02*
X19068111Y-11976484D01*
X19249063Y-11976484D02*
X19230015Y-11966960D01*
X19230015Y-11966960D02*
X19220492Y-11947912D01*
X19220492Y-11947912D02*
X19220492Y-11776484D01*
X19401444Y-11966960D02*
X19382396Y-11976484D01*
X19382396Y-11976484D02*
X19344301Y-11976484D01*
X19344301Y-11976484D02*
X19325253Y-11966960D01*
X19325253Y-11966960D02*
X19315730Y-11947912D01*
X19315730Y-11947912D02*
X19315730Y-11871722D01*
X19315730Y-11871722D02*
X19325253Y-11852674D01*
X19325253Y-11852674D02*
X19344301Y-11843150D01*
X19344301Y-11843150D02*
X19382396Y-11843150D01*
X19382396Y-11843150D02*
X19401444Y-11852674D01*
X19401444Y-11852674D02*
X19410968Y-11871722D01*
X19410968Y-11871722D02*
X19410968Y-11890769D01*
X19410968Y-11890769D02*
X19315730Y-11909817D01*
X19487158Y-11966960D02*
X19506206Y-11976484D01*
X19506206Y-11976484D02*
X19544301Y-11976484D01*
X19544301Y-11976484D02*
X19563349Y-11966960D01*
X19563349Y-11966960D02*
X19572873Y-11947912D01*
X19572873Y-11947912D02*
X19572873Y-11938388D01*
X19572873Y-11938388D02*
X19563349Y-11919341D01*
X19563349Y-11919341D02*
X19544301Y-11909817D01*
X19544301Y-11909817D02*
X19515730Y-11909817D01*
X19515730Y-11909817D02*
X19496682Y-11900293D01*
X19496682Y-11900293D02*
X19487158Y-11881246D01*
X19487158Y-11881246D02*
X19487158Y-11871722D01*
X19487158Y-11871722D02*
X19496682Y-11852674D01*
X19496682Y-11852674D02*
X19515730Y-11843150D01*
X19515730Y-11843150D02*
X19544301Y-11843150D01*
X19544301Y-11843150D02*
X19563349Y-11852674D01*
X19639539Y-12052674D02*
X19649063Y-12043150D01*
X19649063Y-12043150D02*
X19668111Y-12014579D01*
X19668111Y-12014579D02*
X19677634Y-11995531D01*
X19677634Y-11995531D02*
X19687158Y-11966960D01*
X19687158Y-11966960D02*
X19696682Y-11919341D01*
X19696682Y-11919341D02*
X19696682Y-11881246D01*
X19696682Y-11881246D02*
X19687158Y-11833627D01*
X19687158Y-11833627D02*
X19677634Y-11805055D01*
X19677634Y-11805055D02*
X19668111Y-11786008D01*
X19668111Y-11786008D02*
X19649063Y-11757436D01*
X19649063Y-11757436D02*
X19639539Y-11747912D01*
D10*
X14674000Y-12149000D02*
G75*
G02*
X14644000Y-12149000I-15000J0D01*
G01*
X14644000Y-12149000D02*
G75*
G02*
X14674000Y-12149000I15000J0D01*
G01*
D11*
X14972872Y-12040484D02*
X14991920Y-12040484D01*
X14991920Y-12040484D02*
X15010967Y-12050008D01*
X15010967Y-12050008D02*
X15020491Y-12059531D01*
X15020491Y-12059531D02*
X15030015Y-12078579D01*
X15030015Y-12078579D02*
X15039539Y-12116674D01*
X15039539Y-12116674D02*
X15039539Y-12164293D01*
X15039539Y-12164293D02*
X15030015Y-12202388D01*
X15030015Y-12202388D02*
X15020491Y-12221436D01*
X15020491Y-12221436D02*
X15010967Y-12230960D01*
X15010967Y-12230960D02*
X14991920Y-12240484D01*
X14991920Y-12240484D02*
X14972872Y-12240484D01*
X14972872Y-12240484D02*
X14953824Y-12230960D01*
X14953824Y-12230960D02*
X14944301Y-12221436D01*
X14944301Y-12221436D02*
X14934777Y-12202388D01*
X14934777Y-12202388D02*
X14925253Y-12164293D01*
X14925253Y-12164293D02*
X14925253Y-12116674D01*
X14925253Y-12116674D02*
X14934777Y-12078579D01*
X14934777Y-12078579D02*
X14944301Y-12059531D01*
X14944301Y-12059531D02*
X14953824Y-12050008D01*
X14953824Y-12050008D02*
X14972872Y-12040484D01*
X15125253Y-12221436D02*
X15134777Y-12230960D01*
X15134777Y-12230960D02*
X15125253Y-12240484D01*
X15125253Y-12240484D02*
X15115729Y-12230960D01*
X15115729Y-12230960D02*
X15125253Y-12221436D01*
X15125253Y-12221436D02*
X15125253Y-12240484D01*
X15201443Y-12040484D02*
X15325253Y-12040484D01*
X15325253Y-12040484D02*
X15258586Y-12116674D01*
X15258586Y-12116674D02*
X15287158Y-12116674D01*
X15287158Y-12116674D02*
X15306205Y-12126198D01*
X15306205Y-12126198D02*
X15315729Y-12135722D01*
X15315729Y-12135722D02*
X15325253Y-12154769D01*
X15325253Y-12154769D02*
X15325253Y-12202388D01*
X15325253Y-12202388D02*
X15315729Y-12221436D01*
X15315729Y-12221436D02*
X15306205Y-12230960D01*
X15306205Y-12230960D02*
X15287158Y-12240484D01*
X15287158Y-12240484D02*
X15230015Y-12240484D01*
X15230015Y-12240484D02*
X15210967Y-12230960D01*
X15210967Y-12230960D02*
X15201443Y-12221436D01*
X15449062Y-12040484D02*
X15468110Y-12040484D01*
X15468110Y-12040484D02*
X15487158Y-12050008D01*
X15487158Y-12050008D02*
X15496682Y-12059531D01*
X15496682Y-12059531D02*
X15506205Y-12078579D01*
X15506205Y-12078579D02*
X15515729Y-12116674D01*
X15515729Y-12116674D02*
X15515729Y-12164293D01*
X15515729Y-12164293D02*
X15506205Y-12202388D01*
X15506205Y-12202388D02*
X15496682Y-12221436D01*
X15496682Y-12221436D02*
X15487158Y-12230960D01*
X15487158Y-12230960D02*
X15468110Y-12240484D01*
X15468110Y-12240484D02*
X15449062Y-12240484D01*
X15449062Y-12240484D02*
X15430015Y-12230960D01*
X15430015Y-12230960D02*
X15420491Y-12221436D01*
X15420491Y-12221436D02*
X15410967Y-12202388D01*
X15410967Y-12202388D02*
X15401443Y-12164293D01*
X15401443Y-12164293D02*
X15401443Y-12116674D01*
X15401443Y-12116674D02*
X15410967Y-12078579D01*
X15410967Y-12078579D02*
X15420491Y-12059531D01*
X15420491Y-12059531D02*
X15430015Y-12050008D01*
X15430015Y-12050008D02*
X15449062Y-12040484D01*
X15639539Y-12040484D02*
X15658586Y-12040484D01*
X15658586Y-12040484D02*
X15677634Y-12050008D01*
X15677634Y-12050008D02*
X15687158Y-12059531D01*
X15687158Y-12059531D02*
X15696682Y-12078579D01*
X15696682Y-12078579D02*
X15706205Y-12116674D01*
X15706205Y-12116674D02*
X15706205Y-12164293D01*
X15706205Y-12164293D02*
X15696682Y-12202388D01*
X15696682Y-12202388D02*
X15687158Y-12221436D01*
X15687158Y-12221436D02*
X15677634Y-12230960D01*
X15677634Y-12230960D02*
X15658586Y-12240484D01*
X15658586Y-12240484D02*
X15639539Y-12240484D01*
X15639539Y-12240484D02*
X15620491Y-12230960D01*
X15620491Y-12230960D02*
X15610967Y-12221436D01*
X15610967Y-12221436D02*
X15601443Y-12202388D01*
X15601443Y-12202388D02*
X15591920Y-12164293D01*
X15591920Y-12164293D02*
X15591920Y-12116674D01*
X15591920Y-12116674D02*
X15601443Y-12078579D01*
X15601443Y-12078579D02*
X15610967Y-12059531D01*
X15610967Y-12059531D02*
X15620491Y-12050008D01*
X15620491Y-12050008D02*
X15639539Y-12040484D01*
X15791920Y-12240484D02*
X15791920Y-12107150D01*
X15791920Y-12126198D02*
X15801443Y-12116674D01*
X15801443Y-12116674D02*
X15820491Y-12107150D01*
X15820491Y-12107150D02*
X15849063Y-12107150D01*
X15849063Y-12107150D02*
X15868110Y-12116674D01*
X15868110Y-12116674D02*
X15877634Y-12135722D01*
X15877634Y-12135722D02*
X15877634Y-12240484D01*
X15877634Y-12135722D02*
X15887158Y-12116674D01*
X15887158Y-12116674D02*
X15906205Y-12107150D01*
X15906205Y-12107150D02*
X15934777Y-12107150D01*
X15934777Y-12107150D02*
X15953824Y-12116674D01*
X15953824Y-12116674D02*
X15963348Y-12135722D01*
X15963348Y-12135722D02*
X15963348Y-12240484D01*
X16058586Y-12240484D02*
X16058586Y-12107150D01*
X16058586Y-12126198D02*
X16068110Y-12116674D01*
X16068110Y-12116674D02*
X16087158Y-12107150D01*
X16087158Y-12107150D02*
X16115729Y-12107150D01*
X16115729Y-12107150D02*
X16134777Y-12116674D01*
X16134777Y-12116674D02*
X16144301Y-12135722D01*
X16144301Y-12135722D02*
X16144301Y-12240484D01*
X16144301Y-12135722D02*
X16153824Y-12116674D01*
X16153824Y-12116674D02*
X16172872Y-12107150D01*
X16172872Y-12107150D02*
X16201443Y-12107150D01*
X16201443Y-12107150D02*
X16220491Y-12116674D01*
X16220491Y-12116674D02*
X16230015Y-12135722D01*
X16230015Y-12135722D02*
X16230015Y-12240484D01*
X16620491Y-12030960D02*
X16449063Y-12288103D01*
X16877634Y-12040484D02*
X16896682Y-12040484D01*
X16896682Y-12040484D02*
X16915729Y-12050008D01*
X16915729Y-12050008D02*
X16925253Y-12059531D01*
X16925253Y-12059531D02*
X16934777Y-12078579D01*
X16934777Y-12078579D02*
X16944301Y-12116674D01*
X16944301Y-12116674D02*
X16944301Y-12164293D01*
X16944301Y-12164293D02*
X16934777Y-12202388D01*
X16934777Y-12202388D02*
X16925253Y-12221436D01*
X16925253Y-12221436D02*
X16915729Y-12230960D01*
X16915729Y-12230960D02*
X16896682Y-12240484D01*
X16896682Y-12240484D02*
X16877634Y-12240484D01*
X16877634Y-12240484D02*
X16858587Y-12230960D01*
X16858587Y-12230960D02*
X16849063Y-12221436D01*
X16849063Y-12221436D02*
X16839539Y-12202388D01*
X16839539Y-12202388D02*
X16830015Y-12164293D01*
X16830015Y-12164293D02*
X16830015Y-12116674D01*
X16830015Y-12116674D02*
X16839539Y-12078579D01*
X16839539Y-12078579D02*
X16849063Y-12059531D01*
X16849063Y-12059531D02*
X16858587Y-12050008D01*
X16858587Y-12050008D02*
X16877634Y-12040484D01*
X17030015Y-12221436D02*
X17039539Y-12230960D01*
X17039539Y-12230960D02*
X17030015Y-12240484D01*
X17030015Y-12240484D02*
X17020491Y-12230960D01*
X17020491Y-12230960D02*
X17030015Y-12221436D01*
X17030015Y-12221436D02*
X17030015Y-12240484D01*
X17163348Y-12040484D02*
X17182396Y-12040484D01*
X17182396Y-12040484D02*
X17201444Y-12050008D01*
X17201444Y-12050008D02*
X17210968Y-12059531D01*
X17210968Y-12059531D02*
X17220491Y-12078579D01*
X17220491Y-12078579D02*
X17230015Y-12116674D01*
X17230015Y-12116674D02*
X17230015Y-12164293D01*
X17230015Y-12164293D02*
X17220491Y-12202388D01*
X17220491Y-12202388D02*
X17210968Y-12221436D01*
X17210968Y-12221436D02*
X17201444Y-12230960D01*
X17201444Y-12230960D02*
X17182396Y-12240484D01*
X17182396Y-12240484D02*
X17163348Y-12240484D01*
X17163348Y-12240484D02*
X17144301Y-12230960D01*
X17144301Y-12230960D02*
X17134777Y-12221436D01*
X17134777Y-12221436D02*
X17125253Y-12202388D01*
X17125253Y-12202388D02*
X17115729Y-12164293D01*
X17115729Y-12164293D02*
X17115729Y-12116674D01*
X17115729Y-12116674D02*
X17125253Y-12078579D01*
X17125253Y-12078579D02*
X17134777Y-12059531D01*
X17134777Y-12059531D02*
X17144301Y-12050008D01*
X17144301Y-12050008D02*
X17163348Y-12040484D01*
X17420491Y-12240484D02*
X17306206Y-12240484D01*
X17363348Y-12240484D02*
X17363348Y-12040484D01*
X17363348Y-12040484D02*
X17344301Y-12069055D01*
X17344301Y-12069055D02*
X17325253Y-12088103D01*
X17325253Y-12088103D02*
X17306206Y-12097627D01*
X17610968Y-12240484D02*
X17496682Y-12240484D01*
X17553825Y-12240484D02*
X17553825Y-12040484D01*
X17553825Y-12040484D02*
X17534777Y-12069055D01*
X17534777Y-12069055D02*
X17515729Y-12088103D01*
X17515729Y-12088103D02*
X17496682Y-12097627D01*
X17725253Y-12126198D02*
X17706206Y-12116674D01*
X17706206Y-12116674D02*
X17696682Y-12107150D01*
X17696682Y-12107150D02*
X17687158Y-12088103D01*
X17687158Y-12088103D02*
X17687158Y-12078579D01*
X17687158Y-12078579D02*
X17696682Y-12059531D01*
X17696682Y-12059531D02*
X17706206Y-12050008D01*
X17706206Y-12050008D02*
X17725253Y-12040484D01*
X17725253Y-12040484D02*
X17763349Y-12040484D01*
X17763349Y-12040484D02*
X17782396Y-12050008D01*
X17782396Y-12050008D02*
X17791920Y-12059531D01*
X17791920Y-12059531D02*
X17801444Y-12078579D01*
X17801444Y-12078579D02*
X17801444Y-12088103D01*
X17801444Y-12088103D02*
X17791920Y-12107150D01*
X17791920Y-12107150D02*
X17782396Y-12116674D01*
X17782396Y-12116674D02*
X17763349Y-12126198D01*
X17763349Y-12126198D02*
X17725253Y-12126198D01*
X17725253Y-12126198D02*
X17706206Y-12135722D01*
X17706206Y-12135722D02*
X17696682Y-12145246D01*
X17696682Y-12145246D02*
X17687158Y-12164293D01*
X17687158Y-12164293D02*
X17687158Y-12202388D01*
X17687158Y-12202388D02*
X17696682Y-12221436D01*
X17696682Y-12221436D02*
X17706206Y-12230960D01*
X17706206Y-12230960D02*
X17725253Y-12240484D01*
X17725253Y-12240484D02*
X17763349Y-12240484D01*
X17763349Y-12240484D02*
X17782396Y-12230960D01*
X17782396Y-12230960D02*
X17791920Y-12221436D01*
X17791920Y-12221436D02*
X17801444Y-12202388D01*
X17801444Y-12202388D02*
X17801444Y-12164293D01*
X17801444Y-12164293D02*
X17791920Y-12145246D01*
X17791920Y-12145246D02*
X17782396Y-12135722D01*
X17782396Y-12135722D02*
X17763349Y-12126198D01*
X17877634Y-12040484D02*
X17877634Y-12078579D01*
X17953825Y-12040484D02*
X17953825Y-12078579D01*
X18249063Y-12316674D02*
X18239539Y-12307150D01*
X18239539Y-12307150D02*
X18220491Y-12278579D01*
X18220491Y-12278579D02*
X18210968Y-12259531D01*
X18210968Y-12259531D02*
X18201444Y-12230960D01*
X18201444Y-12230960D02*
X18191920Y-12183341D01*
X18191920Y-12183341D02*
X18191920Y-12145246D01*
X18191920Y-12145246D02*
X18201444Y-12097627D01*
X18201444Y-12097627D02*
X18210968Y-12069055D01*
X18210968Y-12069055D02*
X18220491Y-12050008D01*
X18220491Y-12050008D02*
X18239539Y-12021436D01*
X18239539Y-12021436D02*
X18249063Y-12011912D01*
X18430015Y-12240484D02*
X18315730Y-12240484D01*
X18372872Y-12240484D02*
X18372872Y-12040484D01*
X18372872Y-12040484D02*
X18353825Y-12069055D01*
X18353825Y-12069055D02*
X18334777Y-12088103D01*
X18334777Y-12088103D02*
X18315730Y-12097627D01*
X18668111Y-12240484D02*
X18668111Y-12040484D01*
X18753825Y-12240484D02*
X18753825Y-12135722D01*
X18753825Y-12135722D02*
X18744301Y-12116674D01*
X18744301Y-12116674D02*
X18725253Y-12107150D01*
X18725253Y-12107150D02*
X18696682Y-12107150D01*
X18696682Y-12107150D02*
X18677634Y-12116674D01*
X18677634Y-12116674D02*
X18668111Y-12126198D01*
X18877634Y-12240484D02*
X18858587Y-12230960D01*
X18858587Y-12230960D02*
X18849063Y-12221436D01*
X18849063Y-12221436D02*
X18839539Y-12202388D01*
X18839539Y-12202388D02*
X18839539Y-12145246D01*
X18839539Y-12145246D02*
X18849063Y-12126198D01*
X18849063Y-12126198D02*
X18858587Y-12116674D01*
X18858587Y-12116674D02*
X18877634Y-12107150D01*
X18877634Y-12107150D02*
X18906206Y-12107150D01*
X18906206Y-12107150D02*
X18925253Y-12116674D01*
X18925253Y-12116674D02*
X18934777Y-12126198D01*
X18934777Y-12126198D02*
X18944301Y-12145246D01*
X18944301Y-12145246D02*
X18944301Y-12202388D01*
X18944301Y-12202388D02*
X18934777Y-12221436D01*
X18934777Y-12221436D02*
X18925253Y-12230960D01*
X18925253Y-12230960D02*
X18906206Y-12240484D01*
X18906206Y-12240484D02*
X18877634Y-12240484D01*
X19058587Y-12240484D02*
X19039539Y-12230960D01*
X19039539Y-12230960D02*
X19030015Y-12211912D01*
X19030015Y-12211912D02*
X19030015Y-12040484D01*
X19210968Y-12230960D02*
X19191920Y-12240484D01*
X19191920Y-12240484D02*
X19153825Y-12240484D01*
X19153825Y-12240484D02*
X19134777Y-12230960D01*
X19134777Y-12230960D02*
X19125253Y-12211912D01*
X19125253Y-12211912D02*
X19125253Y-12135722D01*
X19125253Y-12135722D02*
X19134777Y-12116674D01*
X19134777Y-12116674D02*
X19153825Y-12107150D01*
X19153825Y-12107150D02*
X19191920Y-12107150D01*
X19191920Y-12107150D02*
X19210968Y-12116674D01*
X19210968Y-12116674D02*
X19220492Y-12135722D01*
X19220492Y-12135722D02*
X19220492Y-12154769D01*
X19220492Y-12154769D02*
X19125253Y-12173817D01*
X19287158Y-12316674D02*
X19296682Y-12307150D01*
X19296682Y-12307150D02*
X19315730Y-12278579D01*
X19315730Y-12278579D02*
X19325253Y-12259531D01*
X19325253Y-12259531D02*
X19334777Y-12230960D01*
X19334777Y-12230960D02*
X19344301Y-12183341D01*
X19344301Y-12183341D02*
X19344301Y-12145246D01*
X19344301Y-12145246D02*
X19334777Y-12097627D01*
X19334777Y-12097627D02*
X19325253Y-12069055D01*
X19325253Y-12069055D02*
X19315730Y-12050008D01*
X19315730Y-12050008D02*
X19296682Y-12021436D01*
X19296682Y-12021436D02*
X19287158Y-12011912D01*
D10*
X14634000Y-12373000D02*
X14634000Y-12453000D01*
X14594000Y-12413000D02*
X14674000Y-12413000D01*
D11*
X14972872Y-12304484D02*
X14991920Y-12304484D01*
X14991920Y-12304484D02*
X15010967Y-12314008D01*
X15010967Y-12314008D02*
X15020491Y-12323531D01*
X15020491Y-12323531D02*
X15030015Y-12342579D01*
X15030015Y-12342579D02*
X15039539Y-12380674D01*
X15039539Y-12380674D02*
X15039539Y-12428293D01*
X15039539Y-12428293D02*
X15030015Y-12466388D01*
X15030015Y-12466388D02*
X15020491Y-12485436D01*
X15020491Y-12485436D02*
X15010967Y-12494960D01*
X15010967Y-12494960D02*
X14991920Y-12504484D01*
X14991920Y-12504484D02*
X14972872Y-12504484D01*
X14972872Y-12504484D02*
X14953824Y-12494960D01*
X14953824Y-12494960D02*
X14944301Y-12485436D01*
X14944301Y-12485436D02*
X14934777Y-12466388D01*
X14934777Y-12466388D02*
X14925253Y-12428293D01*
X14925253Y-12428293D02*
X14925253Y-12380674D01*
X14925253Y-12380674D02*
X14934777Y-12342579D01*
X14934777Y-12342579D02*
X14944301Y-12323531D01*
X14944301Y-12323531D02*
X14953824Y-12314008D01*
X14953824Y-12314008D02*
X14972872Y-12304484D01*
X15125253Y-12485436D02*
X15134777Y-12494960D01*
X15134777Y-12494960D02*
X15125253Y-12504484D01*
X15125253Y-12504484D02*
X15115729Y-12494960D01*
X15115729Y-12494960D02*
X15125253Y-12485436D01*
X15125253Y-12485436D02*
X15125253Y-12504484D01*
X15249062Y-12390198D02*
X15230015Y-12380674D01*
X15230015Y-12380674D02*
X15220491Y-12371150D01*
X15220491Y-12371150D02*
X15210967Y-12352103D01*
X15210967Y-12352103D02*
X15210967Y-12342579D01*
X15210967Y-12342579D02*
X15220491Y-12323531D01*
X15220491Y-12323531D02*
X15230015Y-12314008D01*
X15230015Y-12314008D02*
X15249062Y-12304484D01*
X15249062Y-12304484D02*
X15287158Y-12304484D01*
X15287158Y-12304484D02*
X15306205Y-12314008D01*
X15306205Y-12314008D02*
X15315729Y-12323531D01*
X15315729Y-12323531D02*
X15325253Y-12342579D01*
X15325253Y-12342579D02*
X15325253Y-12352103D01*
X15325253Y-12352103D02*
X15315729Y-12371150D01*
X15315729Y-12371150D02*
X15306205Y-12380674D01*
X15306205Y-12380674D02*
X15287158Y-12390198D01*
X15287158Y-12390198D02*
X15249062Y-12390198D01*
X15249062Y-12390198D02*
X15230015Y-12399722D01*
X15230015Y-12399722D02*
X15220491Y-12409246D01*
X15220491Y-12409246D02*
X15210967Y-12428293D01*
X15210967Y-12428293D02*
X15210967Y-12466388D01*
X15210967Y-12466388D02*
X15220491Y-12485436D01*
X15220491Y-12485436D02*
X15230015Y-12494960D01*
X15230015Y-12494960D02*
X15249062Y-12504484D01*
X15249062Y-12504484D02*
X15287158Y-12504484D01*
X15287158Y-12504484D02*
X15306205Y-12494960D01*
X15306205Y-12494960D02*
X15315729Y-12485436D01*
X15315729Y-12485436D02*
X15325253Y-12466388D01*
X15325253Y-12466388D02*
X15325253Y-12428293D01*
X15325253Y-12428293D02*
X15315729Y-12409246D01*
X15315729Y-12409246D02*
X15306205Y-12399722D01*
X15306205Y-12399722D02*
X15287158Y-12390198D01*
X15449062Y-12304484D02*
X15468110Y-12304484D01*
X15468110Y-12304484D02*
X15487158Y-12314008D01*
X15487158Y-12314008D02*
X15496682Y-12323531D01*
X15496682Y-12323531D02*
X15506205Y-12342579D01*
X15506205Y-12342579D02*
X15515729Y-12380674D01*
X15515729Y-12380674D02*
X15515729Y-12428293D01*
X15515729Y-12428293D02*
X15506205Y-12466388D01*
X15506205Y-12466388D02*
X15496682Y-12485436D01*
X15496682Y-12485436D02*
X15487158Y-12494960D01*
X15487158Y-12494960D02*
X15468110Y-12504484D01*
X15468110Y-12504484D02*
X15449062Y-12504484D01*
X15449062Y-12504484D02*
X15430015Y-12494960D01*
X15430015Y-12494960D02*
X15420491Y-12485436D01*
X15420491Y-12485436D02*
X15410967Y-12466388D01*
X15410967Y-12466388D02*
X15401443Y-12428293D01*
X15401443Y-12428293D02*
X15401443Y-12380674D01*
X15401443Y-12380674D02*
X15410967Y-12342579D01*
X15410967Y-12342579D02*
X15420491Y-12323531D01*
X15420491Y-12323531D02*
X15430015Y-12314008D01*
X15430015Y-12314008D02*
X15449062Y-12304484D01*
X15639539Y-12304484D02*
X15658586Y-12304484D01*
X15658586Y-12304484D02*
X15677634Y-12314008D01*
X15677634Y-12314008D02*
X15687158Y-12323531D01*
X15687158Y-12323531D02*
X15696682Y-12342579D01*
X15696682Y-12342579D02*
X15706205Y-12380674D01*
X15706205Y-12380674D02*
X15706205Y-12428293D01*
X15706205Y-12428293D02*
X15696682Y-12466388D01*
X15696682Y-12466388D02*
X15687158Y-12485436D01*
X15687158Y-12485436D02*
X15677634Y-12494960D01*
X15677634Y-12494960D02*
X15658586Y-12504484D01*
X15658586Y-12504484D02*
X15639539Y-12504484D01*
X15639539Y-12504484D02*
X15620491Y-12494960D01*
X15620491Y-12494960D02*
X15610967Y-12485436D01*
X15610967Y-12485436D02*
X15601443Y-12466388D01*
X15601443Y-12466388D02*
X15591920Y-12428293D01*
X15591920Y-12428293D02*
X15591920Y-12380674D01*
X15591920Y-12380674D02*
X15601443Y-12342579D01*
X15601443Y-12342579D02*
X15610967Y-12323531D01*
X15610967Y-12323531D02*
X15620491Y-12314008D01*
X15620491Y-12314008D02*
X15639539Y-12304484D01*
X15791920Y-12504484D02*
X15791920Y-12371150D01*
X15791920Y-12390198D02*
X15801443Y-12380674D01*
X15801443Y-12380674D02*
X15820491Y-12371150D01*
X15820491Y-12371150D02*
X15849063Y-12371150D01*
X15849063Y-12371150D02*
X15868110Y-12380674D01*
X15868110Y-12380674D02*
X15877634Y-12399722D01*
X15877634Y-12399722D02*
X15877634Y-12504484D01*
X15877634Y-12399722D02*
X15887158Y-12380674D01*
X15887158Y-12380674D02*
X15906205Y-12371150D01*
X15906205Y-12371150D02*
X15934777Y-12371150D01*
X15934777Y-12371150D02*
X15953824Y-12380674D01*
X15953824Y-12380674D02*
X15963348Y-12399722D01*
X15963348Y-12399722D02*
X15963348Y-12504484D01*
X16058586Y-12504484D02*
X16058586Y-12371150D01*
X16058586Y-12390198D02*
X16068110Y-12380674D01*
X16068110Y-12380674D02*
X16087158Y-12371150D01*
X16087158Y-12371150D02*
X16115729Y-12371150D01*
X16115729Y-12371150D02*
X16134777Y-12380674D01*
X16134777Y-12380674D02*
X16144301Y-12399722D01*
X16144301Y-12399722D02*
X16144301Y-12504484D01*
X16144301Y-12399722D02*
X16153824Y-12380674D01*
X16153824Y-12380674D02*
X16172872Y-12371150D01*
X16172872Y-12371150D02*
X16201443Y-12371150D01*
X16201443Y-12371150D02*
X16220491Y-12380674D01*
X16220491Y-12380674D02*
X16230015Y-12399722D01*
X16230015Y-12399722D02*
X16230015Y-12504484D01*
X16620491Y-12294960D02*
X16449063Y-12552103D01*
X16877634Y-12304484D02*
X16896682Y-12304484D01*
X16896682Y-12304484D02*
X16915729Y-12314008D01*
X16915729Y-12314008D02*
X16925253Y-12323531D01*
X16925253Y-12323531D02*
X16934777Y-12342579D01*
X16934777Y-12342579D02*
X16944301Y-12380674D01*
X16944301Y-12380674D02*
X16944301Y-12428293D01*
X16944301Y-12428293D02*
X16934777Y-12466388D01*
X16934777Y-12466388D02*
X16925253Y-12485436D01*
X16925253Y-12485436D02*
X16915729Y-12494960D01*
X16915729Y-12494960D02*
X16896682Y-12504484D01*
X16896682Y-12504484D02*
X16877634Y-12504484D01*
X16877634Y-12504484D02*
X16858587Y-12494960D01*
X16858587Y-12494960D02*
X16849063Y-12485436D01*
X16849063Y-12485436D02*
X16839539Y-12466388D01*
X16839539Y-12466388D02*
X16830015Y-12428293D01*
X16830015Y-12428293D02*
X16830015Y-12380674D01*
X16830015Y-12380674D02*
X16839539Y-12342579D01*
X16839539Y-12342579D02*
X16849063Y-12323531D01*
X16849063Y-12323531D02*
X16858587Y-12314008D01*
X16858587Y-12314008D02*
X16877634Y-12304484D01*
X17030015Y-12485436D02*
X17039539Y-12494960D01*
X17039539Y-12494960D02*
X17030015Y-12504484D01*
X17030015Y-12504484D02*
X17020491Y-12494960D01*
X17020491Y-12494960D02*
X17030015Y-12485436D01*
X17030015Y-12485436D02*
X17030015Y-12504484D01*
X17163348Y-12304484D02*
X17182396Y-12304484D01*
X17182396Y-12304484D02*
X17201444Y-12314008D01*
X17201444Y-12314008D02*
X17210968Y-12323531D01*
X17210968Y-12323531D02*
X17220491Y-12342579D01*
X17220491Y-12342579D02*
X17230015Y-12380674D01*
X17230015Y-12380674D02*
X17230015Y-12428293D01*
X17230015Y-12428293D02*
X17220491Y-12466388D01*
X17220491Y-12466388D02*
X17210968Y-12485436D01*
X17210968Y-12485436D02*
X17201444Y-12494960D01*
X17201444Y-12494960D02*
X17182396Y-12504484D01*
X17182396Y-12504484D02*
X17163348Y-12504484D01*
X17163348Y-12504484D02*
X17144301Y-12494960D01*
X17144301Y-12494960D02*
X17134777Y-12485436D01*
X17134777Y-12485436D02*
X17125253Y-12466388D01*
X17125253Y-12466388D02*
X17115729Y-12428293D01*
X17115729Y-12428293D02*
X17115729Y-12380674D01*
X17115729Y-12380674D02*
X17125253Y-12342579D01*
X17125253Y-12342579D02*
X17134777Y-12323531D01*
X17134777Y-12323531D02*
X17144301Y-12314008D01*
X17144301Y-12314008D02*
X17163348Y-12304484D01*
X17296682Y-12304484D02*
X17420491Y-12304484D01*
X17420491Y-12304484D02*
X17353825Y-12380674D01*
X17353825Y-12380674D02*
X17382396Y-12380674D01*
X17382396Y-12380674D02*
X17401444Y-12390198D01*
X17401444Y-12390198D02*
X17410968Y-12399722D01*
X17410968Y-12399722D02*
X17420491Y-12418769D01*
X17420491Y-12418769D02*
X17420491Y-12466388D01*
X17420491Y-12466388D02*
X17410968Y-12485436D01*
X17410968Y-12485436D02*
X17401444Y-12494960D01*
X17401444Y-12494960D02*
X17382396Y-12504484D01*
X17382396Y-12504484D02*
X17325253Y-12504484D01*
X17325253Y-12504484D02*
X17306206Y-12494960D01*
X17306206Y-12494960D02*
X17296682Y-12485436D01*
X17610968Y-12504484D02*
X17496682Y-12504484D01*
X17553825Y-12504484D02*
X17553825Y-12304484D01*
X17553825Y-12304484D02*
X17534777Y-12333055D01*
X17534777Y-12333055D02*
X17515729Y-12352103D01*
X17515729Y-12352103D02*
X17496682Y-12361627D01*
X17791920Y-12304484D02*
X17696682Y-12304484D01*
X17696682Y-12304484D02*
X17687158Y-12399722D01*
X17687158Y-12399722D02*
X17696682Y-12390198D01*
X17696682Y-12390198D02*
X17715729Y-12380674D01*
X17715729Y-12380674D02*
X17763349Y-12380674D01*
X17763349Y-12380674D02*
X17782396Y-12390198D01*
X17782396Y-12390198D02*
X17791920Y-12399722D01*
X17791920Y-12399722D02*
X17801444Y-12418769D01*
X17801444Y-12418769D02*
X17801444Y-12466388D01*
X17801444Y-12466388D02*
X17791920Y-12485436D01*
X17791920Y-12485436D02*
X17782396Y-12494960D01*
X17782396Y-12494960D02*
X17763349Y-12504484D01*
X17763349Y-12504484D02*
X17715729Y-12504484D01*
X17715729Y-12504484D02*
X17696682Y-12494960D01*
X17696682Y-12494960D02*
X17687158Y-12485436D01*
X17877634Y-12304484D02*
X17877634Y-12342579D01*
X17953825Y-12304484D02*
X17953825Y-12342579D01*
X18249063Y-12580674D02*
X18239539Y-12571150D01*
X18239539Y-12571150D02*
X18220491Y-12542579D01*
X18220491Y-12542579D02*
X18210968Y-12523531D01*
X18210968Y-12523531D02*
X18201444Y-12494960D01*
X18201444Y-12494960D02*
X18191920Y-12447341D01*
X18191920Y-12447341D02*
X18191920Y-12409246D01*
X18191920Y-12409246D02*
X18201444Y-12361627D01*
X18201444Y-12361627D02*
X18210968Y-12333055D01*
X18210968Y-12333055D02*
X18220491Y-12314008D01*
X18220491Y-12314008D02*
X18239539Y-12285436D01*
X18239539Y-12285436D02*
X18249063Y-12275912D01*
X18430015Y-12504484D02*
X18315730Y-12504484D01*
X18372872Y-12504484D02*
X18372872Y-12304484D01*
X18372872Y-12304484D02*
X18353825Y-12333055D01*
X18353825Y-12333055D02*
X18334777Y-12352103D01*
X18334777Y-12352103D02*
X18315730Y-12361627D01*
X18553825Y-12304484D02*
X18572872Y-12304484D01*
X18572872Y-12304484D02*
X18591920Y-12314008D01*
X18591920Y-12314008D02*
X18601444Y-12323531D01*
X18601444Y-12323531D02*
X18610968Y-12342579D01*
X18610968Y-12342579D02*
X18620491Y-12380674D01*
X18620491Y-12380674D02*
X18620491Y-12428293D01*
X18620491Y-12428293D02*
X18610968Y-12466388D01*
X18610968Y-12466388D02*
X18601444Y-12485436D01*
X18601444Y-12485436D02*
X18591920Y-12494960D01*
X18591920Y-12494960D02*
X18572872Y-12504484D01*
X18572872Y-12504484D02*
X18553825Y-12504484D01*
X18553825Y-12504484D02*
X18534777Y-12494960D01*
X18534777Y-12494960D02*
X18525253Y-12485436D01*
X18525253Y-12485436D02*
X18515730Y-12466388D01*
X18515730Y-12466388D02*
X18506206Y-12428293D01*
X18506206Y-12428293D02*
X18506206Y-12380674D01*
X18506206Y-12380674D02*
X18515730Y-12342579D01*
X18515730Y-12342579D02*
X18525253Y-12323531D01*
X18525253Y-12323531D02*
X18534777Y-12314008D01*
X18534777Y-12314008D02*
X18553825Y-12304484D01*
X18858587Y-12504484D02*
X18858587Y-12304484D01*
X18944301Y-12504484D02*
X18944301Y-12399722D01*
X18944301Y-12399722D02*
X18934777Y-12380674D01*
X18934777Y-12380674D02*
X18915730Y-12371150D01*
X18915730Y-12371150D02*
X18887158Y-12371150D01*
X18887158Y-12371150D02*
X18868111Y-12380674D01*
X18868111Y-12380674D02*
X18858587Y-12390198D01*
X19068111Y-12504484D02*
X19049063Y-12494960D01*
X19049063Y-12494960D02*
X19039539Y-12485436D01*
X19039539Y-12485436D02*
X19030015Y-12466388D01*
X19030015Y-12466388D02*
X19030015Y-12409246D01*
X19030015Y-12409246D02*
X19039539Y-12390198D01*
X19039539Y-12390198D02*
X19049063Y-12380674D01*
X19049063Y-12380674D02*
X19068111Y-12371150D01*
X19068111Y-12371150D02*
X19096682Y-12371150D01*
X19096682Y-12371150D02*
X19115730Y-12380674D01*
X19115730Y-12380674D02*
X19125253Y-12390198D01*
X19125253Y-12390198D02*
X19134777Y-12409246D01*
X19134777Y-12409246D02*
X19134777Y-12466388D01*
X19134777Y-12466388D02*
X19125253Y-12485436D01*
X19125253Y-12485436D02*
X19115730Y-12494960D01*
X19115730Y-12494960D02*
X19096682Y-12504484D01*
X19096682Y-12504484D02*
X19068111Y-12504484D01*
X19249063Y-12504484D02*
X19230015Y-12494960D01*
X19230015Y-12494960D02*
X19220492Y-12475912D01*
X19220492Y-12475912D02*
X19220492Y-12304484D01*
X19401444Y-12494960D02*
X19382396Y-12504484D01*
X19382396Y-12504484D02*
X19344301Y-12504484D01*
X19344301Y-12504484D02*
X19325253Y-12494960D01*
X19325253Y-12494960D02*
X19315730Y-12475912D01*
X19315730Y-12475912D02*
X19315730Y-12399722D01*
X19315730Y-12399722D02*
X19325253Y-12380674D01*
X19325253Y-12380674D02*
X19344301Y-12371150D01*
X19344301Y-12371150D02*
X19382396Y-12371150D01*
X19382396Y-12371150D02*
X19401444Y-12380674D01*
X19401444Y-12380674D02*
X19410968Y-12399722D01*
X19410968Y-12399722D02*
X19410968Y-12418769D01*
X19410968Y-12418769D02*
X19315730Y-12437817D01*
X19487158Y-12494960D02*
X19506206Y-12504484D01*
X19506206Y-12504484D02*
X19544301Y-12504484D01*
X19544301Y-12504484D02*
X19563349Y-12494960D01*
X19563349Y-12494960D02*
X19572873Y-12475912D01*
X19572873Y-12475912D02*
X19572873Y-12466388D01*
X19572873Y-12466388D02*
X19563349Y-12447341D01*
X19563349Y-12447341D02*
X19544301Y-12437817D01*
X19544301Y-12437817D02*
X19515730Y-12437817D01*
X19515730Y-12437817D02*
X19496682Y-12428293D01*
X19496682Y-12428293D02*
X19487158Y-12409246D01*
X19487158Y-12409246D02*
X19487158Y-12399722D01*
X19487158Y-12399722D02*
X19496682Y-12380674D01*
X19496682Y-12380674D02*
X19515730Y-12371150D01*
X19515730Y-12371150D02*
X19544301Y-12371150D01*
X19544301Y-12371150D02*
X19563349Y-12380674D01*
X19639539Y-12580674D02*
X19649063Y-12571150D01*
X19649063Y-12571150D02*
X19668111Y-12542579D01*
X19668111Y-12542579D02*
X19677634Y-12523531D01*
X19677634Y-12523531D02*
X19687158Y-12494960D01*
X19687158Y-12494960D02*
X19696682Y-12447341D01*
X19696682Y-12447341D02*
X19696682Y-12409246D01*
X19696682Y-12409246D02*
X19687158Y-12361627D01*
X19687158Y-12361627D02*
X19677634Y-12333055D01*
X19677634Y-12333055D02*
X19668111Y-12314008D01*
X19668111Y-12314008D02*
X19649063Y-12285436D01*
X19649063Y-12285436D02*
X19639539Y-12275912D01*
M02*
