G04 #@! TF.GenerationSoftware,KiCad,Pcbnew,8.0.3*
G04 #@! TF.CreationDate,2025-06-24T11:22:04+03:00*
G04 #@! TF.ProjectId,Camera_24-22_Pin,43616d65-7261-45f3-9234-2d32325f5069,rev?*
G04 #@! TF.SameCoordinates,Original*
G04 #@! TF.FileFunction,Paste,Top*
G04 #@! TF.FilePolarity,Positive*
%FSLAX46Y46*%
G04 Gerber Fmt 4.6, Leading zero omitted, Abs format (unit mm)*
G04 Created by KiCad (PCBNEW 8.0.3) date 2025-06-24 11:22:04*
%MOMM*%
%LPD*%
G01*
G04 APERTURE LIST*
G04 Aperture macros list*
%AMRoundRect*
0 Rectangle with rounded corners*
0 $1 Rounding radius*
0 $2 $3 $4 $5 $6 $7 $8 $9 X,Y pos of 4 corners*
0 Add a 4 corners polygon primitive as box body*
4,1,4,$2,$3,$4,$5,$6,$7,$8,$9,$2,$3,0*
0 Add four circle primitives for the rounded corners*
1,1,$1+$1,$2,$3*
1,1,$1+$1,$4,$5*
1,1,$1+$1,$6,$7*
1,1,$1+$1,$8,$9*
0 Add four rect primitives between the rounded corners*
20,1,$1+$1,$2,$3,$4,$5,0*
20,1,$1+$1,$4,$5,$6,$7,0*
20,1,$1+$1,$6,$7,$8,$9,0*
20,1,$1+$1,$8,$9,$2,$3,0*%
G04 Aperture macros list end*
%ADD10RoundRect,0.200000X0.053033X-0.335876X0.335876X-0.053033X-0.053033X0.335876X-0.335876X0.053033X0*%
%ADD11R,0.300000X1.250000*%
%ADD12R,2.000000X3.150000*%
%ADD13RoundRect,0.200000X0.335876X0.053033X0.053033X0.335876X-0.335876X-0.053033X-0.053033X-0.335876X0*%
G04 APERTURE END LIST*
D10*
X174351337Y-91582112D03*
X175518063Y-90415386D03*
D11*
X167490000Y-104752500D03*
X167990000Y-104752500D03*
X168490000Y-104752500D03*
X168990000Y-104752500D03*
X169490000Y-104752500D03*
X169990000Y-104752500D03*
X170490000Y-104752500D03*
X170990000Y-104752500D03*
X171490000Y-104752500D03*
X171990000Y-104752500D03*
X172490000Y-104752500D03*
X172990000Y-104752500D03*
X173490000Y-104752500D03*
X173990000Y-104752500D03*
X174490000Y-104752500D03*
X174990000Y-104752500D03*
X175490000Y-104752500D03*
X175990000Y-104752500D03*
X176490000Y-104752500D03*
X176990000Y-104752500D03*
X177490000Y-104752500D03*
X177990000Y-104752500D03*
D12*
X165940000Y-106952500D03*
X179540000Y-106952500D03*
D11*
X164060000Y-83427500D03*
X163560000Y-83427500D03*
X163060000Y-83427500D03*
X162560000Y-83427500D03*
X162060000Y-83427500D03*
X161560000Y-83427500D03*
X161060000Y-83427500D03*
X160560000Y-83427500D03*
X160060000Y-83427500D03*
X159560000Y-83427500D03*
X159060000Y-83427500D03*
X158560000Y-83427500D03*
X158060000Y-83427500D03*
X157560000Y-83427500D03*
X157060000Y-83427500D03*
X156560000Y-83427500D03*
X156060000Y-83427500D03*
X155560000Y-83427500D03*
X155060000Y-83427500D03*
X154560000Y-83427500D03*
X154060000Y-83427500D03*
X153560000Y-83427500D03*
X153060000Y-83427500D03*
X152560000Y-83427500D03*
D12*
X165610000Y-81227500D03*
X151010000Y-81227500D03*
D13*
X152293363Y-96663363D03*
X151126637Y-95496637D03*
D11*
X187320000Y-83467500D03*
X186820000Y-83467500D03*
X186320000Y-83467500D03*
X185820000Y-83467500D03*
X185320000Y-83467500D03*
X184820000Y-83467500D03*
X184320000Y-83467500D03*
X183820000Y-83467500D03*
X183320000Y-83467500D03*
X182820000Y-83467500D03*
X182320000Y-83467500D03*
X181820000Y-83467500D03*
X181320000Y-83467500D03*
X180820000Y-83467500D03*
X180320000Y-83467500D03*
X179820000Y-83467500D03*
X179320000Y-83467500D03*
X178820000Y-83467500D03*
X178320000Y-83467500D03*
X177820000Y-83467500D03*
X177320000Y-83467500D03*
X176820000Y-83467500D03*
X176320000Y-83467500D03*
X175820000Y-83467500D03*
D12*
X188870000Y-81267500D03*
X174270000Y-81267500D03*
D10*
X173276637Y-90493363D03*
X174443363Y-89326637D03*
D13*
X151203363Y-97743363D03*
X150036637Y-96576637D03*
M02*
