M48
; DRILL file {KiCad 9.0.0} date 2025-08-13T10:56:38+0300
; FORMAT={-:-/ absolute / metric / decimal}
; #@! TF.CreationDate,2025-08-13T10:56:38+03:00
; #@! TF.GenerationSoftware,Kicad,Pcbnew,9.0.0
; #@! TF.FileFunction,Plated,1,4,PTH
FMAT,2
METRIC
; #@! TA.AperFunction,Plated,PTH,ViaDrill
T1C0.203
; #@! TA.AperFunction,Plated,PTH,ComponentDrill
T2C0.750
; #@! TA.AperFunction,Plated,PTH,ComponentDrill
T3C0.830
; #@! TA.AperFunction,Plated,PTH,ComponentDrill
T4C0.850
; #@! TA.AperFunction,Plated,PTH,ComponentDrill
T5C3.200
%
G90
G05
T1
X103.504Y-75.462
X105.294Y-98.392
X105.564Y-73.282
X105.719Y-100.464
X105.844Y-79.922
X107.076Y-101.864
X107.654Y-71.122
X108.024Y-77.852
X108.424Y-70.472
X108.915Y-78.234
X109.344Y-77.805
X110.174Y-92.772
X110.279Y-94.387
X110.384Y-68.192
X111.834Y-66.812
X112.234Y-107.622
X112.36Y-73.709
X112.369Y-94.698
X112.545Y-73.194
X112.798Y-95.127
X113.644Y-72.162
X113.804Y-101.492
X114.364Y-71.452
X114.604Y-97.872
X114.683Y-92.394
X115.112Y-92.823
X115.454Y-103.332
X115.694Y-69.972
X115.744Y-71.432
X117.194Y-106.382
X117.374Y-100.252
X117.735Y-79.795
X118.164Y-80.224
X120.434Y-67.455
X121.157Y-67.288
X121.794Y-86.982
X122.57Y-109.004
X122.869Y-89.408
X123.064Y-81.882
X123.298Y-89.837
X123.414Y-104.862
X124.124Y-96.132
X124.14Y-110.319
X125.342Y-111.621
X127.064Y-118.882
X127.888Y-114.109
X128.024Y-100.232
X128.404Y-95.562
X130.454Y-56.692
X131.314Y-122.612
X131.354Y-55.832
X131.434Y-120.302
X131.494Y-118.352
X132.422Y-72.301
X133.184Y-54.152
X133.783Y-121.072
X134.034Y-53.212
X134.459Y-70.251
X134.654Y-114.282
X138.754Y-113.482
X139.584Y-110.862
X140.424Y-112.782
X141.744Y-108.902
X143.524Y-109.672
X147.08Y-103.198
X147.681Y-102.568
X147.71Y-90.202
X148.317Y-90.202
X149.49Y-89.992
X150.097Y-89.992
X151.554Y-82.102
X152.872Y-111.478
X155.099Y-113.564
X155.228Y-93.994
X155.98Y-79.592
X156.587Y-79.592
X157.392Y-99.764
X159.478Y-89.518
X160.454Y-96.066
X160.68Y-76.259
X160.984Y-96.596
X161.287Y-76.259
X161.307Y-103.113
X163.869Y-98.038
X164.842Y-100.321
X165.33Y-99.819
X166.094Y-91.672
X166.734Y-91.102
T2
X99.464Y-84.952
X99.464Y-86.952
X107.765Y-65.718
X108.935Y-109.754
X109.18Y-64.304
X110.349Y-111.168
X111.764Y-112.582
X113.178Y-113.996
X117.491Y-118.095
X118.905Y-119.509
X120.319Y-120.923
T4
X103.317Y-101.173
X106.853Y-104.709
T5
X101.053Y-96.148
X141.266Y-121.285
X143.945Y-57.954
X164.875Y-80.119
T3
G00X100.46Y-102.439
M15
G01X100.793Y-102.106
M16
G05
G00X105.919Y-107.233
M15
G01X105.587Y-107.565
M16
G05
M30
