G04 #@! TF.GenerationSoftware,KiCad,Pcbnew,8.0.3*
G04 #@! TF.CreationDate,2025-06-28T13:49:22+03:00*
G04 #@! TF.ProjectId,Camera_Expansion_Board_V2.0,43616d65-7261-45f4-9578-70616e73696f,rev?*
G04 #@! TF.SameCoordinates,Original*
G04 #@! TF.FileFunction,Legend,Top*
G04 #@! TF.FilePolarity,Positive*
%FSLAX46Y46*%
G04 Gerber Fmt 4.6, Leading zero omitted, Abs format (unit mm)*
G04 Created by KiCad (PCBNEW 8.0.3) date 2025-06-28 13:49:22*
%MOMM*%
%LPD*%
G01*
G04 APERTURE LIST*
G04 Aperture macros list*
%AMRoundRect*
0 Rectangle with rounded corners*
0 $1 Rounding radius*
0 $2 $3 $4 $5 $6 $7 $8 $9 X,Y pos of 4 corners*
0 Add a 4 corners polygon primitive as box body*
4,1,4,$2,$3,$4,$5,$6,$7,$8,$9,$2,$3,0*
0 Add four circle primitives for the rounded corners*
1,1,$1+$1,$2,$3*
1,1,$1+$1,$4,$5*
1,1,$1+$1,$6,$7*
1,1,$1+$1,$8,$9*
0 Add four rect primitives between the rounded corners*
20,1,$1+$1,$2,$3,$4,$5,0*
20,1,$1+$1,$4,$5,$6,$7,0*
20,1,$1+$1,$6,$7,$8,$9,0*
20,1,$1+$1,$8,$9,$2,$3,0*%
G04 Aperture macros list end*
%ADD10C,0.150000*%
%ADD11C,0.360000*%
%ADD12C,0.100000*%
%ADD13C,0.125000*%
%ADD14C,0.120000*%
%ADD15RoundRect,0.250000X0.250000X0.475000X-0.250000X0.475000X-0.250000X-0.475000X0.250000X-0.475000X0*%
%ADD16RoundRect,0.150000X-0.512500X-0.150000X0.512500X-0.150000X0.512500X0.150000X-0.512500X0.150000X0*%
%ADD17RoundRect,0.200000X0.200000X0.275000X-0.200000X0.275000X-0.200000X-0.275000X0.200000X-0.275000X0*%
%ADD18R,1.000000X3.150000*%
%ADD19R,0.300000X1.250000*%
%ADD20R,2.000000X3.150000*%
%ADD21C,2.500000*%
%ADD22RoundRect,0.250000X-0.475000X0.250000X-0.475000X-0.250000X0.475000X-0.250000X0.475000X0.250000X0*%
%ADD23R,1.700000X1.700000*%
%ADD24O,1.700000X1.700000*%
%ADD25RoundRect,0.200000X-0.275000X0.200000X-0.275000X-0.200000X0.275000X-0.200000X0.275000X0.200000X0*%
%ADD26RoundRect,0.200000X0.275000X-0.200000X0.275000X0.200000X-0.275000X0.200000X-0.275000X-0.200000X0*%
%ADD27RoundRect,0.150000X0.700000X-0.150000X0.700000X0.150000X-0.700000X0.150000X-0.700000X-0.150000X0*%
%ADD28RoundRect,0.250000X1.100000X-0.250000X1.100000X0.250000X-1.100000X0.250000X-1.100000X-0.250000X0*%
G04 APERTURE END LIST*
D10*
X41866250Y-84998750D02*
X45386250Y-84998750D01*
X41416250Y-95688750D02*
X45426250Y-95688750D01*
X41396250Y-90648750D02*
X45426250Y-90648750D01*
D11*
X45563750Y-80066250D02*
X45563750Y-106136250D01*
D10*
X41396250Y-100708750D02*
X45386250Y-100708750D01*
X41778750Y-106126250D02*
X45488750Y-106126250D01*
X212149041Y-58062378D02*
X211291898Y-58062378D01*
X211720469Y-58062378D02*
X211720469Y-56562378D01*
X211720469Y-56562378D02*
X211577612Y-56776664D01*
X211577612Y-56776664D02*
X211434755Y-56919521D01*
X211434755Y-56919521D02*
X211291898Y-56990950D01*
X213006183Y-57205235D02*
X212863326Y-57133807D01*
X212863326Y-57133807D02*
X212791897Y-57062378D01*
X212791897Y-57062378D02*
X212720469Y-56919521D01*
X212720469Y-56919521D02*
X212720469Y-56848092D01*
X212720469Y-56848092D02*
X212791897Y-56705235D01*
X212791897Y-56705235D02*
X212863326Y-56633807D01*
X212863326Y-56633807D02*
X213006183Y-56562378D01*
X213006183Y-56562378D02*
X213291897Y-56562378D01*
X213291897Y-56562378D02*
X213434755Y-56633807D01*
X213434755Y-56633807D02*
X213506183Y-56705235D01*
X213506183Y-56705235D02*
X213577612Y-56848092D01*
X213577612Y-56848092D02*
X213577612Y-56919521D01*
X213577612Y-56919521D02*
X213506183Y-57062378D01*
X213506183Y-57062378D02*
X213434755Y-57133807D01*
X213434755Y-57133807D02*
X213291897Y-57205235D01*
X213291897Y-57205235D02*
X213006183Y-57205235D01*
X213006183Y-57205235D02*
X212863326Y-57276664D01*
X212863326Y-57276664D02*
X212791897Y-57348092D01*
X212791897Y-57348092D02*
X212720469Y-57490950D01*
X212720469Y-57490950D02*
X212720469Y-57776664D01*
X212720469Y-57776664D02*
X212791897Y-57919521D01*
X212791897Y-57919521D02*
X212863326Y-57990950D01*
X212863326Y-57990950D02*
X213006183Y-58062378D01*
X213006183Y-58062378D02*
X213291897Y-58062378D01*
X213291897Y-58062378D02*
X213434755Y-57990950D01*
X213434755Y-57990950D02*
X213506183Y-57919521D01*
X213506183Y-57919521D02*
X213577612Y-57776664D01*
X213577612Y-57776664D02*
X213577612Y-57490950D01*
X213577612Y-57490950D02*
X213506183Y-57348092D01*
X213506183Y-57348092D02*
X213434755Y-57276664D01*
X213434755Y-57276664D02*
X213291897Y-57205235D01*
X215363325Y-58062378D02*
X215363325Y-56562378D01*
X215363325Y-56562378D02*
X215934754Y-56562378D01*
X215934754Y-56562378D02*
X216077611Y-56633807D01*
X216077611Y-56633807D02*
X216149040Y-56705235D01*
X216149040Y-56705235D02*
X216220468Y-56848092D01*
X216220468Y-56848092D02*
X216220468Y-57062378D01*
X216220468Y-57062378D02*
X216149040Y-57205235D01*
X216149040Y-57205235D02*
X216077611Y-57276664D01*
X216077611Y-57276664D02*
X215934754Y-57348092D01*
X215934754Y-57348092D02*
X215363325Y-57348092D01*
X216863325Y-58062378D02*
X216863325Y-56562378D01*
X217577611Y-58062378D02*
X217577611Y-56562378D01*
X217577611Y-56562378D02*
X218434754Y-58062378D01*
X218434754Y-58062378D02*
X218434754Y-56562378D01*
X42676838Y-94026188D02*
X42581600Y-93978569D01*
X42581600Y-93978569D02*
X42438743Y-93978569D01*
X42438743Y-93978569D02*
X42295886Y-94026188D01*
X42295886Y-94026188D02*
X42200648Y-94121426D01*
X42200648Y-94121426D02*
X42153029Y-94216664D01*
X42153029Y-94216664D02*
X42105410Y-94407140D01*
X42105410Y-94407140D02*
X42105410Y-94549997D01*
X42105410Y-94549997D02*
X42153029Y-94740473D01*
X42153029Y-94740473D02*
X42200648Y-94835711D01*
X42200648Y-94835711D02*
X42295886Y-94930950D01*
X42295886Y-94930950D02*
X42438743Y-94978569D01*
X42438743Y-94978569D02*
X42533981Y-94978569D01*
X42533981Y-94978569D02*
X42676838Y-94930950D01*
X42676838Y-94930950D02*
X42724457Y-94883330D01*
X42724457Y-94883330D02*
X42724457Y-94549997D01*
X42724457Y-94549997D02*
X42533981Y-94549997D01*
X43153029Y-94978569D02*
X43153029Y-93978569D01*
X43153029Y-93978569D02*
X43724457Y-94978569D01*
X43724457Y-94978569D02*
X43724457Y-93978569D01*
X44200648Y-94978569D02*
X44200648Y-93978569D01*
X44200648Y-93978569D02*
X44438743Y-93978569D01*
X44438743Y-93978569D02*
X44581600Y-94026188D01*
X44581600Y-94026188D02*
X44676838Y-94121426D01*
X44676838Y-94121426D02*
X44724457Y-94216664D01*
X44724457Y-94216664D02*
X44772076Y-94407140D01*
X44772076Y-94407140D02*
X44772076Y-94549997D01*
X44772076Y-94549997D02*
X44724457Y-94740473D01*
X44724457Y-94740473D02*
X44676838Y-94835711D01*
X44676838Y-94835711D02*
X44581600Y-94930950D01*
X44581600Y-94930950D02*
X44438743Y-94978569D01*
X44438743Y-94978569D02*
X44200648Y-94978569D01*
X121834398Y-125912735D02*
X121905826Y-125841307D01*
X121905826Y-125841307D02*
X122048684Y-125769878D01*
X122048684Y-125769878D02*
X122405826Y-125769878D01*
X122405826Y-125769878D02*
X122548684Y-125841307D01*
X122548684Y-125841307D02*
X122620112Y-125912735D01*
X122620112Y-125912735D02*
X122691541Y-126055592D01*
X122691541Y-126055592D02*
X122691541Y-126198450D01*
X122691541Y-126198450D02*
X122620112Y-126412735D01*
X122620112Y-126412735D02*
X121762969Y-127269878D01*
X121762969Y-127269878D02*
X122691541Y-127269878D01*
X123977255Y-126269878D02*
X123977255Y-127269878D01*
X123620112Y-125698450D02*
X123262969Y-126769878D01*
X123262969Y-126769878D02*
X124191540Y-126769878D01*
X125905825Y-127269878D02*
X125905825Y-125769878D01*
X125905825Y-125769878D02*
X126477254Y-125769878D01*
X126477254Y-125769878D02*
X126620111Y-125841307D01*
X126620111Y-125841307D02*
X126691540Y-125912735D01*
X126691540Y-125912735D02*
X126762968Y-126055592D01*
X126762968Y-126055592D02*
X126762968Y-126269878D01*
X126762968Y-126269878D02*
X126691540Y-126412735D01*
X126691540Y-126412735D02*
X126620111Y-126484164D01*
X126620111Y-126484164D02*
X126477254Y-126555592D01*
X126477254Y-126555592D02*
X125905825Y-126555592D01*
X127405825Y-127269878D02*
X127405825Y-125769878D01*
X128120111Y-127269878D02*
X128120111Y-125769878D01*
X128120111Y-125769878D02*
X128977254Y-127269878D01*
X128977254Y-127269878D02*
X128977254Y-125769878D01*
D12*
X38511845Y-62316288D02*
X38416607Y-62268669D01*
X38416607Y-62268669D02*
X38273750Y-62268669D01*
X38273750Y-62268669D02*
X38130893Y-62316288D01*
X38130893Y-62316288D02*
X38035655Y-62411526D01*
X38035655Y-62411526D02*
X37988036Y-62506764D01*
X37988036Y-62506764D02*
X37940417Y-62697240D01*
X37940417Y-62697240D02*
X37940417Y-62840097D01*
X37940417Y-62840097D02*
X37988036Y-63030573D01*
X37988036Y-63030573D02*
X38035655Y-63125811D01*
X38035655Y-63125811D02*
X38130893Y-63221050D01*
X38130893Y-63221050D02*
X38273750Y-63268669D01*
X38273750Y-63268669D02*
X38368988Y-63268669D01*
X38368988Y-63268669D02*
X38511845Y-63221050D01*
X38511845Y-63221050D02*
X38559464Y-63173430D01*
X38559464Y-63173430D02*
X38559464Y-62840097D01*
X38559464Y-62840097D02*
X38368988Y-62840097D01*
X38988036Y-63268669D02*
X38988036Y-62268669D01*
X38988036Y-62268669D02*
X39559464Y-63268669D01*
X39559464Y-63268669D02*
X39559464Y-62268669D01*
X40035655Y-63268669D02*
X40035655Y-62268669D01*
X40035655Y-62268669D02*
X40273750Y-62268669D01*
X40273750Y-62268669D02*
X40416607Y-62316288D01*
X40416607Y-62316288D02*
X40511845Y-62411526D01*
X40511845Y-62411526D02*
X40559464Y-62506764D01*
X40559464Y-62506764D02*
X40607083Y-62697240D01*
X40607083Y-62697240D02*
X40607083Y-62840097D01*
X40607083Y-62840097D02*
X40559464Y-63030573D01*
X40559464Y-63030573D02*
X40511845Y-63125811D01*
X40511845Y-63125811D02*
X40416607Y-63221050D01*
X40416607Y-63221050D02*
X40273750Y-63268669D01*
X40273750Y-63268669D02*
X40035655Y-63268669D01*
D13*
X53636462Y-104659750D02*
X53779319Y-104707369D01*
X53779319Y-104707369D02*
X54017414Y-104707369D01*
X54017414Y-104707369D02*
X54112652Y-104659750D01*
X54112652Y-104659750D02*
X54160271Y-104612130D01*
X54160271Y-104612130D02*
X54207890Y-104516892D01*
X54207890Y-104516892D02*
X54207890Y-104421654D01*
X54207890Y-104421654D02*
X54160271Y-104326416D01*
X54160271Y-104326416D02*
X54112652Y-104278797D01*
X54112652Y-104278797D02*
X54017414Y-104231178D01*
X54017414Y-104231178D02*
X53826938Y-104183559D01*
X53826938Y-104183559D02*
X53731700Y-104135940D01*
X53731700Y-104135940D02*
X53684081Y-104088321D01*
X53684081Y-104088321D02*
X53636462Y-103993083D01*
X53636462Y-103993083D02*
X53636462Y-103897845D01*
X53636462Y-103897845D02*
X53684081Y-103802607D01*
X53684081Y-103802607D02*
X53731700Y-103754988D01*
X53731700Y-103754988D02*
X53826938Y-103707369D01*
X53826938Y-103707369D02*
X54065033Y-103707369D01*
X54065033Y-103707369D02*
X54207890Y-103754988D01*
X54636462Y-104707369D02*
X54636462Y-103707369D01*
X55112652Y-104707369D02*
X55112652Y-103707369D01*
X55112652Y-103707369D02*
X55350747Y-103707369D01*
X55350747Y-103707369D02*
X55493604Y-103754988D01*
X55493604Y-103754988D02*
X55588842Y-103850226D01*
X55588842Y-103850226D02*
X55636461Y-103945464D01*
X55636461Y-103945464D02*
X55684080Y-104135940D01*
X55684080Y-104135940D02*
X55684080Y-104278797D01*
X55684080Y-104278797D02*
X55636461Y-104469273D01*
X55636461Y-104469273D02*
X55588842Y-104564511D01*
X55588842Y-104564511D02*
X55493604Y-104659750D01*
X55493604Y-104659750D02*
X55350747Y-104707369D01*
X55350747Y-104707369D02*
X55112652Y-104707369D01*
D10*
X42676838Y-99016188D02*
X42581600Y-98968569D01*
X42581600Y-98968569D02*
X42438743Y-98968569D01*
X42438743Y-98968569D02*
X42295886Y-99016188D01*
X42295886Y-99016188D02*
X42200648Y-99111426D01*
X42200648Y-99111426D02*
X42153029Y-99206664D01*
X42153029Y-99206664D02*
X42105410Y-99397140D01*
X42105410Y-99397140D02*
X42105410Y-99539997D01*
X42105410Y-99539997D02*
X42153029Y-99730473D01*
X42153029Y-99730473D02*
X42200648Y-99825711D01*
X42200648Y-99825711D02*
X42295886Y-99920950D01*
X42295886Y-99920950D02*
X42438743Y-99968569D01*
X42438743Y-99968569D02*
X42533981Y-99968569D01*
X42533981Y-99968569D02*
X42676838Y-99920950D01*
X42676838Y-99920950D02*
X42724457Y-99873330D01*
X42724457Y-99873330D02*
X42724457Y-99539997D01*
X42724457Y-99539997D02*
X42533981Y-99539997D01*
X43153029Y-99968569D02*
X43153029Y-98968569D01*
X43153029Y-98968569D02*
X43724457Y-99968569D01*
X43724457Y-99968569D02*
X43724457Y-98968569D01*
X44200648Y-99968569D02*
X44200648Y-98968569D01*
X44200648Y-98968569D02*
X44438743Y-98968569D01*
X44438743Y-98968569D02*
X44581600Y-99016188D01*
X44581600Y-99016188D02*
X44676838Y-99111426D01*
X44676838Y-99111426D02*
X44724457Y-99206664D01*
X44724457Y-99206664D02*
X44772076Y-99397140D01*
X44772076Y-99397140D02*
X44772076Y-99539997D01*
X44772076Y-99539997D02*
X44724457Y-99730473D01*
X44724457Y-99730473D02*
X44676838Y-99825711D01*
X44676838Y-99825711D02*
X44581600Y-99920950D01*
X44581600Y-99920950D02*
X44438743Y-99968569D01*
X44438743Y-99968569D02*
X44200648Y-99968569D01*
X42506838Y-88956188D02*
X42411600Y-88908569D01*
X42411600Y-88908569D02*
X42268743Y-88908569D01*
X42268743Y-88908569D02*
X42125886Y-88956188D01*
X42125886Y-88956188D02*
X42030648Y-89051426D01*
X42030648Y-89051426D02*
X41983029Y-89146664D01*
X41983029Y-89146664D02*
X41935410Y-89337140D01*
X41935410Y-89337140D02*
X41935410Y-89479997D01*
X41935410Y-89479997D02*
X41983029Y-89670473D01*
X41983029Y-89670473D02*
X42030648Y-89765711D01*
X42030648Y-89765711D02*
X42125886Y-89860950D01*
X42125886Y-89860950D02*
X42268743Y-89908569D01*
X42268743Y-89908569D02*
X42363981Y-89908569D01*
X42363981Y-89908569D02*
X42506838Y-89860950D01*
X42506838Y-89860950D02*
X42554457Y-89813330D01*
X42554457Y-89813330D02*
X42554457Y-89479997D01*
X42554457Y-89479997D02*
X42363981Y-89479997D01*
X42983029Y-89908569D02*
X42983029Y-88908569D01*
X42983029Y-88908569D02*
X43554457Y-89908569D01*
X43554457Y-89908569D02*
X43554457Y-88908569D01*
X44030648Y-89908569D02*
X44030648Y-88908569D01*
X44030648Y-88908569D02*
X44268743Y-88908569D01*
X44268743Y-88908569D02*
X44411600Y-88956188D01*
X44411600Y-88956188D02*
X44506838Y-89051426D01*
X44506838Y-89051426D02*
X44554457Y-89146664D01*
X44554457Y-89146664D02*
X44602076Y-89337140D01*
X44602076Y-89337140D02*
X44602076Y-89479997D01*
X44602076Y-89479997D02*
X44554457Y-89670473D01*
X44554457Y-89670473D02*
X44506838Y-89765711D01*
X44506838Y-89765711D02*
X44411600Y-89860950D01*
X44411600Y-89860950D02*
X44268743Y-89908569D01*
X44268743Y-89908569D02*
X44030648Y-89908569D01*
X107739041Y-57832378D02*
X106881898Y-57832378D01*
X107310469Y-57832378D02*
X107310469Y-56332378D01*
X107310469Y-56332378D02*
X107167612Y-56546664D01*
X107167612Y-56546664D02*
X107024755Y-56689521D01*
X107024755Y-56689521D02*
X106881898Y-56760950D01*
X109024755Y-56832378D02*
X109024755Y-57832378D01*
X108667612Y-56260950D02*
X108310469Y-57332378D01*
X108310469Y-57332378D02*
X109239040Y-57332378D01*
X110953325Y-57832378D02*
X110953325Y-56332378D01*
X110953325Y-56332378D02*
X111524754Y-56332378D01*
X111524754Y-56332378D02*
X111667611Y-56403807D01*
X111667611Y-56403807D02*
X111739040Y-56475235D01*
X111739040Y-56475235D02*
X111810468Y-56618092D01*
X111810468Y-56618092D02*
X111810468Y-56832378D01*
X111810468Y-56832378D02*
X111739040Y-56975235D01*
X111739040Y-56975235D02*
X111667611Y-57046664D01*
X111667611Y-57046664D02*
X111524754Y-57118092D01*
X111524754Y-57118092D02*
X110953325Y-57118092D01*
X112453325Y-57832378D02*
X112453325Y-56332378D01*
X113167611Y-57832378D02*
X113167611Y-56332378D01*
X113167611Y-56332378D02*
X114024754Y-57832378D01*
X114024754Y-57832378D02*
X114024754Y-56332378D01*
D12*
X34138512Y-62088669D02*
X34471845Y-63088669D01*
X34471845Y-63088669D02*
X34805178Y-62088669D01*
X35138512Y-63088669D02*
X35138512Y-62088669D01*
X35614702Y-63088669D02*
X35614702Y-62088669D01*
X35614702Y-62088669D02*
X36186130Y-63088669D01*
X36186130Y-63088669D02*
X36186130Y-62088669D01*
D10*
X42055410Y-96523807D02*
X42103029Y-96476188D01*
X42103029Y-96476188D02*
X42198267Y-96428569D01*
X42198267Y-96428569D02*
X42436362Y-96428569D01*
X42436362Y-96428569D02*
X42531600Y-96476188D01*
X42531600Y-96476188D02*
X42579219Y-96523807D01*
X42579219Y-96523807D02*
X42626838Y-96619045D01*
X42626838Y-96619045D02*
X42626838Y-96714283D01*
X42626838Y-96714283D02*
X42579219Y-96857140D01*
X42579219Y-96857140D02*
X42007791Y-97428569D01*
X42007791Y-97428569D02*
X42626838Y-97428569D01*
X43055410Y-97333330D02*
X43103029Y-97380950D01*
X43103029Y-97380950D02*
X43055410Y-97428569D01*
X43055410Y-97428569D02*
X43007791Y-97380950D01*
X43007791Y-97380950D02*
X43055410Y-97333330D01*
X43055410Y-97333330D02*
X43055410Y-97428569D01*
X43674457Y-96857140D02*
X43579219Y-96809521D01*
X43579219Y-96809521D02*
X43531600Y-96761902D01*
X43531600Y-96761902D02*
X43483981Y-96666664D01*
X43483981Y-96666664D02*
X43483981Y-96619045D01*
X43483981Y-96619045D02*
X43531600Y-96523807D01*
X43531600Y-96523807D02*
X43579219Y-96476188D01*
X43579219Y-96476188D02*
X43674457Y-96428569D01*
X43674457Y-96428569D02*
X43864933Y-96428569D01*
X43864933Y-96428569D02*
X43960171Y-96476188D01*
X43960171Y-96476188D02*
X44007790Y-96523807D01*
X44007790Y-96523807D02*
X44055409Y-96619045D01*
X44055409Y-96619045D02*
X44055409Y-96666664D01*
X44055409Y-96666664D02*
X44007790Y-96761902D01*
X44007790Y-96761902D02*
X43960171Y-96809521D01*
X43960171Y-96809521D02*
X43864933Y-96857140D01*
X43864933Y-96857140D02*
X43674457Y-96857140D01*
X43674457Y-96857140D02*
X43579219Y-96904759D01*
X43579219Y-96904759D02*
X43531600Y-96952378D01*
X43531600Y-96952378D02*
X43483981Y-97047616D01*
X43483981Y-97047616D02*
X43483981Y-97238092D01*
X43483981Y-97238092D02*
X43531600Y-97333330D01*
X43531600Y-97333330D02*
X43579219Y-97380950D01*
X43579219Y-97380950D02*
X43674457Y-97428569D01*
X43674457Y-97428569D02*
X43864933Y-97428569D01*
X43864933Y-97428569D02*
X43960171Y-97380950D01*
X43960171Y-97380950D02*
X44007790Y-97333330D01*
X44007790Y-97333330D02*
X44055409Y-97238092D01*
X44055409Y-97238092D02*
X44055409Y-97047616D01*
X44055409Y-97047616D02*
X44007790Y-96952378D01*
X44007790Y-96952378D02*
X43960171Y-96904759D01*
X43960171Y-96904759D02*
X43864933Y-96857140D01*
X44341124Y-96428569D02*
X44674457Y-97428569D01*
X44674457Y-97428569D02*
X45007790Y-96428569D01*
X42766838Y-104276188D02*
X42671600Y-104228569D01*
X42671600Y-104228569D02*
X42528743Y-104228569D01*
X42528743Y-104228569D02*
X42385886Y-104276188D01*
X42385886Y-104276188D02*
X42290648Y-104371426D01*
X42290648Y-104371426D02*
X42243029Y-104466664D01*
X42243029Y-104466664D02*
X42195410Y-104657140D01*
X42195410Y-104657140D02*
X42195410Y-104799997D01*
X42195410Y-104799997D02*
X42243029Y-104990473D01*
X42243029Y-104990473D02*
X42290648Y-105085711D01*
X42290648Y-105085711D02*
X42385886Y-105180950D01*
X42385886Y-105180950D02*
X42528743Y-105228569D01*
X42528743Y-105228569D02*
X42623981Y-105228569D01*
X42623981Y-105228569D02*
X42766838Y-105180950D01*
X42766838Y-105180950D02*
X42814457Y-105133330D01*
X42814457Y-105133330D02*
X42814457Y-104799997D01*
X42814457Y-104799997D02*
X42623981Y-104799997D01*
X43243029Y-105228569D02*
X43243029Y-104228569D01*
X43243029Y-104228569D02*
X43814457Y-105228569D01*
X43814457Y-105228569D02*
X43814457Y-104228569D01*
X44290648Y-105228569D02*
X44290648Y-104228569D01*
X44290648Y-104228569D02*
X44528743Y-104228569D01*
X44528743Y-104228569D02*
X44671600Y-104276188D01*
X44671600Y-104276188D02*
X44766838Y-104371426D01*
X44766838Y-104371426D02*
X44814457Y-104466664D01*
X44814457Y-104466664D02*
X44862076Y-104657140D01*
X44862076Y-104657140D02*
X44862076Y-104799997D01*
X44862076Y-104799997D02*
X44814457Y-104990473D01*
X44814457Y-104990473D02*
X44766838Y-105085711D01*
X44766838Y-105085711D02*
X44671600Y-105180950D01*
X44671600Y-105180950D02*
X44528743Y-105228569D01*
X44528743Y-105228569D02*
X44290648Y-105228569D01*
X182251898Y-56625235D02*
X182323326Y-56553807D01*
X182323326Y-56553807D02*
X182466184Y-56482378D01*
X182466184Y-56482378D02*
X182823326Y-56482378D01*
X182823326Y-56482378D02*
X182966184Y-56553807D01*
X182966184Y-56553807D02*
X183037612Y-56625235D01*
X183037612Y-56625235D02*
X183109041Y-56768092D01*
X183109041Y-56768092D02*
X183109041Y-56910950D01*
X183109041Y-56910950D02*
X183037612Y-57125235D01*
X183037612Y-57125235D02*
X182180469Y-57982378D01*
X182180469Y-57982378D02*
X183109041Y-57982378D01*
X184037612Y-56482378D02*
X184180469Y-56482378D01*
X184180469Y-56482378D02*
X184323326Y-56553807D01*
X184323326Y-56553807D02*
X184394755Y-56625235D01*
X184394755Y-56625235D02*
X184466183Y-56768092D01*
X184466183Y-56768092D02*
X184537612Y-57053807D01*
X184537612Y-57053807D02*
X184537612Y-57410950D01*
X184537612Y-57410950D02*
X184466183Y-57696664D01*
X184466183Y-57696664D02*
X184394755Y-57839521D01*
X184394755Y-57839521D02*
X184323326Y-57910950D01*
X184323326Y-57910950D02*
X184180469Y-57982378D01*
X184180469Y-57982378D02*
X184037612Y-57982378D01*
X184037612Y-57982378D02*
X183894755Y-57910950D01*
X183894755Y-57910950D02*
X183823326Y-57839521D01*
X183823326Y-57839521D02*
X183751897Y-57696664D01*
X183751897Y-57696664D02*
X183680469Y-57410950D01*
X183680469Y-57410950D02*
X183680469Y-57053807D01*
X183680469Y-57053807D02*
X183751897Y-56768092D01*
X183751897Y-56768092D02*
X183823326Y-56625235D01*
X183823326Y-56625235D02*
X183894755Y-56553807D01*
X183894755Y-56553807D02*
X184037612Y-56482378D01*
X186323325Y-57982378D02*
X186323325Y-56482378D01*
X186323325Y-56482378D02*
X186894754Y-56482378D01*
X186894754Y-56482378D02*
X187037611Y-56553807D01*
X187037611Y-56553807D02*
X187109040Y-56625235D01*
X187109040Y-56625235D02*
X187180468Y-56768092D01*
X187180468Y-56768092D02*
X187180468Y-56982378D01*
X187180468Y-56982378D02*
X187109040Y-57125235D01*
X187109040Y-57125235D02*
X187037611Y-57196664D01*
X187037611Y-57196664D02*
X186894754Y-57268092D01*
X186894754Y-57268092D02*
X186323325Y-57268092D01*
X187823325Y-57982378D02*
X187823325Y-56482378D01*
X188537611Y-57982378D02*
X188537611Y-56482378D01*
X188537611Y-56482378D02*
X189394754Y-57982378D01*
X189394754Y-57982378D02*
X189394754Y-56482378D01*
X85764398Y-125192735D02*
X85835826Y-125121307D01*
X85835826Y-125121307D02*
X85978684Y-125049878D01*
X85978684Y-125049878D02*
X86335826Y-125049878D01*
X86335826Y-125049878D02*
X86478684Y-125121307D01*
X86478684Y-125121307D02*
X86550112Y-125192735D01*
X86550112Y-125192735D02*
X86621541Y-125335592D01*
X86621541Y-125335592D02*
X86621541Y-125478450D01*
X86621541Y-125478450D02*
X86550112Y-125692735D01*
X86550112Y-125692735D02*
X85692969Y-126549878D01*
X85692969Y-126549878D02*
X86621541Y-126549878D01*
X87192969Y-125192735D02*
X87264397Y-125121307D01*
X87264397Y-125121307D02*
X87407255Y-125049878D01*
X87407255Y-125049878D02*
X87764397Y-125049878D01*
X87764397Y-125049878D02*
X87907255Y-125121307D01*
X87907255Y-125121307D02*
X87978683Y-125192735D01*
X87978683Y-125192735D02*
X88050112Y-125335592D01*
X88050112Y-125335592D02*
X88050112Y-125478450D01*
X88050112Y-125478450D02*
X87978683Y-125692735D01*
X87978683Y-125692735D02*
X87121540Y-126549878D01*
X87121540Y-126549878D02*
X88050112Y-126549878D01*
X89835825Y-126549878D02*
X89835825Y-125049878D01*
X89835825Y-125049878D02*
X90407254Y-125049878D01*
X90407254Y-125049878D02*
X90550111Y-125121307D01*
X90550111Y-125121307D02*
X90621540Y-125192735D01*
X90621540Y-125192735D02*
X90692968Y-125335592D01*
X90692968Y-125335592D02*
X90692968Y-125549878D01*
X90692968Y-125549878D02*
X90621540Y-125692735D01*
X90621540Y-125692735D02*
X90550111Y-125764164D01*
X90550111Y-125764164D02*
X90407254Y-125835592D01*
X90407254Y-125835592D02*
X89835825Y-125835592D01*
X91335825Y-126549878D02*
X91335825Y-125049878D01*
X92050111Y-126549878D02*
X92050111Y-125049878D01*
X92050111Y-125049878D02*
X92907254Y-126549878D01*
X92907254Y-126549878D02*
X92907254Y-125049878D01*
X42496838Y-87298569D02*
X41925410Y-87298569D01*
X42211124Y-87298569D02*
X42211124Y-86298569D01*
X42211124Y-86298569D02*
X42115886Y-86441426D01*
X42115886Y-86441426D02*
X42020648Y-86536664D01*
X42020648Y-86536664D02*
X41925410Y-86584283D01*
X42925410Y-87203330D02*
X42973029Y-87250950D01*
X42973029Y-87250950D02*
X42925410Y-87298569D01*
X42925410Y-87298569D02*
X42877791Y-87250950D01*
X42877791Y-87250950D02*
X42925410Y-87203330D01*
X42925410Y-87203330D02*
X42925410Y-87298569D01*
X43353981Y-86393807D02*
X43401600Y-86346188D01*
X43401600Y-86346188D02*
X43496838Y-86298569D01*
X43496838Y-86298569D02*
X43734933Y-86298569D01*
X43734933Y-86298569D02*
X43830171Y-86346188D01*
X43830171Y-86346188D02*
X43877790Y-86393807D01*
X43877790Y-86393807D02*
X43925409Y-86489045D01*
X43925409Y-86489045D02*
X43925409Y-86584283D01*
X43925409Y-86584283D02*
X43877790Y-86727140D01*
X43877790Y-86727140D02*
X43306362Y-87298569D01*
X43306362Y-87298569D02*
X43925409Y-87298569D01*
X44211124Y-86298569D02*
X44544457Y-87298569D01*
X44544457Y-87298569D02*
X44877790Y-86298569D01*
X84129041Y-57762378D02*
X83271898Y-57762378D01*
X83700469Y-57762378D02*
X83700469Y-56262378D01*
X83700469Y-56262378D02*
X83557612Y-56476664D01*
X83557612Y-56476664D02*
X83414755Y-56619521D01*
X83414755Y-56619521D02*
X83271898Y-56690950D01*
X84700469Y-56405235D02*
X84771897Y-56333807D01*
X84771897Y-56333807D02*
X84914755Y-56262378D01*
X84914755Y-56262378D02*
X85271897Y-56262378D01*
X85271897Y-56262378D02*
X85414755Y-56333807D01*
X85414755Y-56333807D02*
X85486183Y-56405235D01*
X85486183Y-56405235D02*
X85557612Y-56548092D01*
X85557612Y-56548092D02*
X85557612Y-56690950D01*
X85557612Y-56690950D02*
X85486183Y-56905235D01*
X85486183Y-56905235D02*
X84629040Y-57762378D01*
X84629040Y-57762378D02*
X85557612Y-57762378D01*
X87343325Y-57762378D02*
X87343325Y-56262378D01*
X87343325Y-56262378D02*
X87914754Y-56262378D01*
X87914754Y-56262378D02*
X88057611Y-56333807D01*
X88057611Y-56333807D02*
X88129040Y-56405235D01*
X88129040Y-56405235D02*
X88200468Y-56548092D01*
X88200468Y-56548092D02*
X88200468Y-56762378D01*
X88200468Y-56762378D02*
X88129040Y-56905235D01*
X88129040Y-56905235D02*
X88057611Y-56976664D01*
X88057611Y-56976664D02*
X87914754Y-57048092D01*
X87914754Y-57048092D02*
X87343325Y-57048092D01*
X88843325Y-57762378D02*
X88843325Y-56262378D01*
X89557611Y-57762378D02*
X89557611Y-56262378D01*
X89557611Y-56262378D02*
X90414754Y-57762378D01*
X90414754Y-57762378D02*
X90414754Y-56262378D01*
X42097791Y-101688569D02*
X42716838Y-101688569D01*
X42716838Y-101688569D02*
X42383505Y-102069521D01*
X42383505Y-102069521D02*
X42526362Y-102069521D01*
X42526362Y-102069521D02*
X42621600Y-102117140D01*
X42621600Y-102117140D02*
X42669219Y-102164759D01*
X42669219Y-102164759D02*
X42716838Y-102259997D01*
X42716838Y-102259997D02*
X42716838Y-102498092D01*
X42716838Y-102498092D02*
X42669219Y-102593330D01*
X42669219Y-102593330D02*
X42621600Y-102640950D01*
X42621600Y-102640950D02*
X42526362Y-102688569D01*
X42526362Y-102688569D02*
X42240648Y-102688569D01*
X42240648Y-102688569D02*
X42145410Y-102640950D01*
X42145410Y-102640950D02*
X42097791Y-102593330D01*
X43145410Y-102593330D02*
X43193029Y-102640950D01*
X43193029Y-102640950D02*
X43145410Y-102688569D01*
X43145410Y-102688569D02*
X43097791Y-102640950D01*
X43097791Y-102640950D02*
X43145410Y-102593330D01*
X43145410Y-102593330D02*
X43145410Y-102688569D01*
X43526362Y-101688569D02*
X44145409Y-101688569D01*
X44145409Y-101688569D02*
X43812076Y-102069521D01*
X43812076Y-102069521D02*
X43954933Y-102069521D01*
X43954933Y-102069521D02*
X44050171Y-102117140D01*
X44050171Y-102117140D02*
X44097790Y-102164759D01*
X44097790Y-102164759D02*
X44145409Y-102259997D01*
X44145409Y-102259997D02*
X44145409Y-102498092D01*
X44145409Y-102498092D02*
X44097790Y-102593330D01*
X44097790Y-102593330D02*
X44050171Y-102640950D01*
X44050171Y-102640950D02*
X43954933Y-102688569D01*
X43954933Y-102688569D02*
X43669219Y-102688569D01*
X43669219Y-102688569D02*
X43573981Y-102640950D01*
X43573981Y-102640950D02*
X43526362Y-102593330D01*
X44431124Y-101688569D02*
X44764457Y-102688569D01*
X44764457Y-102688569D02*
X45097790Y-101688569D01*
X42519219Y-80978569D02*
X42043029Y-80978569D01*
X42043029Y-80978569D02*
X41995410Y-81454759D01*
X41995410Y-81454759D02*
X42043029Y-81407140D01*
X42043029Y-81407140D02*
X42138267Y-81359521D01*
X42138267Y-81359521D02*
X42376362Y-81359521D01*
X42376362Y-81359521D02*
X42471600Y-81407140D01*
X42471600Y-81407140D02*
X42519219Y-81454759D01*
X42519219Y-81454759D02*
X42566838Y-81549997D01*
X42566838Y-81549997D02*
X42566838Y-81788092D01*
X42566838Y-81788092D02*
X42519219Y-81883330D01*
X42519219Y-81883330D02*
X42471600Y-81930950D01*
X42471600Y-81930950D02*
X42376362Y-81978569D01*
X42376362Y-81978569D02*
X42138267Y-81978569D01*
X42138267Y-81978569D02*
X42043029Y-81930950D01*
X42043029Y-81930950D02*
X41995410Y-81883330D01*
X42852553Y-80978569D02*
X43185886Y-81978569D01*
X43185886Y-81978569D02*
X43519219Y-80978569D01*
X129719041Y-57932378D02*
X128861898Y-57932378D01*
X129290469Y-57932378D02*
X129290469Y-56432378D01*
X129290469Y-56432378D02*
X129147612Y-56646664D01*
X129147612Y-56646664D02*
X129004755Y-56789521D01*
X129004755Y-56789521D02*
X128861898Y-56860950D01*
X131076183Y-56432378D02*
X130361897Y-56432378D01*
X130361897Y-56432378D02*
X130290469Y-57146664D01*
X130290469Y-57146664D02*
X130361897Y-57075235D01*
X130361897Y-57075235D02*
X130504755Y-57003807D01*
X130504755Y-57003807D02*
X130861897Y-57003807D01*
X130861897Y-57003807D02*
X131004755Y-57075235D01*
X131004755Y-57075235D02*
X131076183Y-57146664D01*
X131076183Y-57146664D02*
X131147612Y-57289521D01*
X131147612Y-57289521D02*
X131147612Y-57646664D01*
X131147612Y-57646664D02*
X131076183Y-57789521D01*
X131076183Y-57789521D02*
X131004755Y-57860950D01*
X131004755Y-57860950D02*
X130861897Y-57932378D01*
X130861897Y-57932378D02*
X130504755Y-57932378D01*
X130504755Y-57932378D02*
X130361897Y-57860950D01*
X130361897Y-57860950D02*
X130290469Y-57789521D01*
X132933325Y-57932378D02*
X132933325Y-56432378D01*
X132933325Y-56432378D02*
X133504754Y-56432378D01*
X133504754Y-56432378D02*
X133647611Y-56503807D01*
X133647611Y-56503807D02*
X133719040Y-56575235D01*
X133719040Y-56575235D02*
X133790468Y-56718092D01*
X133790468Y-56718092D02*
X133790468Y-56932378D01*
X133790468Y-56932378D02*
X133719040Y-57075235D01*
X133719040Y-57075235D02*
X133647611Y-57146664D01*
X133647611Y-57146664D02*
X133504754Y-57218092D01*
X133504754Y-57218092D02*
X132933325Y-57218092D01*
X134433325Y-57932378D02*
X134433325Y-56432378D01*
X135147611Y-57932378D02*
X135147611Y-56432378D01*
X135147611Y-56432378D02*
X136004754Y-57932378D01*
X136004754Y-57932378D02*
X136004754Y-56432378D01*
X155249041Y-58082378D02*
X154391898Y-58082378D01*
X154820469Y-58082378D02*
X154820469Y-56582378D01*
X154820469Y-56582378D02*
X154677612Y-56796664D01*
X154677612Y-56796664D02*
X154534755Y-56939521D01*
X154534755Y-56939521D02*
X154391898Y-57010950D01*
X156534755Y-56582378D02*
X156249040Y-56582378D01*
X156249040Y-56582378D02*
X156106183Y-56653807D01*
X156106183Y-56653807D02*
X156034755Y-56725235D01*
X156034755Y-56725235D02*
X155891897Y-56939521D01*
X155891897Y-56939521D02*
X155820469Y-57225235D01*
X155820469Y-57225235D02*
X155820469Y-57796664D01*
X155820469Y-57796664D02*
X155891897Y-57939521D01*
X155891897Y-57939521D02*
X155963326Y-58010950D01*
X155963326Y-58010950D02*
X156106183Y-58082378D01*
X156106183Y-58082378D02*
X156391897Y-58082378D01*
X156391897Y-58082378D02*
X156534755Y-58010950D01*
X156534755Y-58010950D02*
X156606183Y-57939521D01*
X156606183Y-57939521D02*
X156677612Y-57796664D01*
X156677612Y-57796664D02*
X156677612Y-57439521D01*
X156677612Y-57439521D02*
X156606183Y-57296664D01*
X156606183Y-57296664D02*
X156534755Y-57225235D01*
X156534755Y-57225235D02*
X156391897Y-57153807D01*
X156391897Y-57153807D02*
X156106183Y-57153807D01*
X156106183Y-57153807D02*
X155963326Y-57225235D01*
X155963326Y-57225235D02*
X155891897Y-57296664D01*
X155891897Y-57296664D02*
X155820469Y-57439521D01*
X158463325Y-58082378D02*
X158463325Y-56582378D01*
X158463325Y-56582378D02*
X159034754Y-56582378D01*
X159034754Y-56582378D02*
X159177611Y-56653807D01*
X159177611Y-56653807D02*
X159249040Y-56725235D01*
X159249040Y-56725235D02*
X159320468Y-56868092D01*
X159320468Y-56868092D02*
X159320468Y-57082378D01*
X159320468Y-57082378D02*
X159249040Y-57225235D01*
X159249040Y-57225235D02*
X159177611Y-57296664D01*
X159177611Y-57296664D02*
X159034754Y-57368092D01*
X159034754Y-57368092D02*
X158463325Y-57368092D01*
X159963325Y-58082378D02*
X159963325Y-56582378D01*
X160677611Y-58082378D02*
X160677611Y-56582378D01*
X160677611Y-56582378D02*
X161534754Y-58082378D01*
X161534754Y-58082378D02*
X161534754Y-56582378D01*
X204292969Y-125659878D02*
X205221541Y-125659878D01*
X205221541Y-125659878D02*
X204721541Y-126231307D01*
X204721541Y-126231307D02*
X204935826Y-126231307D01*
X204935826Y-126231307D02*
X205078684Y-126302735D01*
X205078684Y-126302735D02*
X205150112Y-126374164D01*
X205150112Y-126374164D02*
X205221541Y-126517021D01*
X205221541Y-126517021D02*
X205221541Y-126874164D01*
X205221541Y-126874164D02*
X205150112Y-127017021D01*
X205150112Y-127017021D02*
X205078684Y-127088450D01*
X205078684Y-127088450D02*
X204935826Y-127159878D01*
X204935826Y-127159878D02*
X204507255Y-127159878D01*
X204507255Y-127159878D02*
X204364398Y-127088450D01*
X204364398Y-127088450D02*
X204292969Y-127017021D01*
X206150112Y-125659878D02*
X206292969Y-125659878D01*
X206292969Y-125659878D02*
X206435826Y-125731307D01*
X206435826Y-125731307D02*
X206507255Y-125802735D01*
X206507255Y-125802735D02*
X206578683Y-125945592D01*
X206578683Y-125945592D02*
X206650112Y-126231307D01*
X206650112Y-126231307D02*
X206650112Y-126588450D01*
X206650112Y-126588450D02*
X206578683Y-126874164D01*
X206578683Y-126874164D02*
X206507255Y-127017021D01*
X206507255Y-127017021D02*
X206435826Y-127088450D01*
X206435826Y-127088450D02*
X206292969Y-127159878D01*
X206292969Y-127159878D02*
X206150112Y-127159878D01*
X206150112Y-127159878D02*
X206007255Y-127088450D01*
X206007255Y-127088450D02*
X205935826Y-127017021D01*
X205935826Y-127017021D02*
X205864397Y-126874164D01*
X205864397Y-126874164D02*
X205792969Y-126588450D01*
X205792969Y-126588450D02*
X205792969Y-126231307D01*
X205792969Y-126231307D02*
X205864397Y-125945592D01*
X205864397Y-125945592D02*
X205935826Y-125802735D01*
X205935826Y-125802735D02*
X206007255Y-125731307D01*
X206007255Y-125731307D02*
X206150112Y-125659878D01*
X208435825Y-127159878D02*
X208435825Y-125659878D01*
X208435825Y-125659878D02*
X209007254Y-125659878D01*
X209007254Y-125659878D02*
X209150111Y-125731307D01*
X209150111Y-125731307D02*
X209221540Y-125802735D01*
X209221540Y-125802735D02*
X209292968Y-125945592D01*
X209292968Y-125945592D02*
X209292968Y-126159878D01*
X209292968Y-126159878D02*
X209221540Y-126302735D01*
X209221540Y-126302735D02*
X209150111Y-126374164D01*
X209150111Y-126374164D02*
X209007254Y-126445592D01*
X209007254Y-126445592D02*
X208435825Y-126445592D01*
X209935825Y-127159878D02*
X209935825Y-125659878D01*
X210650111Y-127159878D02*
X210650111Y-125659878D01*
X210650111Y-125659878D02*
X211507254Y-127159878D01*
X211507254Y-127159878D02*
X211507254Y-125659878D01*
X42576838Y-83636188D02*
X42481600Y-83588569D01*
X42481600Y-83588569D02*
X42338743Y-83588569D01*
X42338743Y-83588569D02*
X42195886Y-83636188D01*
X42195886Y-83636188D02*
X42100648Y-83731426D01*
X42100648Y-83731426D02*
X42053029Y-83826664D01*
X42053029Y-83826664D02*
X42005410Y-84017140D01*
X42005410Y-84017140D02*
X42005410Y-84159997D01*
X42005410Y-84159997D02*
X42053029Y-84350473D01*
X42053029Y-84350473D02*
X42100648Y-84445711D01*
X42100648Y-84445711D02*
X42195886Y-84540950D01*
X42195886Y-84540950D02*
X42338743Y-84588569D01*
X42338743Y-84588569D02*
X42433981Y-84588569D01*
X42433981Y-84588569D02*
X42576838Y-84540950D01*
X42576838Y-84540950D02*
X42624457Y-84493330D01*
X42624457Y-84493330D02*
X42624457Y-84159997D01*
X42624457Y-84159997D02*
X42433981Y-84159997D01*
X43053029Y-84588569D02*
X43053029Y-83588569D01*
X43053029Y-83588569D02*
X43624457Y-84588569D01*
X43624457Y-84588569D02*
X43624457Y-83588569D01*
X44100648Y-84588569D02*
X44100648Y-83588569D01*
X44100648Y-83588569D02*
X44338743Y-83588569D01*
X44338743Y-83588569D02*
X44481600Y-83636188D01*
X44481600Y-83636188D02*
X44576838Y-83731426D01*
X44576838Y-83731426D02*
X44624457Y-83826664D01*
X44624457Y-83826664D02*
X44672076Y-84017140D01*
X44672076Y-84017140D02*
X44672076Y-84159997D01*
X44672076Y-84159997D02*
X44624457Y-84350473D01*
X44624457Y-84350473D02*
X44576838Y-84445711D01*
X44576838Y-84445711D02*
X44481600Y-84540950D01*
X44481600Y-84540950D02*
X44338743Y-84588569D01*
X44338743Y-84588569D02*
X44100648Y-84588569D01*
X161534398Y-125812735D02*
X161605826Y-125741307D01*
X161605826Y-125741307D02*
X161748684Y-125669878D01*
X161748684Y-125669878D02*
X162105826Y-125669878D01*
X162105826Y-125669878D02*
X162248684Y-125741307D01*
X162248684Y-125741307D02*
X162320112Y-125812735D01*
X162320112Y-125812735D02*
X162391541Y-125955592D01*
X162391541Y-125955592D02*
X162391541Y-126098450D01*
X162391541Y-126098450D02*
X162320112Y-126312735D01*
X162320112Y-126312735D02*
X161462969Y-127169878D01*
X161462969Y-127169878D02*
X162391541Y-127169878D01*
X163677255Y-125669878D02*
X163391540Y-125669878D01*
X163391540Y-125669878D02*
X163248683Y-125741307D01*
X163248683Y-125741307D02*
X163177255Y-125812735D01*
X163177255Y-125812735D02*
X163034397Y-126027021D01*
X163034397Y-126027021D02*
X162962969Y-126312735D01*
X162962969Y-126312735D02*
X162962969Y-126884164D01*
X162962969Y-126884164D02*
X163034397Y-127027021D01*
X163034397Y-127027021D02*
X163105826Y-127098450D01*
X163105826Y-127098450D02*
X163248683Y-127169878D01*
X163248683Y-127169878D02*
X163534397Y-127169878D01*
X163534397Y-127169878D02*
X163677255Y-127098450D01*
X163677255Y-127098450D02*
X163748683Y-127027021D01*
X163748683Y-127027021D02*
X163820112Y-126884164D01*
X163820112Y-126884164D02*
X163820112Y-126527021D01*
X163820112Y-126527021D02*
X163748683Y-126384164D01*
X163748683Y-126384164D02*
X163677255Y-126312735D01*
X163677255Y-126312735D02*
X163534397Y-126241307D01*
X163534397Y-126241307D02*
X163248683Y-126241307D01*
X163248683Y-126241307D02*
X163105826Y-126312735D01*
X163105826Y-126312735D02*
X163034397Y-126384164D01*
X163034397Y-126384164D02*
X162962969Y-126527021D01*
X165605825Y-127169878D02*
X165605825Y-125669878D01*
X165605825Y-125669878D02*
X166177254Y-125669878D01*
X166177254Y-125669878D02*
X166320111Y-125741307D01*
X166320111Y-125741307D02*
X166391540Y-125812735D01*
X166391540Y-125812735D02*
X166462968Y-125955592D01*
X166462968Y-125955592D02*
X166462968Y-126169878D01*
X166462968Y-126169878D02*
X166391540Y-126312735D01*
X166391540Y-126312735D02*
X166320111Y-126384164D01*
X166320111Y-126384164D02*
X166177254Y-126455592D01*
X166177254Y-126455592D02*
X165605825Y-126455592D01*
X167105825Y-127169878D02*
X167105825Y-125669878D01*
X167820111Y-127169878D02*
X167820111Y-125669878D01*
X167820111Y-125669878D02*
X168677254Y-127169878D01*
X168677254Y-127169878D02*
X168677254Y-125669878D01*
X42626838Y-92438569D02*
X42055410Y-92438569D01*
X42341124Y-92438569D02*
X42341124Y-91438569D01*
X42341124Y-91438569D02*
X42245886Y-91581426D01*
X42245886Y-91581426D02*
X42150648Y-91676664D01*
X42150648Y-91676664D02*
X42055410Y-91724283D01*
X43055410Y-92343330D02*
X43103029Y-92390950D01*
X43103029Y-92390950D02*
X43055410Y-92438569D01*
X43055410Y-92438569D02*
X43007791Y-92390950D01*
X43007791Y-92390950D02*
X43055410Y-92343330D01*
X43055410Y-92343330D02*
X43055410Y-92438569D01*
X43674457Y-91867140D02*
X43579219Y-91819521D01*
X43579219Y-91819521D02*
X43531600Y-91771902D01*
X43531600Y-91771902D02*
X43483981Y-91676664D01*
X43483981Y-91676664D02*
X43483981Y-91629045D01*
X43483981Y-91629045D02*
X43531600Y-91533807D01*
X43531600Y-91533807D02*
X43579219Y-91486188D01*
X43579219Y-91486188D02*
X43674457Y-91438569D01*
X43674457Y-91438569D02*
X43864933Y-91438569D01*
X43864933Y-91438569D02*
X43960171Y-91486188D01*
X43960171Y-91486188D02*
X44007790Y-91533807D01*
X44007790Y-91533807D02*
X44055409Y-91629045D01*
X44055409Y-91629045D02*
X44055409Y-91676664D01*
X44055409Y-91676664D02*
X44007790Y-91771902D01*
X44007790Y-91771902D02*
X43960171Y-91819521D01*
X43960171Y-91819521D02*
X43864933Y-91867140D01*
X43864933Y-91867140D02*
X43674457Y-91867140D01*
X43674457Y-91867140D02*
X43579219Y-91914759D01*
X43579219Y-91914759D02*
X43531600Y-91962378D01*
X43531600Y-91962378D02*
X43483981Y-92057616D01*
X43483981Y-92057616D02*
X43483981Y-92248092D01*
X43483981Y-92248092D02*
X43531600Y-92343330D01*
X43531600Y-92343330D02*
X43579219Y-92390950D01*
X43579219Y-92390950D02*
X43674457Y-92438569D01*
X43674457Y-92438569D02*
X43864933Y-92438569D01*
X43864933Y-92438569D02*
X43960171Y-92390950D01*
X43960171Y-92390950D02*
X44007790Y-92343330D01*
X44007790Y-92343330D02*
X44055409Y-92248092D01*
X44055409Y-92248092D02*
X44055409Y-92057616D01*
X44055409Y-92057616D02*
X44007790Y-91962378D01*
X44007790Y-91962378D02*
X43960171Y-91914759D01*
X43960171Y-91914759D02*
X43864933Y-91867140D01*
X44341124Y-91438569D02*
X44674457Y-92438569D01*
X44674457Y-92438569D02*
X45007790Y-91438569D01*
X46549576Y-60371735D02*
X46463862Y-60457450D01*
X46463862Y-60457450D02*
X46206719Y-60543164D01*
X46206719Y-60543164D02*
X46035291Y-60543164D01*
X46035291Y-60543164D02*
X45778148Y-60457450D01*
X45778148Y-60457450D02*
X45606719Y-60286021D01*
X45606719Y-60286021D02*
X45521005Y-60114592D01*
X45521005Y-60114592D02*
X45435291Y-59771735D01*
X45435291Y-59771735D02*
X45435291Y-59514592D01*
X45435291Y-59514592D02*
X45521005Y-59171735D01*
X45521005Y-59171735D02*
X45606719Y-59000307D01*
X45606719Y-59000307D02*
X45778148Y-58828878D01*
X45778148Y-58828878D02*
X46035291Y-58743164D01*
X46035291Y-58743164D02*
X46206719Y-58743164D01*
X46206719Y-58743164D02*
X46463862Y-58828878D01*
X46463862Y-58828878D02*
X46549576Y-58914592D01*
X48092434Y-60543164D02*
X48092434Y-59600307D01*
X48092434Y-59600307D02*
X48006719Y-59428878D01*
X48006719Y-59428878D02*
X47835291Y-59343164D01*
X47835291Y-59343164D02*
X47492434Y-59343164D01*
X47492434Y-59343164D02*
X47321005Y-59428878D01*
X48092434Y-60457450D02*
X47921005Y-60543164D01*
X47921005Y-60543164D02*
X47492434Y-60543164D01*
X47492434Y-60543164D02*
X47321005Y-60457450D01*
X47321005Y-60457450D02*
X47235291Y-60286021D01*
X47235291Y-60286021D02*
X47235291Y-60114592D01*
X47235291Y-60114592D02*
X47321005Y-59943164D01*
X47321005Y-59943164D02*
X47492434Y-59857450D01*
X47492434Y-59857450D02*
X47921005Y-59857450D01*
X47921005Y-59857450D02*
X48092434Y-59771735D01*
X48949576Y-60543164D02*
X48949576Y-59343164D01*
X48949576Y-59514592D02*
X49035290Y-59428878D01*
X49035290Y-59428878D02*
X49206719Y-59343164D01*
X49206719Y-59343164D02*
X49463862Y-59343164D01*
X49463862Y-59343164D02*
X49635290Y-59428878D01*
X49635290Y-59428878D02*
X49721005Y-59600307D01*
X49721005Y-59600307D02*
X49721005Y-60543164D01*
X49721005Y-59600307D02*
X49806719Y-59428878D01*
X49806719Y-59428878D02*
X49978147Y-59343164D01*
X49978147Y-59343164D02*
X50235290Y-59343164D01*
X50235290Y-59343164D02*
X50406719Y-59428878D01*
X50406719Y-59428878D02*
X50492433Y-59600307D01*
X50492433Y-59600307D02*
X50492433Y-60543164D01*
X52035290Y-60457450D02*
X51863862Y-60543164D01*
X51863862Y-60543164D02*
X51521005Y-60543164D01*
X51521005Y-60543164D02*
X51349576Y-60457450D01*
X51349576Y-60457450D02*
X51263862Y-60286021D01*
X51263862Y-60286021D02*
X51263862Y-59600307D01*
X51263862Y-59600307D02*
X51349576Y-59428878D01*
X51349576Y-59428878D02*
X51521005Y-59343164D01*
X51521005Y-59343164D02*
X51863862Y-59343164D01*
X51863862Y-59343164D02*
X52035290Y-59428878D01*
X52035290Y-59428878D02*
X52121005Y-59600307D01*
X52121005Y-59600307D02*
X52121005Y-59771735D01*
X52121005Y-59771735D02*
X51263862Y-59943164D01*
X52892433Y-60543164D02*
X52892433Y-59343164D01*
X52892433Y-59686021D02*
X52978147Y-59514592D01*
X52978147Y-59514592D02*
X53063862Y-59428878D01*
X53063862Y-59428878D02*
X53235290Y-59343164D01*
X53235290Y-59343164D02*
X53406719Y-59343164D01*
X54778148Y-60543164D02*
X54778148Y-59600307D01*
X54778148Y-59600307D02*
X54692433Y-59428878D01*
X54692433Y-59428878D02*
X54521005Y-59343164D01*
X54521005Y-59343164D02*
X54178148Y-59343164D01*
X54178148Y-59343164D02*
X54006719Y-59428878D01*
X54778148Y-60457450D02*
X54606719Y-60543164D01*
X54606719Y-60543164D02*
X54178148Y-60543164D01*
X54178148Y-60543164D02*
X54006719Y-60457450D01*
X54006719Y-60457450D02*
X53921005Y-60286021D01*
X53921005Y-60286021D02*
X53921005Y-60114592D01*
X53921005Y-60114592D02*
X54006719Y-59943164D01*
X54006719Y-59943164D02*
X54178148Y-59857450D01*
X54178148Y-59857450D02*
X54606719Y-59857450D01*
X54606719Y-59857450D02*
X54778148Y-59771735D01*
X55206719Y-60714592D02*
X56578147Y-60714592D01*
X57006719Y-59600307D02*
X57606719Y-59600307D01*
X57863862Y-60543164D02*
X57006719Y-60543164D01*
X57006719Y-60543164D02*
X57006719Y-58743164D01*
X57006719Y-58743164D02*
X57863862Y-58743164D01*
X58463861Y-60543164D02*
X59406719Y-59343164D01*
X58463861Y-59343164D02*
X59406719Y-60543164D01*
X60092433Y-59343164D02*
X60092433Y-61143164D01*
X60092433Y-59428878D02*
X60263862Y-59343164D01*
X60263862Y-59343164D02*
X60606719Y-59343164D01*
X60606719Y-59343164D02*
X60778147Y-59428878D01*
X60778147Y-59428878D02*
X60863862Y-59514592D01*
X60863862Y-59514592D02*
X60949576Y-59686021D01*
X60949576Y-59686021D02*
X60949576Y-60200307D01*
X60949576Y-60200307D02*
X60863862Y-60371735D01*
X60863862Y-60371735D02*
X60778147Y-60457450D01*
X60778147Y-60457450D02*
X60606719Y-60543164D01*
X60606719Y-60543164D02*
X60263862Y-60543164D01*
X60263862Y-60543164D02*
X60092433Y-60457450D01*
X62492433Y-60543164D02*
X62492433Y-59600307D01*
X62492433Y-59600307D02*
X62406718Y-59428878D01*
X62406718Y-59428878D02*
X62235290Y-59343164D01*
X62235290Y-59343164D02*
X61892433Y-59343164D01*
X61892433Y-59343164D02*
X61721004Y-59428878D01*
X62492433Y-60457450D02*
X62321004Y-60543164D01*
X62321004Y-60543164D02*
X61892433Y-60543164D01*
X61892433Y-60543164D02*
X61721004Y-60457450D01*
X61721004Y-60457450D02*
X61635290Y-60286021D01*
X61635290Y-60286021D02*
X61635290Y-60114592D01*
X61635290Y-60114592D02*
X61721004Y-59943164D01*
X61721004Y-59943164D02*
X61892433Y-59857450D01*
X61892433Y-59857450D02*
X62321004Y-59857450D01*
X62321004Y-59857450D02*
X62492433Y-59771735D01*
X63349575Y-59343164D02*
X63349575Y-60543164D01*
X63349575Y-59514592D02*
X63435289Y-59428878D01*
X63435289Y-59428878D02*
X63606718Y-59343164D01*
X63606718Y-59343164D02*
X63863861Y-59343164D01*
X63863861Y-59343164D02*
X64035289Y-59428878D01*
X64035289Y-59428878D02*
X64121004Y-59600307D01*
X64121004Y-59600307D02*
X64121004Y-60543164D01*
X64892432Y-60457450D02*
X65063860Y-60543164D01*
X65063860Y-60543164D02*
X65406717Y-60543164D01*
X65406717Y-60543164D02*
X65578146Y-60457450D01*
X65578146Y-60457450D02*
X65663860Y-60286021D01*
X65663860Y-60286021D02*
X65663860Y-60200307D01*
X65663860Y-60200307D02*
X65578146Y-60028878D01*
X65578146Y-60028878D02*
X65406717Y-59943164D01*
X65406717Y-59943164D02*
X65149575Y-59943164D01*
X65149575Y-59943164D02*
X64978146Y-59857450D01*
X64978146Y-59857450D02*
X64892432Y-59686021D01*
X64892432Y-59686021D02*
X64892432Y-59600307D01*
X64892432Y-59600307D02*
X64978146Y-59428878D01*
X64978146Y-59428878D02*
X65149575Y-59343164D01*
X65149575Y-59343164D02*
X65406717Y-59343164D01*
X65406717Y-59343164D02*
X65578146Y-59428878D01*
X66435289Y-60543164D02*
X66435289Y-59343164D01*
X66435289Y-58743164D02*
X66349575Y-58828878D01*
X66349575Y-58828878D02*
X66435289Y-58914592D01*
X66435289Y-58914592D02*
X66521003Y-58828878D01*
X66521003Y-58828878D02*
X66435289Y-58743164D01*
X66435289Y-58743164D02*
X66435289Y-58914592D01*
X67549575Y-60543164D02*
X67378146Y-60457450D01*
X67378146Y-60457450D02*
X67292432Y-60371735D01*
X67292432Y-60371735D02*
X67206718Y-60200307D01*
X67206718Y-60200307D02*
X67206718Y-59686021D01*
X67206718Y-59686021D02*
X67292432Y-59514592D01*
X67292432Y-59514592D02*
X67378146Y-59428878D01*
X67378146Y-59428878D02*
X67549575Y-59343164D01*
X67549575Y-59343164D02*
X67806718Y-59343164D01*
X67806718Y-59343164D02*
X67978146Y-59428878D01*
X67978146Y-59428878D02*
X68063861Y-59514592D01*
X68063861Y-59514592D02*
X68149575Y-59686021D01*
X68149575Y-59686021D02*
X68149575Y-60200307D01*
X68149575Y-60200307D02*
X68063861Y-60371735D01*
X68063861Y-60371735D02*
X67978146Y-60457450D01*
X67978146Y-60457450D02*
X67806718Y-60543164D01*
X67806718Y-60543164D02*
X67549575Y-60543164D01*
X68921003Y-59343164D02*
X68921003Y-60543164D01*
X68921003Y-59514592D02*
X69006717Y-59428878D01*
X69006717Y-59428878D02*
X69178146Y-59343164D01*
X69178146Y-59343164D02*
X69435289Y-59343164D01*
X69435289Y-59343164D02*
X69606717Y-59428878D01*
X69606717Y-59428878D02*
X69692432Y-59600307D01*
X69692432Y-59600307D02*
X69692432Y-60543164D01*
X70121003Y-60714592D02*
X71492431Y-60714592D01*
X71663860Y-58743164D02*
X72263860Y-60543164D01*
X72263860Y-60543164D02*
X72863860Y-58743164D01*
X73378146Y-58914592D02*
X73463860Y-58828878D01*
X73463860Y-58828878D02*
X73635289Y-58743164D01*
X73635289Y-58743164D02*
X74063860Y-58743164D01*
X74063860Y-58743164D02*
X74235289Y-58828878D01*
X74235289Y-58828878D02*
X74321003Y-58914592D01*
X74321003Y-58914592D02*
X74406717Y-59086021D01*
X74406717Y-59086021D02*
X74406717Y-59257450D01*
X74406717Y-59257450D02*
X74321003Y-59514592D01*
X74321003Y-59514592D02*
X73292431Y-60543164D01*
X73292431Y-60543164D02*
X74406717Y-60543164D01*
X75178146Y-60371735D02*
X75263860Y-60457450D01*
X75263860Y-60457450D02*
X75178146Y-60543164D01*
X75178146Y-60543164D02*
X75092432Y-60457450D01*
X75092432Y-60457450D02*
X75178146Y-60371735D01*
X75178146Y-60371735D02*
X75178146Y-60543164D01*
X76378146Y-58743164D02*
X76549575Y-58743164D01*
X76549575Y-58743164D02*
X76721003Y-58828878D01*
X76721003Y-58828878D02*
X76806718Y-58914592D01*
X76806718Y-58914592D02*
X76892432Y-59086021D01*
X76892432Y-59086021D02*
X76978146Y-59428878D01*
X76978146Y-59428878D02*
X76978146Y-59857450D01*
X76978146Y-59857450D02*
X76892432Y-60200307D01*
X76892432Y-60200307D02*
X76806718Y-60371735D01*
X76806718Y-60371735D02*
X76721003Y-60457450D01*
X76721003Y-60457450D02*
X76549575Y-60543164D01*
X76549575Y-60543164D02*
X76378146Y-60543164D01*
X76378146Y-60543164D02*
X76206718Y-60457450D01*
X76206718Y-60457450D02*
X76121003Y-60371735D01*
X76121003Y-60371735D02*
X76035289Y-60200307D01*
X76035289Y-60200307D02*
X75949575Y-59857450D01*
X75949575Y-59857450D02*
X75949575Y-59428878D01*
X75949575Y-59428878D02*
X76035289Y-59086021D01*
X76035289Y-59086021D02*
X76121003Y-58914592D01*
X76121003Y-58914592D02*
X76206718Y-58828878D01*
X76206718Y-58828878D02*
X76378146Y-58743164D01*
X36789583Y-102098330D02*
X36741964Y-102145950D01*
X36741964Y-102145950D02*
X36599107Y-102193569D01*
X36599107Y-102193569D02*
X36503869Y-102193569D01*
X36503869Y-102193569D02*
X36361012Y-102145950D01*
X36361012Y-102145950D02*
X36265774Y-102050711D01*
X36265774Y-102050711D02*
X36218155Y-101955473D01*
X36218155Y-101955473D02*
X36170536Y-101764997D01*
X36170536Y-101764997D02*
X36170536Y-101622140D01*
X36170536Y-101622140D02*
X36218155Y-101431664D01*
X36218155Y-101431664D02*
X36265774Y-101336426D01*
X36265774Y-101336426D02*
X36361012Y-101241188D01*
X36361012Y-101241188D02*
X36503869Y-101193569D01*
X36503869Y-101193569D02*
X36599107Y-101193569D01*
X36599107Y-101193569D02*
X36741964Y-101241188D01*
X36741964Y-101241188D02*
X36789583Y-101288807D01*
X37361012Y-101622140D02*
X37265774Y-101574521D01*
X37265774Y-101574521D02*
X37218155Y-101526902D01*
X37218155Y-101526902D02*
X37170536Y-101431664D01*
X37170536Y-101431664D02*
X37170536Y-101384045D01*
X37170536Y-101384045D02*
X37218155Y-101288807D01*
X37218155Y-101288807D02*
X37265774Y-101241188D01*
X37265774Y-101241188D02*
X37361012Y-101193569D01*
X37361012Y-101193569D02*
X37551488Y-101193569D01*
X37551488Y-101193569D02*
X37646726Y-101241188D01*
X37646726Y-101241188D02*
X37694345Y-101288807D01*
X37694345Y-101288807D02*
X37741964Y-101384045D01*
X37741964Y-101384045D02*
X37741964Y-101431664D01*
X37741964Y-101431664D02*
X37694345Y-101526902D01*
X37694345Y-101526902D02*
X37646726Y-101574521D01*
X37646726Y-101574521D02*
X37551488Y-101622140D01*
X37551488Y-101622140D02*
X37361012Y-101622140D01*
X37361012Y-101622140D02*
X37265774Y-101669759D01*
X37265774Y-101669759D02*
X37218155Y-101717378D01*
X37218155Y-101717378D02*
X37170536Y-101812616D01*
X37170536Y-101812616D02*
X37170536Y-102003092D01*
X37170536Y-102003092D02*
X37218155Y-102098330D01*
X37218155Y-102098330D02*
X37265774Y-102145950D01*
X37265774Y-102145950D02*
X37361012Y-102193569D01*
X37361012Y-102193569D02*
X37551488Y-102193569D01*
X37551488Y-102193569D02*
X37646726Y-102145950D01*
X37646726Y-102145950D02*
X37694345Y-102098330D01*
X37694345Y-102098330D02*
X37741964Y-102003092D01*
X37741964Y-102003092D02*
X37741964Y-101812616D01*
X37741964Y-101812616D02*
X37694345Y-101717378D01*
X37694345Y-101717378D02*
X37646726Y-101669759D01*
X37646726Y-101669759D02*
X37551488Y-101622140D01*
X36074345Y-85113569D02*
X36074345Y-85923092D01*
X36074345Y-85923092D02*
X36121964Y-86018330D01*
X36121964Y-86018330D02*
X36169583Y-86065950D01*
X36169583Y-86065950D02*
X36264821Y-86113569D01*
X36264821Y-86113569D02*
X36455297Y-86113569D01*
X36455297Y-86113569D02*
X36550535Y-86065950D01*
X36550535Y-86065950D02*
X36598154Y-86018330D01*
X36598154Y-86018330D02*
X36645773Y-85923092D01*
X36645773Y-85923092D02*
X36645773Y-85113569D01*
X37645773Y-86113569D02*
X37074345Y-86113569D01*
X37360059Y-86113569D02*
X37360059Y-85113569D01*
X37360059Y-85113569D02*
X37264821Y-85256426D01*
X37264821Y-85256426D02*
X37169583Y-85351664D01*
X37169583Y-85351664D02*
X37074345Y-85399283D01*
X50737083Y-87281069D02*
X50403750Y-86804878D01*
X50165655Y-87281069D02*
X50165655Y-86281069D01*
X50165655Y-86281069D02*
X50546607Y-86281069D01*
X50546607Y-86281069D02*
X50641845Y-86328688D01*
X50641845Y-86328688D02*
X50689464Y-86376307D01*
X50689464Y-86376307D02*
X50737083Y-86471545D01*
X50737083Y-86471545D02*
X50737083Y-86614402D01*
X50737083Y-86614402D02*
X50689464Y-86709640D01*
X50689464Y-86709640D02*
X50641845Y-86757259D01*
X50641845Y-86757259D02*
X50546607Y-86804878D01*
X50546607Y-86804878D02*
X50165655Y-86804878D01*
X51308512Y-86709640D02*
X51213274Y-86662021D01*
X51213274Y-86662021D02*
X51165655Y-86614402D01*
X51165655Y-86614402D02*
X51118036Y-86519164D01*
X51118036Y-86519164D02*
X51118036Y-86471545D01*
X51118036Y-86471545D02*
X51165655Y-86376307D01*
X51165655Y-86376307D02*
X51213274Y-86328688D01*
X51213274Y-86328688D02*
X51308512Y-86281069D01*
X51308512Y-86281069D02*
X51498988Y-86281069D01*
X51498988Y-86281069D02*
X51594226Y-86328688D01*
X51594226Y-86328688D02*
X51641845Y-86376307D01*
X51641845Y-86376307D02*
X51689464Y-86471545D01*
X51689464Y-86471545D02*
X51689464Y-86519164D01*
X51689464Y-86519164D02*
X51641845Y-86614402D01*
X51641845Y-86614402D02*
X51594226Y-86662021D01*
X51594226Y-86662021D02*
X51498988Y-86709640D01*
X51498988Y-86709640D02*
X51308512Y-86709640D01*
X51308512Y-86709640D02*
X51213274Y-86757259D01*
X51213274Y-86757259D02*
X51165655Y-86804878D01*
X51165655Y-86804878D02*
X51118036Y-86900116D01*
X51118036Y-86900116D02*
X51118036Y-87090592D01*
X51118036Y-87090592D02*
X51165655Y-87185830D01*
X51165655Y-87185830D02*
X51213274Y-87233450D01*
X51213274Y-87233450D02*
X51308512Y-87281069D01*
X51308512Y-87281069D02*
X51498988Y-87281069D01*
X51498988Y-87281069D02*
X51594226Y-87233450D01*
X51594226Y-87233450D02*
X51641845Y-87185830D01*
X51641845Y-87185830D02*
X51689464Y-87090592D01*
X51689464Y-87090592D02*
X51689464Y-86900116D01*
X51689464Y-86900116D02*
X51641845Y-86804878D01*
X51641845Y-86804878D02*
X51594226Y-86757259D01*
X51594226Y-86757259D02*
X51498988Y-86709640D01*
X199018569Y-82789583D02*
X199732854Y-82789583D01*
X199732854Y-82789583D02*
X199875711Y-82837202D01*
X199875711Y-82837202D02*
X199970950Y-82932440D01*
X199970950Y-82932440D02*
X200018569Y-83075297D01*
X200018569Y-83075297D02*
X200018569Y-83170535D01*
X200018569Y-81789583D02*
X200018569Y-82361011D01*
X200018569Y-82075297D02*
X199018569Y-82075297D01*
X199018569Y-82075297D02*
X199161426Y-82170535D01*
X199161426Y-82170535D02*
X199256664Y-82265773D01*
X199256664Y-82265773D02*
X199304283Y-82361011D01*
D12*
X194954226Y-118908669D02*
X194954226Y-119622954D01*
X194954226Y-119622954D02*
X194906607Y-119765811D01*
X194906607Y-119765811D02*
X194811369Y-119861050D01*
X194811369Y-119861050D02*
X194668512Y-119908669D01*
X194668512Y-119908669D02*
X194573274Y-119908669D01*
X195954226Y-119908669D02*
X195382798Y-119908669D01*
X195668512Y-119908669D02*
X195668512Y-118908669D01*
X195668512Y-118908669D02*
X195573274Y-119051526D01*
X195573274Y-119051526D02*
X195478036Y-119146764D01*
X195478036Y-119146764D02*
X195382798Y-119194383D01*
X196287560Y-118908669D02*
X196906607Y-118908669D01*
X196906607Y-118908669D02*
X196573274Y-119289621D01*
X196573274Y-119289621D02*
X196716131Y-119289621D01*
X196716131Y-119289621D02*
X196811369Y-119337240D01*
X196811369Y-119337240D02*
X196858988Y-119384859D01*
X196858988Y-119384859D02*
X196906607Y-119480097D01*
X196906607Y-119480097D02*
X196906607Y-119718192D01*
X196906607Y-119718192D02*
X196858988Y-119813430D01*
X196858988Y-119813430D02*
X196811369Y-119861050D01*
X196811369Y-119861050D02*
X196716131Y-119908669D01*
X196716131Y-119908669D02*
X196430417Y-119908669D01*
X196430417Y-119908669D02*
X196335179Y-119861050D01*
X196335179Y-119861050D02*
X196287560Y-119813430D01*
X32953988Y-60947359D02*
X32953988Y-61304502D01*
X32953988Y-61304502D02*
X32930179Y-61375930D01*
X32930179Y-61375930D02*
X32882560Y-61423550D01*
X32882560Y-61423550D02*
X32811131Y-61447359D01*
X32811131Y-61447359D02*
X32763512Y-61447359D01*
X33453988Y-61447359D02*
X33168274Y-61447359D01*
X33311131Y-61447359D02*
X33311131Y-60947359D01*
X33311131Y-60947359D02*
X33263512Y-61018788D01*
X33263512Y-61018788D02*
X33215893Y-61066407D01*
X33215893Y-61066407D02*
X33168274Y-61090216D01*
X33620654Y-60947359D02*
X33953987Y-60947359D01*
X33953987Y-60947359D02*
X33739702Y-61447359D01*
D10*
X108314819Y-100142083D02*
X109029104Y-100142083D01*
X109029104Y-100142083D02*
X109171961Y-100189702D01*
X109171961Y-100189702D02*
X109267200Y-100284940D01*
X109267200Y-100284940D02*
X109314819Y-100427797D01*
X109314819Y-100427797D02*
X109314819Y-100523035D01*
X108314819Y-99761130D02*
X108314819Y-99142083D01*
X108314819Y-99142083D02*
X108695771Y-99475416D01*
X108695771Y-99475416D02*
X108695771Y-99332559D01*
X108695771Y-99332559D02*
X108743390Y-99237321D01*
X108743390Y-99237321D02*
X108791009Y-99189702D01*
X108791009Y-99189702D02*
X108886247Y-99142083D01*
X108886247Y-99142083D02*
X109124342Y-99142083D01*
X109124342Y-99142083D02*
X109219580Y-99189702D01*
X109219580Y-99189702D02*
X109267200Y-99237321D01*
X109267200Y-99237321D02*
X109314819Y-99332559D01*
X109314819Y-99332559D02*
X109314819Y-99618273D01*
X109314819Y-99618273D02*
X109267200Y-99713511D01*
X109267200Y-99713511D02*
X109219580Y-99761130D01*
X34809584Y-79748329D02*
X34761965Y-79795949D01*
X34761965Y-79795949D02*
X34619108Y-79843568D01*
X34619108Y-79843568D02*
X34523870Y-79843568D01*
X34523870Y-79843568D02*
X34381013Y-79795949D01*
X34381013Y-79795949D02*
X34285775Y-79700710D01*
X34285775Y-79700710D02*
X34238156Y-79605472D01*
X34238156Y-79605472D02*
X34190537Y-79414996D01*
X34190537Y-79414996D02*
X34190537Y-79272139D01*
X34190537Y-79272139D02*
X34238156Y-79081663D01*
X34238156Y-79081663D02*
X34285775Y-78986425D01*
X34285775Y-78986425D02*
X34381013Y-78891187D01*
X34381013Y-78891187D02*
X34523870Y-78843568D01*
X34523870Y-78843568D02*
X34619108Y-78843568D01*
X34619108Y-78843568D02*
X34761965Y-78891187D01*
X34761965Y-78891187D02*
X34809584Y-78938806D01*
X35714346Y-78843568D02*
X35238156Y-78843568D01*
X35238156Y-78843568D02*
X35190537Y-79319758D01*
X35190537Y-79319758D02*
X35238156Y-79272139D01*
X35238156Y-79272139D02*
X35333394Y-79224520D01*
X35333394Y-79224520D02*
X35571489Y-79224520D01*
X35571489Y-79224520D02*
X35666727Y-79272139D01*
X35666727Y-79272139D02*
X35714346Y-79319758D01*
X35714346Y-79319758D02*
X35761965Y-79414996D01*
X35761965Y-79414996D02*
X35761965Y-79653091D01*
X35761965Y-79653091D02*
X35714346Y-79748329D01*
X35714346Y-79748329D02*
X35666727Y-79795949D01*
X35666727Y-79795949D02*
X35571489Y-79843568D01*
X35571489Y-79843568D02*
X35333394Y-79843568D01*
X35333394Y-79843568D02*
X35238156Y-79795949D01*
X35238156Y-79795949D02*
X35190537Y-79748329D01*
X36034345Y-98003569D02*
X36034345Y-98813092D01*
X36034345Y-98813092D02*
X36081964Y-98908330D01*
X36081964Y-98908330D02*
X36129583Y-98955950D01*
X36129583Y-98955950D02*
X36224821Y-99003569D01*
X36224821Y-99003569D02*
X36415297Y-99003569D01*
X36415297Y-99003569D02*
X36510535Y-98955950D01*
X36510535Y-98955950D02*
X36558154Y-98908330D01*
X36558154Y-98908330D02*
X36605773Y-98813092D01*
X36605773Y-98813092D02*
X36605773Y-98003569D01*
X36986726Y-98003569D02*
X37605773Y-98003569D01*
X37605773Y-98003569D02*
X37272440Y-98384521D01*
X37272440Y-98384521D02*
X37415297Y-98384521D01*
X37415297Y-98384521D02*
X37510535Y-98432140D01*
X37510535Y-98432140D02*
X37558154Y-98479759D01*
X37558154Y-98479759D02*
X37605773Y-98574997D01*
X37605773Y-98574997D02*
X37605773Y-98813092D01*
X37605773Y-98813092D02*
X37558154Y-98908330D01*
X37558154Y-98908330D02*
X37510535Y-98955950D01*
X37510535Y-98955950D02*
X37415297Y-99003569D01*
X37415297Y-99003569D02*
X37129583Y-99003569D01*
X37129583Y-99003569D02*
X37034345Y-98955950D01*
X37034345Y-98955950D02*
X36986726Y-98908330D01*
X50727083Y-97491069D02*
X50393750Y-97014878D01*
X50155655Y-97491069D02*
X50155655Y-96491069D01*
X50155655Y-96491069D02*
X50536607Y-96491069D01*
X50536607Y-96491069D02*
X50631845Y-96538688D01*
X50631845Y-96538688D02*
X50679464Y-96586307D01*
X50679464Y-96586307D02*
X50727083Y-96681545D01*
X50727083Y-96681545D02*
X50727083Y-96824402D01*
X50727083Y-96824402D02*
X50679464Y-96919640D01*
X50679464Y-96919640D02*
X50631845Y-96967259D01*
X50631845Y-96967259D02*
X50536607Y-97014878D01*
X50536607Y-97014878D02*
X50155655Y-97014878D01*
X51060417Y-96491069D02*
X51727083Y-96491069D01*
X51727083Y-96491069D02*
X51298512Y-97491069D01*
X187044819Y-100142083D02*
X187759104Y-100142083D01*
X187759104Y-100142083D02*
X187901961Y-100189702D01*
X187901961Y-100189702D02*
X187997200Y-100284940D01*
X187997200Y-100284940D02*
X188044819Y-100427797D01*
X188044819Y-100427797D02*
X188044819Y-100523035D01*
X187044819Y-99237321D02*
X187044819Y-99427797D01*
X187044819Y-99427797D02*
X187092438Y-99523035D01*
X187092438Y-99523035D02*
X187140057Y-99570654D01*
X187140057Y-99570654D02*
X187282914Y-99665892D01*
X187282914Y-99665892D02*
X187473390Y-99713511D01*
X187473390Y-99713511D02*
X187854342Y-99713511D01*
X187854342Y-99713511D02*
X187949580Y-99665892D01*
X187949580Y-99665892D02*
X187997200Y-99618273D01*
X187997200Y-99618273D02*
X188044819Y-99523035D01*
X188044819Y-99523035D02*
X188044819Y-99332559D01*
X188044819Y-99332559D02*
X187997200Y-99237321D01*
X187997200Y-99237321D02*
X187949580Y-99189702D01*
X187949580Y-99189702D02*
X187854342Y-99142083D01*
X187854342Y-99142083D02*
X187616247Y-99142083D01*
X187616247Y-99142083D02*
X187521009Y-99189702D01*
X187521009Y-99189702D02*
X187473390Y-99237321D01*
X187473390Y-99237321D02*
X187425771Y-99332559D01*
X187425771Y-99332559D02*
X187425771Y-99523035D01*
X187425771Y-99523035D02*
X187473390Y-99618273D01*
X187473390Y-99618273D02*
X187521009Y-99665892D01*
X187521009Y-99665892D02*
X187616247Y-99713511D01*
X50797083Y-92341069D02*
X50463750Y-91864878D01*
X50225655Y-92341069D02*
X50225655Y-91341069D01*
X50225655Y-91341069D02*
X50606607Y-91341069D01*
X50606607Y-91341069D02*
X50701845Y-91388688D01*
X50701845Y-91388688D02*
X50749464Y-91436307D01*
X50749464Y-91436307D02*
X50797083Y-91531545D01*
X50797083Y-91531545D02*
X50797083Y-91674402D01*
X50797083Y-91674402D02*
X50749464Y-91769640D01*
X50749464Y-91769640D02*
X50701845Y-91817259D01*
X50701845Y-91817259D02*
X50606607Y-91864878D01*
X50606607Y-91864878D02*
X50225655Y-91864878D01*
X51273274Y-92341069D02*
X51463750Y-92341069D01*
X51463750Y-92341069D02*
X51558988Y-92293450D01*
X51558988Y-92293450D02*
X51606607Y-92245830D01*
X51606607Y-92245830D02*
X51701845Y-92102973D01*
X51701845Y-92102973D02*
X51749464Y-91912497D01*
X51749464Y-91912497D02*
X51749464Y-91531545D01*
X51749464Y-91531545D02*
X51701845Y-91436307D01*
X51701845Y-91436307D02*
X51654226Y-91388688D01*
X51654226Y-91388688D02*
X51558988Y-91341069D01*
X51558988Y-91341069D02*
X51368512Y-91341069D01*
X51368512Y-91341069D02*
X51273274Y-91388688D01*
X51273274Y-91388688D02*
X51225655Y-91436307D01*
X51225655Y-91436307D02*
X51178036Y-91531545D01*
X51178036Y-91531545D02*
X51178036Y-91769640D01*
X51178036Y-91769640D02*
X51225655Y-91864878D01*
X51225655Y-91864878D02*
X51273274Y-91912497D01*
X51273274Y-91912497D02*
X51368512Y-91960116D01*
X51368512Y-91960116D02*
X51558988Y-91960116D01*
X51558988Y-91960116D02*
X51654226Y-91912497D01*
X51654226Y-91912497D02*
X51701845Y-91864878D01*
X51701845Y-91864878D02*
X51749464Y-91769640D01*
X39479583Y-79718330D02*
X39431964Y-79765950D01*
X39431964Y-79765950D02*
X39289107Y-79813569D01*
X39289107Y-79813569D02*
X39193869Y-79813569D01*
X39193869Y-79813569D02*
X39051012Y-79765950D01*
X39051012Y-79765950D02*
X38955774Y-79670711D01*
X38955774Y-79670711D02*
X38908155Y-79575473D01*
X38908155Y-79575473D02*
X38860536Y-79384997D01*
X38860536Y-79384997D02*
X38860536Y-79242140D01*
X38860536Y-79242140D02*
X38908155Y-79051664D01*
X38908155Y-79051664D02*
X38955774Y-78956426D01*
X38955774Y-78956426D02*
X39051012Y-78861188D01*
X39051012Y-78861188D02*
X39193869Y-78813569D01*
X39193869Y-78813569D02*
X39289107Y-78813569D01*
X39289107Y-78813569D02*
X39431964Y-78861188D01*
X39431964Y-78861188D02*
X39479583Y-78908807D01*
X40431964Y-79813569D02*
X39860536Y-79813569D01*
X40146250Y-79813569D02*
X40146250Y-78813569D01*
X40146250Y-78813569D02*
X40051012Y-78956426D01*
X40051012Y-78956426D02*
X39955774Y-79051664D01*
X39955774Y-79051664D02*
X39860536Y-79099283D01*
D12*
X78034226Y-118488669D02*
X78034226Y-119202954D01*
X78034226Y-119202954D02*
X77986607Y-119345811D01*
X77986607Y-119345811D02*
X77891369Y-119441050D01*
X77891369Y-119441050D02*
X77748512Y-119488669D01*
X77748512Y-119488669D02*
X77653274Y-119488669D01*
X78462798Y-118583907D02*
X78510417Y-118536288D01*
X78510417Y-118536288D02*
X78605655Y-118488669D01*
X78605655Y-118488669D02*
X78843750Y-118488669D01*
X78843750Y-118488669D02*
X78938988Y-118536288D01*
X78938988Y-118536288D02*
X78986607Y-118583907D01*
X78986607Y-118583907D02*
X79034226Y-118679145D01*
X79034226Y-118679145D02*
X79034226Y-118774383D01*
X79034226Y-118774383D02*
X78986607Y-118917240D01*
X78986607Y-118917240D02*
X78415179Y-119488669D01*
X78415179Y-119488669D02*
X79034226Y-119488669D01*
X79415179Y-118583907D02*
X79462798Y-118536288D01*
X79462798Y-118536288D02*
X79558036Y-118488669D01*
X79558036Y-118488669D02*
X79796131Y-118488669D01*
X79796131Y-118488669D02*
X79891369Y-118536288D01*
X79891369Y-118536288D02*
X79938988Y-118583907D01*
X79938988Y-118583907D02*
X79986607Y-118679145D01*
X79986607Y-118679145D02*
X79986607Y-118774383D01*
X79986607Y-118774383D02*
X79938988Y-118917240D01*
X79938988Y-118917240D02*
X79367560Y-119488669D01*
X79367560Y-119488669D02*
X79986607Y-119488669D01*
D10*
X235735416Y-110288569D02*
X235735416Y-111002854D01*
X235735416Y-111002854D02*
X235687797Y-111145711D01*
X235687797Y-111145711D02*
X235592559Y-111240950D01*
X235592559Y-111240950D02*
X235449702Y-111288569D01*
X235449702Y-111288569D02*
X235354464Y-111288569D01*
X236687797Y-110288569D02*
X236211607Y-110288569D01*
X236211607Y-110288569D02*
X236163988Y-110764759D01*
X236163988Y-110764759D02*
X236211607Y-110717140D01*
X236211607Y-110717140D02*
X236306845Y-110669521D01*
X236306845Y-110669521D02*
X236544940Y-110669521D01*
X236544940Y-110669521D02*
X236640178Y-110717140D01*
X236640178Y-110717140D02*
X236687797Y-110764759D01*
X236687797Y-110764759D02*
X236735416Y-110859997D01*
X236735416Y-110859997D02*
X236735416Y-111098092D01*
X236735416Y-111098092D02*
X236687797Y-111193330D01*
X236687797Y-111193330D02*
X236640178Y-111240950D01*
X236640178Y-111240950D02*
X236544940Y-111288569D01*
X236544940Y-111288569D02*
X236306845Y-111288569D01*
X236306845Y-111288569D02*
X236211607Y-111240950D01*
X236211607Y-111240950D02*
X236163988Y-111193330D01*
X36609583Y-89328330D02*
X36561964Y-89375950D01*
X36561964Y-89375950D02*
X36419107Y-89423569D01*
X36419107Y-89423569D02*
X36323869Y-89423569D01*
X36323869Y-89423569D02*
X36181012Y-89375950D01*
X36181012Y-89375950D02*
X36085774Y-89280711D01*
X36085774Y-89280711D02*
X36038155Y-89185473D01*
X36038155Y-89185473D02*
X35990536Y-88994997D01*
X35990536Y-88994997D02*
X35990536Y-88852140D01*
X35990536Y-88852140D02*
X36038155Y-88661664D01*
X36038155Y-88661664D02*
X36085774Y-88566426D01*
X36085774Y-88566426D02*
X36181012Y-88471188D01*
X36181012Y-88471188D02*
X36323869Y-88423569D01*
X36323869Y-88423569D02*
X36419107Y-88423569D01*
X36419107Y-88423569D02*
X36561964Y-88471188D01*
X36561964Y-88471188D02*
X36609583Y-88518807D01*
X37466726Y-88756902D02*
X37466726Y-89423569D01*
X37228631Y-88375950D02*
X36990536Y-89090235D01*
X36990536Y-89090235D02*
X37609583Y-89090235D01*
X39386726Y-106663569D02*
X39386726Y-107377854D01*
X39386726Y-107377854D02*
X39339107Y-107520711D01*
X39339107Y-107520711D02*
X39243869Y-107615950D01*
X39243869Y-107615950D02*
X39101012Y-107663569D01*
X39101012Y-107663569D02*
X39005774Y-107663569D01*
X40386726Y-107663569D02*
X39815298Y-107663569D01*
X40101012Y-107663569D02*
X40101012Y-106663569D01*
X40101012Y-106663569D02*
X40005774Y-106806426D01*
X40005774Y-106806426D02*
X39910536Y-106901664D01*
X39910536Y-106901664D02*
X39815298Y-106949283D01*
X40958155Y-107092140D02*
X40862917Y-107044521D01*
X40862917Y-107044521D02*
X40815298Y-106996902D01*
X40815298Y-106996902D02*
X40767679Y-106901664D01*
X40767679Y-106901664D02*
X40767679Y-106854045D01*
X40767679Y-106854045D02*
X40815298Y-106758807D01*
X40815298Y-106758807D02*
X40862917Y-106711188D01*
X40862917Y-106711188D02*
X40958155Y-106663569D01*
X40958155Y-106663569D02*
X41148631Y-106663569D01*
X41148631Y-106663569D02*
X41243869Y-106711188D01*
X41243869Y-106711188D02*
X41291488Y-106758807D01*
X41291488Y-106758807D02*
X41339107Y-106854045D01*
X41339107Y-106854045D02*
X41339107Y-106901664D01*
X41339107Y-106901664D02*
X41291488Y-106996902D01*
X41291488Y-106996902D02*
X41243869Y-107044521D01*
X41243869Y-107044521D02*
X41148631Y-107092140D01*
X41148631Y-107092140D02*
X40958155Y-107092140D01*
X40958155Y-107092140D02*
X40862917Y-107139759D01*
X40862917Y-107139759D02*
X40815298Y-107187378D01*
X40815298Y-107187378D02*
X40767679Y-107282616D01*
X40767679Y-107282616D02*
X40767679Y-107473092D01*
X40767679Y-107473092D02*
X40815298Y-107568330D01*
X40815298Y-107568330D02*
X40862917Y-107615950D01*
X40862917Y-107615950D02*
X40958155Y-107663569D01*
X40958155Y-107663569D02*
X41148631Y-107663569D01*
X41148631Y-107663569D02*
X41243869Y-107615950D01*
X41243869Y-107615950D02*
X41291488Y-107568330D01*
X41291488Y-107568330D02*
X41339107Y-107473092D01*
X41339107Y-107473092D02*
X41339107Y-107282616D01*
X41339107Y-107282616D02*
X41291488Y-107187378D01*
X41291488Y-107187378D02*
X41243869Y-107139759D01*
X41243869Y-107139759D02*
X41148631Y-107092140D01*
X169343569Y-83225773D02*
X170057854Y-83225773D01*
X170057854Y-83225773D02*
X170200711Y-83273392D01*
X170200711Y-83273392D02*
X170295950Y-83368630D01*
X170295950Y-83368630D02*
X170343569Y-83511487D01*
X170343569Y-83511487D02*
X170343569Y-83606725D01*
X170343569Y-82225773D02*
X170343569Y-82797201D01*
X170343569Y-82511487D02*
X169343569Y-82511487D01*
X169343569Y-82511487D02*
X169486426Y-82606725D01*
X169486426Y-82606725D02*
X169581664Y-82701963D01*
X169581664Y-82701963D02*
X169629283Y-82797201D01*
X169343569Y-81368630D02*
X169343569Y-81559106D01*
X169343569Y-81559106D02*
X169391188Y-81654344D01*
X169391188Y-81654344D02*
X169438807Y-81701963D01*
X169438807Y-81701963D02*
X169581664Y-81797201D01*
X169581664Y-81797201D02*
X169772140Y-81844820D01*
X169772140Y-81844820D02*
X170153092Y-81844820D01*
X170153092Y-81844820D02*
X170248330Y-81797201D01*
X170248330Y-81797201D02*
X170295950Y-81749582D01*
X170295950Y-81749582D02*
X170343569Y-81654344D01*
X170343569Y-81654344D02*
X170343569Y-81463868D01*
X170343569Y-81463868D02*
X170295950Y-81368630D01*
X170295950Y-81368630D02*
X170248330Y-81321011D01*
X170248330Y-81321011D02*
X170153092Y-81273392D01*
X170153092Y-81273392D02*
X169914997Y-81273392D01*
X169914997Y-81273392D02*
X169819759Y-81321011D01*
X169819759Y-81321011D02*
X169772140Y-81368630D01*
X169772140Y-81368630D02*
X169724521Y-81463868D01*
X169724521Y-81463868D02*
X169724521Y-81654344D01*
X169724521Y-81654344D02*
X169772140Y-81749582D01*
X169772140Y-81749582D02*
X169819759Y-81797201D01*
X169819759Y-81797201D02*
X169914997Y-81844820D01*
D12*
X178640416Y-65198669D02*
X178640416Y-65912954D01*
X178640416Y-65912954D02*
X178592797Y-66055811D01*
X178592797Y-66055811D02*
X178497559Y-66151050D01*
X178497559Y-66151050D02*
X178354702Y-66198669D01*
X178354702Y-66198669D02*
X178259464Y-66198669D01*
X179068988Y-65293907D02*
X179116607Y-65246288D01*
X179116607Y-65246288D02*
X179211845Y-65198669D01*
X179211845Y-65198669D02*
X179449940Y-65198669D01*
X179449940Y-65198669D02*
X179545178Y-65246288D01*
X179545178Y-65246288D02*
X179592797Y-65293907D01*
X179592797Y-65293907D02*
X179640416Y-65389145D01*
X179640416Y-65389145D02*
X179640416Y-65484383D01*
X179640416Y-65484383D02*
X179592797Y-65627240D01*
X179592797Y-65627240D02*
X179021369Y-66198669D01*
X179021369Y-66198669D02*
X179640416Y-66198669D01*
D10*
X119838569Y-83245773D02*
X120552854Y-83245773D01*
X120552854Y-83245773D02*
X120695711Y-83293392D01*
X120695711Y-83293392D02*
X120790950Y-83388630D01*
X120790950Y-83388630D02*
X120838569Y-83531487D01*
X120838569Y-83531487D02*
X120838569Y-83626725D01*
X119933807Y-82817201D02*
X119886188Y-82769582D01*
X119886188Y-82769582D02*
X119838569Y-82674344D01*
X119838569Y-82674344D02*
X119838569Y-82436249D01*
X119838569Y-82436249D02*
X119886188Y-82341011D01*
X119886188Y-82341011D02*
X119933807Y-82293392D01*
X119933807Y-82293392D02*
X120029045Y-82245773D01*
X120029045Y-82245773D02*
X120124283Y-82245773D01*
X120124283Y-82245773D02*
X120267140Y-82293392D01*
X120267140Y-82293392D02*
X120838569Y-82864820D01*
X120838569Y-82864820D02*
X120838569Y-82245773D01*
X120171902Y-81388630D02*
X120838569Y-81388630D01*
X119790950Y-81626725D02*
X120505235Y-81864820D01*
X120505235Y-81864820D02*
X120505235Y-81245773D01*
D12*
X49854226Y-113668669D02*
X49854226Y-114382954D01*
X49854226Y-114382954D02*
X49806607Y-114525811D01*
X49806607Y-114525811D02*
X49711369Y-114621050D01*
X49711369Y-114621050D02*
X49568512Y-114668669D01*
X49568512Y-114668669D02*
X49473274Y-114668669D01*
X50235179Y-113668669D02*
X50854226Y-113668669D01*
X50854226Y-113668669D02*
X50520893Y-114049621D01*
X50520893Y-114049621D02*
X50663750Y-114049621D01*
X50663750Y-114049621D02*
X50758988Y-114097240D01*
X50758988Y-114097240D02*
X50806607Y-114144859D01*
X50806607Y-114144859D02*
X50854226Y-114240097D01*
X50854226Y-114240097D02*
X50854226Y-114478192D01*
X50854226Y-114478192D02*
X50806607Y-114573430D01*
X50806607Y-114573430D02*
X50758988Y-114621050D01*
X50758988Y-114621050D02*
X50663750Y-114668669D01*
X50663750Y-114668669D02*
X50378036Y-114668669D01*
X50378036Y-114668669D02*
X50282798Y-114621050D01*
X50282798Y-114621050D02*
X50235179Y-114573430D01*
X51473274Y-113668669D02*
X51568512Y-113668669D01*
X51568512Y-113668669D02*
X51663750Y-113716288D01*
X51663750Y-113716288D02*
X51711369Y-113763907D01*
X51711369Y-113763907D02*
X51758988Y-113859145D01*
X51758988Y-113859145D02*
X51806607Y-114049621D01*
X51806607Y-114049621D02*
X51806607Y-114287716D01*
X51806607Y-114287716D02*
X51758988Y-114478192D01*
X51758988Y-114478192D02*
X51711369Y-114573430D01*
X51711369Y-114573430D02*
X51663750Y-114621050D01*
X51663750Y-114621050D02*
X51568512Y-114668669D01*
X51568512Y-114668669D02*
X51473274Y-114668669D01*
X51473274Y-114668669D02*
X51378036Y-114621050D01*
X51378036Y-114621050D02*
X51330417Y-114573430D01*
X51330417Y-114573430D02*
X51282798Y-114478192D01*
X51282798Y-114478192D02*
X51235179Y-114287716D01*
X51235179Y-114287716D02*
X51235179Y-114049621D01*
X51235179Y-114049621D02*
X51282798Y-113859145D01*
X51282798Y-113859145D02*
X51330417Y-113763907D01*
X51330417Y-113763907D02*
X51378036Y-113716288D01*
X51378036Y-113716288D02*
X51473274Y-113668669D01*
D10*
X95048569Y-83225773D02*
X95762854Y-83225773D01*
X95762854Y-83225773D02*
X95905711Y-83273392D01*
X95905711Y-83273392D02*
X96000950Y-83368630D01*
X96000950Y-83368630D02*
X96048569Y-83511487D01*
X96048569Y-83511487D02*
X96048569Y-83606725D01*
X95143807Y-82797201D02*
X95096188Y-82749582D01*
X95096188Y-82749582D02*
X95048569Y-82654344D01*
X95048569Y-82654344D02*
X95048569Y-82416249D01*
X95048569Y-82416249D02*
X95096188Y-82321011D01*
X95096188Y-82321011D02*
X95143807Y-82273392D01*
X95143807Y-82273392D02*
X95239045Y-82225773D01*
X95239045Y-82225773D02*
X95334283Y-82225773D01*
X95334283Y-82225773D02*
X95477140Y-82273392D01*
X95477140Y-82273392D02*
X96048569Y-82844820D01*
X96048569Y-82844820D02*
X96048569Y-82225773D01*
X95048569Y-81368630D02*
X95048569Y-81559106D01*
X95048569Y-81559106D02*
X95096188Y-81654344D01*
X95096188Y-81654344D02*
X95143807Y-81701963D01*
X95143807Y-81701963D02*
X95286664Y-81797201D01*
X95286664Y-81797201D02*
X95477140Y-81844820D01*
X95477140Y-81844820D02*
X95858092Y-81844820D01*
X95858092Y-81844820D02*
X95953330Y-81797201D01*
X95953330Y-81797201D02*
X96000950Y-81749582D01*
X96000950Y-81749582D02*
X96048569Y-81654344D01*
X96048569Y-81654344D02*
X96048569Y-81463868D01*
X96048569Y-81463868D02*
X96000950Y-81368630D01*
X96000950Y-81368630D02*
X95953330Y-81321011D01*
X95953330Y-81321011D02*
X95858092Y-81273392D01*
X95858092Y-81273392D02*
X95619997Y-81273392D01*
X95619997Y-81273392D02*
X95524759Y-81321011D01*
X95524759Y-81321011D02*
X95477140Y-81368630D01*
X95477140Y-81368630D02*
X95429521Y-81463868D01*
X95429521Y-81463868D02*
X95429521Y-81654344D01*
X95429521Y-81654344D02*
X95477140Y-81749582D01*
X95477140Y-81749582D02*
X95524759Y-81797201D01*
X95524759Y-81797201D02*
X95619997Y-81844820D01*
X35984345Y-91403569D02*
X35984345Y-92213092D01*
X35984345Y-92213092D02*
X36031964Y-92308330D01*
X36031964Y-92308330D02*
X36079583Y-92355950D01*
X36079583Y-92355950D02*
X36174821Y-92403569D01*
X36174821Y-92403569D02*
X36365297Y-92403569D01*
X36365297Y-92403569D02*
X36460535Y-92355950D01*
X36460535Y-92355950D02*
X36508154Y-92308330D01*
X36508154Y-92308330D02*
X36555773Y-92213092D01*
X36555773Y-92213092D02*
X36555773Y-91403569D01*
X36984345Y-91498807D02*
X37031964Y-91451188D01*
X37031964Y-91451188D02*
X37127202Y-91403569D01*
X37127202Y-91403569D02*
X37365297Y-91403569D01*
X37365297Y-91403569D02*
X37460535Y-91451188D01*
X37460535Y-91451188D02*
X37508154Y-91498807D01*
X37508154Y-91498807D02*
X37555773Y-91594045D01*
X37555773Y-91594045D02*
X37555773Y-91689283D01*
X37555773Y-91689283D02*
X37508154Y-91832140D01*
X37508154Y-91832140D02*
X36936726Y-92403569D01*
X36936726Y-92403569D02*
X37555773Y-92403569D01*
X146764819Y-100142083D02*
X147479104Y-100142083D01*
X147479104Y-100142083D02*
X147621961Y-100189702D01*
X147621961Y-100189702D02*
X147717200Y-100284940D01*
X147717200Y-100284940D02*
X147764819Y-100427797D01*
X147764819Y-100427797D02*
X147764819Y-100523035D01*
X147764819Y-99618273D02*
X147764819Y-99427797D01*
X147764819Y-99427797D02*
X147717200Y-99332559D01*
X147717200Y-99332559D02*
X147669580Y-99284940D01*
X147669580Y-99284940D02*
X147526723Y-99189702D01*
X147526723Y-99189702D02*
X147336247Y-99142083D01*
X147336247Y-99142083D02*
X146955295Y-99142083D01*
X146955295Y-99142083D02*
X146860057Y-99189702D01*
X146860057Y-99189702D02*
X146812438Y-99237321D01*
X146812438Y-99237321D02*
X146764819Y-99332559D01*
X146764819Y-99332559D02*
X146764819Y-99523035D01*
X146764819Y-99523035D02*
X146812438Y-99618273D01*
X146812438Y-99618273D02*
X146860057Y-99665892D01*
X146860057Y-99665892D02*
X146955295Y-99713511D01*
X146955295Y-99713511D02*
X147193390Y-99713511D01*
X147193390Y-99713511D02*
X147288628Y-99665892D01*
X147288628Y-99665892D02*
X147336247Y-99618273D01*
X147336247Y-99618273D02*
X147383866Y-99523035D01*
X147383866Y-99523035D02*
X147383866Y-99332559D01*
X147383866Y-99332559D02*
X147336247Y-99237321D01*
X147336247Y-99237321D02*
X147288628Y-99189702D01*
X147288628Y-99189702D02*
X147193390Y-99142083D01*
X36529583Y-83098330D02*
X36481964Y-83145950D01*
X36481964Y-83145950D02*
X36339107Y-83193569D01*
X36339107Y-83193569D02*
X36243869Y-83193569D01*
X36243869Y-83193569D02*
X36101012Y-83145950D01*
X36101012Y-83145950D02*
X36005774Y-83050711D01*
X36005774Y-83050711D02*
X35958155Y-82955473D01*
X35958155Y-82955473D02*
X35910536Y-82764997D01*
X35910536Y-82764997D02*
X35910536Y-82622140D01*
X35910536Y-82622140D02*
X35958155Y-82431664D01*
X35958155Y-82431664D02*
X36005774Y-82336426D01*
X36005774Y-82336426D02*
X36101012Y-82241188D01*
X36101012Y-82241188D02*
X36243869Y-82193569D01*
X36243869Y-82193569D02*
X36339107Y-82193569D01*
X36339107Y-82193569D02*
X36481964Y-82241188D01*
X36481964Y-82241188D02*
X36529583Y-82288807D01*
X36910536Y-82288807D02*
X36958155Y-82241188D01*
X36958155Y-82241188D02*
X37053393Y-82193569D01*
X37053393Y-82193569D02*
X37291488Y-82193569D01*
X37291488Y-82193569D02*
X37386726Y-82241188D01*
X37386726Y-82241188D02*
X37434345Y-82288807D01*
X37434345Y-82288807D02*
X37481964Y-82384045D01*
X37481964Y-82384045D02*
X37481964Y-82479283D01*
X37481964Y-82479283D02*
X37434345Y-82622140D01*
X37434345Y-82622140D02*
X36862917Y-83193569D01*
X36862917Y-83193569D02*
X37481964Y-83193569D01*
X226668569Y-82769583D02*
X227382854Y-82769583D01*
X227382854Y-82769583D02*
X227525711Y-82817202D01*
X227525711Y-82817202D02*
X227620950Y-82912440D01*
X227620950Y-82912440D02*
X227668569Y-83055297D01*
X227668569Y-83055297D02*
X227668569Y-83150535D01*
X227097140Y-82150535D02*
X227049521Y-82245773D01*
X227049521Y-82245773D02*
X227001902Y-82293392D01*
X227001902Y-82293392D02*
X226906664Y-82341011D01*
X226906664Y-82341011D02*
X226859045Y-82341011D01*
X226859045Y-82341011D02*
X226763807Y-82293392D01*
X226763807Y-82293392D02*
X226716188Y-82245773D01*
X226716188Y-82245773D02*
X226668569Y-82150535D01*
X226668569Y-82150535D02*
X226668569Y-81960059D01*
X226668569Y-81960059D02*
X226716188Y-81864821D01*
X226716188Y-81864821D02*
X226763807Y-81817202D01*
X226763807Y-81817202D02*
X226859045Y-81769583D01*
X226859045Y-81769583D02*
X226906664Y-81769583D01*
X226906664Y-81769583D02*
X227001902Y-81817202D01*
X227001902Y-81817202D02*
X227049521Y-81864821D01*
X227049521Y-81864821D02*
X227097140Y-81960059D01*
X227097140Y-81960059D02*
X227097140Y-82150535D01*
X227097140Y-82150535D02*
X227144759Y-82245773D01*
X227144759Y-82245773D02*
X227192378Y-82293392D01*
X227192378Y-82293392D02*
X227287616Y-82341011D01*
X227287616Y-82341011D02*
X227478092Y-82341011D01*
X227478092Y-82341011D02*
X227573330Y-82293392D01*
X227573330Y-82293392D02*
X227620950Y-82245773D01*
X227620950Y-82245773D02*
X227668569Y-82150535D01*
X227668569Y-82150535D02*
X227668569Y-81960059D01*
X227668569Y-81960059D02*
X227620950Y-81864821D01*
X227620950Y-81864821D02*
X227573330Y-81817202D01*
X227573330Y-81817202D02*
X227478092Y-81769583D01*
X227478092Y-81769583D02*
X227287616Y-81769583D01*
X227287616Y-81769583D02*
X227192378Y-81817202D01*
X227192378Y-81817202D02*
X227144759Y-81864821D01*
X227144759Y-81864821D02*
X227097140Y-81960059D01*
D12*
X208370416Y-65298669D02*
X208370416Y-66012954D01*
X208370416Y-66012954D02*
X208322797Y-66155811D01*
X208322797Y-66155811D02*
X208227559Y-66251050D01*
X208227559Y-66251050D02*
X208084702Y-66298669D01*
X208084702Y-66298669D02*
X207989464Y-66298669D01*
X208751369Y-65298669D02*
X209418035Y-65298669D01*
X209418035Y-65298669D02*
X208989464Y-66298669D01*
D10*
X144488569Y-83225773D02*
X145202854Y-83225773D01*
X145202854Y-83225773D02*
X145345711Y-83273392D01*
X145345711Y-83273392D02*
X145440950Y-83368630D01*
X145440950Y-83368630D02*
X145488569Y-83511487D01*
X145488569Y-83511487D02*
X145488569Y-83606725D01*
X144583807Y-82797201D02*
X144536188Y-82749582D01*
X144536188Y-82749582D02*
X144488569Y-82654344D01*
X144488569Y-82654344D02*
X144488569Y-82416249D01*
X144488569Y-82416249D02*
X144536188Y-82321011D01*
X144536188Y-82321011D02*
X144583807Y-82273392D01*
X144583807Y-82273392D02*
X144679045Y-82225773D01*
X144679045Y-82225773D02*
X144774283Y-82225773D01*
X144774283Y-82225773D02*
X144917140Y-82273392D01*
X144917140Y-82273392D02*
X145488569Y-82844820D01*
X145488569Y-82844820D02*
X145488569Y-82225773D01*
X144488569Y-81606725D02*
X144488569Y-81511487D01*
X144488569Y-81511487D02*
X144536188Y-81416249D01*
X144536188Y-81416249D02*
X144583807Y-81368630D01*
X144583807Y-81368630D02*
X144679045Y-81321011D01*
X144679045Y-81321011D02*
X144869521Y-81273392D01*
X144869521Y-81273392D02*
X145107616Y-81273392D01*
X145107616Y-81273392D02*
X145298092Y-81321011D01*
X145298092Y-81321011D02*
X145393330Y-81368630D01*
X145393330Y-81368630D02*
X145440950Y-81416249D01*
X145440950Y-81416249D02*
X145488569Y-81511487D01*
X145488569Y-81511487D02*
X145488569Y-81606725D01*
X145488569Y-81606725D02*
X145440950Y-81701963D01*
X145440950Y-81701963D02*
X145393330Y-81749582D01*
X145393330Y-81749582D02*
X145298092Y-81797201D01*
X145298092Y-81797201D02*
X145107616Y-81844820D01*
X145107616Y-81844820D02*
X144869521Y-81844820D01*
X144869521Y-81844820D02*
X144679045Y-81797201D01*
X144679045Y-81797201D02*
X144583807Y-81749582D01*
X144583807Y-81749582D02*
X144536188Y-81701963D01*
X144536188Y-81701963D02*
X144488569Y-81606725D01*
D12*
X81294226Y-65018669D02*
X81294226Y-65732954D01*
X81294226Y-65732954D02*
X81246607Y-65875811D01*
X81246607Y-65875811D02*
X81151369Y-65971050D01*
X81151369Y-65971050D02*
X81008512Y-66018669D01*
X81008512Y-66018669D02*
X80913274Y-66018669D01*
X81722798Y-65113907D02*
X81770417Y-65066288D01*
X81770417Y-65066288D02*
X81865655Y-65018669D01*
X81865655Y-65018669D02*
X82103750Y-65018669D01*
X82103750Y-65018669D02*
X82198988Y-65066288D01*
X82198988Y-65066288D02*
X82246607Y-65113907D01*
X82246607Y-65113907D02*
X82294226Y-65209145D01*
X82294226Y-65209145D02*
X82294226Y-65304383D01*
X82294226Y-65304383D02*
X82246607Y-65447240D01*
X82246607Y-65447240D02*
X81675179Y-66018669D01*
X81675179Y-66018669D02*
X82294226Y-66018669D01*
X83198988Y-65018669D02*
X82722798Y-65018669D01*
X82722798Y-65018669D02*
X82675179Y-65494859D01*
X82675179Y-65494859D02*
X82722798Y-65447240D01*
X82722798Y-65447240D02*
X82818036Y-65399621D01*
X82818036Y-65399621D02*
X83056131Y-65399621D01*
X83056131Y-65399621D02*
X83151369Y-65447240D01*
X83151369Y-65447240D02*
X83198988Y-65494859D01*
X83198988Y-65494859D02*
X83246607Y-65590097D01*
X83246607Y-65590097D02*
X83246607Y-65828192D01*
X83246607Y-65828192D02*
X83198988Y-65923430D01*
X83198988Y-65923430D02*
X83151369Y-65971050D01*
X83151369Y-65971050D02*
X83056131Y-66018669D01*
X83056131Y-66018669D02*
X82818036Y-66018669D01*
X82818036Y-66018669D02*
X82722798Y-65971050D01*
X82722798Y-65971050D02*
X82675179Y-65923430D01*
X49804226Y-71088669D02*
X49804226Y-71802954D01*
X49804226Y-71802954D02*
X49756607Y-71945811D01*
X49756607Y-71945811D02*
X49661369Y-72041050D01*
X49661369Y-72041050D02*
X49518512Y-72088669D01*
X49518512Y-72088669D02*
X49423274Y-72088669D01*
X50232798Y-71183907D02*
X50280417Y-71136288D01*
X50280417Y-71136288D02*
X50375655Y-71088669D01*
X50375655Y-71088669D02*
X50613750Y-71088669D01*
X50613750Y-71088669D02*
X50708988Y-71136288D01*
X50708988Y-71136288D02*
X50756607Y-71183907D01*
X50756607Y-71183907D02*
X50804226Y-71279145D01*
X50804226Y-71279145D02*
X50804226Y-71374383D01*
X50804226Y-71374383D02*
X50756607Y-71517240D01*
X50756607Y-71517240D02*
X50185179Y-72088669D01*
X50185179Y-72088669D02*
X50804226Y-72088669D01*
X51375655Y-71517240D02*
X51280417Y-71469621D01*
X51280417Y-71469621D02*
X51232798Y-71422002D01*
X51232798Y-71422002D02*
X51185179Y-71326764D01*
X51185179Y-71326764D02*
X51185179Y-71279145D01*
X51185179Y-71279145D02*
X51232798Y-71183907D01*
X51232798Y-71183907D02*
X51280417Y-71136288D01*
X51280417Y-71136288D02*
X51375655Y-71088669D01*
X51375655Y-71088669D02*
X51566131Y-71088669D01*
X51566131Y-71088669D02*
X51661369Y-71136288D01*
X51661369Y-71136288D02*
X51708988Y-71183907D01*
X51708988Y-71183907D02*
X51756607Y-71279145D01*
X51756607Y-71279145D02*
X51756607Y-71326764D01*
X51756607Y-71326764D02*
X51708988Y-71422002D01*
X51708988Y-71422002D02*
X51661369Y-71469621D01*
X51661369Y-71469621D02*
X51566131Y-71517240D01*
X51566131Y-71517240D02*
X51375655Y-71517240D01*
X51375655Y-71517240D02*
X51280417Y-71564859D01*
X51280417Y-71564859D02*
X51232798Y-71612478D01*
X51232798Y-71612478D02*
X51185179Y-71707716D01*
X51185179Y-71707716D02*
X51185179Y-71898192D01*
X51185179Y-71898192D02*
X51232798Y-71993430D01*
X51232798Y-71993430D02*
X51280417Y-72041050D01*
X51280417Y-72041050D02*
X51375655Y-72088669D01*
X51375655Y-72088669D02*
X51566131Y-72088669D01*
X51566131Y-72088669D02*
X51661369Y-72041050D01*
X51661369Y-72041050D02*
X51708988Y-71993430D01*
X51708988Y-71993430D02*
X51756607Y-71898192D01*
X51756607Y-71898192D02*
X51756607Y-71707716D01*
X51756607Y-71707716D02*
X51708988Y-71612478D01*
X51708988Y-71612478D02*
X51661369Y-71564859D01*
X51661369Y-71564859D02*
X51566131Y-71517240D01*
X113564226Y-119048669D02*
X113564226Y-119762954D01*
X113564226Y-119762954D02*
X113516607Y-119905811D01*
X113516607Y-119905811D02*
X113421369Y-120001050D01*
X113421369Y-120001050D02*
X113278512Y-120048669D01*
X113278512Y-120048669D02*
X113183274Y-120048669D01*
X114564226Y-120048669D02*
X113992798Y-120048669D01*
X114278512Y-120048669D02*
X114278512Y-119048669D01*
X114278512Y-119048669D02*
X114183274Y-119191526D01*
X114183274Y-119191526D02*
X114088036Y-119286764D01*
X114088036Y-119286764D02*
X113992798Y-119334383D01*
X115421369Y-119382002D02*
X115421369Y-120048669D01*
X115183274Y-119001050D02*
X114945179Y-119715335D01*
X114945179Y-119715335D02*
X115564226Y-119715335D01*
D10*
X73654819Y-100618273D02*
X74369104Y-100618273D01*
X74369104Y-100618273D02*
X74511961Y-100665892D01*
X74511961Y-100665892D02*
X74607200Y-100761130D01*
X74607200Y-100761130D02*
X74654819Y-100903987D01*
X74654819Y-100903987D02*
X74654819Y-100999225D01*
X73750057Y-100189701D02*
X73702438Y-100142082D01*
X73702438Y-100142082D02*
X73654819Y-100046844D01*
X73654819Y-100046844D02*
X73654819Y-99808749D01*
X73654819Y-99808749D02*
X73702438Y-99713511D01*
X73702438Y-99713511D02*
X73750057Y-99665892D01*
X73750057Y-99665892D02*
X73845295Y-99618273D01*
X73845295Y-99618273D02*
X73940533Y-99618273D01*
X73940533Y-99618273D02*
X74083390Y-99665892D01*
X74083390Y-99665892D02*
X74654819Y-100237320D01*
X74654819Y-100237320D02*
X74654819Y-99618273D01*
X74654819Y-98665892D02*
X74654819Y-99237320D01*
X74654819Y-98951606D02*
X73654819Y-98951606D01*
X73654819Y-98951606D02*
X73797676Y-99046844D01*
X73797676Y-99046844D02*
X73892914Y-99142082D01*
X73892914Y-99142082D02*
X73940533Y-99237320D01*
X30001069Y-86035416D02*
X29524878Y-86368749D01*
X30001069Y-86606844D02*
X29001069Y-86606844D01*
X29001069Y-86606844D02*
X29001069Y-86225892D01*
X29001069Y-86225892D02*
X29048688Y-86130654D01*
X29048688Y-86130654D02*
X29096307Y-86083035D01*
X29096307Y-86083035D02*
X29191545Y-86035416D01*
X29191545Y-86035416D02*
X29334402Y-86035416D01*
X29334402Y-86035416D02*
X29429640Y-86083035D01*
X29429640Y-86083035D02*
X29477259Y-86130654D01*
X29477259Y-86130654D02*
X29524878Y-86225892D01*
X29524878Y-86225892D02*
X29524878Y-86606844D01*
X30001069Y-85083035D02*
X30001069Y-85654463D01*
X30001069Y-85368749D02*
X29001069Y-85368749D01*
X29001069Y-85368749D02*
X29143926Y-85463987D01*
X29143926Y-85463987D02*
X29239164Y-85559225D01*
X29239164Y-85559225D02*
X29286783Y-85654463D01*
D12*
X153414226Y-118998669D02*
X153414226Y-119712954D01*
X153414226Y-119712954D02*
X153366607Y-119855811D01*
X153366607Y-119855811D02*
X153271369Y-119951050D01*
X153271369Y-119951050D02*
X153128512Y-119998669D01*
X153128512Y-119998669D02*
X153033274Y-119998669D01*
X154414226Y-119998669D02*
X153842798Y-119998669D01*
X154128512Y-119998669D02*
X154128512Y-118998669D01*
X154128512Y-118998669D02*
X154033274Y-119141526D01*
X154033274Y-119141526D02*
X153938036Y-119236764D01*
X153938036Y-119236764D02*
X153842798Y-119284383D01*
X155366607Y-119998669D02*
X154795179Y-119998669D01*
X155080893Y-119998669D02*
X155080893Y-118998669D01*
X155080893Y-118998669D02*
X154985655Y-119141526D01*
X154985655Y-119141526D02*
X154890417Y-119236764D01*
X154890417Y-119236764D02*
X154795179Y-119284383D01*
D10*
X54528569Y-77049107D02*
X54052378Y-77382440D01*
X54528569Y-77620535D02*
X53528569Y-77620535D01*
X53528569Y-77620535D02*
X53528569Y-77239583D01*
X53528569Y-77239583D02*
X53576188Y-77144345D01*
X53576188Y-77144345D02*
X53623807Y-77096726D01*
X53623807Y-77096726D02*
X53719045Y-77049107D01*
X53719045Y-77049107D02*
X53861902Y-77049107D01*
X53861902Y-77049107D02*
X53957140Y-77096726D01*
X53957140Y-77096726D02*
X54004759Y-77144345D01*
X54004759Y-77144345D02*
X54052378Y-77239583D01*
X54052378Y-77239583D02*
X54052378Y-77620535D01*
X54528569Y-76096726D02*
X54528569Y-76668154D01*
X54528569Y-76382440D02*
X53528569Y-76382440D01*
X53528569Y-76382440D02*
X53671426Y-76477678D01*
X53671426Y-76477678D02*
X53766664Y-76572916D01*
X53766664Y-76572916D02*
X53814283Y-76668154D01*
X53528569Y-75477678D02*
X53528569Y-75382440D01*
X53528569Y-75382440D02*
X53576188Y-75287202D01*
X53576188Y-75287202D02*
X53623807Y-75239583D01*
X53623807Y-75239583D02*
X53719045Y-75191964D01*
X53719045Y-75191964D02*
X53909521Y-75144345D01*
X53909521Y-75144345D02*
X54147616Y-75144345D01*
X54147616Y-75144345D02*
X54338092Y-75191964D01*
X54338092Y-75191964D02*
X54433330Y-75239583D01*
X54433330Y-75239583D02*
X54480950Y-75287202D01*
X54480950Y-75287202D02*
X54528569Y-75382440D01*
X54528569Y-75382440D02*
X54528569Y-75477678D01*
X54528569Y-75477678D02*
X54480950Y-75572916D01*
X54480950Y-75572916D02*
X54433330Y-75620535D01*
X54433330Y-75620535D02*
X54338092Y-75668154D01*
X54338092Y-75668154D02*
X54147616Y-75715773D01*
X54147616Y-75715773D02*
X53909521Y-75715773D01*
X53909521Y-75715773D02*
X53719045Y-75668154D01*
X53719045Y-75668154D02*
X53623807Y-75620535D01*
X53623807Y-75620535D02*
X53576188Y-75572916D01*
X53576188Y-75572916D02*
X53528569Y-75477678D01*
X30041069Y-92025416D02*
X29564878Y-92358749D01*
X30041069Y-92596844D02*
X29041069Y-92596844D01*
X29041069Y-92596844D02*
X29041069Y-92215892D01*
X29041069Y-92215892D02*
X29088688Y-92120654D01*
X29088688Y-92120654D02*
X29136307Y-92073035D01*
X29136307Y-92073035D02*
X29231545Y-92025416D01*
X29231545Y-92025416D02*
X29374402Y-92025416D01*
X29374402Y-92025416D02*
X29469640Y-92073035D01*
X29469640Y-92073035D02*
X29517259Y-92120654D01*
X29517259Y-92120654D02*
X29564878Y-92215892D01*
X29564878Y-92215892D02*
X29564878Y-92596844D01*
X29136307Y-91644463D02*
X29088688Y-91596844D01*
X29088688Y-91596844D02*
X29041069Y-91501606D01*
X29041069Y-91501606D02*
X29041069Y-91263511D01*
X29041069Y-91263511D02*
X29088688Y-91168273D01*
X29088688Y-91168273D02*
X29136307Y-91120654D01*
X29136307Y-91120654D02*
X29231545Y-91073035D01*
X29231545Y-91073035D02*
X29326783Y-91073035D01*
X29326783Y-91073035D02*
X29469640Y-91120654D01*
X29469640Y-91120654D02*
X30041069Y-91692082D01*
X30041069Y-91692082D02*
X30041069Y-91073035D01*
D12*
X104764226Y-65008669D02*
X104764226Y-65722954D01*
X104764226Y-65722954D02*
X104716607Y-65865811D01*
X104716607Y-65865811D02*
X104621369Y-65961050D01*
X104621369Y-65961050D02*
X104478512Y-66008669D01*
X104478512Y-66008669D02*
X104383274Y-66008669D01*
X105192798Y-65103907D02*
X105240417Y-65056288D01*
X105240417Y-65056288D02*
X105335655Y-65008669D01*
X105335655Y-65008669D02*
X105573750Y-65008669D01*
X105573750Y-65008669D02*
X105668988Y-65056288D01*
X105668988Y-65056288D02*
X105716607Y-65103907D01*
X105716607Y-65103907D02*
X105764226Y-65199145D01*
X105764226Y-65199145D02*
X105764226Y-65294383D01*
X105764226Y-65294383D02*
X105716607Y-65437240D01*
X105716607Y-65437240D02*
X105145179Y-66008669D01*
X105145179Y-66008669D02*
X105764226Y-66008669D01*
X106097560Y-65008669D02*
X106716607Y-65008669D01*
X106716607Y-65008669D02*
X106383274Y-65389621D01*
X106383274Y-65389621D02*
X106526131Y-65389621D01*
X106526131Y-65389621D02*
X106621369Y-65437240D01*
X106621369Y-65437240D02*
X106668988Y-65484859D01*
X106668988Y-65484859D02*
X106716607Y-65580097D01*
X106716607Y-65580097D02*
X106716607Y-65818192D01*
X106716607Y-65818192D02*
X106668988Y-65913430D01*
X106668988Y-65913430D02*
X106621369Y-65961050D01*
X106621369Y-65961050D02*
X106526131Y-66008669D01*
X106526131Y-66008669D02*
X106240417Y-66008669D01*
X106240417Y-66008669D02*
X106145179Y-65961050D01*
X106145179Y-65961050D02*
X106097560Y-65913430D01*
D10*
X54348569Y-99632916D02*
X53872378Y-99966249D01*
X54348569Y-100204344D02*
X53348569Y-100204344D01*
X53348569Y-100204344D02*
X53348569Y-99823392D01*
X53348569Y-99823392D02*
X53396188Y-99728154D01*
X53396188Y-99728154D02*
X53443807Y-99680535D01*
X53443807Y-99680535D02*
X53539045Y-99632916D01*
X53539045Y-99632916D02*
X53681902Y-99632916D01*
X53681902Y-99632916D02*
X53777140Y-99680535D01*
X53777140Y-99680535D02*
X53824759Y-99728154D01*
X53824759Y-99728154D02*
X53872378Y-99823392D01*
X53872378Y-99823392D02*
X53872378Y-100204344D01*
X53348569Y-98775773D02*
X53348569Y-98966249D01*
X53348569Y-98966249D02*
X53396188Y-99061487D01*
X53396188Y-99061487D02*
X53443807Y-99109106D01*
X53443807Y-99109106D02*
X53586664Y-99204344D01*
X53586664Y-99204344D02*
X53777140Y-99251963D01*
X53777140Y-99251963D02*
X54158092Y-99251963D01*
X54158092Y-99251963D02*
X54253330Y-99204344D01*
X54253330Y-99204344D02*
X54300950Y-99156725D01*
X54300950Y-99156725D02*
X54348569Y-99061487D01*
X54348569Y-99061487D02*
X54348569Y-98871011D01*
X54348569Y-98871011D02*
X54300950Y-98775773D01*
X54300950Y-98775773D02*
X54253330Y-98728154D01*
X54253330Y-98728154D02*
X54158092Y-98680535D01*
X54158092Y-98680535D02*
X53919997Y-98680535D01*
X53919997Y-98680535D02*
X53824759Y-98728154D01*
X53824759Y-98728154D02*
X53777140Y-98775773D01*
X53777140Y-98775773D02*
X53729521Y-98871011D01*
X53729521Y-98871011D02*
X53729521Y-99061487D01*
X53729521Y-99061487D02*
X53777140Y-99156725D01*
X53777140Y-99156725D02*
X53824759Y-99204344D01*
X53824759Y-99204344D02*
X53919997Y-99251963D01*
X29921069Y-104940416D02*
X29444878Y-105273749D01*
X29921069Y-105511844D02*
X28921069Y-105511844D01*
X28921069Y-105511844D02*
X28921069Y-105130892D01*
X28921069Y-105130892D02*
X28968688Y-105035654D01*
X28968688Y-105035654D02*
X29016307Y-104988035D01*
X29016307Y-104988035D02*
X29111545Y-104940416D01*
X29111545Y-104940416D02*
X29254402Y-104940416D01*
X29254402Y-104940416D02*
X29349640Y-104988035D01*
X29349640Y-104988035D02*
X29397259Y-105035654D01*
X29397259Y-105035654D02*
X29444878Y-105130892D01*
X29444878Y-105130892D02*
X29444878Y-105511844D01*
X29254402Y-104083273D02*
X29921069Y-104083273D01*
X28873450Y-104321368D02*
X29587735Y-104559463D01*
X29587735Y-104559463D02*
X29587735Y-103940416D01*
X32449584Y-79848329D02*
X32401965Y-79895949D01*
X32401965Y-79895949D02*
X32259108Y-79943568D01*
X32259108Y-79943568D02*
X32163870Y-79943568D01*
X32163870Y-79943568D02*
X32021013Y-79895949D01*
X32021013Y-79895949D02*
X31925775Y-79800710D01*
X31925775Y-79800710D02*
X31878156Y-79705472D01*
X31878156Y-79705472D02*
X31830537Y-79514996D01*
X31830537Y-79514996D02*
X31830537Y-79372139D01*
X31830537Y-79372139D02*
X31878156Y-79181663D01*
X31878156Y-79181663D02*
X31925775Y-79086425D01*
X31925775Y-79086425D02*
X32021013Y-78991187D01*
X32021013Y-78991187D02*
X32163870Y-78943568D01*
X32163870Y-78943568D02*
X32259108Y-78943568D01*
X32259108Y-78943568D02*
X32401965Y-78991187D01*
X32401965Y-78991187D02*
X32449584Y-79038806D01*
X32782918Y-78943568D02*
X33449584Y-78943568D01*
X33449584Y-78943568D02*
X33021013Y-79943568D01*
D12*
X126094226Y-65088669D02*
X126094226Y-65802954D01*
X126094226Y-65802954D02*
X126046607Y-65945811D01*
X126046607Y-65945811D02*
X125951369Y-66041050D01*
X125951369Y-66041050D02*
X125808512Y-66088669D01*
X125808512Y-66088669D02*
X125713274Y-66088669D01*
X127094226Y-66088669D02*
X126522798Y-66088669D01*
X126808512Y-66088669D02*
X126808512Y-65088669D01*
X126808512Y-65088669D02*
X126713274Y-65231526D01*
X126713274Y-65231526D02*
X126618036Y-65326764D01*
X126618036Y-65326764D02*
X126522798Y-65374383D01*
X127570417Y-66088669D02*
X127760893Y-66088669D01*
X127760893Y-66088669D02*
X127856131Y-66041050D01*
X127856131Y-66041050D02*
X127903750Y-65993430D01*
X127903750Y-65993430D02*
X127998988Y-65850573D01*
X127998988Y-65850573D02*
X128046607Y-65660097D01*
X128046607Y-65660097D02*
X128046607Y-65279145D01*
X128046607Y-65279145D02*
X127998988Y-65183907D01*
X127998988Y-65183907D02*
X127951369Y-65136288D01*
X127951369Y-65136288D02*
X127856131Y-65088669D01*
X127856131Y-65088669D02*
X127665655Y-65088669D01*
X127665655Y-65088669D02*
X127570417Y-65136288D01*
X127570417Y-65136288D02*
X127522798Y-65183907D01*
X127522798Y-65183907D02*
X127475179Y-65279145D01*
X127475179Y-65279145D02*
X127475179Y-65517240D01*
X127475179Y-65517240D02*
X127522798Y-65612478D01*
X127522798Y-65612478D02*
X127570417Y-65660097D01*
X127570417Y-65660097D02*
X127665655Y-65707716D01*
X127665655Y-65707716D02*
X127856131Y-65707716D01*
X127856131Y-65707716D02*
X127951369Y-65660097D01*
X127951369Y-65660097D02*
X127998988Y-65612478D01*
X127998988Y-65612478D02*
X128046607Y-65517240D01*
X151234226Y-65108669D02*
X151234226Y-65822954D01*
X151234226Y-65822954D02*
X151186607Y-65965811D01*
X151186607Y-65965811D02*
X151091369Y-66061050D01*
X151091369Y-66061050D02*
X150948512Y-66108669D01*
X150948512Y-66108669D02*
X150853274Y-66108669D01*
X152234226Y-66108669D02*
X151662798Y-66108669D01*
X151948512Y-66108669D02*
X151948512Y-65108669D01*
X151948512Y-65108669D02*
X151853274Y-65251526D01*
X151853274Y-65251526D02*
X151758036Y-65346764D01*
X151758036Y-65346764D02*
X151662798Y-65394383D01*
X152615179Y-65203907D02*
X152662798Y-65156288D01*
X152662798Y-65156288D02*
X152758036Y-65108669D01*
X152758036Y-65108669D02*
X152996131Y-65108669D01*
X152996131Y-65108669D02*
X153091369Y-65156288D01*
X153091369Y-65156288D02*
X153138988Y-65203907D01*
X153138988Y-65203907D02*
X153186607Y-65299145D01*
X153186607Y-65299145D02*
X153186607Y-65394383D01*
X153186607Y-65394383D02*
X153138988Y-65537240D01*
X153138988Y-65537240D02*
X152567560Y-66108669D01*
X152567560Y-66108669D02*
X153186607Y-66108669D01*
X256830416Y-111208669D02*
X256830416Y-111922954D01*
X256830416Y-111922954D02*
X256782797Y-112065811D01*
X256782797Y-112065811D02*
X256687559Y-112161050D01*
X256687559Y-112161050D02*
X256544702Y-112208669D01*
X256544702Y-112208669D02*
X256449464Y-112208669D01*
X257735178Y-111542002D02*
X257735178Y-112208669D01*
X257497083Y-111161050D02*
X257258988Y-111875335D01*
X257258988Y-111875335D02*
X257878035Y-111875335D01*
D10*
X29941069Y-98575416D02*
X29464878Y-98908749D01*
X29941069Y-99146844D02*
X28941069Y-99146844D01*
X28941069Y-99146844D02*
X28941069Y-98765892D01*
X28941069Y-98765892D02*
X28988688Y-98670654D01*
X28988688Y-98670654D02*
X29036307Y-98623035D01*
X29036307Y-98623035D02*
X29131545Y-98575416D01*
X29131545Y-98575416D02*
X29274402Y-98575416D01*
X29274402Y-98575416D02*
X29369640Y-98623035D01*
X29369640Y-98623035D02*
X29417259Y-98670654D01*
X29417259Y-98670654D02*
X29464878Y-98765892D01*
X29464878Y-98765892D02*
X29464878Y-99146844D01*
X28941069Y-98242082D02*
X28941069Y-97623035D01*
X28941069Y-97623035D02*
X29322021Y-97956368D01*
X29322021Y-97956368D02*
X29322021Y-97813511D01*
X29322021Y-97813511D02*
X29369640Y-97718273D01*
X29369640Y-97718273D02*
X29417259Y-97670654D01*
X29417259Y-97670654D02*
X29512497Y-97623035D01*
X29512497Y-97623035D02*
X29750592Y-97623035D01*
X29750592Y-97623035D02*
X29845830Y-97670654D01*
X29845830Y-97670654D02*
X29893450Y-97718273D01*
X29893450Y-97718273D02*
X29941069Y-97813511D01*
X29941069Y-97813511D02*
X29941069Y-98099225D01*
X29941069Y-98099225D02*
X29893450Y-98194463D01*
X29893450Y-98194463D02*
X29845830Y-98242082D01*
X36739583Y-95608330D02*
X36691964Y-95655950D01*
X36691964Y-95655950D02*
X36549107Y-95703569D01*
X36549107Y-95703569D02*
X36453869Y-95703569D01*
X36453869Y-95703569D02*
X36311012Y-95655950D01*
X36311012Y-95655950D02*
X36215774Y-95560711D01*
X36215774Y-95560711D02*
X36168155Y-95465473D01*
X36168155Y-95465473D02*
X36120536Y-95274997D01*
X36120536Y-95274997D02*
X36120536Y-95132140D01*
X36120536Y-95132140D02*
X36168155Y-94941664D01*
X36168155Y-94941664D02*
X36215774Y-94846426D01*
X36215774Y-94846426D02*
X36311012Y-94751188D01*
X36311012Y-94751188D02*
X36453869Y-94703569D01*
X36453869Y-94703569D02*
X36549107Y-94703569D01*
X36549107Y-94703569D02*
X36691964Y-94751188D01*
X36691964Y-94751188D02*
X36739583Y-94798807D01*
X37596726Y-94703569D02*
X37406250Y-94703569D01*
X37406250Y-94703569D02*
X37311012Y-94751188D01*
X37311012Y-94751188D02*
X37263393Y-94798807D01*
X37263393Y-94798807D02*
X37168155Y-94941664D01*
X37168155Y-94941664D02*
X37120536Y-95132140D01*
X37120536Y-95132140D02*
X37120536Y-95513092D01*
X37120536Y-95513092D02*
X37168155Y-95608330D01*
X37168155Y-95608330D02*
X37215774Y-95655950D01*
X37215774Y-95655950D02*
X37311012Y-95703569D01*
X37311012Y-95703569D02*
X37501488Y-95703569D01*
X37501488Y-95703569D02*
X37596726Y-95655950D01*
X37596726Y-95655950D02*
X37644345Y-95608330D01*
X37644345Y-95608330D02*
X37691964Y-95513092D01*
X37691964Y-95513092D02*
X37691964Y-95274997D01*
X37691964Y-95274997D02*
X37644345Y-95179759D01*
X37644345Y-95179759D02*
X37596726Y-95132140D01*
X37596726Y-95132140D02*
X37501488Y-95084521D01*
X37501488Y-95084521D02*
X37311012Y-95084521D01*
X37311012Y-95084521D02*
X37215774Y-95132140D01*
X37215774Y-95132140D02*
X37168155Y-95179759D01*
X37168155Y-95179759D02*
X37120536Y-95274997D01*
X55928569Y-99582916D02*
X55452378Y-99916249D01*
X55928569Y-100154344D02*
X54928569Y-100154344D01*
X54928569Y-100154344D02*
X54928569Y-99773392D01*
X54928569Y-99773392D02*
X54976188Y-99678154D01*
X54976188Y-99678154D02*
X55023807Y-99630535D01*
X55023807Y-99630535D02*
X55119045Y-99582916D01*
X55119045Y-99582916D02*
X55261902Y-99582916D01*
X55261902Y-99582916D02*
X55357140Y-99630535D01*
X55357140Y-99630535D02*
X55404759Y-99678154D01*
X55404759Y-99678154D02*
X55452378Y-99773392D01*
X55452378Y-99773392D02*
X55452378Y-100154344D01*
X54928569Y-98678154D02*
X54928569Y-99154344D01*
X54928569Y-99154344D02*
X55404759Y-99201963D01*
X55404759Y-99201963D02*
X55357140Y-99154344D01*
X55357140Y-99154344D02*
X55309521Y-99059106D01*
X55309521Y-99059106D02*
X55309521Y-98821011D01*
X55309521Y-98821011D02*
X55357140Y-98725773D01*
X55357140Y-98725773D02*
X55404759Y-98678154D01*
X55404759Y-98678154D02*
X55499997Y-98630535D01*
X55499997Y-98630535D02*
X55738092Y-98630535D01*
X55738092Y-98630535D02*
X55833330Y-98678154D01*
X55833330Y-98678154D02*
X55880950Y-98725773D01*
X55880950Y-98725773D02*
X55928569Y-98821011D01*
X55928569Y-98821011D02*
X55928569Y-99059106D01*
X55928569Y-99059106D02*
X55880950Y-99154344D01*
X55880950Y-99154344D02*
X55833330Y-99201963D01*
X36274345Y-104213569D02*
X36274345Y-105023092D01*
X36274345Y-105023092D02*
X36321964Y-105118330D01*
X36321964Y-105118330D02*
X36369583Y-105165950D01*
X36369583Y-105165950D02*
X36464821Y-105213569D01*
X36464821Y-105213569D02*
X36655297Y-105213569D01*
X36655297Y-105213569D02*
X36750535Y-105165950D01*
X36750535Y-105165950D02*
X36798154Y-105118330D01*
X36798154Y-105118330D02*
X36845773Y-105023092D01*
X36845773Y-105023092D02*
X36845773Y-104213569D01*
X37750535Y-104546902D02*
X37750535Y-105213569D01*
X37512440Y-104165950D02*
X37274345Y-104880235D01*
X37274345Y-104880235D02*
X37893392Y-104880235D01*
X37109583Y-79788330D02*
X37061964Y-79835950D01*
X37061964Y-79835950D02*
X36919107Y-79883569D01*
X36919107Y-79883569D02*
X36823869Y-79883569D01*
X36823869Y-79883569D02*
X36681012Y-79835950D01*
X36681012Y-79835950D02*
X36585774Y-79740711D01*
X36585774Y-79740711D02*
X36538155Y-79645473D01*
X36538155Y-79645473D02*
X36490536Y-79454997D01*
X36490536Y-79454997D02*
X36490536Y-79312140D01*
X36490536Y-79312140D02*
X36538155Y-79121664D01*
X36538155Y-79121664D02*
X36585774Y-79026426D01*
X36585774Y-79026426D02*
X36681012Y-78931188D01*
X36681012Y-78931188D02*
X36823869Y-78883569D01*
X36823869Y-78883569D02*
X36919107Y-78883569D01*
X36919107Y-78883569D02*
X37061964Y-78931188D01*
X37061964Y-78931188D02*
X37109583Y-78978807D01*
X37442917Y-78883569D02*
X38061964Y-78883569D01*
X38061964Y-78883569D02*
X37728631Y-79264521D01*
X37728631Y-79264521D02*
X37871488Y-79264521D01*
X37871488Y-79264521D02*
X37966726Y-79312140D01*
X37966726Y-79312140D02*
X38014345Y-79359759D01*
X38014345Y-79359759D02*
X38061964Y-79454997D01*
X38061964Y-79454997D02*
X38061964Y-79693092D01*
X38061964Y-79693092D02*
X38014345Y-79788330D01*
X38014345Y-79788330D02*
X37966726Y-79835950D01*
X37966726Y-79835950D02*
X37871488Y-79883569D01*
X37871488Y-79883569D02*
X37585774Y-79883569D01*
X37585774Y-79883569D02*
X37490536Y-79835950D01*
X37490536Y-79835950D02*
X37442917Y-79788330D01*
D14*
X34247502Y-100723750D02*
X33724998Y-100723750D01*
X34247502Y-102193750D02*
X33724998Y-102193750D01*
X33766250Y-84088750D02*
X31966250Y-84088750D01*
X33766250Y-84088750D02*
X34566250Y-84088750D01*
X33766250Y-87208750D02*
X32966250Y-87208750D01*
X33766250Y-87208750D02*
X34566250Y-87208750D01*
X48721008Y-86293750D02*
X48246492Y-86293750D01*
X48721008Y-87338750D02*
X48246492Y-87338750D01*
X173043750Y-79856250D02*
X173043750Y-85056250D01*
X173613750Y-79856250D02*
X173043750Y-79856250D01*
X173613750Y-85056250D02*
X173043750Y-85056250D01*
X176153750Y-79856250D02*
X175133750Y-79856250D01*
X176153750Y-85056250D02*
X175133750Y-85056250D01*
X178693750Y-79856250D02*
X177673750Y-79856250D01*
X178693750Y-85056250D02*
X177673750Y-85056250D01*
X181233750Y-79856250D02*
X180213750Y-79856250D01*
X181233750Y-85056250D02*
X180213750Y-85056250D01*
X183773750Y-79856250D02*
X182753750Y-79856250D01*
X183773750Y-85056250D02*
X182753750Y-85056250D01*
X186313750Y-79856250D02*
X185293750Y-79856250D01*
X186313750Y-85056250D02*
X185293750Y-85056250D01*
X188853750Y-79856250D02*
X187833750Y-79856250D01*
X188853750Y-85056250D02*
X187833750Y-85056250D01*
X191393750Y-79856250D02*
X190373750Y-79856250D01*
X191393750Y-85056250D02*
X190373750Y-85056250D01*
X193933750Y-79856250D02*
X192913750Y-79856250D01*
X193933750Y-85056250D02*
X192913750Y-85056250D01*
X196473750Y-79856250D02*
X195453750Y-79856250D01*
X196473750Y-85056250D02*
X195453750Y-85056250D01*
X197993750Y-78416250D02*
X197993750Y-79856250D01*
X198563750Y-79856250D02*
X197993750Y-79856250D01*
X198563750Y-79856250D02*
X198563750Y-85056250D01*
X198563750Y-85056250D02*
X197993750Y-85056250D01*
D12*
X197523750Y-123621250D02*
X200223750Y-123621250D01*
X197523750Y-124308455D02*
X197523750Y-123621250D01*
X197623750Y-119111250D02*
X197623750Y-120271250D01*
X197623750Y-119111250D02*
X198733750Y-119111250D01*
X198093750Y-124921250D02*
X217913750Y-124921250D01*
X200223750Y-123621250D02*
X200283750Y-123621250D01*
X200283750Y-120471250D02*
X215773750Y-120471250D01*
X200283750Y-123621250D02*
X200283750Y-120471250D01*
X200283750Y-123621250D02*
X200283750Y-124911250D01*
X215773750Y-120471250D02*
X215773750Y-123601250D01*
X215773750Y-123601250D02*
X215773750Y-123621250D01*
X215773750Y-123621250D02*
X215773750Y-124911250D01*
X215773750Y-123621250D02*
X218523750Y-123621250D01*
X215773750Y-124266250D02*
X200283750Y-124266250D01*
X218423750Y-119111250D02*
X217313750Y-119111250D01*
X218423750Y-119111250D02*
X218423750Y-120271250D01*
X218523750Y-123621250D02*
X218523750Y-124340169D01*
X198104831Y-124921250D02*
G75*
G02*
X197523750Y-124308455I14917J596047D01*
G01*
X218523750Y-124340169D02*
G75*
G02*
X217910955Y-124921249I-596010J14879D01*
G01*
D14*
X32998750Y-60691250D02*
X32998750Y-51271250D01*
X32998750Y-60691250D02*
X34358750Y-60691250D01*
X38168750Y-60691250D02*
X36458750Y-60691250D01*
X39018750Y-61411250D02*
X39318750Y-60811250D01*
X39318750Y-60811250D02*
X39618750Y-61411250D01*
X39618750Y-61411250D02*
X39018750Y-61411250D01*
X41628750Y-51271250D02*
X32998750Y-51271250D01*
X41628750Y-54581250D02*
X32998750Y-54581250D01*
X41628750Y-60691250D02*
X40268750Y-60691250D01*
X41628750Y-60691250D02*
X41628750Y-51271250D01*
X109860000Y-97208750D02*
X110430000Y-97208750D01*
X109860000Y-102408750D02*
X109860000Y-97208750D01*
X109860000Y-102408750D02*
X110430000Y-102408750D01*
X110430000Y-103848750D02*
X110430000Y-102408750D01*
X111950000Y-97208750D02*
X112970000Y-97208750D01*
X111950000Y-102408750D02*
X112970000Y-102408750D01*
X114490000Y-97208750D02*
X115510000Y-97208750D01*
X114490000Y-102408750D02*
X115510000Y-102408750D01*
X117030000Y-97208750D02*
X118050000Y-97208750D01*
X117030000Y-102408750D02*
X118050000Y-102408750D01*
X119570000Y-97208750D02*
X120590000Y-97208750D01*
X119570000Y-102408750D02*
X120590000Y-102408750D01*
X122110000Y-97208750D02*
X123130000Y-97208750D01*
X122110000Y-102408750D02*
X123130000Y-102408750D01*
X124650000Y-97208750D02*
X125670000Y-97208750D01*
X124650000Y-102408750D02*
X125670000Y-102408750D01*
X127190000Y-97208750D02*
X128210000Y-97208750D01*
X127190000Y-102408750D02*
X128210000Y-102408750D01*
X129730000Y-97208750D02*
X130750000Y-97208750D01*
X129730000Y-102408750D02*
X130750000Y-102408750D01*
X132270000Y-97208750D02*
X133290000Y-97208750D01*
X132270000Y-102408750D02*
X133290000Y-102408750D01*
X134810000Y-97208750D02*
X135830000Y-97208750D01*
X134810000Y-102408750D02*
X135830000Y-102408750D01*
X137350000Y-97208750D02*
X138370000Y-97208750D01*
X137350000Y-102408750D02*
X138370000Y-102408750D01*
X139890000Y-97208750D02*
X140460000Y-97208750D01*
X139890000Y-102408750D02*
X140460000Y-102408750D01*
X140460000Y-102408750D02*
X140460000Y-97208750D01*
X34221250Y-76757498D02*
X34221250Y-77280002D01*
X35691250Y-76757498D02*
X35691250Y-77280002D01*
X33686250Y-96718750D02*
X31886250Y-96718750D01*
X33686250Y-96718750D02*
X34486250Y-96718750D01*
X33686250Y-99838750D02*
X32886250Y-99838750D01*
X33686250Y-99838750D02*
X34486250Y-99838750D01*
X48691008Y-96473750D02*
X48216492Y-96473750D01*
X48691008Y-97518750D02*
X48216492Y-97518750D01*
X188590000Y-97208750D02*
X189160000Y-97208750D01*
X188590000Y-102408750D02*
X188590000Y-97208750D01*
X188590000Y-102408750D02*
X189160000Y-102408750D01*
X189160000Y-103848750D02*
X189160000Y-102408750D01*
X190680000Y-97208750D02*
X191700000Y-97208750D01*
X190680000Y-102408750D02*
X191700000Y-102408750D01*
X193220000Y-97208750D02*
X194240000Y-97208750D01*
X193220000Y-102408750D02*
X194240000Y-102408750D01*
X195760000Y-97208750D02*
X196780000Y-97208750D01*
X195760000Y-102408750D02*
X196780000Y-102408750D01*
X198300000Y-97208750D02*
X199320000Y-97208750D01*
X198300000Y-102408750D02*
X199320000Y-102408750D01*
X200840000Y-97208750D02*
X201860000Y-97208750D01*
X200840000Y-102408750D02*
X201860000Y-102408750D01*
X203380000Y-97208750D02*
X204400000Y-97208750D01*
X203380000Y-102408750D02*
X204400000Y-102408750D01*
X205920000Y-97208750D02*
X206940000Y-97208750D01*
X205920000Y-102408750D02*
X206940000Y-102408750D01*
X208460000Y-97208750D02*
X209480000Y-97208750D01*
X208460000Y-102408750D02*
X209480000Y-102408750D01*
X211000000Y-97208750D02*
X212020000Y-97208750D01*
X211000000Y-102408750D02*
X212020000Y-102408750D01*
X213540000Y-97208750D02*
X214560000Y-97208750D01*
X213540000Y-102408750D02*
X214560000Y-102408750D01*
X216080000Y-97208750D02*
X217100000Y-97208750D01*
X216080000Y-102408750D02*
X217100000Y-102408750D01*
X218620000Y-97208750D02*
X219640000Y-97208750D01*
X218620000Y-102408750D02*
X219640000Y-102408750D01*
X221160000Y-97208750D02*
X222180000Y-97208750D01*
X221160000Y-102408750D02*
X222180000Y-102408750D01*
X223700000Y-97208750D02*
X224720000Y-97208750D01*
X223700000Y-102408750D02*
X224720000Y-102408750D01*
X226240000Y-97208750D02*
X226810000Y-97208750D01*
X226240000Y-102408750D02*
X226810000Y-102408750D01*
X226810000Y-102408750D02*
X226810000Y-97208750D01*
X48741008Y-91403750D02*
X48266492Y-91403750D01*
X48741008Y-92448750D02*
X48266492Y-92448750D01*
X38881250Y-76767498D02*
X38881250Y-77290002D01*
X40351250Y-76767498D02*
X40351250Y-77290002D01*
D12*
X80553750Y-123021250D02*
X83253750Y-123021250D01*
X80553750Y-123708455D02*
X80553750Y-123021250D01*
X80653750Y-118511250D02*
X80653750Y-119671250D01*
X80653750Y-118511250D02*
X81763750Y-118511250D01*
X81123750Y-124321250D02*
X96958750Y-124321250D01*
X83253750Y-123021250D02*
X83313750Y-123021250D01*
X83313750Y-119871250D02*
X94793750Y-119871250D01*
X83313750Y-123021250D02*
X83313750Y-119871250D01*
X83313750Y-123021250D02*
X83313750Y-124311250D01*
X94793750Y-119871250D02*
X94793750Y-123001250D01*
X94793750Y-123001250D02*
X94793750Y-124291250D01*
X94793750Y-123001250D02*
X97543750Y-123001250D01*
X94793750Y-123666250D02*
X83313750Y-123666250D01*
X97453750Y-118511250D02*
X96343750Y-118511250D01*
X97453750Y-118511250D02*
X97453750Y-119671250D01*
X97543750Y-123001250D02*
X97543750Y-123720169D01*
X81134831Y-124321250D02*
G75*
G02*
X80553750Y-123708455I14917J596047D01*
G01*
X97543750Y-123720169D02*
G75*
G02*
X96946269Y-124322990I-618200J15219D01*
G01*
D14*
X233468750Y-109833750D02*
X233468750Y-71613750D01*
X236068750Y-107233750D02*
X236068750Y-109833750D01*
X236068750Y-109833750D02*
X233468750Y-109833750D01*
X238668750Y-71613750D02*
X233468750Y-71613750D01*
X238668750Y-107233750D02*
X236068750Y-107233750D01*
X238668750Y-107233750D02*
X238668750Y-71613750D01*
X238668750Y-108503750D02*
X238668750Y-109833750D01*
X238668750Y-109833750D02*
X237338750Y-109833750D01*
X34347502Y-87973750D02*
X33824998Y-87973750D01*
X34347502Y-89443750D02*
X33824998Y-89443750D01*
X38716250Y-80408750D02*
X40046250Y-80408750D01*
X38716250Y-81738750D02*
X38716250Y-80408750D01*
X38716250Y-83008750D02*
X38716250Y-105928750D01*
X38716250Y-83008750D02*
X41376250Y-83008750D01*
X38716250Y-105928750D02*
X41376250Y-105928750D01*
X41376250Y-83008750D02*
X41376250Y-105928750D01*
X148448750Y-79816250D02*
X148448750Y-85016250D01*
X149018750Y-79816250D02*
X148448750Y-79816250D01*
X149018750Y-85016250D02*
X148448750Y-85016250D01*
X151558750Y-79816250D02*
X150538750Y-79816250D01*
X151558750Y-85016250D02*
X150538750Y-85016250D01*
X154098750Y-79816250D02*
X153078750Y-79816250D01*
X154098750Y-85016250D02*
X153078750Y-85016250D01*
X156638750Y-79816250D02*
X155618750Y-79816250D01*
X156638750Y-85016250D02*
X155618750Y-85016250D01*
X159178750Y-79816250D02*
X158158750Y-79816250D01*
X159178750Y-85016250D02*
X158158750Y-85016250D01*
X161718750Y-79816250D02*
X160698750Y-79816250D01*
X161718750Y-85016250D02*
X160698750Y-85016250D01*
X164258750Y-79816250D02*
X163238750Y-79816250D01*
X164258750Y-85016250D02*
X163238750Y-85016250D01*
X166798750Y-79816250D02*
X165778750Y-79816250D01*
X166798750Y-85016250D02*
X165778750Y-85016250D01*
X168318750Y-78376250D02*
X168318750Y-79816250D01*
X168888750Y-79816250D02*
X168318750Y-79816250D01*
X168888750Y-79816250D02*
X168888750Y-85016250D01*
X168888750Y-85016250D02*
X168318750Y-85016250D01*
D12*
X178058750Y-60126250D02*
X178058750Y-59407331D01*
X178148750Y-64616250D02*
X178148750Y-63456250D01*
X178148750Y-64616250D02*
X179258750Y-64616250D01*
X180808750Y-59461250D02*
X191288750Y-59461250D01*
X180808750Y-60126250D02*
X178058750Y-60126250D01*
X180808750Y-60126250D02*
X180808750Y-58836250D01*
X180808750Y-63256250D02*
X180808750Y-60126250D01*
X191288750Y-60106250D02*
X191288750Y-58816250D01*
X191288750Y-60106250D02*
X191288750Y-63256250D01*
X191288750Y-63256250D02*
X180808750Y-63256250D01*
X191348750Y-60106250D02*
X191288750Y-60106250D01*
X193478750Y-58806250D02*
X178633750Y-58806250D01*
X193948750Y-64616250D02*
X192838750Y-64616250D01*
X193948750Y-64616250D02*
X193948750Y-63456250D01*
X194048750Y-59419045D02*
X194048750Y-60106250D01*
X194048750Y-60106250D02*
X191348750Y-60106250D01*
X178058750Y-59407331D02*
G75*
G02*
X178656231Y-58804510I618200J-15219D01*
G01*
X193467669Y-58806250D02*
G75*
G02*
X194048750Y-59419045I-14917J-596047D01*
G01*
D14*
X101483750Y-79836250D02*
X101483750Y-85036250D01*
X102053750Y-79836250D02*
X101483750Y-79836250D01*
X102053750Y-85036250D02*
X101483750Y-85036250D01*
X104593750Y-79836250D02*
X103573750Y-79836250D01*
X104593750Y-85036250D02*
X103573750Y-85036250D01*
X107133750Y-79836250D02*
X106113750Y-79836250D01*
X107133750Y-85036250D02*
X106113750Y-85036250D01*
X109673750Y-79836250D02*
X108653750Y-79836250D01*
X109673750Y-85036250D02*
X108653750Y-85036250D01*
X112213750Y-79836250D02*
X111193750Y-79836250D01*
X112213750Y-85036250D02*
X111193750Y-85036250D01*
X114753750Y-79836250D02*
X113733750Y-79836250D01*
X114753750Y-85036250D02*
X113733750Y-85036250D01*
X117293750Y-79836250D02*
X116273750Y-79836250D01*
X117293750Y-85036250D02*
X116273750Y-85036250D01*
X118813750Y-78396250D02*
X118813750Y-79836250D01*
X119383750Y-79836250D02*
X118813750Y-79836250D01*
X119383750Y-79836250D02*
X119383750Y-85036250D01*
X119383750Y-85036250D02*
X118813750Y-85036250D01*
D12*
X52193750Y-118186250D02*
X54893750Y-118186250D01*
X52193750Y-118873455D02*
X52193750Y-118186250D01*
X52293750Y-113676250D02*
X52293750Y-114836250D01*
X52293750Y-113676250D02*
X53403750Y-113676250D01*
X52763750Y-119486250D02*
X69583750Y-119486250D01*
X54893750Y-118186250D02*
X54953750Y-118186250D01*
X54953750Y-115036250D02*
X67433750Y-115036250D01*
X54953750Y-118186250D02*
X54953750Y-115036250D01*
X54953750Y-118186250D02*
X54953750Y-119476250D01*
X67423750Y-118831250D02*
X54953750Y-118831250D01*
X67433750Y-115036250D02*
X67433750Y-118166250D01*
X67433750Y-118166250D02*
X67433750Y-119456250D01*
X67433750Y-118186250D02*
X70183750Y-118186250D01*
X70093750Y-113676250D02*
X68983750Y-113676250D01*
X70093750Y-113676250D02*
X70093750Y-114836250D01*
X70183750Y-118186250D02*
X70183750Y-118905169D01*
X52774831Y-119486250D02*
G75*
G02*
X52193750Y-118873455I14917J596047D01*
G01*
X70183750Y-118905169D02*
G75*
G02*
X69570955Y-119486249I-596010J14879D01*
G01*
D14*
X79233750Y-79816250D02*
X79233750Y-85016250D01*
X79803750Y-79816250D02*
X79233750Y-79816250D01*
X79803750Y-85016250D02*
X79233750Y-85016250D01*
X82343750Y-79816250D02*
X81323750Y-79816250D01*
X82343750Y-85016250D02*
X81323750Y-85016250D01*
X84883750Y-79816250D02*
X83863750Y-79816250D01*
X84883750Y-85016250D02*
X83863750Y-85016250D01*
X87423750Y-79816250D02*
X86403750Y-79816250D01*
X87423750Y-85016250D02*
X86403750Y-85016250D01*
X89963750Y-79816250D02*
X88943750Y-79816250D01*
X89963750Y-85016250D02*
X88943750Y-85016250D01*
X92503750Y-79816250D02*
X91483750Y-79816250D01*
X92503750Y-85016250D02*
X91483750Y-85016250D01*
X94023750Y-78376250D02*
X94023750Y-79816250D01*
X94593750Y-79816250D02*
X94023750Y-79816250D01*
X94593750Y-79816250D02*
X94593750Y-85016250D01*
X94593750Y-85016250D02*
X94023750Y-85016250D01*
X33738750Y-90178750D02*
X31938750Y-90178750D01*
X33738750Y-90178750D02*
X34538750Y-90178750D01*
X33738750Y-93298750D02*
X32938750Y-93298750D01*
X33738750Y-93298750D02*
X34538750Y-93298750D01*
X148310000Y-97208750D02*
X148880000Y-97208750D01*
X148310000Y-102408750D02*
X148310000Y-97208750D01*
X148310000Y-102408750D02*
X148880000Y-102408750D01*
X148880000Y-103848750D02*
X148880000Y-102408750D01*
X150400000Y-97208750D02*
X151420000Y-97208750D01*
X150400000Y-102408750D02*
X151420000Y-102408750D01*
X152940000Y-97208750D02*
X153960000Y-97208750D01*
X152940000Y-102408750D02*
X153960000Y-102408750D01*
X155480000Y-97208750D02*
X156500000Y-97208750D01*
X155480000Y-102408750D02*
X156500000Y-102408750D01*
X158020000Y-97208750D02*
X159040000Y-97208750D01*
X158020000Y-102408750D02*
X159040000Y-102408750D01*
X160560000Y-97208750D02*
X161580000Y-97208750D01*
X160560000Y-102408750D02*
X161580000Y-102408750D01*
X163100000Y-97208750D02*
X164120000Y-97208750D01*
X163100000Y-102408750D02*
X164120000Y-102408750D01*
X165640000Y-97208750D02*
X166660000Y-97208750D01*
X165640000Y-102408750D02*
X166660000Y-102408750D01*
X168180000Y-97208750D02*
X169200000Y-97208750D01*
X168180000Y-102408750D02*
X169200000Y-102408750D01*
X170720000Y-97208750D02*
X171740000Y-97208750D01*
X170720000Y-102408750D02*
X171740000Y-102408750D01*
X173260000Y-97208750D02*
X174280000Y-97208750D01*
X173260000Y-102408750D02*
X174280000Y-102408750D01*
X175800000Y-97208750D02*
X176820000Y-97208750D01*
X175800000Y-102408750D02*
X176820000Y-102408750D01*
X178340000Y-97208750D02*
X179360000Y-97208750D01*
X178340000Y-102408750D02*
X179360000Y-102408750D01*
X180880000Y-97208750D02*
X181450000Y-97208750D01*
X180880000Y-102408750D02*
X181450000Y-102408750D01*
X181450000Y-102408750D02*
X181450000Y-97208750D01*
X34357502Y-81813750D02*
X33834998Y-81813750D01*
X34357502Y-83283750D02*
X33834998Y-83283750D01*
X203233750Y-79836250D02*
X203233750Y-85036250D01*
X203803750Y-79836250D02*
X203233750Y-79836250D01*
X203803750Y-85036250D02*
X203233750Y-85036250D01*
X206343750Y-79836250D02*
X205323750Y-79836250D01*
X206343750Y-85036250D02*
X205323750Y-85036250D01*
X208883750Y-79836250D02*
X207863750Y-79836250D01*
X208883750Y-85036250D02*
X207863750Y-85036250D01*
X211423750Y-79836250D02*
X210403750Y-79836250D01*
X211423750Y-85036250D02*
X210403750Y-85036250D01*
X213963750Y-79836250D02*
X212943750Y-79836250D01*
X213963750Y-85036250D02*
X212943750Y-85036250D01*
X216503750Y-79836250D02*
X215483750Y-79836250D01*
X216503750Y-85036250D02*
X215483750Y-85036250D01*
X219043750Y-79836250D02*
X218023750Y-79836250D01*
X219043750Y-85036250D02*
X218023750Y-85036250D01*
X221583750Y-79836250D02*
X220563750Y-79836250D01*
X221583750Y-85036250D02*
X220563750Y-85036250D01*
X224123750Y-79836250D02*
X223103750Y-79836250D01*
X224123750Y-85036250D02*
X223103750Y-85036250D01*
X225643750Y-78396250D02*
X225643750Y-79836250D01*
X226213750Y-79836250D02*
X225643750Y-79836250D01*
X226213750Y-79836250D02*
X226213750Y-85036250D01*
X226213750Y-85036250D02*
X225643750Y-85036250D01*
D12*
X207653455Y-60126250D02*
X207653455Y-59407331D01*
X207756250Y-64616250D02*
X207756250Y-63456250D01*
X207756250Y-64616250D02*
X208866250Y-64616250D01*
X210403455Y-60126250D02*
X207653455Y-60126250D01*
X210416250Y-59461250D02*
X219896250Y-59461250D01*
X210416250Y-60126250D02*
X210416250Y-58856250D01*
X210416250Y-63256250D02*
X210416250Y-60126250D01*
X219896250Y-60106250D02*
X219896250Y-58816250D01*
X219896250Y-60106250D02*
X219896250Y-63256250D01*
X219896250Y-63256250D02*
X210416250Y-63256250D01*
X219956250Y-60106250D02*
X219896250Y-60106250D01*
X222086250Y-58806250D02*
X208296250Y-58806250D01*
X222556250Y-64616250D02*
X221446250Y-64616250D01*
X222556250Y-64616250D02*
X222556250Y-63456250D01*
X222656250Y-59419045D02*
X222656250Y-60106250D01*
X222656250Y-60106250D02*
X219956250Y-60106250D01*
X207656081Y-59426250D02*
G75*
G02*
X208306252Y-58805867I646809J-26980D01*
G01*
X222075169Y-58806250D02*
G75*
G02*
X222656250Y-59419045I-14917J-596047D01*
G01*
D14*
X123593750Y-79816250D02*
X123593750Y-85016250D01*
X124163750Y-79816250D02*
X123593750Y-79816250D01*
X124163750Y-85016250D02*
X123593750Y-85016250D01*
X126703750Y-79816250D02*
X125683750Y-79816250D01*
X126703750Y-85016250D02*
X125683750Y-85016250D01*
X129243750Y-79816250D02*
X128223750Y-79816250D01*
X129243750Y-85016250D02*
X128223750Y-85016250D01*
X131783750Y-79816250D02*
X130763750Y-79816250D01*
X131783750Y-85016250D02*
X130763750Y-85016250D01*
X134323750Y-79816250D02*
X133303750Y-79816250D01*
X134323750Y-85016250D02*
X133303750Y-85016250D01*
X136863750Y-79816250D02*
X135843750Y-79816250D01*
X136863750Y-85016250D02*
X135843750Y-85016250D01*
X139403750Y-79816250D02*
X138383750Y-79816250D01*
X139403750Y-85016250D02*
X138383750Y-85016250D01*
X141943750Y-79816250D02*
X140923750Y-79816250D01*
X141943750Y-85016250D02*
X140923750Y-85016250D01*
X143463750Y-78376250D02*
X143463750Y-79816250D01*
X144033750Y-79816250D02*
X143463750Y-79816250D01*
X144033750Y-79816250D02*
X144033750Y-85016250D01*
X144033750Y-85016250D02*
X143463750Y-85016250D01*
D12*
X81053455Y-60126250D02*
X81053455Y-59407331D01*
X81156250Y-64616250D02*
X81156250Y-63456250D01*
X81156250Y-64616250D02*
X82266250Y-64616250D01*
X83803455Y-60126250D02*
X81053455Y-60126250D01*
X83816250Y-59461250D02*
X90296250Y-59461250D01*
X83816250Y-60126250D02*
X83816250Y-58856250D01*
X83816250Y-63256250D02*
X83816250Y-60126250D01*
X90296250Y-60106250D02*
X90296250Y-58816250D01*
X90296250Y-60106250D02*
X90296250Y-63256250D01*
X90296250Y-63256250D02*
X83816250Y-63256250D01*
X90356250Y-60106250D02*
X90296250Y-60106250D01*
X92486250Y-58806250D02*
X81691250Y-58806250D01*
X92956250Y-64616250D02*
X91846250Y-64616250D01*
X92956250Y-64616250D02*
X92956250Y-63456250D01*
X93056250Y-59419045D02*
X93056250Y-60106250D01*
X93056250Y-60106250D02*
X90356250Y-60106250D01*
X81056081Y-59426250D02*
G75*
G02*
X81706252Y-58805867I646809J-26980D01*
G01*
X92475169Y-58806250D02*
G75*
G02*
X93056250Y-59419045I-14917J-596047D01*
G01*
X52188750Y-67721250D02*
X52188750Y-67002331D01*
X52278750Y-72211250D02*
X52278750Y-71051250D01*
X52278750Y-72211250D02*
X53388750Y-72211250D01*
X54938750Y-67056250D02*
X65418750Y-67056250D01*
X54938750Y-67721250D02*
X52188750Y-67721250D01*
X54938750Y-67721250D02*
X54938750Y-66431250D01*
X54938750Y-70851250D02*
X54938750Y-67721250D01*
X65418750Y-67701250D02*
X65418750Y-66411250D01*
X65418750Y-67701250D02*
X65418750Y-70851250D01*
X65418750Y-70851250D02*
X54938750Y-70851250D01*
X65478750Y-67701250D02*
X65418750Y-67701250D01*
X67608750Y-66401250D02*
X52763750Y-66401250D01*
X68078750Y-72211250D02*
X66968750Y-72211250D01*
X68078750Y-72211250D02*
X68078750Y-71051250D01*
X68178750Y-67014045D02*
X68178750Y-67701250D01*
X68178750Y-67701250D02*
X65478750Y-67701250D01*
X52188750Y-67002331D02*
G75*
G02*
X52786231Y-66399510I618200J-15219D01*
G01*
X67597669Y-66401250D02*
G75*
G02*
X68178750Y-67014045I-14917J-596047D01*
G01*
X116033750Y-123621250D02*
X118733750Y-123621250D01*
X116033750Y-124308455D02*
X116033750Y-123621250D01*
X116133750Y-119111250D02*
X116133750Y-120271250D01*
X116133750Y-119111250D02*
X117243750Y-119111250D01*
X116603750Y-124921250D02*
X133423750Y-124921250D01*
X118733750Y-123621250D02*
X118793750Y-123621250D01*
X118793750Y-120471250D02*
X131273750Y-120471250D01*
X118793750Y-123621250D02*
X118793750Y-120471250D01*
X118793750Y-123621250D02*
X118793750Y-124911250D01*
X131263750Y-124266250D02*
X118793750Y-124266250D01*
X131273750Y-120471250D02*
X131273750Y-123601250D01*
X131273750Y-123601250D02*
X131273750Y-124891250D01*
X131273750Y-123621250D02*
X134023750Y-123621250D01*
X133933750Y-119111250D02*
X132823750Y-119111250D01*
X133933750Y-119111250D02*
X133933750Y-120271250D01*
X134023750Y-123621250D02*
X134023750Y-124340169D01*
X116614831Y-124921250D02*
G75*
G02*
X116033750Y-124308455I14917J596047D01*
G01*
X134023750Y-124340169D02*
G75*
G02*
X133410955Y-124921249I-596010J14879D01*
G01*
D14*
X75200000Y-97208750D02*
X75770000Y-97208750D01*
X75200000Y-102408750D02*
X75200000Y-97208750D01*
X75200000Y-102408750D02*
X75770000Y-102408750D01*
X75770000Y-103848750D02*
X75770000Y-102408750D01*
X77290000Y-97208750D02*
X78310000Y-97208750D01*
X77290000Y-102408750D02*
X78310000Y-102408750D01*
X79830000Y-97208750D02*
X80850000Y-97208750D01*
X79830000Y-102408750D02*
X80850000Y-102408750D01*
X82370000Y-97208750D02*
X83390000Y-97208750D01*
X82370000Y-102408750D02*
X83390000Y-102408750D01*
X84910000Y-97208750D02*
X85930000Y-97208750D01*
X84910000Y-102408750D02*
X85930000Y-102408750D01*
X87450000Y-97208750D02*
X88470000Y-97208750D01*
X87450000Y-102408750D02*
X88470000Y-102408750D01*
X89990000Y-97208750D02*
X91010000Y-97208750D01*
X89990000Y-102408750D02*
X91010000Y-102408750D01*
X92530000Y-97208750D02*
X93550000Y-97208750D01*
X92530000Y-102408750D02*
X93550000Y-102408750D01*
X95070000Y-97208750D02*
X96090000Y-97208750D01*
X95070000Y-102408750D02*
X96090000Y-102408750D01*
X97610000Y-97208750D02*
X98630000Y-97208750D01*
X97610000Y-102408750D02*
X98630000Y-102408750D01*
X100150000Y-97208750D02*
X101170000Y-97208750D01*
X100150000Y-102408750D02*
X101170000Y-102408750D01*
X102690000Y-97208750D02*
X103260000Y-97208750D01*
X102690000Y-102408750D02*
X103260000Y-102408750D01*
X103260000Y-102408750D02*
X103260000Y-97208750D01*
X30333750Y-85531492D02*
X30333750Y-86006008D01*
X31378750Y-85531492D02*
X31378750Y-86006008D01*
D12*
X155806250Y-123621250D02*
X158506250Y-123621250D01*
X155806250Y-124308455D02*
X155806250Y-123621250D01*
X155906250Y-119111250D02*
X155906250Y-120271250D01*
X155906250Y-119111250D02*
X157016250Y-119111250D01*
X156376250Y-124921250D02*
X174196250Y-124921250D01*
X158506250Y-123621250D02*
X158566250Y-123621250D01*
X158566250Y-120471250D02*
X172046250Y-120471250D01*
X158566250Y-123621250D02*
X158566250Y-120471250D01*
X158566250Y-123621250D02*
X158566250Y-124911250D01*
X172046250Y-120471250D02*
X172046250Y-123601250D01*
X172046250Y-123601250D02*
X172046250Y-124891250D01*
X172046250Y-123621250D02*
X174796250Y-123621250D01*
X172046250Y-124266250D02*
X158566250Y-124266250D01*
X174706250Y-119111250D02*
X173596250Y-119111250D01*
X174706250Y-119111250D02*
X174706250Y-120271250D01*
X174796250Y-123621250D02*
X174796250Y-124340169D01*
X156387331Y-124921250D02*
G75*
G02*
X155806250Y-124308455I14917J596047D01*
G01*
X174796250Y-124340169D02*
G75*
G02*
X174183455Y-124921249I-596010J14879D01*
G01*
D14*
X54901250Y-76103992D02*
X54901250Y-76578508D01*
X55946250Y-76103992D02*
X55946250Y-76578508D01*
X30363750Y-91621492D02*
X30363750Y-92096008D01*
X31408750Y-91621492D02*
X31408750Y-92096008D01*
D12*
X103975955Y-60123750D02*
X103975955Y-59404831D01*
X104078750Y-64613750D02*
X104078750Y-63453750D01*
X104078750Y-64613750D02*
X105188750Y-64613750D01*
X106725955Y-60123750D02*
X103975955Y-60123750D01*
X106738750Y-59458750D02*
X114218750Y-59458750D01*
X106738750Y-60123750D02*
X106738750Y-58853750D01*
X106738750Y-63253750D02*
X106738750Y-60123750D01*
X114218750Y-60103750D02*
X114218750Y-58813750D01*
X114218750Y-60103750D02*
X114218750Y-63253750D01*
X114218750Y-63253750D02*
X106738750Y-63253750D01*
X114278750Y-60103750D02*
X114218750Y-60103750D01*
X116408750Y-58803750D02*
X104623750Y-58803750D01*
X116878750Y-64613750D02*
X115768750Y-64613750D01*
X116878750Y-64613750D02*
X116878750Y-63453750D01*
X116978750Y-59416545D02*
X116978750Y-60103750D01*
X116978750Y-60103750D02*
X114278750Y-60103750D01*
X103978581Y-59423750D02*
G75*
G02*
X104628752Y-58803367I646809J-26980D01*
G01*
X116397669Y-58803750D02*
G75*
G02*
X116978750Y-59416545I-14917J-596047D01*
G01*
D14*
X53371250Y-102183508D02*
X53371250Y-101708992D01*
X54416250Y-102183508D02*
X54416250Y-101708992D01*
X30223750Y-104536492D02*
X30223750Y-105011008D01*
X31268750Y-104536492D02*
X31268750Y-105011008D01*
X31861250Y-76797498D02*
X31861250Y-77320002D01*
X33331250Y-76797498D02*
X33331250Y-77320002D01*
D12*
X125511250Y-64616250D02*
X125511250Y-63456250D01*
X125511250Y-64616250D02*
X126621250Y-64616250D01*
X125608455Y-60126250D02*
X125608455Y-59407331D01*
X128358455Y-60126250D02*
X125608455Y-60126250D01*
X128371250Y-60126250D02*
X128371250Y-58856250D01*
X128371250Y-63256250D02*
X128371250Y-60126250D01*
X128376250Y-59461250D02*
X136351250Y-59461250D01*
X136351250Y-60106250D02*
X136351250Y-58816250D01*
X136351250Y-60106250D02*
X136351250Y-63256250D01*
X136351250Y-63256250D02*
X128371250Y-63256250D01*
X136411250Y-60106250D02*
X136351250Y-60106250D01*
X138541250Y-58806250D02*
X126241250Y-58806250D01*
X139011250Y-64616250D02*
X137901250Y-64616250D01*
X139011250Y-64616250D02*
X139011250Y-63456250D01*
X139111250Y-59419045D02*
X139111250Y-60106250D01*
X139111250Y-60106250D02*
X136411250Y-60106250D01*
X125611081Y-59426250D02*
G75*
G02*
X126261252Y-58805867I646809J-26980D01*
G01*
X138530169Y-58806250D02*
G75*
G02*
X139111250Y-59419045I-14917J-596047D01*
G01*
X151038455Y-60126250D02*
X151038455Y-59407331D01*
X151141250Y-64616250D02*
X151141250Y-63456250D01*
X151141250Y-64616250D02*
X152251250Y-64616250D01*
X153788455Y-60126250D02*
X151038455Y-60126250D01*
X153801250Y-59461250D02*
X162281250Y-59461250D01*
X153801250Y-60126250D02*
X153801250Y-58856250D01*
X153801250Y-63256250D02*
X153801250Y-60126250D01*
X162281250Y-60106250D02*
X162281250Y-58816250D01*
X162281250Y-60106250D02*
X162281250Y-63256250D01*
X162281250Y-63256250D02*
X153801250Y-63256250D01*
X162341250Y-60106250D02*
X162281250Y-60106250D01*
X164471250Y-58806250D02*
X151686250Y-58806250D01*
X164941250Y-64616250D02*
X163831250Y-64616250D01*
X164941250Y-64616250D02*
X164941250Y-63456250D01*
X165041250Y-59419045D02*
X165041250Y-60106250D01*
X165041250Y-60106250D02*
X162341250Y-60106250D01*
X151041081Y-59426250D02*
G75*
G02*
X151691252Y-58805867I646809J-26980D01*
G01*
X164460169Y-58806250D02*
G75*
G02*
X165041250Y-59419045I-14917J-596047D01*
G01*
D14*
X253526250Y-88491250D02*
X253526250Y-90291250D01*
X253526250Y-108911250D02*
X252536250Y-108911250D01*
X253526250Y-110711250D02*
X253526250Y-108911250D01*
X254976250Y-88491250D02*
X253526250Y-88491250D01*
X254976250Y-110711250D02*
X253526250Y-110711250D01*
X257796250Y-109441250D02*
X257796250Y-89761250D01*
X30293750Y-98171492D02*
X30293750Y-98646008D01*
X31338750Y-98171492D02*
X31338750Y-98646008D01*
X34247502Y-94273750D02*
X33724998Y-94273750D01*
X34247502Y-95743750D02*
X33724998Y-95743750D01*
X54921250Y-101698992D02*
X54921250Y-102173508D01*
X55966250Y-101698992D02*
X55966250Y-102173508D01*
X33628750Y-103088750D02*
X31828750Y-103088750D01*
X33628750Y-103088750D02*
X34428750Y-103088750D01*
X33628750Y-106208750D02*
X32828750Y-106208750D01*
X33628750Y-106208750D02*
X34428750Y-106208750D01*
X36561250Y-76767498D02*
X36561250Y-77290002D01*
X38031250Y-76767498D02*
X38031250Y-77290002D01*
%LPC*%
D15*
X34936250Y-101458750D03*
X33036250Y-101458750D03*
D16*
X32628750Y-84698750D03*
X32628750Y-85648750D03*
X32628750Y-86598750D03*
X34903750Y-86598750D03*
X34903750Y-84698750D03*
D17*
X49308750Y-86816250D03*
X47658750Y-86816250D03*
D18*
X197233750Y-79931250D03*
X197233750Y-84981250D03*
X194693750Y-79931250D03*
X194693750Y-84981250D03*
X192153750Y-79931250D03*
X192153750Y-84981250D03*
X189613750Y-79931250D03*
X189613750Y-84981250D03*
X187073750Y-79931250D03*
X187073750Y-84981250D03*
X184533750Y-79931250D03*
X184533750Y-84981250D03*
X181993750Y-79931250D03*
X181993750Y-84981250D03*
X179453750Y-79931250D03*
X179453750Y-84981250D03*
X176913750Y-79931250D03*
X176913750Y-84981250D03*
X174373750Y-79931250D03*
X174373750Y-84981250D03*
D19*
X200773750Y-119796250D03*
X201273750Y-119796250D03*
X201773750Y-119796250D03*
X202273750Y-119796250D03*
X202773750Y-119796250D03*
X203273750Y-119796250D03*
X203773750Y-119796250D03*
X204273750Y-119796250D03*
X204773750Y-119796250D03*
X205273750Y-119796250D03*
X205773750Y-119796250D03*
X206273750Y-119796250D03*
X206773750Y-119796250D03*
X207273750Y-119796250D03*
X207773750Y-119796250D03*
X208273750Y-119796250D03*
X208773750Y-119796250D03*
X209273750Y-119796250D03*
X209773750Y-119796250D03*
X210273750Y-119796250D03*
X210773750Y-119796250D03*
X211273750Y-119796250D03*
X211773750Y-119796250D03*
X212273750Y-119796250D03*
X212773750Y-119796250D03*
X213273750Y-119796250D03*
X213773750Y-119796250D03*
X214273750Y-119796250D03*
X214773750Y-119796250D03*
X215273750Y-119796250D03*
D20*
X199083750Y-122046250D03*
X216963750Y-122046250D03*
D21*
X39308750Y-59001250D03*
X35498750Y-59001250D03*
D18*
X111190000Y-102333750D03*
X111190000Y-97283750D03*
X113730000Y-102333750D03*
X113730000Y-97283750D03*
X116270000Y-102333750D03*
X116270000Y-97283750D03*
X118810000Y-102333750D03*
X118810000Y-97283750D03*
X121350000Y-102333750D03*
X121350000Y-97283750D03*
X123890000Y-102333750D03*
X123890000Y-97283750D03*
X126430000Y-102333750D03*
X126430000Y-97283750D03*
X128970000Y-102333750D03*
X128970000Y-97283750D03*
X131510000Y-102333750D03*
X131510000Y-97283750D03*
X134050000Y-102333750D03*
X134050000Y-97283750D03*
X136590000Y-102333750D03*
X136590000Y-97283750D03*
X139130000Y-102333750D03*
X139130000Y-97283750D03*
D22*
X34956250Y-76068750D03*
X34956250Y-77968750D03*
D16*
X32548750Y-97328750D03*
X32548750Y-98278750D03*
X32548750Y-99228750D03*
X34823750Y-99228750D03*
X34823750Y-97328750D03*
D17*
X49278750Y-96996250D03*
X47628750Y-96996250D03*
D18*
X189920000Y-102333750D03*
X189920000Y-97283750D03*
X192460000Y-102333750D03*
X192460000Y-97283750D03*
X195000000Y-102333750D03*
X195000000Y-97283750D03*
X197540000Y-102333750D03*
X197540000Y-97283750D03*
X200080000Y-102333750D03*
X200080000Y-97283750D03*
X202620000Y-102333750D03*
X202620000Y-97283750D03*
X205160000Y-102333750D03*
X205160000Y-97283750D03*
X207700000Y-102333750D03*
X207700000Y-97283750D03*
X210240000Y-102333750D03*
X210240000Y-97283750D03*
X212780000Y-102333750D03*
X212780000Y-97283750D03*
X215320000Y-102333750D03*
X215320000Y-97283750D03*
X217860000Y-102333750D03*
X217860000Y-97283750D03*
X220400000Y-102333750D03*
X220400000Y-97283750D03*
X222940000Y-102333750D03*
X222940000Y-97283750D03*
X225480000Y-102333750D03*
X225480000Y-97283750D03*
D17*
X49328750Y-91926250D03*
X47678750Y-91926250D03*
D22*
X39616250Y-76078750D03*
X39616250Y-77978750D03*
D19*
X83803750Y-119196250D03*
X84303750Y-119196250D03*
X84803750Y-119196250D03*
X85303750Y-119196250D03*
X85803750Y-119196250D03*
X86303750Y-119196250D03*
X86803750Y-119196250D03*
X87303750Y-119196250D03*
X87803750Y-119196250D03*
X88303750Y-119196250D03*
X88803750Y-119196250D03*
X89303750Y-119196250D03*
X89803750Y-119196250D03*
X90303750Y-119196250D03*
X90803750Y-119196250D03*
X91303750Y-119196250D03*
X91803750Y-119196250D03*
X92303750Y-119196250D03*
X92803750Y-119196250D03*
X93303750Y-119196250D03*
X93803750Y-119196250D03*
X94303750Y-119196250D03*
D20*
X82113750Y-121446250D03*
X95993750Y-121446250D03*
D23*
X237338750Y-108503750D03*
D24*
X234798750Y-108503750D03*
X237338750Y-105963750D03*
X234798750Y-105963750D03*
X237338750Y-103423750D03*
X234798750Y-103423750D03*
X237338750Y-100883750D03*
X234798750Y-100883750D03*
X237338750Y-98343750D03*
X234798750Y-98343750D03*
X237338750Y-95803750D03*
X234798750Y-95803750D03*
X237338750Y-93263750D03*
X234798750Y-93263750D03*
X237338750Y-90723750D03*
X234798750Y-90723750D03*
X237338750Y-88183750D03*
X234798750Y-88183750D03*
X237338750Y-85643750D03*
X234798750Y-85643750D03*
X237338750Y-83103750D03*
X234798750Y-83103750D03*
X237338750Y-80563750D03*
X234798750Y-80563750D03*
X237338750Y-78023750D03*
X234798750Y-78023750D03*
X237338750Y-75483750D03*
X234798750Y-75483750D03*
X237338750Y-72943750D03*
X234798750Y-72943750D03*
D15*
X35036250Y-88708750D03*
X33136250Y-88708750D03*
D23*
X40046250Y-81738750D03*
D24*
X40046250Y-84278750D03*
X40046250Y-86818750D03*
X40046250Y-89358750D03*
X40046250Y-91898750D03*
X40046250Y-94438750D03*
X40046250Y-96978750D03*
X40046250Y-99518750D03*
X40046250Y-102058750D03*
X40046250Y-104598750D03*
D18*
X167558750Y-79891250D03*
X167558750Y-84941250D03*
X165018750Y-79891250D03*
X165018750Y-84941250D03*
X162478750Y-79891250D03*
X162478750Y-84941250D03*
X159938750Y-79891250D03*
X159938750Y-84941250D03*
X157398750Y-79891250D03*
X157398750Y-84941250D03*
X154858750Y-79891250D03*
X154858750Y-84941250D03*
X152318750Y-79891250D03*
X152318750Y-84941250D03*
X149778750Y-79891250D03*
X149778750Y-84941250D03*
D19*
X190798750Y-63931250D03*
X190298750Y-63931250D03*
X189798750Y-63931250D03*
X189298750Y-63931250D03*
X188798750Y-63931250D03*
X188298750Y-63931250D03*
X187798750Y-63931250D03*
X187298750Y-63931250D03*
X186798750Y-63931250D03*
X186298750Y-63931250D03*
X185798750Y-63931250D03*
X185298750Y-63931250D03*
X184798750Y-63931250D03*
X184298750Y-63931250D03*
X183798750Y-63931250D03*
X183298750Y-63931250D03*
X182798750Y-63931250D03*
X182298750Y-63931250D03*
X181798750Y-63931250D03*
X181298750Y-63931250D03*
D20*
X192488750Y-61681250D03*
X179608750Y-61681250D03*
D18*
X118053750Y-79911250D03*
X118053750Y-84961250D03*
X115513750Y-79911250D03*
X115513750Y-84961250D03*
X112973750Y-79911250D03*
X112973750Y-84961250D03*
X110433750Y-79911250D03*
X110433750Y-84961250D03*
X107893750Y-79911250D03*
X107893750Y-84961250D03*
X105353750Y-79911250D03*
X105353750Y-84961250D03*
X102813750Y-79911250D03*
X102813750Y-84961250D03*
D19*
X55443750Y-114361250D03*
X55943750Y-114361250D03*
X56443750Y-114361250D03*
X56943750Y-114361250D03*
X57443750Y-114361250D03*
X57943750Y-114361250D03*
X58443750Y-114361250D03*
X58943750Y-114361250D03*
X59443750Y-114361250D03*
X59943750Y-114361250D03*
X60443750Y-114361250D03*
X60943750Y-114361250D03*
X61443750Y-114361250D03*
X61943750Y-114361250D03*
X62443750Y-114361250D03*
X62943750Y-114361250D03*
X63443750Y-114361250D03*
X63943750Y-114361250D03*
X64443750Y-114361250D03*
X64943750Y-114361250D03*
X65443750Y-114361250D03*
X65943750Y-114361250D03*
X66443750Y-114361250D03*
X66943750Y-114361250D03*
D20*
X53753750Y-116611250D03*
X68633750Y-116611250D03*
D18*
X93263750Y-79891250D03*
X93263750Y-84941250D03*
X90723750Y-79891250D03*
X90723750Y-84941250D03*
X88183750Y-79891250D03*
X88183750Y-84941250D03*
X85643750Y-79891250D03*
X85643750Y-84941250D03*
X83103750Y-79891250D03*
X83103750Y-84941250D03*
X80563750Y-79891250D03*
X80563750Y-84941250D03*
D16*
X32601250Y-90788750D03*
X32601250Y-91738750D03*
X32601250Y-92688750D03*
X34876250Y-92688750D03*
X34876250Y-90788750D03*
D18*
X149640000Y-102333750D03*
X149640000Y-97283750D03*
X152180000Y-102333750D03*
X152180000Y-97283750D03*
X154720000Y-102333750D03*
X154720000Y-97283750D03*
X157260000Y-102333750D03*
X157260000Y-97283750D03*
X159800000Y-102333750D03*
X159800000Y-97283750D03*
X162340000Y-102333750D03*
X162340000Y-97283750D03*
X164880000Y-102333750D03*
X164880000Y-97283750D03*
X167420000Y-102333750D03*
X167420000Y-97283750D03*
X169960000Y-102333750D03*
X169960000Y-97283750D03*
X172500000Y-102333750D03*
X172500000Y-97283750D03*
X175040000Y-102333750D03*
X175040000Y-97283750D03*
X177580000Y-102333750D03*
X177580000Y-97283750D03*
X180120000Y-102333750D03*
X180120000Y-97283750D03*
D15*
X35046250Y-82548750D03*
X33146250Y-82548750D03*
D18*
X224883750Y-79911250D03*
X224883750Y-84961250D03*
X222343750Y-79911250D03*
X222343750Y-84961250D03*
X219803750Y-79911250D03*
X219803750Y-84961250D03*
X217263750Y-79911250D03*
X217263750Y-84961250D03*
X214723750Y-79911250D03*
X214723750Y-84961250D03*
X212183750Y-79911250D03*
X212183750Y-84961250D03*
X209643750Y-79911250D03*
X209643750Y-84961250D03*
X207103750Y-79911250D03*
X207103750Y-84961250D03*
X204563750Y-79911250D03*
X204563750Y-84961250D03*
D19*
X219406250Y-63931250D03*
X218906250Y-63931250D03*
X218406250Y-63931250D03*
X217906250Y-63931250D03*
X217406250Y-63931250D03*
X216906250Y-63931250D03*
X216406250Y-63931250D03*
X215906250Y-63931250D03*
X215406250Y-63931250D03*
X214906250Y-63931250D03*
X214406250Y-63931250D03*
X213906250Y-63931250D03*
X213406250Y-63931250D03*
X212906250Y-63931250D03*
X212406250Y-63931250D03*
X211906250Y-63931250D03*
X211406250Y-63931250D03*
X210906250Y-63931250D03*
D20*
X221096250Y-61681250D03*
X209216250Y-61681250D03*
D18*
X142703750Y-79891250D03*
X142703750Y-84941250D03*
X140163750Y-79891250D03*
X140163750Y-84941250D03*
X137623750Y-79891250D03*
X137623750Y-84941250D03*
X135083750Y-79891250D03*
X135083750Y-84941250D03*
X132543750Y-79891250D03*
X132543750Y-84941250D03*
X130003750Y-79891250D03*
X130003750Y-84941250D03*
X127463750Y-79891250D03*
X127463750Y-84941250D03*
X124923750Y-79891250D03*
X124923750Y-84941250D03*
D19*
X89806250Y-63931250D03*
X89306250Y-63931250D03*
X88806250Y-63931250D03*
X88306250Y-63931250D03*
X87806250Y-63931250D03*
X87306250Y-63931250D03*
X86806250Y-63931250D03*
X86306250Y-63931250D03*
X85806250Y-63931250D03*
X85306250Y-63931250D03*
X84806250Y-63931250D03*
X84306250Y-63931250D03*
D20*
X91496250Y-61681250D03*
X82616250Y-61681250D03*
D19*
X64928750Y-71526250D03*
X64428750Y-71526250D03*
X63928750Y-71526250D03*
X63428750Y-71526250D03*
X62928750Y-71526250D03*
X62428750Y-71526250D03*
X61928750Y-71526250D03*
X61428750Y-71526250D03*
X60928750Y-71526250D03*
X60428750Y-71526250D03*
X59928750Y-71526250D03*
X59428750Y-71526250D03*
X58928750Y-71526250D03*
X58428750Y-71526250D03*
X57928750Y-71526250D03*
X57428750Y-71526250D03*
X56928750Y-71526250D03*
X56428750Y-71526250D03*
X55928750Y-71526250D03*
X55428750Y-71526250D03*
D20*
X66618750Y-69276250D03*
X53738750Y-69276250D03*
D19*
X119283750Y-119796250D03*
X119783750Y-119796250D03*
X120283750Y-119796250D03*
X120783750Y-119796250D03*
X121283750Y-119796250D03*
X121783750Y-119796250D03*
X122283750Y-119796250D03*
X122783750Y-119796250D03*
X123283750Y-119796250D03*
X123783750Y-119796250D03*
X124283750Y-119796250D03*
X124783750Y-119796250D03*
X125283750Y-119796250D03*
X125783750Y-119796250D03*
X126283750Y-119796250D03*
X126783750Y-119796250D03*
X127283750Y-119796250D03*
X127783750Y-119796250D03*
X128283750Y-119796250D03*
X128783750Y-119796250D03*
X129283750Y-119796250D03*
X129783750Y-119796250D03*
X130283750Y-119796250D03*
X130783750Y-119796250D03*
D20*
X117593750Y-122046250D03*
X132473750Y-122046250D03*
D18*
X76530000Y-102333750D03*
X76530000Y-97283750D03*
X79070000Y-102333750D03*
X79070000Y-97283750D03*
X81610000Y-102333750D03*
X81610000Y-97283750D03*
X84150000Y-102333750D03*
X84150000Y-97283750D03*
X86690000Y-102333750D03*
X86690000Y-97283750D03*
X89230000Y-102333750D03*
X89230000Y-97283750D03*
X91770000Y-102333750D03*
X91770000Y-97283750D03*
X94310000Y-102333750D03*
X94310000Y-97283750D03*
X96850000Y-102333750D03*
X96850000Y-97283750D03*
X99390000Y-102333750D03*
X99390000Y-97283750D03*
X101930000Y-102333750D03*
X101930000Y-97283750D03*
D25*
X30856250Y-84943750D03*
X30856250Y-86593750D03*
D19*
X159056250Y-119796250D03*
X159556250Y-119796250D03*
X160056250Y-119796250D03*
X160556250Y-119796250D03*
X161056250Y-119796250D03*
X161556250Y-119796250D03*
X162056250Y-119796250D03*
X162556250Y-119796250D03*
X163056250Y-119796250D03*
X163556250Y-119796250D03*
X164056250Y-119796250D03*
X164556250Y-119796250D03*
X165056250Y-119796250D03*
X165556250Y-119796250D03*
X166056250Y-119796250D03*
X166556250Y-119796250D03*
X167056250Y-119796250D03*
X167556250Y-119796250D03*
X168056250Y-119796250D03*
X168556250Y-119796250D03*
X169056250Y-119796250D03*
X169556250Y-119796250D03*
X170056250Y-119796250D03*
X170556250Y-119796250D03*
X171056250Y-119796250D03*
X171556250Y-119796250D03*
D20*
X157366250Y-122046250D03*
X173246250Y-122046250D03*
D25*
X55423750Y-75516250D03*
X55423750Y-77166250D03*
X30886250Y-91033750D03*
X30886250Y-92683750D03*
D19*
X113728750Y-63928750D03*
X113228750Y-63928750D03*
X112728750Y-63928750D03*
X112228750Y-63928750D03*
X111728750Y-63928750D03*
X111228750Y-63928750D03*
X110728750Y-63928750D03*
X110228750Y-63928750D03*
X109728750Y-63928750D03*
X109228750Y-63928750D03*
X108728750Y-63928750D03*
X108228750Y-63928750D03*
X107728750Y-63928750D03*
X107228750Y-63928750D03*
D20*
X115418750Y-61678750D03*
X105538750Y-61678750D03*
D26*
X53893750Y-102771250D03*
X53893750Y-101121250D03*
D25*
X30746250Y-103948750D03*
X30746250Y-105598750D03*
D22*
X32596250Y-76108750D03*
X32596250Y-78008750D03*
D19*
X135861250Y-63931250D03*
X135361250Y-63931250D03*
X134861250Y-63931250D03*
X134361250Y-63931250D03*
X133861250Y-63931250D03*
X133361250Y-63931250D03*
X132861250Y-63931250D03*
X132361250Y-63931250D03*
X131861250Y-63931250D03*
X131361250Y-63931250D03*
X130861250Y-63931250D03*
X130361250Y-63931250D03*
X129861250Y-63931250D03*
X129361250Y-63931250D03*
X128861250Y-63931250D03*
D20*
X137551250Y-61681250D03*
X127171250Y-61681250D03*
D19*
X161791250Y-63931250D03*
X161291250Y-63931250D03*
X160791250Y-63931250D03*
X160291250Y-63931250D03*
X159791250Y-63931250D03*
X159291250Y-63931250D03*
X158791250Y-63931250D03*
X158291250Y-63931250D03*
X157791250Y-63931250D03*
X157291250Y-63931250D03*
X156791250Y-63931250D03*
X156291250Y-63931250D03*
X155791250Y-63931250D03*
X155291250Y-63931250D03*
X154791250Y-63931250D03*
X154291250Y-63931250D03*
D20*
X163481250Y-61681250D03*
X152601250Y-61681250D03*
D27*
X253386250Y-108351250D03*
X253386250Y-107101250D03*
X253386250Y-105851250D03*
X253386250Y-104601250D03*
X253386250Y-103351250D03*
X253386250Y-102101250D03*
X253386250Y-100851250D03*
X253386250Y-99601250D03*
X253386250Y-98351250D03*
X253386250Y-97101250D03*
X253386250Y-95851250D03*
X253386250Y-94601250D03*
X253386250Y-93351250D03*
X253386250Y-92101250D03*
X253386250Y-90851250D03*
D28*
X256586250Y-110201250D03*
X256586250Y-89001250D03*
D25*
X30816250Y-97583750D03*
X30816250Y-99233750D03*
D15*
X34936250Y-95008750D03*
X33036250Y-95008750D03*
D25*
X55443750Y-101111250D03*
X55443750Y-102761250D03*
D16*
X32491250Y-103698750D03*
X32491250Y-104648750D03*
X32491250Y-105598750D03*
X34766250Y-105598750D03*
X34766250Y-103698750D03*
D22*
X37296250Y-76078750D03*
X37296250Y-77978750D03*
%LPD*%
M02*
