%TF.GenerationSoftware,KiCad,Pcbnew,8.0.3*%
%TF.CreationDate,2025-06-28T13:49:27+03:00*%
%TF.ProjectId,Camera_Expansion_Board_V2.0,43616d65-7261-45f4-9578-70616e73696f,rev?*%
%TF.SameCoordinates,Original*%
%TF.FileFunction,Drillmap*%
%TF.FilePolarity,Positive*%
%FSLAX45Y45*%
G04 Gerber Fmt 4.5, Leading zero omitted, Abs format (unit mm)*
G04 Created by KiCad (PCBNEW 8.0.3) date 2025-06-28 13:49:27*
%MOMM*%
%LPD*%
G01*
G04 APERTURE LIST*
%ADD10C,0.100000*%
%ADD11C,0.200000*%
G04 APERTURE END LIST*
D10*
X2770375Y-5461125D02*
X26293375Y-5461125D01*
X26293375Y-13056125D01*
X2770375Y-13056125D01*
X2770375Y-5461125D01*
D11*
X3026152Y-13372609D02*
X3026152Y-13172609D01*
X3026152Y-13172609D02*
X3073771Y-13172609D01*
X3073771Y-13172609D02*
X3102342Y-13182133D01*
X3102342Y-13182133D02*
X3121390Y-13201180D01*
X3121390Y-13201180D02*
X3130914Y-13220228D01*
X3130914Y-13220228D02*
X3140437Y-13258323D01*
X3140437Y-13258323D02*
X3140437Y-13286894D01*
X3140437Y-13286894D02*
X3130914Y-13324990D01*
X3130914Y-13324990D02*
X3121390Y-13344037D01*
X3121390Y-13344037D02*
X3102342Y-13363085D01*
X3102342Y-13363085D02*
X3073771Y-13372609D01*
X3073771Y-13372609D02*
X3026152Y-13372609D01*
X3226152Y-13372609D02*
X3226152Y-13239275D01*
X3226152Y-13277371D02*
X3235676Y-13258323D01*
X3235676Y-13258323D02*
X3245199Y-13248799D01*
X3245199Y-13248799D02*
X3264247Y-13239275D01*
X3264247Y-13239275D02*
X3283295Y-13239275D01*
X3349961Y-13372609D02*
X3349961Y-13239275D01*
X3349961Y-13172609D02*
X3340437Y-13182133D01*
X3340437Y-13182133D02*
X3349961Y-13191656D01*
X3349961Y-13191656D02*
X3359485Y-13182133D01*
X3359485Y-13182133D02*
X3349961Y-13172609D01*
X3349961Y-13172609D02*
X3349961Y-13191656D01*
X3473771Y-13372609D02*
X3454723Y-13363085D01*
X3454723Y-13363085D02*
X3445199Y-13344037D01*
X3445199Y-13344037D02*
X3445199Y-13172609D01*
X3578533Y-13372609D02*
X3559485Y-13363085D01*
X3559485Y-13363085D02*
X3549961Y-13344037D01*
X3549961Y-13344037D02*
X3549961Y-13172609D01*
X3807104Y-13372609D02*
X3807104Y-13172609D01*
X3807104Y-13172609D02*
X3873771Y-13315466D01*
X3873771Y-13315466D02*
X3940437Y-13172609D01*
X3940437Y-13172609D02*
X3940437Y-13372609D01*
X4121390Y-13372609D02*
X4121390Y-13267847D01*
X4121390Y-13267847D02*
X4111866Y-13248799D01*
X4111866Y-13248799D02*
X4092818Y-13239275D01*
X4092818Y-13239275D02*
X4054723Y-13239275D01*
X4054723Y-13239275D02*
X4035676Y-13248799D01*
X4121390Y-13363085D02*
X4102342Y-13372609D01*
X4102342Y-13372609D02*
X4054723Y-13372609D01*
X4054723Y-13372609D02*
X4035676Y-13363085D01*
X4035676Y-13363085D02*
X4026152Y-13344037D01*
X4026152Y-13344037D02*
X4026152Y-13324990D01*
X4026152Y-13324990D02*
X4035676Y-13305942D01*
X4035676Y-13305942D02*
X4054723Y-13296418D01*
X4054723Y-13296418D02*
X4102342Y-13296418D01*
X4102342Y-13296418D02*
X4121390Y-13286894D01*
X4216628Y-13239275D02*
X4216628Y-13439275D01*
X4216628Y-13248799D02*
X4235676Y-13239275D01*
X4235676Y-13239275D02*
X4273771Y-13239275D01*
X4273771Y-13239275D02*
X4292819Y-13248799D01*
X4292819Y-13248799D02*
X4302342Y-13258323D01*
X4302342Y-13258323D02*
X4311866Y-13277371D01*
X4311866Y-13277371D02*
X4311866Y-13334513D01*
X4311866Y-13334513D02*
X4302342Y-13353561D01*
X4302342Y-13353561D02*
X4292819Y-13363085D01*
X4292819Y-13363085D02*
X4273771Y-13372609D01*
X4273771Y-13372609D02*
X4235676Y-13372609D01*
X4235676Y-13372609D02*
X4216628Y-13363085D01*
X4397580Y-13353561D02*
X4407104Y-13363085D01*
X4407104Y-13363085D02*
X4397580Y-13372609D01*
X4397580Y-13372609D02*
X4388057Y-13363085D01*
X4388057Y-13363085D02*
X4397580Y-13353561D01*
X4397580Y-13353561D02*
X4397580Y-13372609D01*
X4397580Y-13248799D02*
X4407104Y-13258323D01*
X4407104Y-13258323D02*
X4397580Y-13267847D01*
X4397580Y-13267847D02*
X4388057Y-13258323D01*
X4388057Y-13258323D02*
X4397580Y-13248799D01*
X4397580Y-13248799D02*
X4397580Y-13267847D01*
M02*
