M48
; DRILL file {KiCad 8.0.3} date 2025-06-28T13:49:25+0300
; FORMAT={-:-/ absolute / inch / decimal}
; #@! TF.CreationDate,2025-06-28T13:49:25+03:00
; #@! TF.GenerationSoftware,Kicad,Pcbnew,8.0.3
; #@! TF.FileFunction,Plated,1,2,PTH
FMAT,2
INCH
; #@! TA.AperFunction,Plated,PTH,ViaDrill
T1C0.0079
; #@! TA.AperFunction,Plated,PTH,ViaDrill
T2C0.0118
; #@! TA.AperFunction,Plated,PTH,ComponentDrill
T3C0.0394
; #@! TA.AperFunction,Plated,PTH,ComponentDrill
T4C0.0630
%
G90
G05
T1
X1.9419Y-3.038
X2.0486Y-3.6191
X2.0553Y-3.4168
X2.0777Y-3.8191
X2.2025Y-4.553
X2.2218Y-2.7676
X2.2415Y-2.7676
X2.2419Y-4.4077
X2.261Y-3.2487
X2.2812Y-2.7676
X2.2816Y-3.366
X2.3198Y-3.9593
X2.3265Y-3.3754
X2.3395Y-2.7676
X2.3594Y-2.8798
X2.36Y-3.6002
X2.3793Y-3.7345
X2.395Y-2.9684
X2.3982Y-3.7117
X2.399Y-2.768
X2.419Y-4.5514
X2.436Y-3.3699
X2.4584Y-2.768
X2.4687Y-3.9554
X2.4777Y-2.8947
X2.5147Y-2.9813
X2.5171Y-2.768
X2.5364Y-3.2306
X2.5572Y-2.768
X2.5962Y-4.5522
T2
X1.2621Y-3.994
X1.2636Y-3.25
X1.2664Y-3.4925
X1.2684Y-3.7405
X1.3239Y-4.1192
X1.3278Y-3.87
X1.3294Y-3.372
X1.3294Y-3.6118
X1.4754Y-3.5137
X1.477Y-3.7015
X1.4774Y-4.1251
X1.4802Y-3.9165
X1.481Y-3.2901
T3
X1.5766Y-3.2181
X1.5766Y-3.3181
X1.5766Y-3.4181
X1.5766Y-3.5181
X1.5766Y-3.6181
X1.5766Y-3.7181
X1.5766Y-3.8181
X1.5766Y-3.9181
X1.5766Y-4.0181
X1.5766Y-4.1181
X9.244Y-2.8718
X9.244Y-2.9718
X9.244Y-3.0718
X9.244Y-3.1718
X9.244Y-3.2718
X9.244Y-3.3718
X9.244Y-3.4718
X9.244Y-3.5718
X9.244Y-3.6718
X9.244Y-3.7718
X9.244Y-3.8718
X9.244Y-3.9718
X9.244Y-4.0718
X9.244Y-4.1718
X9.244Y-4.2718
X9.344Y-2.8718
X9.344Y-2.9718
X9.344Y-3.0718
X9.344Y-3.1718
X9.344Y-3.2718
X9.344Y-3.3718
X9.344Y-3.4718
X9.344Y-3.5718
X9.344Y-3.6718
X9.344Y-3.7718
X9.344Y-3.8718
X9.344Y-3.9718
X9.344Y-4.0718
X9.344Y-4.1718
X9.344Y-4.2718
T4
X1.3976Y-2.3229
X1.5476Y-2.3229
M30
