G04 #@! TF.GenerationSoftware,KiCad,Pcbnew,8.0.3*
G04 #@! TF.CreationDate,2025-06-28T13:49:23+03:00*
G04 #@! TF.ProjectId,Camera_Expansion_Board_V2.0,43616d65-7261-45f4-9578-70616e73696f,rev?*
G04 #@! TF.SameCoordinates,Original*
G04 #@! TF.FileFunction,Soldermask,Bot*
G04 #@! TF.FilePolarity,Negative*
%FSLAX46Y46*%
G04 Gerber Fmt 4.6, Leading zero omitted, Abs format (unit mm)*
G04 Created by KiCad (PCBNEW 8.0.3) date 2025-06-28 13:49:23*
%MOMM*%
%LPD*%
G01*
G04 APERTURE LIST*
%ADD10C,2.500000*%
%ADD11R,1.700000X1.700000*%
%ADD12O,1.700000X1.700000*%
%ADD13R,0.600000X1.800000*%
%ADD14R,2.600000X3.000000*%
%ADD15R,1.000000X3.150000*%
G04 APERTURE END LIST*
D10*
X39308750Y-59001250D03*
X35498750Y-59001250D03*
D11*
X237338750Y-108503750D03*
D12*
X234798750Y-108503750D03*
X237338750Y-105963750D03*
X234798750Y-105963750D03*
X237338750Y-103423750D03*
X234798750Y-103423750D03*
X237338750Y-100883750D03*
X234798750Y-100883750D03*
X237338750Y-98343750D03*
X234798750Y-98343750D03*
X237338750Y-95803750D03*
X234798750Y-95803750D03*
X237338750Y-93263750D03*
X234798750Y-93263750D03*
X237338750Y-90723750D03*
X234798750Y-90723750D03*
X237338750Y-88183750D03*
X234798750Y-88183750D03*
X237338750Y-85643750D03*
X234798750Y-85643750D03*
X237338750Y-83103750D03*
X234798750Y-83103750D03*
X237338750Y-80563750D03*
X234798750Y-80563750D03*
X237338750Y-78023750D03*
X234798750Y-78023750D03*
X237338750Y-75483750D03*
X234798750Y-75483750D03*
X237338750Y-72943750D03*
X234798750Y-72943750D03*
D11*
X40046250Y-81738750D03*
D12*
X40046250Y-84278750D03*
X40046250Y-86818750D03*
X40046250Y-89358750D03*
X40046250Y-91898750D03*
X40046250Y-94438750D03*
X40046250Y-96978750D03*
X40046250Y-99518750D03*
X40046250Y-102058750D03*
X40046250Y-104598750D03*
D13*
X84443750Y-65148750D03*
X85443750Y-65148750D03*
X86443750Y-65148750D03*
X87443750Y-65148750D03*
X88443750Y-65148750D03*
X89443750Y-65148750D03*
X90443750Y-65148750D03*
X91443750Y-65148750D03*
X92443750Y-65148750D03*
X93443750Y-65148750D03*
D14*
X82093750Y-62978750D03*
X95793750Y-62978750D03*
D15*
X180133750Y-102311250D03*
X180133750Y-97261250D03*
X177593750Y-102311250D03*
X177593750Y-97261250D03*
X175053750Y-102311250D03*
X175053750Y-97261250D03*
X172513750Y-102311250D03*
X172513750Y-97261250D03*
X169973750Y-102311250D03*
X169973750Y-97261250D03*
X167433750Y-102311250D03*
X167433750Y-97261250D03*
X164893750Y-102311250D03*
X164893750Y-97261250D03*
X162353750Y-102311250D03*
X162353750Y-97261250D03*
X159813750Y-102311250D03*
X159813750Y-97261250D03*
X157273750Y-102311250D03*
X157273750Y-97261250D03*
X154733750Y-102311250D03*
X154733750Y-97261250D03*
X152193750Y-102311250D03*
X152193750Y-97261250D03*
X149653750Y-102311250D03*
X149653750Y-97261250D03*
D13*
X107913750Y-65148750D03*
X108913750Y-65148750D03*
X109913750Y-65148750D03*
X110913750Y-65148750D03*
X111913750Y-65148750D03*
X112913750Y-65148750D03*
X113913750Y-65148750D03*
X114913750Y-65148750D03*
X115913750Y-65148750D03*
X116913750Y-65148750D03*
X117913750Y-65148750D03*
X118913750Y-65148750D03*
X119913750Y-65148750D03*
X120913750Y-65148750D03*
X121913750Y-65148750D03*
D14*
X105563750Y-62978750D03*
X124263750Y-62978750D03*
D13*
X99353750Y-118203750D03*
X98353750Y-118203750D03*
X97353750Y-118203750D03*
X96353750Y-118203750D03*
X95353750Y-118203750D03*
X94353750Y-118203750D03*
X93353750Y-118203750D03*
X92353750Y-118203750D03*
X91353750Y-118203750D03*
X90353750Y-118203750D03*
X89353750Y-118203750D03*
X88353750Y-118203750D03*
X87353750Y-118203750D03*
X86353750Y-118203750D03*
X85353750Y-118203750D03*
X84353750Y-118203750D03*
X83353750Y-118203750D03*
X82353750Y-118203750D03*
X81353750Y-118203750D03*
X80353750Y-118203750D03*
D14*
X101703750Y-120373750D03*
X78003750Y-120373750D03*
D15*
X105713750Y-79921250D03*
X105713750Y-84971250D03*
X108253750Y-79921250D03*
X108253750Y-84971250D03*
X110793750Y-79921250D03*
X110793750Y-84971250D03*
X113333750Y-79921250D03*
X113333750Y-84971250D03*
X115873750Y-79921250D03*
X115873750Y-84971250D03*
X118413750Y-79921250D03*
X118413750Y-84971250D03*
X120953750Y-79921250D03*
X120953750Y-84971250D03*
X123493750Y-79921250D03*
X123493750Y-84971250D03*
D13*
X177572500Y-118203750D03*
X176572500Y-118203750D03*
X175572500Y-118203750D03*
X174572500Y-118203750D03*
X173572500Y-118203750D03*
X172572500Y-118203750D03*
X171572500Y-118203750D03*
X170572500Y-118203750D03*
X169572500Y-118203750D03*
X168572500Y-118203750D03*
X167572500Y-118203750D03*
X166572500Y-118203750D03*
X165572500Y-118203750D03*
X164572500Y-118203750D03*
X163572500Y-118203750D03*
X162572500Y-118203750D03*
X161572500Y-118203750D03*
X160572500Y-118203750D03*
X159572500Y-118203750D03*
X158572500Y-118203750D03*
X157572500Y-118203750D03*
X156572500Y-118203750D03*
X155572500Y-118203750D03*
X154572500Y-118203750D03*
X153572500Y-118203750D03*
X152572500Y-118203750D03*
D14*
X179922500Y-120373750D03*
X150222500Y-120373750D03*
D15*
X225480000Y-102343750D03*
X225480000Y-97293750D03*
X222940000Y-102343750D03*
X222940000Y-97293750D03*
X220400000Y-102343750D03*
X220400000Y-97293750D03*
X217860000Y-102343750D03*
X217860000Y-97293750D03*
X215320000Y-102343750D03*
X215320000Y-97293750D03*
X212780000Y-102343750D03*
X212780000Y-97293750D03*
X210240000Y-102343750D03*
X210240000Y-97293750D03*
X207700000Y-102343750D03*
X207700000Y-97293750D03*
X205160000Y-102343750D03*
X205160000Y-97293750D03*
X202620000Y-102343750D03*
X202620000Y-97293750D03*
X200080000Y-102343750D03*
X200080000Y-97293750D03*
X197540000Y-102343750D03*
X197540000Y-97293750D03*
X195000000Y-102343750D03*
X195000000Y-97293750D03*
X192460000Y-102343750D03*
X192460000Y-97293750D03*
X189920000Y-102343750D03*
X189920000Y-97293750D03*
X139133750Y-102351250D03*
X139133750Y-97301250D03*
X136593750Y-102351250D03*
X136593750Y-97301250D03*
X134053750Y-102351250D03*
X134053750Y-97301250D03*
X131513750Y-102351250D03*
X131513750Y-97301250D03*
X128973750Y-102351250D03*
X128973750Y-97301250D03*
X126433750Y-102351250D03*
X126433750Y-97301250D03*
X123893750Y-102351250D03*
X123893750Y-97301250D03*
X121353750Y-102351250D03*
X121353750Y-97301250D03*
X118813750Y-102351250D03*
X118813750Y-97301250D03*
X116273750Y-102351250D03*
X116273750Y-97301250D03*
X113733750Y-102351250D03*
X113733750Y-97301250D03*
X101953750Y-102361250D03*
X101953750Y-97311250D03*
X99413750Y-102361250D03*
X99413750Y-97311250D03*
X96873750Y-102361250D03*
X96873750Y-97311250D03*
X94333750Y-102361250D03*
X94333750Y-97311250D03*
X91793750Y-102361250D03*
X91793750Y-97311250D03*
X89253750Y-102361250D03*
X89253750Y-97311250D03*
X86713750Y-102361250D03*
X86713750Y-97311250D03*
X84173750Y-102361250D03*
X84173750Y-97311250D03*
X81633750Y-102361250D03*
X81633750Y-97311250D03*
X79093750Y-102361250D03*
X79093750Y-97311250D03*
X83123750Y-79911250D03*
X83123750Y-84961250D03*
X85663750Y-79911250D03*
X85663750Y-84961250D03*
X88203750Y-79911250D03*
X88203750Y-84961250D03*
X90743750Y-79911250D03*
X90743750Y-84961250D03*
X93283750Y-79911250D03*
X93283750Y-84961250D03*
D13*
X136083750Y-118203750D03*
X135083750Y-118203750D03*
X134083750Y-118203750D03*
X133083750Y-118203750D03*
X132083750Y-118203750D03*
X131083750Y-118203750D03*
X130083750Y-118203750D03*
X129083750Y-118203750D03*
X128083750Y-118203750D03*
X127083750Y-118203750D03*
X126083750Y-118203750D03*
X125083750Y-118203750D03*
X124083750Y-118203750D03*
X123083750Y-118203750D03*
X122083750Y-118203750D03*
X121083750Y-118203750D03*
X120083750Y-118203750D03*
X119083750Y-118203750D03*
X118083750Y-118203750D03*
X117083750Y-118203750D03*
X116083750Y-118203750D03*
X115083750Y-118203750D03*
D14*
X138433750Y-120373750D03*
X112733750Y-120373750D03*
D13*
X222060000Y-118203750D03*
X221060000Y-118203750D03*
X220060000Y-118203750D03*
X219060000Y-118203750D03*
X218060000Y-118203750D03*
X217060000Y-118203750D03*
X216060000Y-118203750D03*
X215060000Y-118203750D03*
X214060000Y-118203750D03*
X213060000Y-118203750D03*
X212060000Y-118203750D03*
X211060000Y-118203750D03*
X210060000Y-118203750D03*
X209060000Y-118203750D03*
X208060000Y-118203750D03*
X207060000Y-118203750D03*
X206060000Y-118203750D03*
X205060000Y-118203750D03*
X204060000Y-118203750D03*
X203060000Y-118203750D03*
X202060000Y-118203750D03*
X201060000Y-118203750D03*
X200060000Y-118203750D03*
X199060000Y-118203750D03*
X198060000Y-118203750D03*
X197060000Y-118203750D03*
X196060000Y-118203750D03*
X195060000Y-118203750D03*
X194060000Y-118203750D03*
X193060000Y-118203750D03*
D14*
X224410000Y-120373750D03*
X190710000Y-120373750D03*
M02*
