G04 #@! TF.GenerationSoftware,KiCad,Pcbnew,8.0.3*
G04 #@! TF.CreationDate,2025-06-28T13:49:22+03:00*
G04 #@! TF.ProjectId,Camera_Expansion_Board_V2.0,43616d65-7261-45f4-9578-70616e73696f,rev?*
G04 #@! TF.SameCoordinates,Original*
G04 #@! TF.FileFunction,Legend,Bot*
G04 #@! TF.FilePolarity,Positive*
%FSLAX46Y46*%
G04 Gerber Fmt 4.6, Leading zero omitted, Abs format (unit mm)*
G04 Created by KiCad (PCBNEW 8.0.3) date 2025-06-28 13:49:22*
%MOMM*%
%LPD*%
G01*
G04 APERTURE LIST*
%ADD10C,0.100000*%
%ADD11C,0.150000*%
%ADD12C,0.120000*%
%ADD13C,2.500000*%
%ADD14R,1.700000X1.700000*%
%ADD15O,1.700000X1.700000*%
%ADD16R,0.600000X1.800000*%
%ADD17R,2.600000X3.000000*%
%ADD18R,1.000000X3.150000*%
G04 APERTURE END LIST*
D10*
X96794226Y-57911330D02*
X96794226Y-57197045D01*
X96794226Y-57197045D02*
X96746607Y-57054188D01*
X96746607Y-57054188D02*
X96651369Y-56958950D01*
X96651369Y-56958950D02*
X96508512Y-56911330D01*
X96508512Y-56911330D02*
X96413274Y-56911330D01*
X97175179Y-57911330D02*
X97794226Y-57911330D01*
X97794226Y-57911330D02*
X97460893Y-57530378D01*
X97460893Y-57530378D02*
X97603750Y-57530378D01*
X97603750Y-57530378D02*
X97698988Y-57482759D01*
X97698988Y-57482759D02*
X97746607Y-57435140D01*
X97746607Y-57435140D02*
X97794226Y-57339902D01*
X97794226Y-57339902D02*
X97794226Y-57101807D01*
X97794226Y-57101807D02*
X97746607Y-57006569D01*
X97746607Y-57006569D02*
X97698988Y-56958950D01*
X97698988Y-56958950D02*
X97603750Y-56911330D01*
X97603750Y-56911330D02*
X97318036Y-56911330D01*
X97318036Y-56911330D02*
X97222798Y-56958950D01*
X97222798Y-56958950D02*
X97175179Y-57006569D01*
X98127560Y-57911330D02*
X98794226Y-57911330D01*
X98794226Y-57911330D02*
X98365655Y-56911330D01*
D11*
X181918569Y-98976726D02*
X182632854Y-98976726D01*
X182632854Y-98976726D02*
X182775711Y-98929107D01*
X182775711Y-98929107D02*
X182870950Y-98833869D01*
X182870950Y-98833869D02*
X182918569Y-98691012D01*
X182918569Y-98691012D02*
X182918569Y-98595774D01*
X181918569Y-99357679D02*
X181918569Y-99976726D01*
X181918569Y-99976726D02*
X182299521Y-99643393D01*
X182299521Y-99643393D02*
X182299521Y-99786250D01*
X182299521Y-99786250D02*
X182347140Y-99881488D01*
X182347140Y-99881488D02*
X182394759Y-99929107D01*
X182394759Y-99929107D02*
X182489997Y-99976726D01*
X182489997Y-99976726D02*
X182728092Y-99976726D01*
X182728092Y-99976726D02*
X182823330Y-99929107D01*
X182823330Y-99929107D02*
X182870950Y-99881488D01*
X182870950Y-99881488D02*
X182918569Y-99786250D01*
X182918569Y-99786250D02*
X182918569Y-99500536D01*
X182918569Y-99500536D02*
X182870950Y-99405298D01*
X182870950Y-99405298D02*
X182823330Y-99357679D01*
X182918569Y-100929107D02*
X182918569Y-100357679D01*
X182918569Y-100643393D02*
X181918569Y-100643393D01*
X181918569Y-100643393D02*
X182061426Y-100548155D01*
X182061426Y-100548155D02*
X182156664Y-100452917D01*
X182156664Y-100452917D02*
X182204283Y-100357679D01*
D10*
X120264226Y-57911330D02*
X120264226Y-57197045D01*
X120264226Y-57197045D02*
X120216607Y-57054188D01*
X120216607Y-57054188D02*
X120121369Y-56958950D01*
X120121369Y-56958950D02*
X119978512Y-56911330D01*
X119978512Y-56911330D02*
X119883274Y-56911330D01*
X121264226Y-56911330D02*
X120692798Y-56911330D01*
X120978512Y-56911330D02*
X120978512Y-57911330D01*
X120978512Y-57911330D02*
X120883274Y-57768473D01*
X120883274Y-57768473D02*
X120788036Y-57673235D01*
X120788036Y-57673235D02*
X120692798Y-57625616D01*
X122168988Y-57911330D02*
X121692798Y-57911330D01*
X121692798Y-57911330D02*
X121645179Y-57435140D01*
X121645179Y-57435140D02*
X121692798Y-57482759D01*
X121692798Y-57482759D02*
X121788036Y-57530378D01*
X121788036Y-57530378D02*
X122026131Y-57530378D01*
X122026131Y-57530378D02*
X122121369Y-57482759D01*
X122121369Y-57482759D02*
X122168988Y-57435140D01*
X122168988Y-57435140D02*
X122216607Y-57339902D01*
X122216607Y-57339902D02*
X122216607Y-57101807D01*
X122216607Y-57101807D02*
X122168988Y-57006569D01*
X122168988Y-57006569D02*
X122121369Y-56958950D01*
X122121369Y-56958950D02*
X122026131Y-56911330D01*
X122026131Y-56911330D02*
X121788036Y-56911330D01*
X121788036Y-56911330D02*
X121692798Y-56958950D01*
X121692798Y-56958950D02*
X121645179Y-57006569D01*
X87003273Y-125441169D02*
X87003273Y-126155454D01*
X87003273Y-126155454D02*
X87050892Y-126298311D01*
X87050892Y-126298311D02*
X87146130Y-126393550D01*
X87146130Y-126393550D02*
X87288987Y-126441169D01*
X87288987Y-126441169D02*
X87384225Y-126441169D01*
X86622320Y-125441169D02*
X86003273Y-125441169D01*
X86003273Y-125441169D02*
X86336606Y-125822121D01*
X86336606Y-125822121D02*
X86193749Y-125822121D01*
X86193749Y-125822121D02*
X86098511Y-125869740D01*
X86098511Y-125869740D02*
X86050892Y-125917359D01*
X86050892Y-125917359D02*
X86003273Y-126012597D01*
X86003273Y-126012597D02*
X86003273Y-126250692D01*
X86003273Y-126250692D02*
X86050892Y-126345930D01*
X86050892Y-126345930D02*
X86098511Y-126393550D01*
X86098511Y-126393550D02*
X86193749Y-126441169D01*
X86193749Y-126441169D02*
X86479463Y-126441169D01*
X86479463Y-126441169D02*
X86574701Y-126393550D01*
X86574701Y-126393550D02*
X86622320Y-126345930D01*
X85146130Y-125441169D02*
X85336606Y-125441169D01*
X85336606Y-125441169D02*
X85431844Y-125488788D01*
X85431844Y-125488788D02*
X85479463Y-125536407D01*
X85479463Y-125536407D02*
X85574701Y-125679264D01*
X85574701Y-125679264D02*
X85622320Y-125869740D01*
X85622320Y-125869740D02*
X85622320Y-126250692D01*
X85622320Y-126250692D02*
X85574701Y-126345930D01*
X85574701Y-126345930D02*
X85527082Y-126393550D01*
X85527082Y-126393550D02*
X85431844Y-126441169D01*
X85431844Y-126441169D02*
X85241368Y-126441169D01*
X85241368Y-126441169D02*
X85146130Y-126393550D01*
X85146130Y-126393550D02*
X85098511Y-126345930D01*
X85098511Y-126345930D02*
X85050892Y-126250692D01*
X85050892Y-126250692D02*
X85050892Y-126012597D01*
X85050892Y-126012597D02*
X85098511Y-125917359D01*
X85098511Y-125917359D02*
X85146130Y-125869740D01*
X85146130Y-125869740D02*
X85241368Y-125822121D01*
X85241368Y-125822121D02*
X85431844Y-125822121D01*
X85431844Y-125822121D02*
X85527082Y-125869740D01*
X85527082Y-125869740D02*
X85574701Y-125917359D01*
X85574701Y-125917359D02*
X85622320Y-126012597D01*
D11*
X102838569Y-81636726D02*
X103552854Y-81636726D01*
X103552854Y-81636726D02*
X103695711Y-81589107D01*
X103695711Y-81589107D02*
X103790950Y-81493869D01*
X103790950Y-81493869D02*
X103838569Y-81351012D01*
X103838569Y-81351012D02*
X103838569Y-81255774D01*
X103838569Y-82636726D02*
X103838569Y-82065298D01*
X103838569Y-82351012D02*
X102838569Y-82351012D01*
X102838569Y-82351012D02*
X102981426Y-82255774D01*
X102981426Y-82255774D02*
X103076664Y-82160536D01*
X103076664Y-82160536D02*
X103124283Y-82065298D01*
X102838569Y-83255774D02*
X102838569Y-83351012D01*
X102838569Y-83351012D02*
X102886188Y-83446250D01*
X102886188Y-83446250D02*
X102933807Y-83493869D01*
X102933807Y-83493869D02*
X103029045Y-83541488D01*
X103029045Y-83541488D02*
X103219521Y-83589107D01*
X103219521Y-83589107D02*
X103457616Y-83589107D01*
X103457616Y-83589107D02*
X103648092Y-83541488D01*
X103648092Y-83541488D02*
X103743330Y-83493869D01*
X103743330Y-83493869D02*
X103790950Y-83446250D01*
X103790950Y-83446250D02*
X103838569Y-83351012D01*
X103838569Y-83351012D02*
X103838569Y-83255774D01*
X103838569Y-83255774D02*
X103790950Y-83160536D01*
X103790950Y-83160536D02*
X103743330Y-83112917D01*
X103743330Y-83112917D02*
X103648092Y-83065298D01*
X103648092Y-83065298D02*
X103457616Y-83017679D01*
X103457616Y-83017679D02*
X103219521Y-83017679D01*
X103219521Y-83017679D02*
X103029045Y-83065298D01*
X103029045Y-83065298D02*
X102933807Y-83112917D01*
X102933807Y-83112917D02*
X102886188Y-83160536D01*
X102886188Y-83160536D02*
X102838569Y-83255774D01*
D10*
X165002023Y-124721169D02*
X165002023Y-125435454D01*
X165002023Y-125435454D02*
X165049642Y-125578311D01*
X165049642Y-125578311D02*
X165144880Y-125673550D01*
X165144880Y-125673550D02*
X165287737Y-125721169D01*
X165287737Y-125721169D02*
X165382975Y-125721169D01*
X164621070Y-124721169D02*
X164002023Y-124721169D01*
X164002023Y-124721169D02*
X164335356Y-125102121D01*
X164335356Y-125102121D02*
X164192499Y-125102121D01*
X164192499Y-125102121D02*
X164097261Y-125149740D01*
X164097261Y-125149740D02*
X164049642Y-125197359D01*
X164049642Y-125197359D02*
X164002023Y-125292597D01*
X164002023Y-125292597D02*
X164002023Y-125530692D01*
X164002023Y-125530692D02*
X164049642Y-125625930D01*
X164049642Y-125625930D02*
X164097261Y-125673550D01*
X164097261Y-125673550D02*
X164192499Y-125721169D01*
X164192499Y-125721169D02*
X164478213Y-125721169D01*
X164478213Y-125721169D02*
X164573451Y-125673550D01*
X164573451Y-125673550D02*
X164621070Y-125625930D01*
X163621070Y-124816407D02*
X163573451Y-124768788D01*
X163573451Y-124768788D02*
X163478213Y-124721169D01*
X163478213Y-124721169D02*
X163240118Y-124721169D01*
X163240118Y-124721169D02*
X163144880Y-124768788D01*
X163144880Y-124768788D02*
X163097261Y-124816407D01*
X163097261Y-124816407D02*
X163049642Y-124911645D01*
X163049642Y-124911645D02*
X163049642Y-125006883D01*
X163049642Y-125006883D02*
X163097261Y-125149740D01*
X163097261Y-125149740D02*
X163668689Y-125721169D01*
X163668689Y-125721169D02*
X163049642Y-125721169D01*
D11*
X227264819Y-99009226D02*
X227979104Y-99009226D01*
X227979104Y-99009226D02*
X228121961Y-98961607D01*
X228121961Y-98961607D02*
X228217200Y-98866369D01*
X228217200Y-98866369D02*
X228264819Y-98723512D01*
X228264819Y-98723512D02*
X228264819Y-98628274D01*
X227360057Y-99437798D02*
X227312438Y-99485417D01*
X227312438Y-99485417D02*
X227264819Y-99580655D01*
X227264819Y-99580655D02*
X227264819Y-99818750D01*
X227264819Y-99818750D02*
X227312438Y-99913988D01*
X227312438Y-99913988D02*
X227360057Y-99961607D01*
X227360057Y-99961607D02*
X227455295Y-100009226D01*
X227455295Y-100009226D02*
X227550533Y-100009226D01*
X227550533Y-100009226D02*
X227693390Y-99961607D01*
X227693390Y-99961607D02*
X228264819Y-99390179D01*
X228264819Y-99390179D02*
X228264819Y-100009226D01*
X227264819Y-100342560D02*
X227264819Y-101009226D01*
X227264819Y-101009226D02*
X228264819Y-100580655D01*
X140918569Y-99016726D02*
X141632854Y-99016726D01*
X141632854Y-99016726D02*
X141775711Y-98969107D01*
X141775711Y-98969107D02*
X141870950Y-98873869D01*
X141870950Y-98873869D02*
X141918569Y-98731012D01*
X141918569Y-98731012D02*
X141918569Y-98635774D01*
X140918569Y-99397679D02*
X140918569Y-100016726D01*
X140918569Y-100016726D02*
X141299521Y-99683393D01*
X141299521Y-99683393D02*
X141299521Y-99826250D01*
X141299521Y-99826250D02*
X141347140Y-99921488D01*
X141347140Y-99921488D02*
X141394759Y-99969107D01*
X141394759Y-99969107D02*
X141489997Y-100016726D01*
X141489997Y-100016726D02*
X141728092Y-100016726D01*
X141728092Y-100016726D02*
X141823330Y-99969107D01*
X141823330Y-99969107D02*
X141870950Y-99921488D01*
X141870950Y-99921488D02*
X141918569Y-99826250D01*
X141918569Y-99826250D02*
X141918569Y-99540536D01*
X141918569Y-99540536D02*
X141870950Y-99445298D01*
X141870950Y-99445298D02*
X141823330Y-99397679D01*
X140918569Y-100350060D02*
X140918569Y-100969107D01*
X140918569Y-100969107D02*
X141299521Y-100635774D01*
X141299521Y-100635774D02*
X141299521Y-100778631D01*
X141299521Y-100778631D02*
X141347140Y-100873869D01*
X141347140Y-100873869D02*
X141394759Y-100921488D01*
X141394759Y-100921488D02*
X141489997Y-100969107D01*
X141489997Y-100969107D02*
X141728092Y-100969107D01*
X141728092Y-100969107D02*
X141823330Y-100921488D01*
X141823330Y-100921488D02*
X141870950Y-100873869D01*
X141870950Y-100873869D02*
X141918569Y-100778631D01*
X141918569Y-100778631D02*
X141918569Y-100492917D01*
X141918569Y-100492917D02*
X141870950Y-100397679D01*
X141870950Y-100397679D02*
X141823330Y-100350060D01*
X103738569Y-99026726D02*
X104452854Y-99026726D01*
X104452854Y-99026726D02*
X104595711Y-98979107D01*
X104595711Y-98979107D02*
X104690950Y-98883869D01*
X104690950Y-98883869D02*
X104738569Y-98741012D01*
X104738569Y-98741012D02*
X104738569Y-98645774D01*
X103738569Y-99407679D02*
X103738569Y-100026726D01*
X103738569Y-100026726D02*
X104119521Y-99693393D01*
X104119521Y-99693393D02*
X104119521Y-99836250D01*
X104119521Y-99836250D02*
X104167140Y-99931488D01*
X104167140Y-99931488D02*
X104214759Y-99979107D01*
X104214759Y-99979107D02*
X104309997Y-100026726D01*
X104309997Y-100026726D02*
X104548092Y-100026726D01*
X104548092Y-100026726D02*
X104643330Y-99979107D01*
X104643330Y-99979107D02*
X104690950Y-99931488D01*
X104690950Y-99931488D02*
X104738569Y-99836250D01*
X104738569Y-99836250D02*
X104738569Y-99550536D01*
X104738569Y-99550536D02*
X104690950Y-99455298D01*
X104690950Y-99455298D02*
X104643330Y-99407679D01*
X103738569Y-100931488D02*
X103738569Y-100455298D01*
X103738569Y-100455298D02*
X104214759Y-100407679D01*
X104214759Y-100407679D02*
X104167140Y-100455298D01*
X104167140Y-100455298D02*
X104119521Y-100550536D01*
X104119521Y-100550536D02*
X104119521Y-100788631D01*
X104119521Y-100788631D02*
X104167140Y-100883869D01*
X104167140Y-100883869D02*
X104214759Y-100931488D01*
X104214759Y-100931488D02*
X104309997Y-100979107D01*
X104309997Y-100979107D02*
X104548092Y-100979107D01*
X104548092Y-100979107D02*
X104643330Y-100931488D01*
X104643330Y-100931488D02*
X104690950Y-100883869D01*
X104690950Y-100883869D02*
X104738569Y-100788631D01*
X104738569Y-100788631D02*
X104738569Y-100550536D01*
X104738569Y-100550536D02*
X104690950Y-100455298D01*
X104690950Y-100455298D02*
X104643330Y-100407679D01*
X80248569Y-81626726D02*
X80962854Y-81626726D01*
X80962854Y-81626726D02*
X81105711Y-81579107D01*
X81105711Y-81579107D02*
X81200950Y-81483869D01*
X81200950Y-81483869D02*
X81248569Y-81341012D01*
X81248569Y-81341012D02*
X81248569Y-81245774D01*
X80248569Y-82007679D02*
X80248569Y-82626726D01*
X80248569Y-82626726D02*
X80629521Y-82293393D01*
X80629521Y-82293393D02*
X80629521Y-82436250D01*
X80629521Y-82436250D02*
X80677140Y-82531488D01*
X80677140Y-82531488D02*
X80724759Y-82579107D01*
X80724759Y-82579107D02*
X80819997Y-82626726D01*
X80819997Y-82626726D02*
X81058092Y-82626726D01*
X81058092Y-82626726D02*
X81153330Y-82579107D01*
X81153330Y-82579107D02*
X81200950Y-82531488D01*
X81200950Y-82531488D02*
X81248569Y-82436250D01*
X81248569Y-82436250D02*
X81248569Y-82150536D01*
X81248569Y-82150536D02*
X81200950Y-82055298D01*
X81200950Y-82055298D02*
X81153330Y-82007679D01*
X80677140Y-83198155D02*
X80629521Y-83102917D01*
X80629521Y-83102917D02*
X80581902Y-83055298D01*
X80581902Y-83055298D02*
X80486664Y-83007679D01*
X80486664Y-83007679D02*
X80439045Y-83007679D01*
X80439045Y-83007679D02*
X80343807Y-83055298D01*
X80343807Y-83055298D02*
X80296188Y-83102917D01*
X80296188Y-83102917D02*
X80248569Y-83198155D01*
X80248569Y-83198155D02*
X80248569Y-83388631D01*
X80248569Y-83388631D02*
X80296188Y-83483869D01*
X80296188Y-83483869D02*
X80343807Y-83531488D01*
X80343807Y-83531488D02*
X80439045Y-83579107D01*
X80439045Y-83579107D02*
X80486664Y-83579107D01*
X80486664Y-83579107D02*
X80581902Y-83531488D01*
X80581902Y-83531488D02*
X80629521Y-83483869D01*
X80629521Y-83483869D02*
X80677140Y-83388631D01*
X80677140Y-83388631D02*
X80677140Y-83198155D01*
X80677140Y-83198155D02*
X80724759Y-83102917D01*
X80724759Y-83102917D02*
X80772378Y-83055298D01*
X80772378Y-83055298D02*
X80867616Y-83007679D01*
X80867616Y-83007679D02*
X81058092Y-83007679D01*
X81058092Y-83007679D02*
X81153330Y-83055298D01*
X81153330Y-83055298D02*
X81200950Y-83102917D01*
X81200950Y-83102917D02*
X81248569Y-83198155D01*
X81248569Y-83198155D02*
X81248569Y-83388631D01*
X81248569Y-83388631D02*
X81200950Y-83483869D01*
X81200950Y-83483869D02*
X81153330Y-83531488D01*
X81153330Y-83531488D02*
X81058092Y-83579107D01*
X81058092Y-83579107D02*
X80867616Y-83579107D01*
X80867616Y-83579107D02*
X80772378Y-83531488D01*
X80772378Y-83531488D02*
X80724759Y-83483869D01*
X80724759Y-83483869D02*
X80677140Y-83388631D01*
D10*
X123733273Y-125441169D02*
X123733273Y-126155454D01*
X123733273Y-126155454D02*
X123780892Y-126298311D01*
X123780892Y-126298311D02*
X123876130Y-126393550D01*
X123876130Y-126393550D02*
X124018987Y-126441169D01*
X124018987Y-126441169D02*
X124114225Y-126441169D01*
X123352320Y-125441169D02*
X122733273Y-125441169D01*
X122733273Y-125441169D02*
X123066606Y-125822121D01*
X123066606Y-125822121D02*
X122923749Y-125822121D01*
X122923749Y-125822121D02*
X122828511Y-125869740D01*
X122828511Y-125869740D02*
X122780892Y-125917359D01*
X122780892Y-125917359D02*
X122733273Y-126012597D01*
X122733273Y-126012597D02*
X122733273Y-126250692D01*
X122733273Y-126250692D02*
X122780892Y-126345930D01*
X122780892Y-126345930D02*
X122828511Y-126393550D01*
X122828511Y-126393550D02*
X122923749Y-126441169D01*
X122923749Y-126441169D02*
X123209463Y-126441169D01*
X123209463Y-126441169D02*
X123304701Y-126393550D01*
X123304701Y-126393550D02*
X123352320Y-126345930D01*
X121876130Y-125774502D02*
X121876130Y-126441169D01*
X122114225Y-125393550D02*
X122352320Y-126107835D01*
X122352320Y-126107835D02*
X121733273Y-126107835D01*
X209709523Y-125441169D02*
X209709523Y-126155454D01*
X209709523Y-126155454D02*
X209757142Y-126298311D01*
X209757142Y-126298311D02*
X209852380Y-126393550D01*
X209852380Y-126393550D02*
X209995237Y-126441169D01*
X209995237Y-126441169D02*
X210090475Y-126441169D01*
X209280951Y-125536407D02*
X209233332Y-125488788D01*
X209233332Y-125488788D02*
X209138094Y-125441169D01*
X209138094Y-125441169D02*
X208899999Y-125441169D01*
X208899999Y-125441169D02*
X208804761Y-125488788D01*
X208804761Y-125488788D02*
X208757142Y-125536407D01*
X208757142Y-125536407D02*
X208709523Y-125631645D01*
X208709523Y-125631645D02*
X208709523Y-125726883D01*
X208709523Y-125726883D02*
X208757142Y-125869740D01*
X208757142Y-125869740D02*
X209328570Y-126441169D01*
X209328570Y-126441169D02*
X208709523Y-126441169D01*
X208233332Y-126441169D02*
X208042856Y-126441169D01*
X208042856Y-126441169D02*
X207947618Y-126393550D01*
X207947618Y-126393550D02*
X207899999Y-126345930D01*
X207899999Y-126345930D02*
X207804761Y-126203073D01*
X207804761Y-126203073D02*
X207757142Y-126012597D01*
X207757142Y-126012597D02*
X207757142Y-125631645D01*
X207757142Y-125631645D02*
X207804761Y-125536407D01*
X207804761Y-125536407D02*
X207852380Y-125488788D01*
X207852380Y-125488788D02*
X207947618Y-125441169D01*
X207947618Y-125441169D02*
X208138094Y-125441169D01*
X208138094Y-125441169D02*
X208233332Y-125488788D01*
X208233332Y-125488788D02*
X208280951Y-125536407D01*
X208280951Y-125536407D02*
X208328570Y-125631645D01*
X208328570Y-125631645D02*
X208328570Y-125869740D01*
X208328570Y-125869740D02*
X208280951Y-125964978D01*
X208280951Y-125964978D02*
X208233332Y-126012597D01*
X208233332Y-126012597D02*
X208138094Y-126060216D01*
X208138094Y-126060216D02*
X207947618Y-126060216D01*
X207947618Y-126060216D02*
X207852380Y-126012597D01*
X207852380Y-126012597D02*
X207804761Y-125964978D01*
X207804761Y-125964978D02*
X207757142Y-125869740D01*
X81182669Y-61001545D02*
X81182669Y-59791545D01*
X81293750Y-64948750D02*
X81293750Y-66108750D01*
X82403750Y-66108750D02*
X81293750Y-66108750D01*
X83893750Y-60998750D02*
X81193750Y-60998750D01*
X83953750Y-59188750D02*
X83953750Y-60998750D01*
X83953750Y-60353750D02*
X93933750Y-60353750D01*
X83953750Y-60998750D02*
X83893750Y-60998750D01*
X83953750Y-64148750D02*
X83953750Y-60998750D01*
X93933750Y-59178750D02*
X93933750Y-61018750D01*
X93933750Y-64148750D02*
X83953750Y-64148750D01*
X93933750Y-64148750D02*
X93933750Y-60998750D01*
X95483750Y-66108750D02*
X96593750Y-66108750D01*
X96093750Y-59178750D02*
X81763750Y-59178750D01*
X96593750Y-64948750D02*
X96593750Y-66108750D01*
X96683750Y-60998750D02*
X93933750Y-60998750D01*
X96696545Y-59759831D02*
X96696545Y-60998750D01*
X81182669Y-59791545D02*
G75*
G02*
X81763750Y-59178750I595998J16748D01*
G01*
X96083750Y-59178750D02*
G75*
G02*
X96696503Y-59759832I16800J-595900D01*
G01*
D12*
X148323750Y-97186250D02*
X148323750Y-102386250D01*
X148323750Y-97186250D02*
X148893750Y-97186250D01*
X148323750Y-102386250D02*
X148893750Y-102386250D01*
X150413750Y-97186250D02*
X151433750Y-97186250D01*
X150413750Y-102386250D02*
X151433750Y-102386250D01*
X152953750Y-97186250D02*
X153973750Y-97186250D01*
X152953750Y-102386250D02*
X153973750Y-102386250D01*
X155493750Y-97186250D02*
X156513750Y-97186250D01*
X155493750Y-102386250D02*
X156513750Y-102386250D01*
X158033750Y-97186250D02*
X159053750Y-97186250D01*
X158033750Y-102386250D02*
X159053750Y-102386250D01*
X160573750Y-97186250D02*
X161593750Y-97186250D01*
X160573750Y-102386250D02*
X161593750Y-102386250D01*
X163113750Y-97186250D02*
X164133750Y-97186250D01*
X163113750Y-102386250D02*
X164133750Y-102386250D01*
X165653750Y-97186250D02*
X166673750Y-97186250D01*
X165653750Y-102386250D02*
X166673750Y-102386250D01*
X168193750Y-97186250D02*
X169213750Y-97186250D01*
X168193750Y-102386250D02*
X169213750Y-102386250D01*
X170733750Y-97186250D02*
X171753750Y-97186250D01*
X170733750Y-102386250D02*
X171753750Y-102386250D01*
X173273750Y-97186250D02*
X174293750Y-97186250D01*
X173273750Y-102386250D02*
X174293750Y-102386250D01*
X175813750Y-97186250D02*
X176833750Y-97186250D01*
X175813750Y-102386250D02*
X176833750Y-102386250D01*
X178353750Y-97186250D02*
X179373750Y-97186250D01*
X178353750Y-102386250D02*
X179373750Y-102386250D01*
X180893750Y-97186250D02*
X181463750Y-97186250D01*
X180893750Y-102386250D02*
X180893750Y-103826250D01*
X180893750Y-102386250D02*
X181463750Y-102386250D01*
X181463750Y-97186250D02*
X181463750Y-102386250D01*
D10*
X104652669Y-61001545D02*
X104652669Y-59791545D01*
X104763750Y-64948750D02*
X104763750Y-66108750D01*
X105873750Y-66108750D02*
X104763750Y-66108750D01*
X107363750Y-60998750D02*
X104663750Y-60998750D01*
X107423750Y-59188750D02*
X107423750Y-60998750D01*
X107423750Y-60353750D02*
X122393750Y-60353750D01*
X107423750Y-60998750D02*
X107363750Y-60998750D01*
X107423750Y-64148750D02*
X107423750Y-60998750D01*
X122403750Y-59178750D02*
X122403750Y-61018750D01*
X122403750Y-64148750D02*
X107423750Y-64148750D01*
X122403750Y-64148750D02*
X122403750Y-60998750D01*
X123953750Y-66108750D02*
X125063750Y-66108750D01*
X124583750Y-59178750D02*
X105233750Y-59178750D01*
X125063750Y-64948750D02*
X125063750Y-66108750D01*
X125153750Y-60998750D02*
X122403750Y-60998750D01*
X125166545Y-59759831D02*
X125166545Y-60998750D01*
X104652669Y-59791545D02*
G75*
G02*
X105233750Y-59178750I595998J16748D01*
G01*
X124553750Y-59178750D02*
G75*
G02*
X125166600Y-59759830I16800J-596000D01*
G01*
X77100955Y-123592669D02*
X77100955Y-122353750D01*
X77113750Y-122353750D02*
X79863750Y-122353750D01*
X77203750Y-118403750D02*
X77203750Y-117243750D01*
X77713750Y-124173750D02*
X102033750Y-124173750D01*
X78313750Y-117243750D02*
X77203750Y-117243750D01*
X79863750Y-119203750D02*
X79863750Y-122353750D01*
X79863750Y-119203750D02*
X99843750Y-119203750D01*
X79863750Y-124173750D02*
X79863750Y-122333750D01*
X99843750Y-119203750D02*
X99843750Y-122353750D01*
X99843750Y-122353750D02*
X99903750Y-122353750D01*
X99843750Y-122998750D02*
X79863750Y-122998750D01*
X99843750Y-124163750D02*
X99843750Y-122353750D01*
X99903750Y-122353750D02*
X102603750Y-122353750D01*
X101393750Y-117243750D02*
X102503750Y-117243750D01*
X102503750Y-118403750D02*
X102503750Y-117243750D01*
X102614831Y-122350955D02*
X102614831Y-123560955D01*
X77713750Y-124173750D02*
G75*
G02*
X77101003Y-123592668I-16700J596000D01*
G01*
X102614831Y-123560955D02*
G75*
G02*
X102033750Y-124173750I-595998J-16748D01*
G01*
D12*
X104383750Y-85046250D02*
X104383750Y-79846250D01*
X104953750Y-79846250D02*
X104383750Y-79846250D01*
X104953750Y-79846250D02*
X104953750Y-78406250D01*
X104953750Y-85046250D02*
X104383750Y-85046250D01*
X107493750Y-79846250D02*
X106473750Y-79846250D01*
X107493750Y-85046250D02*
X106473750Y-85046250D01*
X110033750Y-79846250D02*
X109013750Y-79846250D01*
X110033750Y-85046250D02*
X109013750Y-85046250D01*
X112573750Y-79846250D02*
X111553750Y-79846250D01*
X112573750Y-85046250D02*
X111553750Y-85046250D01*
X115113750Y-79846250D02*
X114093750Y-79846250D01*
X115113750Y-85046250D02*
X114093750Y-85046250D01*
X117653750Y-79846250D02*
X116633750Y-79846250D01*
X117653750Y-85046250D02*
X116633750Y-85046250D01*
X120193750Y-79846250D02*
X119173750Y-79846250D01*
X120193750Y-85046250D02*
X119173750Y-85046250D01*
X122733750Y-79846250D02*
X121713750Y-79846250D01*
X122733750Y-85046250D02*
X121713750Y-85046250D01*
X124823750Y-79846250D02*
X124253750Y-79846250D01*
X124823750Y-85046250D02*
X124253750Y-85046250D01*
X124823750Y-85046250D02*
X124823750Y-79846250D01*
D10*
X149319705Y-123592669D02*
X149319705Y-122353750D01*
X149332500Y-122353750D02*
X152082500Y-122353750D01*
X149422500Y-118403750D02*
X149422500Y-117243750D01*
X149912500Y-124173750D02*
X180252500Y-124173750D01*
X150532500Y-117243750D02*
X149422500Y-117243750D01*
X152082500Y-119203750D02*
X152082500Y-122353750D01*
X152082500Y-119203750D02*
X178062500Y-119203750D01*
X152082500Y-124173750D02*
X152082500Y-122333750D01*
X178062500Y-119203750D02*
X178062500Y-122353750D01*
X178062500Y-122353750D02*
X178122500Y-122353750D01*
X178062500Y-122998750D02*
X152082500Y-122998750D01*
X178062500Y-124163750D02*
X178062500Y-122353750D01*
X178122500Y-122353750D02*
X180822500Y-122353750D01*
X179612500Y-117243750D02*
X180722500Y-117243750D01*
X180722500Y-118403750D02*
X180722500Y-117243750D01*
X180833581Y-122350955D02*
X180833581Y-123560955D01*
X149932500Y-124173750D02*
G75*
G02*
X149319650Y-123592670I-16800J596000D01*
G01*
X180833581Y-123560955D02*
G75*
G02*
X180252500Y-124173750I-595998J-16748D01*
G01*
D12*
X188590000Y-97218750D02*
X188590000Y-102418750D01*
X188590000Y-97218750D02*
X189160000Y-97218750D01*
X188590000Y-102418750D02*
X189160000Y-102418750D01*
X190680000Y-97218750D02*
X191700000Y-97218750D01*
X190680000Y-102418750D02*
X191700000Y-102418750D01*
X193220000Y-97218750D02*
X194240000Y-97218750D01*
X193220000Y-102418750D02*
X194240000Y-102418750D01*
X195760000Y-97218750D02*
X196780000Y-97218750D01*
X195760000Y-102418750D02*
X196780000Y-102418750D01*
X198300000Y-97218750D02*
X199320000Y-97218750D01*
X198300000Y-102418750D02*
X199320000Y-102418750D01*
X200840000Y-97218750D02*
X201860000Y-97218750D01*
X200840000Y-102418750D02*
X201860000Y-102418750D01*
X203380000Y-97218750D02*
X204400000Y-97218750D01*
X203380000Y-102418750D02*
X204400000Y-102418750D01*
X205920000Y-97218750D02*
X206940000Y-97218750D01*
X205920000Y-102418750D02*
X206940000Y-102418750D01*
X208460000Y-97218750D02*
X209480000Y-97218750D01*
X208460000Y-102418750D02*
X209480000Y-102418750D01*
X211000000Y-97218750D02*
X212020000Y-97218750D01*
X211000000Y-102418750D02*
X212020000Y-102418750D01*
X213540000Y-97218750D02*
X214560000Y-97218750D01*
X213540000Y-102418750D02*
X214560000Y-102418750D01*
X216080000Y-97218750D02*
X217100000Y-97218750D01*
X216080000Y-102418750D02*
X217100000Y-102418750D01*
X218620000Y-97218750D02*
X219640000Y-97218750D01*
X218620000Y-102418750D02*
X219640000Y-102418750D01*
X221160000Y-97218750D02*
X222180000Y-97218750D01*
X221160000Y-102418750D02*
X222180000Y-102418750D01*
X223700000Y-97218750D02*
X224720000Y-97218750D01*
X223700000Y-102418750D02*
X224720000Y-102418750D01*
X226240000Y-97218750D02*
X226810000Y-97218750D01*
X226240000Y-102418750D02*
X226240000Y-103858750D01*
X226240000Y-102418750D02*
X226810000Y-102418750D01*
X226810000Y-97218750D02*
X226810000Y-102418750D01*
X112403750Y-97226250D02*
X112403750Y-102426250D01*
X112403750Y-97226250D02*
X112973750Y-97226250D01*
X112403750Y-102426250D02*
X112973750Y-102426250D01*
X114493750Y-97226250D02*
X115513750Y-97226250D01*
X114493750Y-102426250D02*
X115513750Y-102426250D01*
X117033750Y-97226250D02*
X118053750Y-97226250D01*
X117033750Y-102426250D02*
X118053750Y-102426250D01*
X119573750Y-97226250D02*
X120593750Y-97226250D01*
X119573750Y-102426250D02*
X120593750Y-102426250D01*
X122113750Y-97226250D02*
X123133750Y-97226250D01*
X122113750Y-102426250D02*
X123133750Y-102426250D01*
X124653750Y-97226250D02*
X125673750Y-97226250D01*
X124653750Y-102426250D02*
X125673750Y-102426250D01*
X127193750Y-97226250D02*
X128213750Y-97226250D01*
X127193750Y-102426250D02*
X128213750Y-102426250D01*
X129733750Y-97226250D02*
X130753750Y-97226250D01*
X129733750Y-102426250D02*
X130753750Y-102426250D01*
X132273750Y-97226250D02*
X133293750Y-97226250D01*
X132273750Y-102426250D02*
X133293750Y-102426250D01*
X134813750Y-97226250D02*
X135833750Y-97226250D01*
X134813750Y-102426250D02*
X135833750Y-102426250D01*
X137353750Y-97226250D02*
X138373750Y-97226250D01*
X137353750Y-102426250D02*
X138373750Y-102426250D01*
X139893750Y-97226250D02*
X140463750Y-97226250D01*
X139893750Y-102426250D02*
X139893750Y-103866250D01*
X139893750Y-102426250D02*
X140463750Y-102426250D01*
X140463750Y-97226250D02*
X140463750Y-102426250D01*
X77763750Y-97236250D02*
X77763750Y-102436250D01*
X77763750Y-97236250D02*
X78333750Y-97236250D01*
X77763750Y-102436250D02*
X78333750Y-102436250D01*
X79853750Y-97236250D02*
X80873750Y-97236250D01*
X79853750Y-102436250D02*
X80873750Y-102436250D01*
X82393750Y-97236250D02*
X83413750Y-97236250D01*
X82393750Y-102436250D02*
X83413750Y-102436250D01*
X84933750Y-97236250D02*
X85953750Y-97236250D01*
X84933750Y-102436250D02*
X85953750Y-102436250D01*
X87473750Y-97236250D02*
X88493750Y-97236250D01*
X87473750Y-102436250D02*
X88493750Y-102436250D01*
X90013750Y-97236250D02*
X91033750Y-97236250D01*
X90013750Y-102436250D02*
X91033750Y-102436250D01*
X92553750Y-97236250D02*
X93573750Y-97236250D01*
X92553750Y-102436250D02*
X93573750Y-102436250D01*
X95093750Y-97236250D02*
X96113750Y-97236250D01*
X95093750Y-102436250D02*
X96113750Y-102436250D01*
X97633750Y-97236250D02*
X98653750Y-97236250D01*
X97633750Y-102436250D02*
X98653750Y-102436250D01*
X100173750Y-97236250D02*
X101193750Y-97236250D01*
X100173750Y-102436250D02*
X101193750Y-102436250D01*
X102713750Y-97236250D02*
X103283750Y-97236250D01*
X102713750Y-102436250D02*
X102713750Y-103876250D01*
X102713750Y-102436250D02*
X103283750Y-102436250D01*
X103283750Y-97236250D02*
X103283750Y-102436250D01*
X81793750Y-85036250D02*
X81793750Y-79836250D01*
X82363750Y-79836250D02*
X81793750Y-79836250D01*
X82363750Y-79836250D02*
X82363750Y-78396250D01*
X82363750Y-85036250D02*
X81793750Y-85036250D01*
X84903750Y-79836250D02*
X83883750Y-79836250D01*
X84903750Y-85036250D02*
X83883750Y-85036250D01*
X87443750Y-79836250D02*
X86423750Y-79836250D01*
X87443750Y-85036250D02*
X86423750Y-85036250D01*
X89983750Y-79836250D02*
X88963750Y-79836250D01*
X89983750Y-85036250D02*
X88963750Y-85036250D01*
X92523750Y-79836250D02*
X91503750Y-79836250D01*
X92523750Y-85036250D02*
X91503750Y-85036250D01*
X94613750Y-79836250D02*
X94043750Y-79836250D01*
X94613750Y-85036250D02*
X94043750Y-85036250D01*
X94613750Y-85036250D02*
X94613750Y-79836250D01*
D10*
X111830955Y-123592669D02*
X111830955Y-122353750D01*
X111843750Y-122353750D02*
X114593750Y-122353750D01*
X111933750Y-118403750D02*
X111933750Y-117243750D01*
X112423750Y-124173750D02*
X138763750Y-124173750D01*
X113043750Y-117243750D02*
X111933750Y-117243750D01*
X114593750Y-119203750D02*
X114593750Y-122353750D01*
X114593750Y-119203750D02*
X136573750Y-119203750D01*
X114593750Y-124173750D02*
X114593750Y-122333750D01*
X136573750Y-119203750D02*
X136573750Y-122353750D01*
X136573750Y-122353750D02*
X136633750Y-122353750D01*
X136573750Y-122998750D02*
X114603750Y-122998750D01*
X136573750Y-124163750D02*
X136573750Y-122353750D01*
X136633750Y-122353750D02*
X139333750Y-122353750D01*
X138123750Y-117243750D02*
X139233750Y-117243750D01*
X139233750Y-118403750D02*
X139233750Y-117243750D01*
X139344831Y-122350955D02*
X139344831Y-123560955D01*
X112443750Y-124173750D02*
G75*
G02*
X111830900Y-123592670I-16800J596000D01*
G01*
X139344831Y-123560955D02*
G75*
G02*
X138763750Y-124173750I-595998J-16748D01*
G01*
X189807205Y-123592669D02*
X189807205Y-122353750D01*
X189820000Y-122353750D02*
X192570000Y-122353750D01*
X189910000Y-118403750D02*
X189910000Y-117243750D01*
X190410000Y-124173750D02*
X224740000Y-124173750D01*
X191020000Y-117243750D02*
X189910000Y-117243750D01*
X192570000Y-119203750D02*
X192570000Y-122353750D01*
X192570000Y-119203750D02*
X222550000Y-119203750D01*
X192570000Y-124173750D02*
X192570000Y-122333750D01*
X222550000Y-119203750D02*
X222550000Y-122353750D01*
X222550000Y-122353750D02*
X222610000Y-122353750D01*
X222550000Y-122998750D02*
X192570000Y-122998750D01*
X222550000Y-124163750D02*
X222550000Y-122353750D01*
X222610000Y-122353750D02*
X225310000Y-122353750D01*
X224100000Y-117243750D02*
X225210000Y-117243750D01*
X225210000Y-118403750D02*
X225210000Y-117243750D01*
X225321081Y-122350955D02*
X225321081Y-123560955D01*
X190420000Y-124173750D02*
G75*
G02*
X189807200Y-123592669I-16780J595970D01*
G01*
X225321081Y-123560955D02*
G75*
G02*
X224740000Y-124173750I-595998J-16748D01*
G01*
%LPC*%
D13*
X39308750Y-59001250D03*
X35498750Y-59001250D03*
D14*
X237338750Y-108503750D03*
D15*
X234798750Y-108503750D03*
X237338750Y-105963750D03*
X234798750Y-105963750D03*
X237338750Y-103423750D03*
X234798750Y-103423750D03*
X237338750Y-100883750D03*
X234798750Y-100883750D03*
X237338750Y-98343750D03*
X234798750Y-98343750D03*
X237338750Y-95803750D03*
X234798750Y-95803750D03*
X237338750Y-93263750D03*
X234798750Y-93263750D03*
X237338750Y-90723750D03*
X234798750Y-90723750D03*
X237338750Y-88183750D03*
X234798750Y-88183750D03*
X237338750Y-85643750D03*
X234798750Y-85643750D03*
X237338750Y-83103750D03*
X234798750Y-83103750D03*
X237338750Y-80563750D03*
X234798750Y-80563750D03*
X237338750Y-78023750D03*
X234798750Y-78023750D03*
X237338750Y-75483750D03*
X234798750Y-75483750D03*
X237338750Y-72943750D03*
X234798750Y-72943750D03*
D14*
X40046250Y-81738750D03*
D15*
X40046250Y-84278750D03*
X40046250Y-86818750D03*
X40046250Y-89358750D03*
X40046250Y-91898750D03*
X40046250Y-94438750D03*
X40046250Y-96978750D03*
X40046250Y-99518750D03*
X40046250Y-102058750D03*
X40046250Y-104598750D03*
D16*
X84443750Y-65148750D03*
X85443750Y-65148750D03*
X86443750Y-65148750D03*
X87443750Y-65148750D03*
X88443750Y-65148750D03*
X89443750Y-65148750D03*
X90443750Y-65148750D03*
X91443750Y-65148750D03*
X92443750Y-65148750D03*
X93443750Y-65148750D03*
D17*
X82093750Y-62978750D03*
X95793750Y-62978750D03*
D18*
X180133750Y-102311250D03*
X180133750Y-97261250D03*
X177593750Y-102311250D03*
X177593750Y-97261250D03*
X175053750Y-102311250D03*
X175053750Y-97261250D03*
X172513750Y-102311250D03*
X172513750Y-97261250D03*
X169973750Y-102311250D03*
X169973750Y-97261250D03*
X167433750Y-102311250D03*
X167433750Y-97261250D03*
X164893750Y-102311250D03*
X164893750Y-97261250D03*
X162353750Y-102311250D03*
X162353750Y-97261250D03*
X159813750Y-102311250D03*
X159813750Y-97261250D03*
X157273750Y-102311250D03*
X157273750Y-97261250D03*
X154733750Y-102311250D03*
X154733750Y-97261250D03*
X152193750Y-102311250D03*
X152193750Y-97261250D03*
X149653750Y-102311250D03*
X149653750Y-97261250D03*
D16*
X107913750Y-65148750D03*
X108913750Y-65148750D03*
X109913750Y-65148750D03*
X110913750Y-65148750D03*
X111913750Y-65148750D03*
X112913750Y-65148750D03*
X113913750Y-65148750D03*
X114913750Y-65148750D03*
X115913750Y-65148750D03*
X116913750Y-65148750D03*
X117913750Y-65148750D03*
X118913750Y-65148750D03*
X119913750Y-65148750D03*
X120913750Y-65148750D03*
X121913750Y-65148750D03*
D17*
X105563750Y-62978750D03*
X124263750Y-62978750D03*
D16*
X99353750Y-118203750D03*
X98353750Y-118203750D03*
X97353750Y-118203750D03*
X96353750Y-118203750D03*
X95353750Y-118203750D03*
X94353750Y-118203750D03*
X93353750Y-118203750D03*
X92353750Y-118203750D03*
X91353750Y-118203750D03*
X90353750Y-118203750D03*
X89353750Y-118203750D03*
X88353750Y-118203750D03*
X87353750Y-118203750D03*
X86353750Y-118203750D03*
X85353750Y-118203750D03*
X84353750Y-118203750D03*
X83353750Y-118203750D03*
X82353750Y-118203750D03*
X81353750Y-118203750D03*
X80353750Y-118203750D03*
D17*
X101703750Y-120373750D03*
X78003750Y-120373750D03*
D18*
X105713750Y-79921250D03*
X105713750Y-84971250D03*
X108253750Y-79921250D03*
X108253750Y-84971250D03*
X110793750Y-79921250D03*
X110793750Y-84971250D03*
X113333750Y-79921250D03*
X113333750Y-84971250D03*
X115873750Y-79921250D03*
X115873750Y-84971250D03*
X118413750Y-79921250D03*
X118413750Y-84971250D03*
X120953750Y-79921250D03*
X120953750Y-84971250D03*
X123493750Y-79921250D03*
X123493750Y-84971250D03*
D16*
X177572500Y-118203750D03*
X176572500Y-118203750D03*
X175572500Y-118203750D03*
X174572500Y-118203750D03*
X173572500Y-118203750D03*
X172572500Y-118203750D03*
X171572500Y-118203750D03*
X170572500Y-118203750D03*
X169572500Y-118203750D03*
X168572500Y-118203750D03*
X167572500Y-118203750D03*
X166572500Y-118203750D03*
X165572500Y-118203750D03*
X164572500Y-118203750D03*
X163572500Y-118203750D03*
X162572500Y-118203750D03*
X161572500Y-118203750D03*
X160572500Y-118203750D03*
X159572500Y-118203750D03*
X158572500Y-118203750D03*
X157572500Y-118203750D03*
X156572500Y-118203750D03*
X155572500Y-118203750D03*
X154572500Y-118203750D03*
X153572500Y-118203750D03*
X152572500Y-118203750D03*
D17*
X179922500Y-120373750D03*
X150222500Y-120373750D03*
D18*
X225480000Y-102343750D03*
X225480000Y-97293750D03*
X222940000Y-102343750D03*
X222940000Y-97293750D03*
X220400000Y-102343750D03*
X220400000Y-97293750D03*
X217860000Y-102343750D03*
X217860000Y-97293750D03*
X215320000Y-102343750D03*
X215320000Y-97293750D03*
X212780000Y-102343750D03*
X212780000Y-97293750D03*
X210240000Y-102343750D03*
X210240000Y-97293750D03*
X207700000Y-102343750D03*
X207700000Y-97293750D03*
X205160000Y-102343750D03*
X205160000Y-97293750D03*
X202620000Y-102343750D03*
X202620000Y-97293750D03*
X200080000Y-102343750D03*
X200080000Y-97293750D03*
X197540000Y-102343750D03*
X197540000Y-97293750D03*
X195000000Y-102343750D03*
X195000000Y-97293750D03*
X192460000Y-102343750D03*
X192460000Y-97293750D03*
X189920000Y-102343750D03*
X189920000Y-97293750D03*
X139133750Y-102351250D03*
X139133750Y-97301250D03*
X136593750Y-102351250D03*
X136593750Y-97301250D03*
X134053750Y-102351250D03*
X134053750Y-97301250D03*
X131513750Y-102351250D03*
X131513750Y-97301250D03*
X128973750Y-102351250D03*
X128973750Y-97301250D03*
X126433750Y-102351250D03*
X126433750Y-97301250D03*
X123893750Y-102351250D03*
X123893750Y-97301250D03*
X121353750Y-102351250D03*
X121353750Y-97301250D03*
X118813750Y-102351250D03*
X118813750Y-97301250D03*
X116273750Y-102351250D03*
X116273750Y-97301250D03*
X113733750Y-102351250D03*
X113733750Y-97301250D03*
X101953750Y-102361250D03*
X101953750Y-97311250D03*
X99413750Y-102361250D03*
X99413750Y-97311250D03*
X96873750Y-102361250D03*
X96873750Y-97311250D03*
X94333750Y-102361250D03*
X94333750Y-97311250D03*
X91793750Y-102361250D03*
X91793750Y-97311250D03*
X89253750Y-102361250D03*
X89253750Y-97311250D03*
X86713750Y-102361250D03*
X86713750Y-97311250D03*
X84173750Y-102361250D03*
X84173750Y-97311250D03*
X81633750Y-102361250D03*
X81633750Y-97311250D03*
X79093750Y-102361250D03*
X79093750Y-97311250D03*
X83123750Y-79911250D03*
X83123750Y-84961250D03*
X85663750Y-79911250D03*
X85663750Y-84961250D03*
X88203750Y-79911250D03*
X88203750Y-84961250D03*
X90743750Y-79911250D03*
X90743750Y-84961250D03*
X93283750Y-79911250D03*
X93283750Y-84961250D03*
D16*
X136083750Y-118203750D03*
X135083750Y-118203750D03*
X134083750Y-118203750D03*
X133083750Y-118203750D03*
X132083750Y-118203750D03*
X131083750Y-118203750D03*
X130083750Y-118203750D03*
X129083750Y-118203750D03*
X128083750Y-118203750D03*
X127083750Y-118203750D03*
X126083750Y-118203750D03*
X125083750Y-118203750D03*
X124083750Y-118203750D03*
X123083750Y-118203750D03*
X122083750Y-118203750D03*
X121083750Y-118203750D03*
X120083750Y-118203750D03*
X119083750Y-118203750D03*
X118083750Y-118203750D03*
X117083750Y-118203750D03*
X116083750Y-118203750D03*
X115083750Y-118203750D03*
D17*
X138433750Y-120373750D03*
X112733750Y-120373750D03*
D16*
X222060000Y-118203750D03*
X221060000Y-118203750D03*
X220060000Y-118203750D03*
X219060000Y-118203750D03*
X218060000Y-118203750D03*
X217060000Y-118203750D03*
X216060000Y-118203750D03*
X215060000Y-118203750D03*
X214060000Y-118203750D03*
X213060000Y-118203750D03*
X212060000Y-118203750D03*
X211060000Y-118203750D03*
X210060000Y-118203750D03*
X209060000Y-118203750D03*
X208060000Y-118203750D03*
X207060000Y-118203750D03*
X206060000Y-118203750D03*
X205060000Y-118203750D03*
X204060000Y-118203750D03*
X203060000Y-118203750D03*
X202060000Y-118203750D03*
X201060000Y-118203750D03*
X200060000Y-118203750D03*
X199060000Y-118203750D03*
X198060000Y-118203750D03*
X197060000Y-118203750D03*
X196060000Y-118203750D03*
X195060000Y-118203750D03*
X194060000Y-118203750D03*
X193060000Y-118203750D03*
D17*
X224410000Y-120373750D03*
X190710000Y-120373750D03*
%LPD*%
M02*
